<?xml version="1.0" encoding="UTF-8" standalone="no"?>
<!-- icon666.com - MILLIONS vector ICONS FREE -->

<svg
   id="svg1787"
   viewBox="0 0 1935.1182 2267.7166"
   version="1.1"
   sodipodi:docname="access_keys_red.svg"
   xml:space="preserve"
   width="512mm"
   height="600mm"
   inkscape:version="1.3.2 (091e20e, 2023-11-25, custom)"
   xmlns:inkscape="http://www.inkscape.org/namespaces/inkscape"
   xmlns:sodipodi="http://sodipodi.sourceforge.net/DTD/sodipodi-0.dtd"
   xmlns="http://www.w3.org/2000/svg"
   xmlns:svg="http://www.w3.org/2000/svg"><defs
     id="defs1" /><sodipodi:namedview
     id="namedview1"
     pagecolor="#ffffff"
     bordercolor="#000000"
     borderopacity="0.25"
     inkscape:showpageshadow="2"
     inkscape:pageopacity="0.0"
     inkscape:pagecheckerboard="0"
     inkscape:deskcolor="#d1d1d1"
     inkscape:zoom="0.125"
     inkscape:cx="-616"
     inkscape:cy="860"
     inkscape:window-width="1920"
     inkscape:window-height="1009"
     inkscape:window-x="-8"
     inkscape:window-y="-8"
     inkscape:window-maximized="1"
     inkscape:current-layer="layer1"
     inkscape:document-units="mm" /><g
     id="layer1"
     transform="translate(0,-288.533)"><path
       id="rect4829-4"
       style="fill:#ff0000;fill-opacity:1;stroke-width:247.959"
       d="m 895.53776,1275.9887 c -188.21138,0.4953 -787.46606,149.299 -787.46606,438.7722 v 217.4484 c 0,145.3837 117.10504,262.4902 262.4887,262.4902 h 992.6941 c 0,0 0.3472,-99.836 0,-141.414 -40.503,0 -103.9086,-42.0638 -150.9994,-92.7864 -62.4835,-67.3038 -78.0237,-146.0285 -82.7216,-244.3991 -0.6075,-102.276 35.9206,-186.7137 95.1325,-255.9491 40.2606,-47.0752 104.9885,-71.0157 129.6499,-85.2188 -78.1066,-28.6171 -161.8974,-57.1424 -237.9536,-69.6495 -127.7328,-21.0022 -159.47064,-29.4824 -220.82454,-29.2939 z"
       sodipodi:nodetypes="csssccscscsc" /><path
       id="path4869-3"
       d="M 1264.4758,726.87175 A 369.14751,369.14751 0 0 1 895.33099,1096.0219 369.14751,369.14751 0 0 1 526.18355,726.87175 369.14751,369.14751 0 0 1 895.33099,357.72411 369.14751,369.14751 0 0 1 1264.4758,726.87175 Z"
       fill="#75b5ff"
       style="fill:#ff0000;fill-opacity:1;stroke-width:247.959" /><g
       id="g1"
       transform="matrix(1.8611613,0,0,1.8611613,2451.7813,804.26243)"
       style="fill:#ececec;fill-opacity:1"><path
         d="m -465.7733,336.32296 c -84.73383,0 -153.66208,68.92825 -153.66208,153.66208 0,50.80409 25.92678,99.76197 68.29426,128.22246 v 248.53418 c 0,5.5694 2.71811,10.80416 7.28586,13.98895 l 48.82014,35.28536 c 2.93438,2.05111 6.35251,3.08462 9.78771,3.08462 3.18479,0 6.36958,-0.88327 9.17078,-2.66802 l 53.62124,-35.28537 c 4.36855,-2.78413 7.23577,-7.4031 7.80261,-12.53883 0.56685,-5.15166 -1.23385,-10.27031 -4.90239,-13.93885 l -22.07498,-22.07498 22.07612,-22.07612 c 6.66894,-6.66894 6.66894,-17.47423 0,-24.14316 l -22.07612,-22.07498 22.07612,-22.07612 c 6.66894,-6.66893 6.66894,-17.47422 0,-24.14316 l -17.38999,-17.38999 47.10255,-23.55924 c 5.78452,-2.90137 9.43599,-8.80313 9.43599,-15.27287 V 618.2075 c 42.36748,-28.46163 68.29425,-77.4195 68.29425,-128.22246 0,-84.73383 -68.92825,-153.66208 -153.66207,-153.66208 z m 0,170.73564 c -28.24423,0 -51.2207,-22.97646 -51.2207,-51.22069 0,-28.24423 22.97647,-51.22069 51.2207,-51.22069 28.24422,0 51.22069,22.97646 51.22069,51.22069 0,28.24423 -22.97647,51.22069 -51.22069,51.22069 z"
         id="path1"
         style="fill:#ececec;fill-opacity:1;stroke-width:1.13824" /></g></g></svg>
