<?xml version="1.0" encoding="UTF-8" standalone="no"?>
<!-- Created with Inkscape (http://www.inkscape.org/) -->

<svg
   width="26mm"
   height="24mm"
   viewBox="0 0 26 24"
   version="1.1"
   id="svg1"
   xml:space="preserve"
   inkscape:version="1.4.2 (f4327f4, 2025-05-13)"
   sodipodi:docname="add_favorite.svg"
   xmlns:inkscape="http://www.inkscape.org/namespaces/inkscape"
   xmlns:sodipodi="http://sodipodi.sourceforge.net/DTD/sodipodi-0.dtd"
   xmlns="http://www.w3.org/2000/svg"
   xmlns:svg="http://www.w3.org/2000/svg"><sodipodi:namedview
     id="namedview1"
     pagecolor="#ffffff"
     bordercolor="#000000"
     borderopacity="0.25"
     inkscape:showpageshadow="2"
     inkscape:pageopacity="0.0"
     inkscape:pagecheckerboard="0"
     inkscape:deskcolor="#d1d1d1"
     inkscape:document-units="mm"
     showguides="true"
     inkscape:zoom="5.7513468"
     inkscape:cx="67.549396"
     inkscape:cy="33.818166"
     inkscape:window-width="1920"
     inkscape:window-height="1009"
     inkscape:window-x="-8"
     inkscape:window-y="-8"
     inkscape:window-maximized="1"
     inkscape:current-layer="g7" /><defs
     id="defs1" /><g
     inkscape:label="Слой 1"
     inkscape:groupmode="layer"
     id="layer1"><rect
       style="fill:#25d336;fill-opacity:1;stroke:#000000;stroke-width:0.65;stroke-dasharray:none;stroke-opacity:1"
       id="rect1-7"
       width="13.206994"
       height="17.175596"
       x="7.8988385"
       y="0.49336159"
       ry="2.472245"
       transform="rotate(13.738489)" /><path
       style="fill:#afe966;fill-opacity:1;stroke:#000000;stroke-width:0.6;stroke-dasharray:none;stroke-opacity:1"
       d="m 20.127155,16.817022 c 0,0 -1.080238,-0.849333 -3.069731,-2.552373 -2.155703,-1.845307 -2.481296,-4.5065108 -0.275947,-5.5531173 2.035012,-0.9657586 3.345678,1.2071977 3.345678,1.2071977 0,0 1.310665,-2.1729563 3.345677,-1.2071977 2.205377,1.0466334 1.879756,3.7078403 -0.275947,5.5531173 -1.989521,1.70304 -3.06973,2.552373 -3.06973,2.552373 z"
       id="path2" /><g
       id="g7"
       transform="rotate(-6.824683,8.2432823,11.450398)"><rect
         style="fill:#e6ffda;fill-opacity:1;stroke:#000000;stroke-width:0.631668;stroke-dasharray:none;stroke-opacity:1"
         id="rect1"
         width="12.469744"
         height="17.179449"
         x="2.4387641"
         y="2.8732033"
         ry="2.4727995"
         transform="matrix(0.99997402,-0.00720769,-0.00680381,0.99997685,0,0)" /><path
         d="m 9.0678353,4.2256865 c -1.9066284,0 -3.4728139,1.7072853 -3.4434172,3.4941739 0.013596,0.8264472 0.3284485,1.6670535 1.0131544,2.3517596 0.7006572,0.700657 1.5622123,1.019086 2.4073205,1.019086 1.849459,0 3.460028,-1.5696727 3.460028,-3.3692034 -0.0021,-1.8973597 -1.539725,-3.4936694 -3.4370857,-3.4958161 z m 0,0.3083738 c 1.7320317,-0.00259 3.0823657,1.5583477 3.0823657,3.187287 0,0.5570095 -0.281584,1.2343902 -0.63676,1.7390609 C 10.865819,8.8147474 9.9822877,8.3798548 9.0678353,8.3716037 8.153383,8.3798548 7.2490467,8.835975 6.6014253,9.4816359 6.246316,8.9770607 5.9640655,8.2828832 5.9640655,7.7259752 c 0,-1.6106413 1.4204066,-3.1944347 3.1037698,-3.1919149 z M 9.0392821,10.76293 C 8.2311266,10.754795 7.4062965,10.326059 6.841996,9.7474857 7.4061649,9.1687209 8.259632,8.7235762 9.0678353,8.715669 9.8760277,8.723627 10.735123,9.15491 11.299322,9.733632 10.734948,10.312098 9.8474107,10.754669 9.0392821,10.76293 Z"
         id="path1"
         style="fill:#000000;stroke:#000000;stroke-width:0.1;stroke-dasharray:none;stroke-opacity:1"
         sodipodi:nodetypes="cssscccscccscccccc" /><circle
         style="fill:none;fill-rule:evenodd;stroke:#000000;stroke-width:0.4;stroke-dasharray:none;stroke-opacity:1"
         id="path3"
         cx="9.0185776"
         cy="6.7767286"
         r="0.99090153" /><rect
         style="fill:none;fill-opacity:1;stroke:#000000;stroke-width:0.493778;stroke-dasharray:none;stroke-opacity:1"
         id="rect3"
         width="0.18256152"
         height="7.7727098"
         x="-12.869383"
         y="5.0744915"
         ry="0.077310584"
         transform="rotate(-90)" /><rect
         style="fill:none;fill-opacity:1;stroke:#000000;stroke-width:0.493778;stroke-dasharray:none;stroke-opacity:1"
         id="rect3-1"
         width="0.18256152"
         height="7.7727098"
         x="-14.851812"
         y="5.0802717"
         ry="0.077310584"
         transform="rotate(-90)" /><rect
         style="fill:none;fill-opacity:1;stroke:#000000;stroke-width:0.452198;stroke-dasharray:none;stroke-opacity:1"
         id="rect3-1-6"
         width="0.22414109"
         height="5.309515"
         x="-16.933674"
         y="6.243607"
         ry="0.11207055"
         transform="rotate(-90)" /><rect
         style="fill:#ffffff;fill-opacity:1;stroke:#000000;stroke-width:0.463767;stroke-dasharray:none;stroke-opacity:1"
         id="rect4"
         width="3.0332863"
         height="1.4393983"
         x="0.78854686"
         y="7.3036213"
         ry="0.57786214" /><rect
         style="fill:#ffffff;fill-opacity:1;stroke:#000000;stroke-width:0.463767;stroke-dasharray:none;stroke-opacity:1"
         id="rect4-5"
         width="3.0332863"
         height="1.4393983"
         x="0.79464012"
         y="10.426717"
         ry="0.64686769" /><rect
         style="fill:#ffffff;fill-opacity:1;stroke:#000000;stroke-width:0.463767;stroke-dasharray:none;stroke-opacity:1"
         id="rect4-5-5"
         width="3.0332863"
         height="1.4393983"
         x="0.77464443"
         y="13.615263"
         ry="0.6353668" /></g></g></svg>
