<?xml version="1.0" encoding="UTF-8" standalone="no"?>
<!-- icon666.com - MILLIONS OF FREE VECTOR ICONS -->

<svg
   fill="none"
   viewBox="0 0 24 24"
   version="1.1"
   id="svg3"
   sodipodi:docname="add_call_user.svg"
   inkscape:version="1.4 (86a8ad7, 2024-10-11)"
   xml:space="preserve"
   xmlns:inkscape="http://www.inkscape.org/namespaces/inkscape"
   xmlns:sodipodi="http://sodipodi.sourceforge.net/DTD/sodipodi-0.dtd"
   xmlns="http://www.w3.org/2000/svg"
   xmlns:svg="http://www.w3.org/2000/svg"><defs
     id="defs3" /><sodipodi:namedview
     id="namedview3"
     pagecolor="#ffffff"
     bordercolor="#000000"
     borderopacity="0.25"
     inkscape:showpageshadow="2"
     inkscape:pageopacity="0.0"
     inkscape:pagecheckerboard="0"
     inkscape:deskcolor="#d1d1d1"
     inkscape:zoom="8"
     inkscape:cx="0.9375"
     inkscape:cy="-0.0625"
     inkscape:window-width="1920"
     inkscape:window-height="1009"
     inkscape:window-x="-8"
     inkscape:window-y="-8"
     inkscape:window-maximized="1"
     inkscape:current-layer="g3"
     showguides="true" /><g
     clip-rule="evenodd"
     fill="rgb(0,0,0)"
     fill-rule="evenodd"
     id="g3"><path
       id="path1"
       style="stroke:#000000;stroke-width:0.371713;stroke-dasharray:none;stroke-opacity:1"
       d="m 11.927797,4.4110509 c -1.847625,0 -3.3464413,1.4971931 -3.3464413,3.3448167 0,1.8476383 1.4988163,3.3464404 3.3464413,3.3464404 1.847637,0 3.344815,-1.498802 3.344815,-3.3464404 0,-1.8476237 -1.497178,-3.3448167 -3.344815,-3.3448167 z m 0.0276,0.4806144 c 1.581831,0 2.864201,1.2823826 2.864201,2.8642023 0,1.581832 -1.28237,2.8642024 -2.864201,2.8642024 -1.58182,0 -2.864203,-1.2823704 -2.864203,-2.8642024 0,-1.5818196 1.282383,-2.8642024 2.864203,-2.8642023 z" /><path
       id="path2"
       style="stroke:#000000;stroke-width:0.415666;stroke-dasharray:none;stroke-opacity:1"
       d="m 6.5501668,12.204618 c -0.4539823,0 -0.819481,0.640675 -0.9229854,1.082701 -0.2123544,0.90688 0.01302,1.956439 0.4356618,2.786439 0.3621296,0.711161 0.7492466,1.241405 1.4667771,1.590745 0.8693948,0.423277 1.941957,0.550052 2.8664867,0.550637 1.067393,6.75e-4 1.510416,-0.02051 1.711795,-0.02051 0.161636,0 0.37155,0.03349 0.37155,-0.237241 0,-0.263759 -0.300026,-0.22977 -0.356259,-0.22977 -0.206645,0 -0.58117,0.0074 -1.704429,0.0074 -0.6669424,0 -1.4891644,0.05361 -2.2016239,-0.317466 C 7.5423981,17.066077 6.9912721,16.434634 6.6409682,15.759306 6.2889849,15.080741 6.01165,14.241685 6.2171401,13.505399 6.3314307,13.095886 6.6743616,12.554227 7.0687026,12.554227 h 4.8361714 c 0.247877,0.006 0.564719,0.0039 0.567511,-0.08126 0.0068,-0.207832 0.01557,-0.251938 -0.321417,-0.268345 z"
       sodipodi:nodetypes="ssssssssssssscscs" /><path
       d="m 15.795362,11.486406 a 3.5375874,3.5375874 0 1 0 3.537586,3.537588 3.5375874,3.5375874 0 0 0 -3.537586,-3.537588 z m 1.768792,3.891345 h -1.415035 v 1.415035 a 0.353759,0.353759 0 0 1 -0.707518,0 v -1.415035 h -1.415035 a 0.353759,0.353759 0 0 1 0,-0.707518 h 1.415035 v -1.415035 a 0.353759,0.353759 0 0 1 0.707518,0 v 1.415035 h 1.415035 a 0.353759,0.353759 0 0 1 0,0.707518 z"
       id="path1-9"
       style="stroke-width:0.35376" /></g></svg>
