<?xml version="1.0" encoding="UTF-8" standalone="no"?>
<!-- icon666.com - MILLIONS OF FREE VECTOR ICONS -->

<svg
   viewBox="0 0 64 64"
   version="1.1"
   id="svg4"
   sodipodi:docname="animal.svg"
   inkscape:version="1.4 (86a8ad7, 2024-10-11)"
   xmlns:inkscape="http://www.inkscape.org/namespaces/inkscape"
   xmlns:sodipodi="http://sodipodi.sourceforge.net/DTD/sodipodi-0.dtd"
   xmlns="http://www.w3.org/2000/svg"
   xmlns:svg="http://www.w3.org/2000/svg">
  <defs
     id="defs4" />
  <sodipodi:namedview
     id="namedview4"
     pagecolor="#ffffff"
     bordercolor="#000000"
     borderopacity="0.25"
     inkscape:showpageshadow="2"
     inkscape:pageopacity="0.0"
     inkscape:pagecheckerboard="0"
     inkscape:deskcolor="#d1d1d1"
     showguides="true"
     inkscape:zoom="6.3046874"
     inkscape:cx="31.484511"
     inkscape:cy="21.333334"
     inkscape:window-width="1920"
     inkscape:window-height="1009"
     inkscape:window-x="-8"
     inkscape:window-y="-8"
     inkscape:window-maximized="1"
     inkscape:current-layer="Layer_61" />
  <g
     id="Layer_61"
     data-name="Layer 61">
    <path
       d="m 32.219855,34.762371 c -10.874808,0 -19.728384,6.066965 -19.728384,13.53684 0,7.469871 8.853576,13.536836 19.728384,13.536836 10.874817,0 19.728376,-6.079269 19.728376,-13.536836 0,-7.457569 -8.853559,-13.53684 -19.728376,-13.53684 z m 0,23.38181 c -8.540426,0 -15.458171,-4.417931 -15.458171,-9.84497 0,-3.691867 4.979814,-6.885098 9.620114,-8.583355 0,7.320521 12.1173,7.26959 12.1173,-0.05515 4.654535,1.698256 9.178925,5.032779 9.178925,8.638503 0,5.414734 -6.931966,9.832665 -15.458168,9.832665 z"
       id="path4"
       sodipodi:nodetypes="ssssscsccscc"
       style="stroke-width:1.3235" />
    <circle
       style="fill:none;fill-rule:evenodd;stroke:#000000;stroke-width:3.34244;stroke-dasharray:none;stroke-opacity:1"
       id="path9"
       cx="31.951563"
       cy="33.597748"
       r="26.595987" />
    <path
       style="fill:none;fill-rule:evenodd;stroke:#000000;stroke-width:3.70014;stroke-dasharray:none;stroke-opacity:1"
       id="path9-0"
       sodipodi:type="arc"
       sodipodi:cx="11.879595"
       sodipodi:cy="-14.116049"
       sodipodi:rx="9.4980383"
       sodipodi:ry="9.4980383"
       sodipodi:start="0.45606163"
       sodipodi:end="3.9531329"
       sodipodi:arc-type="arc"
       d="M 20.406876,-9.9329638 A 9.4980383,9.4980383 0 0 1 11.395825,-4.6303386 9.4980383,9.4980383 0 0 1 2.9709901,-10.822192 9.4980383,9.4980383 0 0 1 5.3413159,-21.005435"
       sodipodi:open="true"
       transform="rotate(98.40706)" />
    <path
       style="fill:none;fill-rule:evenodd;stroke:#000000;stroke-width:3.70014;stroke-dasharray:none;stroke-opacity:1"
       id="path9-0-9"
       sodipodi:type="arc"
       sodipodi:cx="22.1257"
       sodipodi:cy="-49.389019"
       sodipodi:rx="9.4980383"
       sodipodi:ry="9.4980383"
       sodipodi:start="2.2300523"
       sodipodi:end="5.913616"
       sodipodi:arc-type="arc"
       d="m 16.307877,-41.881312 a 9.4980383,9.4980383 0 0 1 -3.209002,-10.462221 9.4980383,9.4980383 0 0 1 8.773945,-6.540157 9.4980383,9.4980383 0 0 1 9.109639,6.063848"
       sodipodi:open="true"
       transform="rotate(80.20323)" />
  </g>
</svg>
