<?xml version="1.0" encoding="UTF-8" standalone="no"?>
<!-- icon666.com - MILLIONS OF FREE VECTOR ICONS -->

<svg
   version="1.1"
   id="Capa_1"
   x="0px"
   y="0px"
   viewBox="0 0 512 512"
   style="enable-background:new 0 0 512 512;"
   xml:space="preserve"
   sodipodi:docname="arrow_drop_up.svg"
   inkscape:version="1.4 (86a8ad7, 2024-10-11)"
   xmlns:inkscape="http://www.inkscape.org/namespaces/inkscape"
   xmlns:sodipodi="http://sodipodi.sourceforge.net/DTD/sodipodi-0.dtd"
   xmlns="http://www.w3.org/2000/svg"
   xmlns:svg="http://www.w3.org/2000/svg"><defs
     id="defs5" /><sodipodi:namedview
     id="namedview5"
     pagecolor="#ffffff"
     bordercolor="#000000"
     borderopacity="0.25"
     inkscape:showpageshadow="2"
     inkscape:pageopacity="0.0"
     inkscape:pagecheckerboard="0"
     inkscape:deskcolor="#d1d1d1"
     inkscape:zoom="0.55726091"
     inkscape:cx="347.23412"
     inkscape:cy="174.96293"
     inkscape:window-width="1920"
     inkscape:window-height="1009"
     inkscape:window-x="-8"
     inkscape:window-y="-8"
     inkscape:window-maximized="1"
     inkscape:current-layer="Capa_1" /><linearGradient
     id="SVGID_1_"
     gradientUnits="userSpaceOnUse"
     x1="-47.2495"
     y1="642.6354"
     x2="-27.1718"
     y2="633.2725"
     gradientTransform="matrix(21.3333 0 0 -21.3333 996.3334 13791.667)"><stop
       offset="0"
       style="stop-color:#FFFFFF;stop-opacity:0.2"
       id="stop4" /><stop
       offset="1"
       style="stop-color:#FFFFFF;stop-opacity:0"
       id="stop5" /></linearGradient><path
     style="fill:#000000;stroke-width:0.559311"
     d="m 400.56808,335.48209 c 0,14.20371 -11.47763,25.75741 -25.58849,25.75741 l -117.59518,-0.0118 -117.60693,0.0118 c -14.09911,0 -25.57674,-11.5537 -25.57674,-25.75741 0,-3.85701 0.87421,-7.62061 2.59856,-11.18063 23.5333,-36.63177 51.24091,-78.73691 76.03741,-118.62551 14.30039,-23.00415 30.06874,-50.30283 41.94258,-69.59919 4.75414,-8.68106 13.20198,-13.86644 22.59393,-13.86644 9.39196,0 17.83979,5.18538 22.59394,13.86644 12.31071,18.36388 27.36922,45.54451 41.4123,68.09615 25.09788,40.30442 53.56637,83.11948 76.56657,120.11122 1.73666,3.55946 2.62205,7.32306 2.62205,11.19796 z"
     fill="url(#SVGID_1_)"
     id="path5"
     sodipodi:nodetypes="scccscacscacs" /></svg>
