<?xml version="1.0" encoding="UTF-8" standalone="no"?>
<!-- Скачано с сайта svg4.ru / Downloaded from svg4.ru -->

<svg
   width="800px"
   height="800px"
   viewBox="0 -0.5 17 17"
   version="1.1"
   class="si-glyph si-glyph-arrow-reload"
   id="svg3"
   sodipodi:docname="arrow-reload.svg"
   inkscape:version="1.4.2 (f4327f4, 2025-05-13)"
   xmlns:inkscape="http://www.inkscape.org/namespaces/inkscape"
   xmlns:sodipodi="http://sodipodi.sourceforge.net/DTD/sodipodi-0.dtd"
   xmlns="http://www.w3.org/2000/svg"
   xmlns:svg="http://www.w3.org/2000/svg">
  <sodipodi:namedview
     id="namedview3"
     pagecolor="#ffffff"
     bordercolor="#000000"
     borderopacity="0.25"
     inkscape:showpageshadow="2"
     inkscape:pageopacity="0.0"
     inkscape:pagecheckerboard="0"
     inkscape:deskcolor="#d1d1d1"
     inkscape:zoom="0.12609375"
     inkscape:cx="-1360.0991"
     inkscape:cy="-1019.083"
     inkscape:window-width="1920"
     inkscape:window-height="1009"
     inkscape:window-x="-8"
     inkscape:window-y="-8"
     inkscape:window-maximized="1"
     inkscape:current-layer="g2" />
  <title
     id="title1">802</title>
  <defs
     id="defs1" />
  <g
     stroke="none"
     stroke-width="1"
     fill="none"
     fill-rule="evenodd"
     id="g3">
    <g
       transform="translate(-0.05328377,2)"
       fill="#434343"
       id="g2"
       style="fill:#000000">
      <path
         d="m 16.302453,6.318161 -1.562,-1.698 c -0.215,-0.212 -0.562,-0.212 -0.776,0 l -1.631031,1.698 c -0.215,0.214 -0.341596,0.772 0.0948,0.772 h 1.266235 c -0.486,1.825 -1.918,3.296 -3.7889998,3.79 -2.168,0.572 -4.158295,-0.02577 -5.439295,-1.8657734 l -1.091,0.7510004 c 1.266,1.819 3.015295,2.610773 5.170295,2.610773 0.565,0 1.137,-0.072 1.6979998,-0.221 2.451,-0.646 4.303,-2.633 4.813,-5.065 h 1.245 c 0.359332,0 0.347977,-0.4250229 0.001,-0.772 z"
         class="si-glyph-fill"
         id="path1"
         style="fill:#000000"
         sodipodi:nodetypes="ccccsccccsccscc" />
      <path
         d="m 5.0341174,5.431161 c 0.1911126,-0.1723265 0.341596,-0.772 0,-0.772 H 3.5244532 c 0.498,-1.801 1.918,-3.248 3.771,-3.73799991 2.17,-0.573 4.2029818,0.11614741 5.4829818,1.95714741 l 1.092,-0.752 c -1.598,-2.29499991 -4.2029818,-3.1951475 -6.9159818,-2.48114741 -2.432,0.643 -4.273,2.60499991 -4.8,5.01399991 H 0.70245318 c -0.36160311,0 -0.21357045,0.5585599 0,0.772 l 1.63800002,1.637 c 0.214,0.212 0.562,0.212 0.776,0 0,0 1.3973885,-1.1678667 1.9176642,-1.637 z"
         class="si-glyph-fill"
         id="path2"
         style="fill:#000000"
         sodipodi:nodetypes="ssccccccssccs" />
    </g>
  </g>
</svg>
