<?xml version="1.0" encoding="UTF-8" standalone="no"?>
<!-- icon666.com - MILLIONS OF FREE VECTOR ICONS -->

<svg
   id="Layer_1"
   viewBox="0 0 24 24"
   data-name="Layer 1"
   version="1.1"
   sodipodi:docname="arrow_right.svg"
   inkscape:version="1.4.2 (f4327f4, 2025-05-13)"
   width="24"
   height="24"
   xmlns:inkscape="http://www.inkscape.org/namespaces/inkscape"
   xmlns:sodipodi="http://sodipodi.sourceforge.net/DTD/sodipodi-0.dtd"
   xmlns="http://www.w3.org/2000/svg"
   xmlns:svg="http://www.w3.org/2000/svg">
  <defs
     id="defs1" />
  <sodipodi:namedview
     id="namedview1"
     pagecolor="#ffffff"
     bordercolor="#000000"
     borderopacity="0.25"
     inkscape:showpageshadow="2"
     inkscape:pageopacity="0.0"
     inkscape:pagecheckerboard="0"
     inkscape:deskcolor="#d1d1d1"
     inkscape:zoom="16.14"
     inkscape:cx="7.0012393"
     inkscape:cy="15.148699"
     inkscape:window-width="1920"
     inkscape:window-height="1009"
     inkscape:window-x="-8"
     inkscape:window-y="-8"
     inkscape:window-maximized="1"
     inkscape:current-layer="Layer_1" />
  <path
     d="M 21.05034,10.257724 15.536055,4.7455685 C 14.937116,4.2505433 14.140798,5.0525343 14.640064,5.6479447 l 4.418238,4.4246223 -7.358933,-0.0373 C 9.9199595,10.093544 7.874755,10.14614 6.2606658,11.06317 4.8310633,11.875383 3.4324911,13.163013 3.3393035,15.03768 v 3.201975 c 0,0.851298 1.4866016,0.851298 1.4866016,0 v -3.193461 c 0.016899,-1.16277 0.8618987,-2.135071 1.8928961,-2.807477 1.1567492,-0.754418 3.6162228,-0.876164 4.9912088,-0.917989 l 7.348292,0.0373 -4.418238,4.422495 c -0.40164,0.40214 -0.117169,1.089162 0.451188,1.089662 0.169277,-1.49e-4 0.331566,-0.06752 0.451188,-0.187286 l 5.5079,-5.520669 c 0.250386,-0.249517 0.250386,-0.654986 0,-0.904504 z"
     id="path1"
     sodipodi:nodetypes="cccccscsscscccccccc"
     style="stroke-width:0.212825" />
</svg>
