<?xml version="1.0" encoding="UTF-8" standalone="no"?>
<!-- icon666.com - MILLIONS OF FREE VECTOR ICONS -->

<svg
   id="Layer_1"
   viewBox="0 0 24 24"
   data-name="Layer 1"
   version="1.1"
   sodipodi:docname="arrow_left.svg"
   inkscape:version="1.4.2 (f4327f4, 2025-05-13)"
   width="24"
   height="24"
   xmlns:inkscape="http://www.inkscape.org/namespaces/inkscape"
   xmlns:sodipodi="http://sodipodi.sourceforge.net/DTD/sodipodi-0.dtd"
   xmlns="http://www.w3.org/2000/svg"
   xmlns:svg="http://www.w3.org/2000/svg">
  <defs
     id="defs1" />
  <sodipodi:namedview
     id="namedview1"
     pagecolor="#ffffff"
     bordercolor="#000000"
     borderopacity="0.25"
     inkscape:showpageshadow="2"
     inkscape:pageopacity="0.0"
     inkscape:pagecheckerboard="0"
     inkscape:deskcolor="#d1d1d1"
     inkscape:zoom="16.14"
     inkscape:cx="7.0012393"
     inkscape:cy="15.148699"
     inkscape:window-width="1920"
     inkscape:window-height="1009"
     inkscape:window-x="-8"
     inkscape:window-y="-8"
     inkscape:window-maximized="1"
     inkscape:current-layer="Layer_1" />
  <path
     d="M 3.527093,10.257724 9.041378,4.7455685 c 0.598939,-0.4950252 1.395257,0.3069658 0.895991,0.9023762 l -4.418238,4.4246223 7.358933,-0.0373 c 1.77941,0.05828 3.824614,0.110873 5.438703,1.027903 1.429603,0.812213 2.828175,2.099843 2.921363,3.97451 v 3.201975 c 0,0.851298 -1.486602,0.851298 -1.486602,0 v -3.193461 c -0.0169,-1.16277 -0.861899,-2.135071 -1.892896,-2.807477 -1.156749,-0.754418 -3.616223,-0.876164 -4.991209,-0.917989 l -7.348292,0.0373 4.418238,4.422495 c 0.40164,0.40214 0.117169,1.089162 -0.451188,1.089662 -0.169277,-1.49e-4 -0.331566,-0.06752 -0.451188,-0.187286 l -5.5079,-5.520669 c -0.250386,-0.249517 -0.250386,-0.654986 0,-0.904504 z"
     id="path1"
     sodipodi:nodetypes="cccccscsscscccccccc"
     style="stroke-width:0.212825" />
</svg>
