<?xml version="1.0" encoding="UTF-8" standalone="no"?>
<!-- icon666.com - MILLIONS vector ICONS FREE -->

<svg
   id="Flat"
   viewBox="0 0 512 512"
   version="1.1"
   sodipodi:docname="leaf_z16xocko6en8.svg"
   inkscape:version="1.3.2 (091e20e, 2023-11-25, custom)"
   xmlns:inkscape="http://www.inkscape.org/namespaces/inkscape"
   xmlns:sodipodi="http://sodipodi.sourceforge.net/DTD/sodipodi-0.dtd"
   xmlns="http://www.w3.org/2000/svg"
   xmlns:svg="http://www.w3.org/2000/svg">
  <defs
     id="defs4" />
  <sodipodi:namedview
     id="namedview4"
     pagecolor="#ffffff"
     bordercolor="#000000"
     borderopacity="0.25"
     inkscape:showpageshadow="2"
     inkscape:pageopacity="0.0"
     inkscape:pagecheckerboard="0"
     inkscape:deskcolor="#d1d1d1"
     inkscape:zoom="1.1228082"
     inkscape:cx="259.1716"
     inkscape:cy="285.445"
     inkscape:window-width="1920"
     inkscape:window-height="1009"
     inkscape:window-x="-8"
     inkscape:window-y="-8"
     inkscape:window-maximized="1"
     inkscape:current-layer="Layer_2" />
  <g
     id="_14_copy_4"
     data-name="14 copy 4">
    <g
       id="Layer_2"
       data-name="Layer 2">
      <g
         id="g2"
         transform="matrix(1.1104215,0,0,1.2015269,-50.323217,-174.73675)">
        <path
           d="m 486.024,267.743 c -10.846,-23.373 -63.251,-22.086 -118.065,2.342 3.345,-15.043 3.1,-27.507 -1.014,-35.25 a 15.392,15.392 0 0 0 -8.288,-7.533 c -14.493,-5.409 -38.712,10.553 -60.808,37.871 -0.539,-10.862 -4.338,-18.512 -11.574,-21.213 -14.123,-5.271 -37.461,9.856 -59.092,35.9 a 14.848,14.848 0 0 0 -6.8,-5.327 c -19.3,-7.2 -55.825,23.416 -81.625,68.391 -24.769,43.176 -30.6,83.8 -13.956,93.365 0.271,18.188 33.969,38.319 80.513,46.839 51,9.336 98,1.2 104.954,-18.188 a 14.863,14.863 0 0 0 0.322,-8.631 c 33.856,0.3 60.475,-7.757 65.568,-21.944 2.61,-7.27 -0.779,-15.11 -8.726,-22.535 35.128,0.765 62.913,-7.44 68.14,-22 a 15.422,15.422 0 0 0 -0.374,-11.2 c -3.194,-8 -12.358,-16.049 -25.6,-23.116 53.093,-26.084 87.16,-64.638 76.425,-87.771 z"
           fill="#ffa754"
           id="path1" />
        <path
           d="M 362.761,332.619 356.027,318.105 296,345.96 l 15.679,-45.292 -15.12,-5.234 -20.731,59.886 -63.958,29.679 15.68,-45.293 -15.12,-5.234 -20.732,59.887 -123.113,57.129 6.735,14.514 123.113,-57.129 59.118,22.834 5.764,-14.926 -44.71,-17.269 63.956,-29.678 59.119,22.835 5.764,-14.926 -44.711,-17.269 z"
           fill="#ffbd80"
           id="path2" />
      </g>
      <g
         id="g4" />
    </g>
  </g>
</svg>
