<?xml version="1.0" encoding="UTF-8" standalone="no"?>
<!-- icon666.com - MILLIONS vector ICONS FREE -->

<svg
   viewBox="0 0 64 64"
   version="1.1"
   id="svg4"
   sodipodi:docname="leaf_t4lc64epypar.svg"
   inkscape:version="1.3.2 (091e20e, 2023-11-25, custom)"
   xmlns:inkscape="http://www.inkscape.org/namespaces/inkscape"
   xmlns:sodipodi="http://sodipodi.sourceforge.net/DTD/sodipodi-0.dtd"
   xmlns="http://www.w3.org/2000/svg"
   xmlns:svg="http://www.w3.org/2000/svg">
  <defs
     id="defs4" />
  <sodipodi:namedview
     id="namedview4"
     pagecolor="#ffffff"
     bordercolor="#000000"
     borderopacity="0.25"
     inkscape:showpageshadow="2"
     inkscape:pageopacity="0.0"
     inkscape:pagecheckerboard="0"
     inkscape:deskcolor="#d1d1d1"
     inkscape:zoom="6.3515625"
     inkscape:cx="32.275523"
     inkscape:cy="40.226322"
     inkscape:window-width="1920"
     inkscape:window-height="1009"
     inkscape:window-x="-8"
     inkscape:window-y="-8"
     inkscape:window-maximized="1"
     inkscape:current-layer="svg4" />
  <g
     id="FLAT"
     transform="rotate(52.197026,28.244735,31.749158)">
    <g
       id="_07-Broken_copy_3"
       data-name="07-Broken copy 3">
      <path
         d="M 46.1,41.45 52,46 32,52 12,45 17.3,41.47 A 1.9993,1.9993 0 0 0 16.51,38.02 L 4,35 10,31 3,21 14,22 V 14 L 26,30 21,11 27,14 28.52,10.66 31.59,3.9 32,3 32.07,3.15 37,14 44,10 38,30 50,14 v 8 l 11,-1 -7,10 6,4 -13,3.11 a 1.9932,1.9932 0 0 0 -0.9,3.34 z"
         fill="#f8981d"
         id="path1" />
      <path
         d="M 46.1,41.45 52,46 44.5,48.25 C 34.29,44.15 27,33.27 27,20.5 A 32.1174,32.1174 0 0 1 28.52,10.66 30.2776,30.2776 0 0 1 31.59,3.9 C 31.75,3.64 31.9,3.39 32.07,3.15 L 37,14 44,10 38,30 50,14 v 8 l 11,-1 -7,10 6,4 -13,3.11 a 1.9932,1.9932 0 0 0 -0.9,3.34 z"
         fill="#fcb64d"
         id="path2" />
      <g
         fill="#fecc81"
         id="g4">
        <path
           d="M 32,62 A 1,1 0 0 1 31,61 V 22 a 1,1 0 0 1 2,0 v 39 a 1,1 0 0 1 -1,1 z"
           id="path3" />
        <path
           d="m 32,45 a 0.9982,0.9982 0 0 1 -0.646,-0.2368 l -13,-11 a 1,1 0 0 1 1.292,-1.5264 L 32,42.69 44.354,32.2368 a 1,1 0 1 1 1.292,1.5264 l -13,11 A 0.9982,0.9982 0 0 1 32,45 Z"
           id="path4" />
      </g>
    </g>
  </g>
</svg>
