<?xml version="1.0" encoding="UTF-8" standalone="no"?>
<!-- icon666.com - MILLIONS OF FREE VECTOR ICONS -->

<svg
   version="1.1"
   id="Capa_1"
   x="0px"
   y="0px"
   viewBox="0 0 109.159 109.159"
   xml:space="preserve"
   sodipodi:docname="avatar.svg"
   style="enable-background:new 0 0 109.159 109.159;"
   inkscape:version="1.4 (86a8ad7, 2024-10-11)"
   xmlns:inkscape="http://www.inkscape.org/namespaces/inkscape"
   xmlns:sodipodi="http://sodipodi.sourceforge.net/DTD/sodipodi-0.dtd"
   xmlns="http://www.w3.org/2000/svg"
   xmlns:svg="http://www.w3.org/2000/svg"><defs
     id="defs1" /><sodipodi:namedview
     id="namedview1"
     pagecolor="#ffffff"
     bordercolor="#000000"
     borderopacity="0.25"
     inkscape:showpageshadow="2"
     inkscape:pageopacity="0.0"
     inkscape:pagecheckerboard="0"
     inkscape:deskcolor="#d1d1d1"
     inkscape:zoom="2.6137799"
     inkscape:cx="29.267958"
     inkscape:cy="8.9908107"
     inkscape:window-width="1920"
     inkscape:window-height="1009"
     inkscape:window-x="-8"
     inkscape:window-y="-8"
     inkscape:window-maximized="1"
     inkscape:current-layer="g1" /><g
     id="g1"><path
       id="path1"
       style="fill:#010002;stroke-width:1.21242"
       d="m 66.253788,9.5694643 c -3.16321,-0.107905 -4.828869,1.5761307 -5.5151,2.5266697 -4.226505,-1.939875 -9.75966,-2.7745717 -16.836567,-1.290568 -22.702609,4.76482 -25.599635,34.500728 -21.447088,41.01871 -3.237168,2.086579 -4.610652,6.797635 -3.291536,12.091071 1.01116,4.043428 4.519493,7.14344 7.999145,8.392235 2.64308,7.120556 13.301858,26.78696 28.740565,26.78696 15.275734,0 23.466471,-14.867892 28.804502,-26.784592 3.467526,-1.262131 6.951366,-4.349091 7.958889,-8.380395 1.344574,-5.332233 -0.07288,-10.100595 -3.379154,-12.178687 V 47.978624 C 92.307588,38.866058 93.885862,23.978479 80.156388,15.96073 74.011832,12.368323 68.904901,12.137792 65.06031,13.391436 64.461373,11.833474 66.253788,9.5694643 66.253788,9.5694643 Z m 3.398098,27.0403327 c 7.701307,0.849908 12.888337,8.235327 14.809548,14.991886 0.364856,1.283131 0,4.255318 0,4.255318 0.944976,-0.435148 1.462247,-0.313056 1.702599,-0.274686 1.874405,0.524979 2.693719,3.731855 1.830474,7.17271 -0.837784,3.345073 -5.067262,5.649945 -6.89802,5.301979 -2.456367,7.467309 -7.345346,17.009016 -14.326474,22.280628 -0.832934,0.629247 -1.718362,1.178132 -2.611917,1.681288 -1.266982,0.703205 -2.590152,1.261487 -3.973525,1.6434 -1.37125,0.381913 -2.803197,0.610949 -4.290839,0.610949 -1.509464,0 -2.954711,-0.220775 -4.342935,-0.601476 -1.384586,-0.381913 -2.715901,-0.942792 -3.987732,-1.636297 -0.902042,-0.499518 -1.778756,-1.049673 -2.62139,-1.67892 C 38.021169,85.151647 33.226873,75.70987 30.762018,68.054636 28.917924,68.453523 24.66539,66.134973 23.81427,62.766864 c -0.863245,-3.440855 -0.04393,-6.652467 1.830474,-7.177444 0.551652,-0.151553 1.129068,-0.03436 1.704968,0.269953 V 50.71131 c 0.0085,-0.0085 0.02583,-0.0294 0.03552,-0.03789 -0.01697,-0.06062 -0.02219,-0.147252 -0.03552,-0.229697 v -1.806794 c 0.477695,-4.36472 4.631037,-12.570338 27.24635,-5.155163 7.810424,2.560636 12.634615,-1.49609 15.055822,-6.871971 z"
       sodipodi:nodetypes="ccccccscccccccsscccccccsccccccccccccss" /><g
       id="g3"
       transform="matrix(0.11120626,0,0,0.11120626,29.421359,41.562067)"><g
         id="g2"><path
           d="m 469.49879,58.547114 c -28.219,-30.133 -71.755,-30.133 -92.68,-30.133 -10e-4,0 -0.003,0 -0.004,0 v -0.003 H 98.450791 v 0.003 c -20.923,0 -64.459,0 -92.6790002,30.133 -18.0809998,19.31 -26.0689998,47.058996 -23.7419998,82.479996 1.902,28.962 12.3559998,53.644 30.231,71.381 18.364,18.223 43.272,27.854 72.031,27.854 29.597999,0 59.817999,-14.878 85.092999,-41.891 21.552,-23.035 37.115,-52.501 43.046,-79.679 5.62,-8.347 15.083,-13.453 25.206,-13.453 10.121,0 19.584,5.104 25.204,13.451 5.931,27.179 21.495,56.646 43.046,79.681 25.275,27.014 55.495,41.891 85.093,41.891 28.759,0 53.667,-9.632 72.031,-27.854 17.873,-17.738 28.328,-42.42 30.231,-71.381 2.327,-35.422 -5.661,-63.169996 -23.743,-82.479996 z m -231.862,13.3 c -8.842,0 -17.44,1.858 -25.32,5.28 -1.718,-5.065 -4.409,-10.275 -8.473,-15.324 h 67.585 c -4.063,5.049 -6.755,10.259 -8.472,15.323 -7.88,-3.421 -16.479,-5.279 -25.32,-5.279 z"
           id="path1-7" /></g></g></g></svg>
