<?xml version="1.0" encoding="UTF-8" standalone="no"?>
<!-- Created with Inkscape (http://www.inkscape.org/) -->

<svg
   width="512mm"
   height="512mm"
   viewBox="0 0 512 512"
   version="1.1"
   id="svg1"
   inkscape:version="1.3.2 (091e20e, 2023-11-25, custom)"
   sodipodi:docname="blocked.svg"
   xmlns:inkscape="http://www.inkscape.org/namespaces/inkscape"
   xmlns:sodipodi="http://sodipodi.sourceforge.net/DTD/sodipodi-0.dtd"
   xmlns="http://www.w3.org/2000/svg"
   xmlns:svg="http://www.w3.org/2000/svg">
  <sodipodi:namedview
     id="namedview1"
     pagecolor="#ffffff"
     bordercolor="#000000"
     borderopacity="0.25"
     inkscape:showpageshadow="2"
     inkscape:pageopacity="0.0"
     inkscape:pagecheckerboard="0"
     inkscape:deskcolor="#d1d1d1"
     inkscape:document-units="mm"
     inkscape:zoom="0.090532934"
     inkscape:cx="386.59964"
     inkscape:cy="701.40221"
     inkscape:window-width="1920"
     inkscape:window-height="1009"
     inkscape:window-x="-8"
     inkscape:window-y="-8"
     inkscape:window-maximized="1"
     inkscape:current-layer="layer1" />
  <defs
     id="defs1" />
  <g
     inkscape:label="Слой 1"
     inkscape:groupmode="layer"
     id="layer1">
    <g
       id="g14"
       transform="matrix(2.6808106,0,0,2.6808106,-2052.0946,-422.77962)"
       style="stroke:#000000;stroke-opacity:1;stroke-width:9.32553758;stroke-dasharray:none">
      <circle
         style="fill:#ffffff;fill-opacity:1;fill-rule:evenodd;stroke-width:9.32553758;stroke:#000000;stroke-opacity:1;stroke-dasharray:none"
         id="path14"
         cx="862.258"
         cy="252.63281"
         r="78.527992" />
      <path
         id="Shape"
         d="m 926.08775,188.0509 c -26.33978,-26.34055 -65.95314,-34.22062 -100.36833,-19.9657 -34.41514,14.25493 -56.85456,47.83754 -56.85456,85.08813 0,37.2506 22.43942,70.8332 56.85456,85.08814 34.41519,14.25494 74.02855,6.37485 100.36833,-19.96571 17.28106,-17.26648 26.9907,-40.69361 26.9907,-65.12243 0,-24.42881 -9.70964,-47.85595 -26.9907,-65.12243 z m -114.00743,16.23743 c 23.8608,-23.81792 61.42039,-26.95599 88.90276,-7.42777 l -96.33051,96.33053 c -19.52825,-27.48236 -16.39017,-65.04194 7.42775,-88.90276 z m 97.76999,97.77001 c -23.8608,23.81791 -61.42039,26.95598 -88.90276,7.42776 l 96.33051,-96.33053 c 19.52824,27.48236 16.39017,65.04194 -7.42775,88.90277 z"
         fill="#e64c3c"
         fill-rule="nonzero"
         style="fill:#f7f7f7;fill-opacity:1;stroke:#000000;stroke-width:9.32553758;stroke-opacity:1;stroke-dasharray:none" />
    </g>
  </g>
</svg>
