<?xml version="1.0" encoding="UTF-8" standalone="no"?>
<!-- Created with Inkscape (http://www.inkscape.org/) -->

<svg
   width="512mm"
   height="512mm"
   viewBox="0 0 512 512"
   version="1.1"
   id="svg1"
   xml:space="preserve"
   inkscape:version="1.3.2 (091e20e, 2023-11-25, custom)"
   sodipodi:docname="blocked_user.svg"
   xmlns:inkscape="http://www.inkscape.org/namespaces/inkscape"
   xmlns:sodipodi="http://sodipodi.sourceforge.net/DTD/sodipodi-0.dtd"
   xmlns="http://www.w3.org/2000/svg"
   xmlns:svg="http://www.w3.org/2000/svg"><sodipodi:namedview
     id="namedview1"
     pagecolor="#ffffff"
     bordercolor="#000000"
     borderopacity="0.25"
     inkscape:showpageshadow="2"
     inkscape:pageopacity="0.0"
     inkscape:pagecheckerboard="0"
     inkscape:deskcolor="#d1d1d1"
     inkscape:document-units="mm"
     inkscape:zoom="0.18106587"
     inkscape:cx="392.1225"
     inkscape:cy="1560.2057"
     inkscape:window-width="1920"
     inkscape:window-height="1009"
     inkscape:window-x="-8"
     inkscape:window-y="-8"
     inkscape:window-maximized="1"
     inkscape:current-layer="074---Block-User" /><defs
     id="defs1" /><g
     inkscape:label="Слой 1"
     inkscape:groupmode="layer"
     id="layer1"><g
       id="074---Block-User"
       transform="matrix(4.7861359,0,0,4.7861359,118.43622,57.749343)"
       style="fill:none;fill-rule:evenodd"><path
         id="path1-8"
         d="m 45.11084,80.85429 c -0.334827,0.03043 -3.072594,0.03043 -3.407421,0.03043 H 15.282526 V 44.358148 H 30.8672 c 7.503339,0.0052 17.963319,7.098895 22.58328,13.011261 l -8.703885,9.837233 z"
         fill="#f0c419"
         style="stroke-width:3.04388"
         sodipodi:nodetypes="cscccccc" /><path
         id="path2-1"
         d="M 42.677461,65.665321 V 80.85429 c -0.334827,0.03043 -0.639215,0.03043 -0.974042,0.03043 H 36.589696 V 65.665321 c 0,-1.681089 1.362794,-3.043882 3.043884,-3.043882 1.68109,0 3.043881,1.362793 3.043881,3.043882 z"
         fill="#b19046"
         style="stroke-width:3.04388" /><path
         id="path3"
         d="M 38.111637,29.138744 H 36.589696 V 13.919336 h 1.521941 c 4.202725,0 7.609705,3.406979 7.609705,7.609704 0,4.202722 -3.40698,7.609704 -7.609705,7.609704 z"
         fill="#f9c795"
         style="stroke-width:3.04388" /><path
         id="path4"
         d="M 15.282526,56.533676 V 80.88473 h -26.420892 c -0.334827,0 -0.639214,0 -0.974042,-0.03043 -3.497053,-0.264482 -6.743662,-1.914637 -9.018473,-4.583829 -2.274811,-2.669189 -3.38942,-6.136335 -3.096175,-9.631096 0.281038,-4.66994 1.92095,-9.155897 4.718017,-12.90606 4.616668,-5.908165 11.6936756,-9.365294 19.19167162,-9.375154 h 0.38048601 v 7.792335 c 0.001425,1.821783 0.81873198,3.547165 2.22739997,4.702392 1.40867,1.155225 3.2606679,1.618866 5.0474761,1.263617 z"
         fill="#f3d55b"
         style="stroke-width:3.04388" /><path
         id="path5"
         d="m 36.589696,16.963216 v 9.131644 c 0.01052,7.486342 -3.921582,14.425162 -10.349197,18.263292 -6.741633,4.058506 -15.174312,4.058506 -21.9159458,0 C -2.1030583,40.520022 -6.0350566,33.581202 -6.0246428,26.09486 V 13.919336 c 0,0 27.3949308,3.04388 27.3949308,-9.1316463 0,0 3.043885,12.1755263 15.219408,12.1755263 z"
         fill="#fdd7ad"
         style="stroke-width:3.04388" /><path
         id="path6"
         d="m 36.589696,10.875453 v 6.087763 c -12.175523,0 -15.219408,-12.1755263 -15.219408,-12.1755263 0,12.1755263 -27.3949308,9.1316463 -27.3949308,9.1316463 v -3.043883 c 0,-7.6123206 4.061121,-14.6463923 10.6535854,-18.4525521 6.5924594,-3.8061599 14.7147064,-3.8061599 21.3071694,0 6.592463,3.8061598 10.653584,10.8402315 10.653584,18.4525521 z"
         fill="#a56a43"
         style="stroke-width:3.04388" /><path
         id="path7"
         d="m -6.0246428,13.919336 v 15.219408 h -1.5219413 c -4.2027249,0 -7.6097049,-3.406982 -7.6097049,-7.609704 0,-4.202725 3.40698,-7.609704 7.6097049,-7.609704 z"
         fill="#f9c795"
         style="stroke-width:3.04388" /><path
         id="path8"
         d="m 15.282526,47.402032 v 9.131644 L 7.3379947,58.116494 C 5.5511865,58.471744 3.6991886,58.008109 2.2905186,56.852878 0.88185061,55.697651 0.06458279,53.972269 0.06311863,52.150487 V 44.358152 H 4.3245532 c 3.3020723,2.005716 7.0945098,3.05917 10.9579728,3.04388 z"
         fill="#ffffff"
         style="stroke-width:3.04388" /><path
         id="path9"
         d="m 30.501934,44.358152 v 7.792335 c -0.0014,1.821782 -0.81873,3.547164 -2.227399,4.702391 -1.408669,1.155222 -3.260667,1.618866 -5.047477,1.263616 l -7.944532,-1.582818 v -9.131644 c 3.863467,0.01515 7.655902,-1.038164 10.957973,-3.04388 z"
         fill="#ecf0f1"
         style="stroke-width:3.04388" /><path
         id="path10"
         d="M -6.0246428,65.665321 V 80.88473 h -5.1137232 c -0.334827,0 -0.639214,0 -0.974042,-0.03043 V 65.665321 c 0,-1.681089 1.362793,-3.043882 3.0438835,-3.043882 1.6810884,0 3.0438817,1.362793 3.0438817,3.043882 z"
         fill="#b19046"
         style="stroke-width:3.04388" /><path
         id="Shape"
         d="m 76.327572,60.326904 c -5.503341,-5.503509 -13.780038,-7.149947 -20.970634,-4.171569 -7.190596,2.978379 -11.879007,9.995023 -11.879007,17.778043 0,7.783021 4.688411,14.799664 11.879007,17.778044 7.190596,2.978377 15.467293,1.33194 20.970634,-4.17157 3.610658,-3.607603 5.639359,-8.502395 5.639359,-13.606474 0,-5.104078 -2.028701,-9.99887 -5.639359,-13.606474 z m -23.820349,3.392597 c 4.985405,-4.976439 12.832983,-5.632098 18.575062,-1.551934 L 50.955292,82.294562 C 46.875126,76.552485 47.530784,68.704906 52.507223,63.719501 Z m 20.427756,20.427755 c -4.985406,4.976439 -12.832983,5.632098 -18.575063,1.551933 L 74.48691,65.572194 c 4.080171,5.742078 3.424509,13.589656 -1.551931,18.575062 z"
         fill="#e64c3c"
         fill-rule="nonzero"
         style="stroke-width:1.20304" /></g></g></svg>
