<?xml version="1.0" encoding="UTF-8" standalone="no"?>

<svg
   clip-rule="evenodd"
   fill-rule="evenodd"
   stroke-linejoin="round"
   stroke-miterlimit="2"
   viewBox="0 0 24 24"
   version="1.1"
   id="svg1"
   xmlns="http://www.w3.org/2000/svg">
  <defs
     id="defs1" />
  <g
     id="Icon">
    <path
       d="m18.871 20.493c.457-.266.954-.556 1.445-.843.857-.5 1.378-1.423 1.364-2.415s-.562-1.899-1.433-2.375c-.505-.275-1.006-.548-1.442-.786-1.078-.588-2.362-.665-3.501-.209-.252.101-.498.199-.703.281-.153.062-.325.06-.477-.005-.047-.021-.097-.042-.148-.064-1.821-.78-3.273-2.232-4.053-4.053 0 0 0 0 0-.001-.086-.199-.07-.428.041-.614.09-.149.189-.315.292-.486.731-1.219.711-2.746-.052-3.945-.315-.495-.673-1.059-1.026-1.612-.515-.81-1.414-1.292-2.373-1.274-.959.019-1.839.536-2.322 1.364-.329.564-.668 1.145-.976 1.673-.85 1.456-.864 3.253-.037 4.722.222.396.466.829.719 1.278 2.044 3.635 5.047 6.638 8.682 8.682.449.253.882.497 1.278.719 1.469.827 3.266.813 4.722-.037zm-.756-1.295c-.996.581-2.226.59-3.231.025-.396-.223-.829-.466-1.278-.719-3.395-1.91-6.2-4.715-8.11-8.11-.253-.449-.496-.882-.719-1.278-.565-1.005-.556-2.235.025-3.231.308-.528.647-1.109.976-1.673.22-.376.62-.611 1.056-.62.436-.008.845.211 1.079.579.352.554.71 1.117 1.026 1.612.458.72.47 1.637.031 2.368-.103.171-.203.337-.292.487-.36.599-.409 1.334-.134 1.976v.001c.932 2.175 2.666 3.909 4.841 4.841.051.022.101.043.148.063.518.222 1.102.229 1.625.02.205-.082.451-.18.703-.281.724-.29 1.54-.241 2.226.133.436.237.936.51 1.442.786.396.216.645.629.651 1.08.007.451-.23.87-.62 1.097-.491.287-.988.577-1.445.844z"
       id="path1" />
  </g>
</svg>
