<?xml version="1.0" encoding="UTF-8" standalone="no"?>
<!-- icon666.com - MILLIONS OF FREE VECTOR ICONS -->

<svg
   id="layer_1"
   enable-background="new 0 0 32 32"
   viewBox="0 0 32 32"
   version="1.1"
   sodipodi:docname="camera_add.svg"
   inkscape:version="1.4.2 (f4327f4, 2025-05-13)"
   xmlns:inkscape="http://www.inkscape.org/namespaces/inkscape"
   xmlns:sodipodi="http://sodipodi.sourceforge.net/DTD/sodipodi-0.dtd"
   xmlns="http://www.w3.org/2000/svg"
   xmlns:svg="http://www.w3.org/2000/svg">
  <defs
     id="defs2" />
  <sodipodi:namedview
     id="namedview2"
     pagecolor="#ffffff"
     bordercolor="#000000"
     borderopacity="0.25"
     inkscape:showpageshadow="2"
     inkscape:pageopacity="0.0"
     inkscape:pagecheckerboard="0"
     inkscape:deskcolor="#d1d1d1"
     showguides="true"
     inkscape:zoom="11.313709"
     inkscape:cx="-9.678524"
     inkscape:cy="8.8830289"
     inkscape:window-width="1920"
     inkscape:window-height="1009"
     inkscape:window-x="-8"
     inkscape:window-y="-8"
     inkscape:window-maximized="1"
     inkscape:current-layer="layer_1" />
  <path
     d="m 29.44513,9.1235403 c -0.569057,0 -1.70226,-0.025687 -1.70226,0.016304 0,1.3559357 0.110609,2.1608547 -0.139238,2.7565887 -0.398111,1.140881 -1.788343,1.669684 -2.550515,1.669684 -1.306246,0.0063 -2.151213,-0.596121 -2.700224,-1.686712 -0.270761,-0.591007 -0.05525,-2.7413171 -0.18775,-2.744014 0,-0.061892 -2.153859,0.1627782 -2.966615,-0.4174434 C 18.508589,8.2254043 18.027529,7.2987982 18.045389,6.4512747 18.061373,5.6927979 18.580686,4.9555941 19.161912,4.4680302 19.404466,4.2645633 19.949385,4.038683 20.377914,3.8216009 20.639551,3.6890625 19.928417,3 18,3 H 14 C 12.429993,3 10.940002,3.75 10,5 L 9.4000244,5.7999878 C 8.8400269,6.5499878 7.9400024,7 7,7 4.2399902,7 2,9.2399902 2,12 v 12 c 0,2.76001 2.2399902,5 5,5 h 18 c 2.76001,0 5.042969,-2.23999 5.042969,-5 V 11.996094 c 0,-0.458975 0.03125,-2.8725537 -0.597839,-2.8725537 z M 16,24.34375 c -3.234985,0 -6,-2.765015 -6,-6.34375 0,-3.516235 2.515015,-6.09375 6,-6.09375 3.641235,0 6.46875,2.671265 6.46875,6.09375 0,3.578735 -2.890015,6.34375 -6.46875,6.34375 z"
     id="path2"
     sodipodi:nodetypes="ssssscaassssccsssssssssssss" />
  <path
     d="m 21.181143,7.6655177 h 2.539063 v 2.6495473 c 0,0.701093 0.567818,1.269532 1.269531,1.269532 0.701713,0 1.269531,-0.568439 1.269531,-1.269532 V 7.6655177 h 2.539063 c 0.701713,0 1.269531,-0.5684375 1.269531,-1.2695312 0,-0.7010937 -0.567818,-1.2695312 -1.269531,-1.2695312 H 26.259268 V 2.5873928 c 0,-0.7010936 -0.567818,-1.2695312 -1.269531,-1.2695312 -0.701713,0 -1.269531,0.5684376 -1.269531,1.2695312 v 2.5390625 h -2.539063 c -0.701713,0 -1.269531,0.5684375 -1.269531,1.2695312 0,0.7010937 0.567818,1.2695312 1.269531,1.2695312 z"
     id="path1"
     sodipodi:nodetypes="scssscssscssscsss"
     style="stroke-width:1.26953" />
  <circle
     cx="16.234375"
     cy="18.109375"
     r="4.734375"
     id="circle2"
     style="stroke-width:0.946875" />
</svg>
