<?xml version="1.0" encoding="UTF-8" standalone="no"?>
<!-- icon666.com - MILLIONS OF FREE VECTOR ICONS -->

<svg
   id="Layer_1"
   enable-background="new 0 0 48 48"
   viewBox="0 0 48 48"
   version="1.1"
   sodipodi:docname="chats_add.svg"
   inkscape:version="1.4 (86a8ad7, 2024-10-11)"
   xmlns:inkscape="http://www.inkscape.org/namespaces/inkscape"
   xmlns:sodipodi="http://sodipodi.sourceforge.net/DTD/sodipodi-0.dtd"
   xmlns="http://www.w3.org/2000/svg"
   xmlns:svg="http://www.w3.org/2000/svg">
  <defs
     id="defs1" />
  <sodipodi:namedview
     id="namedview1"
     pagecolor="#ffffff"
     bordercolor="#000000"
     borderopacity="0.25"
     inkscape:showpageshadow="2"
     inkscape:pageopacity="0.0"
     inkscape:pagecheckerboard="0"
     inkscape:deskcolor="#d1d1d1"
     showguides="true"
     inkscape:zoom="16"
     inkscape:cx="23.96875"
     inkscape:cy="30.65625"
     inkscape:window-width="1920"
     inkscape:window-height="1009"
     inkscape:window-x="-8"
     inkscape:window-y="-8"
     inkscape:window-maximized="1"
     inkscape:current-layer="Layer_1" />
  <path
     id="path1"
     d="M 1.5839844 8.4023438 C -0.29707614 8.4023438 2.2556046 10.987699 3.2675781 12.058594 C 4.2783052 13.12817 6.140625 14.80554 6.140625 15.5 L 6.140625 36.355469 C 6.140625 38.745395 8.2708434 40.402344 10.037109 40.402344 L 42.140625 40.402344 C 44.340625 40.402344 46.140625 38.602344 46.140625 36.402344 L 46.140625 12.402344 C 46.140625 10.202344 44.340625 8.4023438 42.140625 8.4023438 L 1.5839844 8.4023438 z M 26.410156 17.431641 C 27.548011 17.431641 28.46875 18.353384 28.46875 19.490234 L 28.46875 23.607422 L 32.585938 23.607422 C 33.723792 23.607422 34.644531 24.529167 34.644531 25.666016 C 34.644531 26.802866 33.723791 27.724609 32.585938 27.724609 L 28.46875 27.724609 L 28.46875 31.841797 C 28.46875 32.978646 27.548011 33.900391 26.410156 33.900391 C 25.272301 33.900391 24.351562 32.978646 24.351562 31.841797 L 24.351562 27.724609 L 20.234375 27.724609 C 19.096521 27.724609 18.175781 26.802866 18.175781 25.666016 C 18.175781 24.529167 19.096521 23.607422 20.234375 23.607422 L 24.351562 23.607422 L 24.351562 19.490234 C 24.351562 18.353384 25.272301 17.431641 26.410156 17.431641 z " />
</svg>
