<?xml version="1.0" encoding="UTF-8" standalone="no"?>
<!-- Created with Inkscape (http://www.inkscape.org/) -->

<svg
   version="1.1"
   id="svg1"
   width="637.33331"
   height="653.33331"
   viewBox="0 0 637.33331 653.33331"
   sodipodi:docname="chatify-logo-dark.svg"
   inkscape:version="1.4 (86a8ad7, 2024-10-11)"
   xmlns:inkscape="http://www.inkscape.org/namespaces/inkscape"
   xmlns:sodipodi="http://sodipodi.sourceforge.net/DTD/sodipodi-0.dtd"
   xmlns="http://www.w3.org/2000/svg"
   xmlns:svg="http://www.w3.org/2000/svg">
  <defs
     id="defs1" />
  <sodipodi:namedview
     id="namedview1"
     pagecolor="#ffffff"
     bordercolor="#000000"
     borderopacity="0.25"
     inkscape:showpageshadow="2"
     inkscape:pageopacity="0.0"
     inkscape:pagecheckerboard="0"
     inkscape:deskcolor="#d1d1d1"
     inkscape:zoom="0.61760206"
     inkscape:cx="318.97562"
     inkscape:cy="96.340352"
     inkscape:window-width="1920"
     inkscape:window-height="1009"
     inkscape:window-x="-8"
     inkscape:window-y="-8"
     inkscape:window-maximized="1"
     inkscape:current-layer="g1" />
  <g
     inkscape:groupmode="layer"
     inkscape:label="Image"
     id="g1">
    <path
       style="fill:#000000"
       d="m 290.66666,650.56237 c -11.55855,-1.26941 -31.88168,-5.12644 -45.6714,-8.66777 -22.76286,-5.84571 -61.23501,-21.52164 -79.61009,-32.43808 -5.0516,-3.0011 -10.90563,-5.45654 -13.00897,-5.45654 -2.10333,0 -10.09843,2.04923 -17.76689,4.55383 -7.66846,2.50461 -23.54265,7.36545 -35.27598,10.80186 -11.733333,3.43642 -29.170952,8.58719 -38.750265,11.44617 -19.105479,5.70209 -27.122032,6.4687 -30.658885,2.93184 -2.93416,-2.93415 -2.075304,-14.37236 2.482893,-33.06703 1.788036,-7.33334 5.169872,-22.03333 7.51519,-32.66667 2.345317,-10.63333 5.0896,-22.93333 6.098406,-27.33333 7.996969,-34.87951 8.013055,-35.96365 0.71062,-47.89442 C 18.674123,446.93225 1.1898853,384.169 1.401218,330.05067 1.5814106,283.90673 8.3367325,247.75966 24.210579,207.99999 53.62358,134.32843 109.66826,73.079223 180.33633,37.375812 212.23676,21.258855 245.58544,10.92234 283.99999,5.2449715 c 30.92626,-4.5706582 78.44214,-2.511961 111.33333,4.8236855 34.84664,7.771765 76.51334,24.678377 102.61249,41.63588 10.23222,6.648218 33.29944,23.797626 40.68758,30.249331 20.19016,17.631073 42.92591,43.641372 58.31403,66.712792 14.88607,22.31869 39.27849,73.34677 37.40055,78.24061 -0.40027,1.0431 -5.74232,3.86753 -11.87121,6.27651 -15.3454,6.03157 -70.77641,26.69417 -87.81011,32.73231 -7.7,2.72951 -17.96315,6.47573 -22.80701,8.32492 -4.84386,1.8492 -9.8547,3.15146 -11.1352,2.89391 -1.2805,-0.25754 -3.77308,-3.04457 -5.53905,-6.19339 -24.69321,-44.0291 -60.45783,-81.28538 -92.99514,-96.87374 -22.5247,-10.7914 -44.7548,-14.55312 -81.20783,-13.74177 -27.42882,0.61049 -36.35637,2.19207 -55.57184,9.84494 -16.83898,6.7064 -35.59626,18.40662 -54.66287,34.09704 -19.50248,16.04911 -37.87141,44.62688 -47.35121,73.66747 -13.84083,42.40022 -7.73204,95.87088 15.39228,134.72967 19.78835,33.25292 50.3203,59.37463 84.87038,72.61112 24.44074,9.3635 42.66373,11.9367 88.51977,12.49952 l 32.8456,0.40314 11.1544,5.49164 c 6.13491,3.02039 16.33052,7.8679 22.6569,10.77224 6.32638,2.90433 11.91179,5.94284 12.41202,6.75223 0.50023,0.80939 2.0741,1.47162 3.49749,1.47162 2.48814,0 2.58798,-1.20565 2.58798,-31.25364 v -31.25363 l 6.92875,-9.0797 c 3.81081,-4.99383 13.59619,-17.17969 21.74529,-27.07969 8.14911,-9.9 16.57123,-20.4 18.71583,-23.33334 5.69817,-7.79382 14.4054,-18.51779 15.94346,-19.63622 0.73333,-0.53326 2.53333,-0.61375 4,-0.17886 4.21493,1.24979 126.05528,52.2554 127.13584,53.22244 0.96857,0.86681 -4.45005,15.13475 -11.61835,30.59264 -38.65544,83.35759 -113.25476,147.46403 -202.18415,173.74563 -19.16232,5.6631 -23.21402,6.55521 -44,9.68802 -21.30315,3.21074 -64.81167,4.4962 -83.33333,2.46207 z"
       id="path1"
       sodipodi:nodetypes="ssssssssssssssssssssssssscsssssssscssssscssssssssss" />
    <path
       d="m 372.48387,399.19777 -13.18099,-11.40894 h -40.50266 c -53.12159,0 -62.04072,-2.22614 -80.63333,-20.12525 -11.20697,-10.789 -14.89294,-23.77675 -14.07334,-49.5895 0.55594,-17.50747 1.84299,-19.59792 6.64062,-27.84672 6.46422,-11.11434 16.96157,-21.51732 28.18833,-26.32966 13.28562,-5.69488 31.63927,-5.39953 86.32893,-4.44209 59.31358,1.0384 61.73403,1.42639 75.4432,13.68654 5.53437,4.94932 10.62487,12.86764 13.05264,18.04846 4.15379,8.86415 4.40548,10.75418 4.40548,33.07565 0,0 0.13044,16.04151 -1.97928,23.67428 -0.80323,2.90639 -3.98278,8.12206 -3.98278,8.12206 -3.27917,4.46714 -9.11545,10.68263 -12.96952,13.81222 -7.26574,5.89994 -23.96194,13.25478 -27.0701,14.65431 -1.3786,0.62078 -2.07879,3.55551 -2.07879,13.03879 0,9.86947 -0.53564,13.03879 -2.20371,13.03879 -1.212,0 -8.1351,-5.13402 -15.3847,-11.40894 z m 19.33533,-28.57376 c 6.57786,-2.27507 14.35154,-5.32327 20.02452,-10.15693 12.13715,-9.82661 12.53935,-23.91744 12.41955,-38.55906 -0.0391,-21.47164 -0.21059,-23.05205 -5.71989,-32.61721 -3.47908,-6.04035 -11.16074,-11.60045 -16.00426,-13.46001 -7.99071,-3.06783 -23.44687,-4.52072 -67.88162,-4.52072 -63.01252,0 -60.55259,-0.11067 -71.00962,4.2489 -10.11475,4.21684 -17.20682,13.45824 -21.20903,22.79504 -2.37717,5.54548 -3.94241,13.65238 -3.94241,25.43557 0,13.75059 0.0119,17.52832 3.99433,24.94991 4.50634,8.39807 8.77165,12.94395 21.02632,19.37543 0,0 6.23233,2.6539 9.53717,3.25585 18.29936,3.33311 55.77392,1.74942 55.77392,1.74942 45.85928,0 57.05681,-0.44374 62.99102,-2.49619 z"
       style="fill:#000000;stroke:#000000;stroke-width:13.4462;stroke-dasharray:none;stroke-opacity:1"
       id="path1-8"
       sodipodi:nodetypes="scsssssssscscssssssssassscsacscs" />
    <circle
       style="fill:#000000;fill-rule:evenodd;stroke-width:0.84456"
       id="path2"
       cx="291.34857"
       cy="322.51755"
       r="16.495249" />
    <circle
       style="fill:#000000;fill-rule:evenodd;stroke-width:0.84456"
       id="path2-2"
       cx="332.04501"
       cy="321.81619"
       r="16.495249" />
    <circle
       style="fill:#000000;fill-rule:evenodd;stroke-width:0.84456"
       id="path2-2-2"
       cx="372.24741"
       cy="322.44733"
       r="16.495249" />
  </g>
</svg>
