<?xml version="1.0" encoding="UTF-8" standalone="no"?>
<!-- icon666.com - MILLIONS OF FREE VECTOR ICONS -->

<svg
   id="Layer_1"
   enable-background="new 0 0 48 48"
   viewBox="0 0 48 48"
   version="1.1"
   sodipodi:docname="chats.svg"
   inkscape:version="1.4 (86a8ad7, 2024-10-11)"
   xmlns:inkscape="http://www.inkscape.org/namespaces/inkscape"
   xmlns:sodipodi="http://sodipodi.sourceforge.net/DTD/sodipodi-0.dtd"
   xmlns="http://www.w3.org/2000/svg"
   xmlns:svg="http://www.w3.org/2000/svg">
  <defs
     id="defs1" />
  <sodipodi:namedview
     id="namedview1"
     pagecolor="#ffffff"
     bordercolor="#000000"
     borderopacity="0.25"
     inkscape:showpageshadow="2"
     inkscape:pageopacity="0.0"
     inkscape:pagecheckerboard="0"
     inkscape:deskcolor="#d1d1d1"
     showguides="true"
     inkscape:zoom="4"
     inkscape:cx="-40.125"
     inkscape:cy="4.125"
     inkscape:window-width="1920"
     inkscape:window-height="1009"
     inkscape:window-x="-8"
     inkscape:window-y="-8"
     inkscape:window-maximized="1"
     inkscape:current-layer="Layer_1" />
  <path
     d="M 42.141264,8.401487 H 1.5840375 c -1.88106052,0 0.6717033,2.586515 1.6836768,3.65741 1.0107271,1.069576 2.8735497,2.746158 2.8735497,3.440618 V 36.35644 c 0,2.389926 2.129644,4.045047 3.89591,4.045047 h 32.10409 c 2.2,0 4,-1.8 4,-4 v -24 c 0,-2.2 -1.8,-4 -4,-4 z M 31.062155,30.244838 H 14.057147 c -1.008787,0 -1.728002,-0.364077 -1.728002,-1.342752 0,-1.017761 0.80654,-1.442256 1.728002,-1.442256 h 17.005008 c 0.88491,0 1.69285,0.518252 1.69285,1.428201 0,0.965106 -0.830815,1.356807 -1.69285,1.356807 z m 7.079109,-9.674461 h -24 c -0.766036,0 -1.786063,-0.261919 -1.786063,-1.349271 0,-1.093406 1.015726,-1.493794 1.786063,-1.493794 h 24 c 0.797571,0 1.605948,0.455386 1.605948,1.508664 0,0.88605 -0.820905,1.334401 -1.605948,1.334401 z"
     id="path1"
     sodipodi:nodetypes="ssssssssssssssssssssssss" />
</svg>
