<?xml version="1.0" encoding="UTF-8" standalone="no"?>
<!-- icon666.com - MILLIONS OF FREE VECTOR ICONS -->

<svg
   id="Layer_1"
   enable-background="new 0 0 48 48"
   viewBox="0 0 24 24"
   version="1.1"
   sodipodi:docname="chats_add.svg"
   inkscape:version="1.4.2 (f4327f4, 2025-05-13)"
   width="24"
   height="24"
   xmlns:inkscape="http://www.inkscape.org/namespaces/inkscape"
   xmlns:sodipodi="http://sodipodi.sourceforge.net/DTD/sodipodi-0.dtd"
   xmlns="http://www.w3.org/2000/svg"
   xmlns:svg="http://www.w3.org/2000/svg">
  <defs
     id="defs1" />
  <sodipodi:namedview
     id="namedview1"
     pagecolor="#ffffff"
     bordercolor="#000000"
     borderopacity="0.25"
     inkscape:showpageshadow="2"
     inkscape:pageopacity="0.0"
     inkscape:pagecheckerboard="0"
     inkscape:deskcolor="#d1d1d1"
     showguides="true"
     inkscape:zoom="32"
     inkscape:cx="8.421875"
     inkscape:cy="14.390625"
     inkscape:window-width="1920"
     inkscape:window-height="1009"
     inkscape:window-x="-8"
     inkscape:window-y="-8"
     inkscape:window-maximized="1"
     inkscape:current-layer="Layer_1" />
  <path
     id="path1"
     d="m 2.6595931,4.6900332 c -0.3072576,0 -0.6633015,0.495118 -0.5223706,0.7594695 0.1993339,0.3739009 0.7633317,0.8387333 1.1258411,1.2607543 0.4255066,0.49536 1.4185576,1.4056046 1.4185576,1.4056046 v 9.8137344 c 0,1.06054 0.9452931,1.795817 1.729081,1.795817 H 19.464181 c 0.976259,0 1.775017,-0.798756 1.775017,-1.775016 V 6.4650498 c 0,-0.9762591 -0.798758,-1.7750166 -1.775017,-1.7750166 z M 13.013805,8.5124617 c 0.504928,0 1.03851,0.4090278 1.03851,0.9135092 v 2.4015431 h 2.379447 c 0.504927,0 0.913509,0.500537 0.913509,1.005019 0,0.504482 -0.408583,0.987728 -0.913509,0.987728 h -2.379447 v 2.320413 c 0,0.504482 -0.533582,0.913511 -1.03851,0.913511 -0.504928,0 -0.976009,-0.409029 -0.976009,-0.913511 v -2.320413 h -2.32878 c -0.5049269,0 -0.9135099,-0.483246 -0.9135099,-0.987728 0,-0.504482 0.408583,-1.005019 0.9135099,-1.005019 h 2.32878 V 9.4259709 c 0,-0.5044814 0.471081,-0.9135092 0.976009,-0.9135092 z"
     sodipodi:nodetypes="ssscssssssssscssscssscssscss"
     style="stroke-width:0.443755" />
</svg>
