<?xml version="1.0" encoding="UTF-8" standalone="no"?>

<svg
   id="Layer_1"
   enable-background="new 0 0 512 512"
   viewBox="0 0 1350 700"
   version="1.1"
   xml:space="preserve"
   width="1350"
   height="700"
   xmlns="http://www.w3.org/2000/svg">
    <defs id="defs5" />
    <g
        id="g1"
        style="fill:#ffffff;fill-opacity:1;stroke:#000000;stroke-width:12;stroke-dasharray:none;stroke-opacity:1"
        transform="matrix(1.0632591,0,0,1.0632591,-0.56914221,99.43016)"><path
        d="m 255.997,15.008 c -133.102,0 -241,107.898 -241,241 0,133.1 107.898,241 241,241 133.1,0 241,-107.9 241,-241 0,-133.102 -107.9,-241 -241,-241 z m 176.732,241 c 0,37.194 -11.498,71.696 -31.123,100.168 L 155.829,110.396 C 184.3,90.773 218.802,79.273 255.997,79.273 c 97.607,0 176.732,79.125 176.732,176.735 z m -353.464,0 c 0,-37.194 11.496,-71.695 31.119,-100.166 L 356.165,401.617 C 327.694,421.241 293.19,432.74 255.997,432.74 158.39,432.74 79.265,353.615 79.265,256.008 Z"
        fill="#ff5b5b"
        id="path1"
        style="fill:#ffffff;fill-opacity:1;stroke:#000000;stroke-width:12;stroke-dasharray:none;stroke-opacity:1" /></g><g
        id="Layer_1-1"
        transform="translate(546.18303,-162.71974)">
    <path
        d=""
        style="fill:#ffffff;stroke:#000000;stroke-width:12.4726"
        id="path20" />
    <path
        d=""
        style="fill:#ffffff;stroke:#000000;stroke-width:3.11815"
        id="path19" />
    <path
        id="path18"
        style="fill:#c7f5de;fill-opacity:1;stroke:#000000;stroke-width:12;stroke-dasharray:none"
        d="m 45.531424,518.65246 c -8.205446,-0.003 -16.39068,1.93934 -24.243576,5.82384 -8.555747,4.23217 -14.9645327,9.55679 -20.74424974,17.24259 -3.41632596,4.54297 -7.91606196,14.00909 -9.27490996,19.50905 -4.7518723,19.23352 0.365455,39.03674 13.824047,53.51302 l 3.48627,3.75315 -3.656323,33.26728 c -4.00138704,36.40967 -4.01141704,36.75349 -1.34086,42.10093 2.659117,5.32455 7.3313717,9.23014 12.8429207,10.73513 3.590308,0.98037 52.51184,1.18 56.918331,0.2323 3.07631,-0.66164 6.079435,-2.07082 8.643679,-4.05179 4.131904,-3.19204 7.436922,-10.05638 7.436922,-15.44402 0,-1.38122 -1.528099,-16.42032 -3.394601,-33.4199 -1.866693,-16.99958 -3.391449,-31.64742 -3.391449,-32.55383 0,-1.31327 0.639138,-2.2918 3.152673,-4.81172 6.326232,-6.34222 11.409363,-15.46594 13.944991,-25.03757 1.216661,-4.59238 1.362181,-6.10609 1.360501,-14.14978 -10e-4,-7.47975 -0.18837,-9.68155 -1.08905,-12.99498 -4.719117,-17.36145 -15.206734,-30.5504 -30.117227,-37.86994 -7.927034,-3.89133 -16.152617,-5.8402 -24.358089,-5.84376 z m -0.06547,-337.89284 c -92.529309,0 -135.830179,72.27736 -135.830179,166.16399 v 65.63858 h -34.444005 c -50.02641,0 -55.52186,42.97757 -55.52186,69.92932 v 263.27442 c 0,26.82981 31.54829,48.64819 57.99102,48.64819 h 335.61015 c 26.44141,0 89.33987,-21.81726 89.33987,-48.64819 V 475.69535 c 0,-34.44402 -37.8143,-63.13316 -90.21963,-63.13316 h -28.79268 v -65.63858 c 0,-93.88663 -45.60339,-166.16399 -138.132648,-166.16399 z m 0,72.97229 c 52.872006,0 74.787916,39.54348 74.787916,93.1917 v 65.63858 H -27.016309 v -65.63858 c 0,-53.64822 19.6102463,-93.1917 72.482226,-93.1917 z m 0.06547,264.92055 c 8.205472,0.003 16.431055,1.95243 24.358089,5.84376 14.910493,7.31949 25.39811,20.50855 30.117227,37.86994 0.90068,3.31342 1.08754,5.51525 1.08905,12.99498 0.001,8.04368 -0.14401,9.55743 -1.360501,14.14978 -2.535628,9.57159 -7.618759,18.69536 -13.944991,25.03757 -2.513535,2.51992 -3.152673,3.49846 -3.152673,4.81172 0,0.90641 1.524756,15.5543 3.391449,32.55383 1.866502,16.99951 3.394601,32.03871 3.394601,33.4199 0,5.38761 -3.305018,12.25198 -7.436922,15.44402 -2.564244,1.98097 -5.567369,3.39015 -8.643679,4.05179 -4.406491,0.9477 -53.328049,0.74807 -56.918331,-0.2323 -5.511537,-1.50498 -10.1838167,-5.4106 -12.8429207,-10.73513 -2.67055704,-5.34742 -2.66051404,-5.69136 1.34086,-42.10093 l 3.656323,-33.26728 -3.48627,-3.75315 C -8.3658317,600.26473 -13.483184,580.4614 -8.7313117,561.22794 -7.3724637,555.728 -2.8727277,546.26183 0.54359826,541.71889 6.3233023,534.03313 12.732139,528.70846 21.287848,524.4763 c 7.852845,-3.8845 16.038142,-5.82741 24.243576,-5.82384 z" />
    </g>
    <g id="g8" transform="matrix(0.57336961,0,0,0.58730288,203.94992,108.90898)">
    <circle
       style="display:inline;fill:#1da960;fill-opacity:1;fill-rule:evenodd;stroke:#000000;stroke-width:19.1057;stroke-dasharray:none;stroke-opacity:1"
       id="path6"
       cx="1405.1519"
       cy="456.70721"
       r="448.5665" /><path
       style="fill:none;fill-rule:evenodd;stroke:#000000;stroke-width:19.1057;stroke-dasharray:none;stroke-opacity:1"
       id="path7"
       d="m 1411.4305,847.13419 a 390.51669,390.51669 0 0 1 -338.1973,-195.25835 390.51669,390.51669 0 0 1 0,-390.5167 390.51669,390.51669 0 0 1 338.1973,-195.25834" />
    <circle
       style="fill:none;fill-rule:evenodd;stroke:#000000;stroke-width:15.9214;stroke-dasharray:none;stroke-opacity:1"
       id="path5"
       cx="1547.1504"
       cy="116.50346"
       r="27.986856" /><circle
       style="fill:none;fill-rule:evenodd;stroke:#000000;stroke-width:15.9214;stroke-dasharray:none;stroke-opacity:1"
       id="path5-3"
       cx="1701.8833"
       cy="242.87398"
       r="27.986856" /><circle
       style="fill:none;fill-rule:evenodd;stroke:#000000;stroke-width:15.9214;stroke-dasharray:none;stroke-opacity:1"
       id="path5-3-9"
       cx="1770.8524"
       cy="443.91721"
       r="27.986856" /><circle
       style="fill:none;fill-rule:evenodd;stroke:#000000;stroke-width:15.9214;stroke-dasharray:none;stroke-opacity:1"
       id="path5-3-0"
       cx="1699.7598"
       cy="681.56421"
       r="27.986856" /><circle
       style="fill:none;fill-rule:evenodd;stroke:#000000;stroke-width:15.9214;stroke-dasharray:none;stroke-opacity:1"
       id="path5-3-2"
       cx="1549.1947"
       cy="791.58789"
       r="27.986856" /><path
       style="fill:none;stroke:#000000;stroke-width:19.9123;stroke-dasharray:none;stroke-opacity:1"
       d="m 1556.2659,315.39666 -118.1539,181.1979 c -16.7895,25.74738 -52.1003,31.44839 -76.1392,12.29416 v 0 c -24.0403,-19.15534 -26.3689,-54.8477 -5.02,-76.9619 L 1507.1883,276.2904 c 11.2865,-11.69119 29.6109,-12.88759 42.3205,-2.75947 v 0 c 12.7064,10.12459 15.6338,28.25339 6.7571,41.86573 z"
       id="path7-7" /></g><g
     id="g6"
     transform="matrix(0.62808494,0,0,0.62808494,319.06657,96.533519)">
    <path
        id="path1-9"
        d="m 632.31854,768.8056 c -68.59225,0 -98.03099,23.29703 -98.03099,74.34424 0,51.0476 29.43874,73.57268 98.03099,73.57268 h 902.83836 c 68.5923,0 98.0309,-22.52508 98.0309,-73.57268 0,-51.04721 -29.4364,-74.34424 -98.0282,-74.34424 z"
        style="fill:#fffcfc;fill-opacity:1;stroke:#000000;stroke-width:13.7568;stroke-dasharray:none;stroke-opacity:1" /><path
        id="path1-9-9"
        d="m 614.06625,775.88354 c -47.71843,0 -73.80547,25.41173 -73.80547,69.13907 0,43.72768 26.08704,65.75051 73.80547,65.75051 h 384.00877 c 47.71848,0 86.54258,-18.83855 86.54258,-62.56623 0,-43.72734 -38.8226,-72.32335 -86.54078,-72.32335 z"
        style="fill:#1da960;fill-opacity:1;stroke:none;stroke-width:10.6198;stroke-dasharray:none;stroke-opacity:1" /><circle
        style="fill:#1da960;fill-opacity:1;fill-rule:evenodd;stroke:#000000;stroke-width:11.1689;stroke-dasharray:none;stroke-opacity:1"
        id="path40"
        cx="1026.6361"
        cy="840.42834"
        r="94.71376" />
    </g>
</svg>
