<?xml version="1.0" encoding="UTF-8" standalone="no"?>

<svg
   enable-background="new 0 0 512 512"
   viewBox="0 0 512 512"
   version="1.1"
   id="svg10"
   xmlns="http://www.w3.org/2000/svg">
  <defs id="defs10" />
  <g id="_x35_7_Christmas">
    <g
       id="g10">
      <g
         id="g11"
         transform="rotate(-35.798299,294.71587,260.51159)">
        <path
           d="m 84.263544,286.562 c 14.979,9.826 50.847996,-15.897 93.746996,-63.51 v 21.25 h 263.987 v -36.753 c 0,-89.981 -72.944,-162.925 -162.925,-162.925 -63.156,0 -120.635,36.477 -147.469,93.649 -30.091,64.114 -61.300996,139.146 -47.339996,148.289 z"
           fill="#f14f4a"
           id="path1" />
        <path
           d="m 84.263544,286.562 c 14.979,9.826 50.847996,-15.897 93.746996,-63.51 v 21.25 h 263.987 v -36.748 c 0,-21.849 -4.314,-42.7 -12.103,-61.753 -25.764,17.335 -56.8,27.481 -90.232,27.481 -68.144,0 -126.421,-42.18 -150.188,-101.816 -24.605,16.217 -44.857,39.065 -57.878,66.825 -30.077,64.11 -61.312996,139.124 -47.332996,148.271 z"
           opacity="0.12"
           id="path2" />
        <path
           d="m 158.61254,271.286 c 0.123,0.17 0.246,0.34 0.37,0.509 9.231,12.716 26.516,16.599 40.239,8.946 68.794,-38.361 152.778,-38.361 221.572,0 13.724,7.653 31.009,3.77 40.239,-8.946 0.123,-0.17 0.246,-0.34 0.37,-0.509 10.921,-15.044 6.404,-36.381 -9.829,-45.44 -87.886,-49.048 -195.246,-49.048 -283.132,0 -16.233,9.06 -20.749,30.396 -9.829,45.44 z"
           fill="#e8f1f8"
           id="path3" />
        <path
           d="m 44.623544,293.351 c 0,20.039 16.191,36.23 36.231,36.23 19.995996,0 36.185996,-16.191 36.185996,-36.23 0,-19.996 -16.191,-36.187 -36.185996,-36.187 -20.04,0 -36.231,16.191 -36.231,36.187 z"
           fill="#e8f1f8"
           id="path6" />
      </g>
    </g>
  </g>
</svg>
