<?xml version="1.0" encoding="UTF-8" standalone="no"?>
<!-- icon666.com - MILLIONS OF FREE VECTOR ICONS -->

<svg
   version="1.1"
   id="Capa_1"
   x="0px"
   y="0px"
   viewBox="0 0 511.999 511.999"
   style="enable-background:new 0 0 511.999 511.999;"
   xml:space="preserve"
   sodipodi:docname="broom_le6ard1ct8j8.svg"
   inkscape:version="1.4 (86a8ad7, 2024-10-11)"
   xmlns:inkscape="http://www.inkscape.org/namespaces/inkscape"
   xmlns:sodipodi="http://sodipodi.sourceforge.net/DTD/sodipodi-0.dtd"
   xmlns="http://www.w3.org/2000/svg"
   xmlns:svg="http://www.w3.org/2000/svg"><defs
     id="defs2" /><sodipodi:namedview
     id="namedview2"
     pagecolor="#ffffff"
     bordercolor="#000000"
     borderopacity="0.25"
     inkscape:showpageshadow="2"
     inkscape:pageopacity="0.0"
     inkscape:pagecheckerboard="0"
     inkscape:deskcolor="#d1d1d1"
     inkscape:zoom="0.55726201"
     inkscape:cx="-34.992517"
     inkscape:cy="386.71217"
     inkscape:window-width="1920"
     inkscape:window-height="1009"
     inkscape:window-x="-8"
     inkscape:window-y="-8"
     inkscape:window-maximized="1"
     inkscape:current-layer="g1" /><g
     id="g2"><g
       id="g1"><path
         id="path1"
         d="m 496.12072,0.26341224 c -3.66555,-0.05523 -7.64931,1.39900596 -11.53125,5.05663996 L 336.35314,153.57982 l -2.94531,-2.94531 c -13.49464,-13.49464 -33.86315,-26.30695 -54.38194,-33.04376 -23.31997,-7.65651 -44.03777,-4.95306 -65.96767,3.35821 0,0 -91.17795,63.71777 -124.093323,82.76711 -24.782445,14.34251 -76.159096,39.7327 -76.159096,39.7327 -3.4469996,2.692 -5.5747966,6.73556 -5.8417966,11.10156 -0.267,4.366 1.389767,8.59661 4.4433586,11.72852 L 238.7882,499.49177 c 2.83541,2.90813 6.75992,4.47461 10.79492,4.47461 0.31,0 0.62159,-0.0103 0.93359,-0.0293 4.366,-0.268 8.40761,-2.3958 11.09961,-5.8418 0,0 27.61901,-51.67283 42.44455,-76.93091 19.85484,-33.82641 88.35672,-120.85408 88.35672,-120.85408 22.264,-28.506 19.76546,-69.29019 -5.81054,-94.86719 L 357.94689,175.17357 506.68908,25.382552 c 8.48896,-9.161897 4.27081,-16.3826238 -0.94336,-21.1249998 -2.61174,-2.375423 -5.95945,-3.93890796 -9.625,-3.99413996 z M 264.65907,140.42015 c 41.46348,17.67474 75.87491,60.34093 103.94125,91.54764 14.688,14.687 12.53391,33.17272 -0.25109,49.54172 l -41.97435,48.71877 -149.01654,-147.45971 52.25364,-38.20182 c 8.1835,-6.3925 25.8288,-7.33805 35.04709,-4.1466 z M 152.21501,198.11904 311.41089,355.6293 c 0,0 -20.32352,30.60778 -29.66957,46.41335 -12.21328,20.65448 -34.46365,63.19971 -34.46365,63.19971 L 45.432456,261.15404 c 0,0 40.178297,-21.66117 59.792924,-33.31622 15.93248,-9.46711 46.98963,-29.71878 46.98963,-29.71878 z"
         sodipodi:nodetypes="sccsscscssssccsccccssscccccsccaccac" /></g></g></svg>
