<?xml version="1.0" encoding="UTF-8" standalone="no"?>
<!-- icon666.com - MILLIONS OF FREE VECTOR ICONS -->

<svg
   version="1.1"
   id="Capa_1"
   x="0px"
   y="0px"
   viewBox="0 0 285.102 285.102"
   style="enable-background:new 0 0 285.102 285.102;"
   xml:space="preserve"
   sodipodi:docname="clipboard.svg"
   inkscape:version="1.4.2 (f4327f4, 2025-05-13)"
   xmlns:inkscape="http://www.inkscape.org/namespaces/inkscape"
   xmlns:sodipodi="http://sodipodi.sourceforge.net/DTD/sodipodi-0.dtd"
   xmlns="http://www.w3.org/2000/svg"
   xmlns:svg="http://www.w3.org/2000/svg"><defs
     id="defs9" /><sodipodi:namedview
     id="namedview9"
     pagecolor="#ffffff"
     bordercolor="#999999"
     borderopacity="1"
     inkscape:showpageshadow="2"
     inkscape:pageopacity="0"
     inkscape:pagecheckerboard="0"
     inkscape:deskcolor="#d1d1d1"
     showguides="true"
     inkscape:zoom="1.0007562"
     inkscape:cx="164.87532"
     inkscape:cy="162.37721"
     inkscape:window-width="1920"
     inkscape:window-height="1009"
     inkscape:window-x="-8"
     inkscape:window-y="-8"
     inkscape:window-maximized="1"
     inkscape:current-layer="g9" /><g
     id="g9"><path
       id="path1"
       style="fill:#000002"
       d="m 104.51597,3.7265866 c -7.444002,0 -13.500004,6.056 -13.500004,13.5000004 v 5.785156 H 60.826513 c -12.406,0 -22.5,10.094 -22.5,22.5 V 253.96562 c 0,12.406 10.094,22.5 22.5,22.5 l 33.60667,0 c 3.29445,0 6.564037,-4.04277 6.630187,-7.33889 0.0667,-3.32306 -3.697987,-7.66111 -6.38214,-7.66111 l -33.854717,0 c -4.136,0 -7.5,-3.364 -7.5,-7.5 V 45.511743 c 0,-4.136 3.364,-7.5 7.5,-7.5 h 30.189453 v 6.787109 c 0,7.444 6.056002,13.5 13.500004,13.5 h 69.00586 c 7.444,0 13.5,-6.056 13.5,-13.5 v -6.787109 h 30.1875 c 4.136,0 7.5,3.364 7.5,7.5 l 0,23.67056 c 0,3.31618 4.22959,6.61997 7.47969,6.629606 3.65678,0.01084 7.51835,-3.399885 7.51835,-6.586549 l 0,-23.713617 c 0,-12.407 -10.094,-22.5 -22.5,-22.5 h -30.1875 v -5.785156 c 0,-7.4440004 -6.056,-13.5000004 -13.5,-13.5000004 z m 1.5,15.0000004 h 66.00586 v 24.572265 h -66.00586 z"
       sodipodi:nodetypes="sscsssssassssscsssscssssssscsssccccc" /><rect
       style="display:inline;fill:none;fill-rule:evenodd;stroke:#000000;stroke-width:14.9778;stroke-linecap:round;stroke-linejoin:round;stroke-miterlimit:16.1;stroke-dasharray:none;paint-order:stroke fill markers"
       id="rect10"
       width="127.64188"
       height="177.52939"
       x="118.53912"
       y="91.435081"
       rx="8.9293108"
       ry="9.9214563" /></g></svg>
