<?xml version="1.0" encoding="UTF-8" standalone="no"?>
<!-- icon666.com - MILLIONS OF FREE VECTOR ICONS -->

<svg
   fill="none"
   viewBox="0 0 24 24"
   version="1.1"
   id="svg3"
   sodipodi:docname="community_users.svg"
   inkscape:version="1.4 (86a8ad7, 2024-10-11)"
   xmlns:inkscape="http://www.inkscape.org/namespaces/inkscape"
   xmlns:sodipodi="http://sodipodi.sourceforge.net/DTD/sodipodi-0.dtd"
   xmlns="http://www.w3.org/2000/svg"
   xmlns:svg="http://www.w3.org/2000/svg">
  <defs
     id="defs3" />
  <sodipodi:namedview
     id="namedview3"
     pagecolor="#ffffff"
     bordercolor="#000000"
     borderopacity="0.25"
     inkscape:showpageshadow="2"
     inkscape:pageopacity="0.0"
     inkscape:pagecheckerboard="0"
     inkscape:deskcolor="#d1d1d1"
     inkscape:zoom="8"
     inkscape:cx="-12.6875"
     inkscape:cy="-6.6875"
     inkscape:window-width="1920"
     inkscape:window-height="1009"
     inkscape:window-x="-8"
     inkscape:window-y="-8"
     inkscape:window-maximized="1"
     inkscape:current-layer="g3"
     showguides="true" />
  <g
     clip-rule="evenodd"
     fill="rgb(0,0,0)"
     fill-rule="evenodd"
     id="g3">
    <path
       d="m 5.5371271,7.8587252 c 0,-1.8746765 1.519727,-3.3944039 3.394404,-3.3944039 1.8746909,0 3.3944039,1.5197274 3.3944039,3.3944039 0,1.8746914 -1.519713,3.3944048 -3.3944039,3.3944048 -1.874677,0 -3.394404,-1.5197134 -3.394404,-3.3944048 z"
       id="path1"
       style="stroke-width:0.754312" />
    <path
       d="m 12.85473,18.02757 c -1.271206,0.704597 -2.78696,1.027434 -4.2403299,1.01558 -1.362565,-0.01112 -2.782907,-0.32931 -3.959344,-1.016846 -0.699103,-0.408571 -1.31386,-1.031806 -1.681291,-1.753381 -0.428832,-0.842152 -0.716236,-1.870409 -0.500773,-2.790568 0.10502,-0.448498 0.361957,-1.110391 0.822587,-1.110391 H 14.215423 c 0.461334,0 0.722976,0.662027 0.823632,1.112246 0.221145,0.989152 -0.114644,2.089967 -0.596624,2.981606 -0.353013,0.653053 -0.93841,1.201868 -1.587701,1.561754 z"
       id="path2"
       sodipodi:nodetypes="aaaaassaaa"
       style="stroke-width:0.843506" />
    <path
       d="m 15.777123,8.9202655 c 0,-1.4522207 1.177258,-2.6294798 2.62948,-2.6294798 1.452232,0 2.629481,1.1772591 2.629481,2.6294798 0,1.4522325 -1.177249,2.6294815 -2.629481,2.6294815 -1.452222,0 -2.62948,-1.177249 -2.62948,-2.6294815 z"
       id="path1-48"
       style="stroke-width:0.584329"
       sodipodi:nodetypes="sssss" />
    <path
       id="path2-82-5"
       style="stroke-width:0.653424"
       d="m 15.505803,12.331726 c -0.226297,0 -0.0188,0.284812 0.154553,0.688269 0.205573,0.478448 0.299062,1.115811 0.299062,1.53077 0,0.739267 -0.333099,1.445702 -0.906675,2.09541 -0.190742,0.234568 1.294853,0.769865 2.245789,0.85352 1.125855,0.0092 2.300414,-0.241295 3.285156,-0.78711 0.502973,-0.278787 0.955055,-0.703096 1.228516,-1.208984 0.373377,-0.690711 0.634202,-1.5443 0.462891,-2.310547 -0.07797,-0.348764 -0.281297,-0.861328 -0.638672,-0.861328 z"
       sodipodi:nodetypes="sssscscsss" />
  </g>
</svg>
