<?xml version="1.0" encoding="UTF-8" standalone="no"?>

<svg
   width="620mm"
   height="620mm"
   viewBox="0 0 620 620"
   version="1.1"
   id="svg1"
   xml:space="preserve"
   xmlns="http://www.w3.org/2000/svg">
    <g
     id="layer1"><rect
       style="fill:#ff0000;fill-opacity:1;fill-rule:evenodd;stroke:#000000;stroke-width:15;stroke-linecap:round;stroke-dasharray:none;stroke-opacity:1"
       id="rect4"
       width="72.328407"
       height="289.31363"
       x="422.18991"
       y="101.20129"
       rx="36.164204"
       ry="44.479916"
       transform="rotate(48.003021)" /><circle
       style="fill:#ff0000;fill-rule:evenodd;stroke:#000000;stroke-width:15;stroke-dasharray:none;stroke-opacity:1;fill-opacity:1"
       id="path4"
       cx="340.16873"
       cy="281.21912"
       r="272.52402" /><circle
       style="fill:none;fill-rule:evenodd;stroke:#000000;stroke-width:14.3405;stroke-dasharray:none;stroke-opacity:1"
       id="path3"
       cx="337.38531"
       cy="219.99632"
       r="67.950668" /><path
       d="m 340.76318,45.059762 c -130.74626,0 -238.14675,117.076418 -236.1309,239.611588 0.93235,56.67327 22.5232,114.3175 69.47663,161.27094 48.04727,48.04728 107.12807,69.88337 165.08101,69.88337 126.82588,0 237.26998,-107.63962 237.26998,-231.0417 C 576.3122,154.67329 470.87387,45.206971 340.76318,45.059762 Z m 0,15.029247 c 127.9634,0 217.97195,112.980451 217.97195,224.684301 0,58.74262 -19.08254,87.91863 -46.43774,126.78764 -44.41036,-44.27593 -108.82602,-76.57174 -171.53421,-77.13755 -62.7082,0.56583 -127.43197,33.93959 -171.84235,78.21551 -24.35146,-34.60102 -47.06822,-78.88092 -47.06822,-127.54825 0,-110.44907 94.13592,-225.001651 218.91057,-225.001651 z m -1.95803,437.835961 c -55.41893,-0.55781 -119.25933,-32.56626 -157.95603,-72.24165 38.68765,-39.68856 104.49185,-73.19438 159.91406,-73.73661 55.42149,0.54572 122.11278,33.60216 160.80246,73.28779 -38.70169,39.66809 -107.34336,72.12395 -162.76049,72.69047 z"
       id="path1"
       style="fill:#000000;stroke:none;stroke-width:1.85009;stroke-dasharray:none;stroke-opacity:1" />
    </g>
</svg>
