<?xml version="1.0" encoding="UTF-8" standalone="no"?>
<!-- icon666.com - MILLIONS OF FREE VECTOR ICONS -->

<svg
   id="Layer_1"
   enable-background="new 0 0 48 48"
   viewBox="0 0 75 48"
   version="1.1"
   sodipodi:docname="contact_support.svg"
   inkscape:version="1.4.2 (f4327f4, 2025-05-13)"
   width="75"
   height="48"
   xml:space="preserve"
   xmlns:inkscape="http://www.inkscape.org/namespaces/inkscape"
   xmlns:sodipodi="http://sodipodi.sourceforge.net/DTD/sodipodi-0.dtd"
   xmlns="http://www.w3.org/2000/svg"
   xmlns:svg="http://www.w3.org/2000/svg"><defs
     id="defs1"><linearGradient
       id="swatch2"
       inkscape:swatch="solid"><stop
         style="stop-color:#000000;stop-opacity:1;"
         offset="0"
         id="stop2" /></linearGradient></defs><sodipodi:namedview
     id="namedview1"
     pagecolor="#ffffff"
     bordercolor="#000000"
     borderopacity="0.25"
     inkscape:showpageshadow="2"
     inkscape:pageopacity="0.0"
     inkscape:pagecheckerboard="0"
     inkscape:deskcolor="#d1d1d1"
     showguides="true"
     inkscape:zoom="4"
     inkscape:cx="21.75"
     inkscape:cy="-15.875"
     inkscape:window-width="1920"
     inkscape:window-height="1009"
     inkscape:window-x="-8"
     inkscape:window-y="-8"
     inkscape:window-maximized="1"
     inkscape:current-layer="Layer_1" /><circle
     style="fill:#00a884;fill-opacity:1;fill-rule:evenodd;stroke-width:1.03082"
     id="path2"
     cx="33.595425"
     cy="23.999781"
     r="23.966375" /><path
     id="path1"
     style="fill:#ffffff;stroke-width:0.680739"
     d="m 18.578371,14.236328 c -1.303937,0 0.721177,2.07457 1.410068,2.80357 0.68804,0.728102 2.354254,2.018167 2.354253,2.490912 v 13.73418 c 0,1.626916 1.450051,2.753875 2.652417,2.753875 h 20.036629 c 1.497626,0 2.722817,-1.227261 2.722817,-2.724887 V 16.959146 c 0,-1.497627 -1.225191,-2.722818 -2.722817,-2.722818 z"
     sodipodi:nodetypes="sscsssssss" /><path
     d="m 34.779259,16.135319 h 0.0021 c 2.213518,0.03438 3.784266,1.544908 4.290248,3.327427 0.505981,1.78252 -0.03875,3.891281 -1.921501,5.070859 l -0.0063,0.0021 -0.0041,0.0021 C 36.31599,25.026994 35.775192,25.903377 35.775192,26.861 v 1.923572 l -0.0021,0.0041 c -0.006,0.311864 -0.141225,0.597228 -0.345787,0.776469 -0.398188,0.34889 -1.027726,0.342229 -1.41835,0 -0.204567,-0.179232 -0.339745,-0.464606 -0.345788,-0.776469 v -0.0041 -1.929785 -0.0041 c 0.02962,-1.682173 0.921563,-3.234507 2.360466,-4.105967 0.718937,-0.451517 1.147461,-1.244041 1.132608,-2.09336 v -0.0041 -0.0021 c 0,-2.075322 -2.682634,-3.218705 -4.141166,-1.70409 l -0.0041,0.0041 -0.0063,0.0041 c -0.465739,0.456343 -0.724703,1.080618 -0.724703,1.733078 v 0.0021 c 0,0.316824 -0.133503,0.60791 -0.339576,0.790962 -0.206073,0.183055 -0.46409,0.265034 -0.716422,0.265034 -0.252332,0 -0.510346,-0.08199 -0.716421,-0.265034 -0.206077,-0.183045 -0.339577,-0.474138 -0.339577,-0.790962 v -0.0021 c 0.0133,-2.526396 2.084775,-4.569508 4.61119,-4.547001 z"
     style="fill:#00a884;stroke-width:0.680739;fill-opacity:1"
     id="path1-1" /><path
     d="m 34.691476,31.726526 m -0.01031,0.364405 h 0.0083 0.0083 c 0.312048,0 0.597123,0.141191 0.776469,0.345787 0.179347,0.204597 0.260893,0.460547 0.260893,0.710211 0,0.249663 -0.08156,0.505608 -0.260893,0.71021 -0.179335,0.204601 -0.464478,0.339851 -0.776469,0.345787 h -0.0083 -0.0083 c -0.312048,0 -0.597126,-0.14119 -0.776469,-0.345787 -0.179344,-0.204596 -0.258823,-0.460547 -0.258823,-0.71021 0,-0.249664 0.07949,-0.50561 0.258823,-0.710211 0.179336,-0.204599 0.464478,-0.339849 0.776469,-0.345787 z"
     style="fill:#00a884;fill-opacity:1;stroke-width:0.680739"
     id="path1-5" /><path
     d="m 1.8876701,43.377479 4.282731,2.548106 a 1.1699749,1.1699749 0 0 0 1.172368,0 0.937894,0.937894 0 0 0 0.502443,-0.789555 v -5.120135 a 0.937894,0.937894 0 0 0 -0.497658,-0.81348 1.1675824,1.1675824 0 0 0 -1.177153,0.02393 l -4.282731,2.548105 a 0.93310884,0.93310884 0 0 0 0,1.60064 z"
     id="path1-4"
     style="fill:#009678;fill-opacity:1;stroke-width:0.239259" /><g
     id="g2"
     transform="translate(-230.32511,-234.993)"><path
       style="fill:#007b61;fill-opacity:1;stroke-width:0.084963"
       d="m 296.30002,252.66456 c -0.67691,0 -1.17057,-3.23523 -2.36766,-4.38827 -1.17254,-1.1294 -4.38214,-1.40483 -4.38214,-2.15639 0,-0.76277 3.10664,-1.24249 4.26336,-2.3897 1.21108,-1.20113 1.84383,-4.44291 2.53875,-4.44291 0.69293,0 1.21776,3.37864 2.46195,4.58925 1.216,1.18318 4.54935,1.60379 4.54935,2.28258 0,0.67738 -3.32231,0.96731 -4.55369,2.09708 -1.24596,1.14316 -1.82237,4.40836 -2.50992,4.40836 z"
       id="path2-5"
       sodipodi:nodetypes="sasasasas" /><path
       style="fill:#005744;fill-opacity:1;stroke-width:0.0379794"
       d="m 286.46131,242.57081 c -0.28663,-0.097 -0.0324,-1.53762 -0.37419,-2.19729 -0.33477,-0.64615 -1.65446,-1.22242 -1.54682,-1.54068 0.10928,-0.32298 1.49345,-0.0812 2.14756,-0.40136 0.68483,-0.33517 1.41702,-1.61731 1.71129,-1.51778 0.29342,0.0993 0.0318,1.60507 0.38525,2.2959 0.34548,0.67517 1.69676,1.33063 1.59956,1.61806 -0.097,0.28683 -1.54535,-0.0662 -2.22858,0.2359 -0.69132,0.30564 -1.403,1.60574 -1.69414,1.50729 z"
       id="path2-5-1"
       sodipodi:nodetypes="sasasasas" /><g
       id="g5" /><circle
       style="fill:#005744;fill-opacity:1;fill-rule:evenodd;stroke-width:0.665681"
       id="path5"
       cx="295.85635"
       cy="259.97067"
       r="1.5003811" /></g></svg>
