<?xml version="1.0" encoding="UTF-8" standalone="no"?>
<!-- icon666.com - MILLIONS OF FREE VECTOR ICONS -->

<svg
   fill="none"
   viewBox="0 0 24 24"
   version="1.1"
   id="svg3"
   sodipodi:docname="contact.svg"
   inkscape:version="1.4 (86a8ad7, 2024-10-11)"
   xmlns:inkscape="http://www.inkscape.org/namespaces/inkscape"
   xmlns:sodipodi="http://sodipodi.sourceforge.net/DTD/sodipodi-0.dtd"
   xmlns="http://www.w3.org/2000/svg"
   xmlns:svg="http://www.w3.org/2000/svg">
  <defs
     id="defs3" />
  <sodipodi:namedview
     id="namedview3"
     pagecolor="#ffffff"
     bordercolor="#000000"
     borderopacity="0.25"
     inkscape:showpageshadow="2"
     inkscape:pageopacity="0.0"
     inkscape:pagecheckerboard="0"
     inkscape:deskcolor="#d1d1d1"
     inkscape:zoom="8"
     inkscape:cx="-1.8125"
     inkscape:cy="-1.4375"
     inkscape:window-width="1920"
     inkscape:window-height="1009"
     inkscape:window-x="-8"
     inkscape:window-y="-8"
     inkscape:window-maximized="1"
     inkscape:current-layer="g3" />
  <g
     clip-rule="evenodd"
     fill="rgb(0,0,0)"
     fill-rule="evenodd"
     id="g3">
    <path
       id="path1"
       style="stroke:#000000;stroke-width:0.500762;stroke-dasharray:none;stroke-opacity:1"
       d="m 12.36617,2.0336335 c -2.4890695,0 -4.5082339,2.0169779 -4.5082339,4.5060461 0,2.4890877 2.0191644,4.5082334 4.5082339,4.5082334 2.489087,0 4.506044,-2.0191447 4.506044,-4.5082334 0,-2.4890684 -2.016957,-4.5060461 -4.506044,-4.5060461 z m 0.03718,0.6474707 c 2.131,0 3.858574,1.7275909 3.858574,3.8585754 0,2.1310007 -1.727574,3.8585754 -3.858574,3.8585754 -2.130985,0 -3.8585755,-1.7275747 -3.8585755,-3.8585754 0,-2.1309843 1.7275905,-3.8585756 3.8585755,-3.8585754 z" />
    <path
       id="path2"
       d="m 4.8830707,12.533159 c -0.6115926,0 -0.9542621,0.878823 -1.0937005,1.474308 -0.286078,1.221724 0.095597,2.587305 0.6649699,3.705458 0.4878512,0.958057 1.3051144,1.78492 2.2333365,2.327393 1.5619929,0.912863 3.4472024,1.334865 5.2563244,1.349628 1.929685,0.01573 3.942547,-0.411923 5.63037,-1.34744 0.862084,-0.477831 1.639947,-1.206578 2.108654,-2.073656 0.639943,-1.183858 1.085462,-2.645867 0.791839,-3.959197 -0.13364,-0.59777 -0.481171,-1.476494 -1.0937,-1.476494 z M 5.8192784,13.00345 H 18.414334 c 0.532056,0 1.097052,0.672437 1.264317,1.238068 0.339791,1.149054 -0.175438,2.477559 -0.789651,3.506404 -0.463034,0.775612 -1.242104,1.364862 -2.045221,1.778358 -1.490302,0.767299 -3.212665,1.183929 -4.888841,1.170258 C 10.383487,20.68374 8.7472375,20.31221 7.3876448,19.524092 6.5009509,19.0101 5.7159118,18.231162 5.2439919,17.321379 4.7698096,16.407234 4.3962496,15.277172 4.6730803,14.285267 4.8270495,13.733583 5.2880329,13.00345 5.8192784,13.00345 Z"
       style="stroke:#000000;stroke-width:0.559974;stroke-dasharray:none;stroke-opacity:1" />
  </g>
</svg>
