<?xml version="1.0" encoding="UTF-8" standalone="no"?>

<svg
   width="800mm"
   height="300mm"
   viewBox="0 0 800 300"
   version="1.1"
   id="svg1"
   xml:space="preserve"
   xmlns="http://www.w3.org/2000/svg">
    <defs
     id="defs1" /><g
     id="layer1">
    <rect
       style="fill:#ffffff;fill-opacity:1;stroke:#000000;stroke-width:7.34903;stroke-linecap:round;stroke-dasharray:none;stroke-opacity:1"
       id="rect1-00-5"
       width="216.40204"
       height="128.74826"
       x="17.684174"
       y="98.052711"
       rx="74.246422"
       ry="64.37413" />
    <rect
       style="fill:#ffffff;fill-opacity:1;stroke:#000000;stroke-width:7.34903;stroke-linecap:round;stroke-dasharray:none;stroke-opacity:1"
       id="rect1-00"
       width="216.40204"
       height="128.74826"
       x="54.351456"
       y="77.412285"
       rx="74.246422"
       ry="64.37413" />
    <rect
       style="fill:#ffffff;fill-opacity:1;stroke:#000000;stroke-width:7.34903;stroke-linecap:round;stroke-dasharray:none;stroke-opacity:1"
       id="rect1-00-5-2"
       width="216.40204"
       height="128.74826"
       x="265.06296"
       y="97.700287"
       rx="74.246422"
       ry="64.37413" />
    <rect
       style="fill:#ffffff;fill-opacity:1;stroke:#000000;stroke-width:7.34903;stroke-linecap:round;stroke-dasharray:none;stroke-opacity:1"
       id="rect1-00-6"
       width="216.40204"
       height="128.74826"
       x="296.43802"
       y="77.059814"
       rx="74.246422"
       ry="64.37413" />
    <rect
       style="fill:#ffffff;fill-opacity:1;stroke:#000000;stroke-width:7.34903;stroke-linecap:round;stroke-dasharray:none;stroke-opacity:1"
       id="rect1-00-5-2-3"
       width="216.40204"
       height="128.74826"
       x="497.24329"
       y="98.081764"
       rx="74.246422"
       ry="64.37413" />
    <rect
       style="fill:#ffffff;fill-opacity:1;stroke:#000000;stroke-width:7.34903;stroke-linecap:round;stroke-dasharray:none;stroke-opacity:1"
       id="rect1-00-6-7"
       width="216.40204"
       height="128.74826"
       x="528.61835"
       y="77.441284"
       rx="74.246422"
       ry="64.37413" />
    <rect
       style="fill:#e0faec;fill-opacity:1;stroke:#000000;stroke-width:7.34903;stroke-linecap:round;stroke-dasharray:none;stroke-opacity:1"
       id="rect1"
       width="216.40204"
       height="128.74826"
       x="92.95974"
       y="57.972359"
       rx="74.246422"
       ry="64.37413" />
    <rect
       style="fill:#e0faec;fill-opacity:1;stroke:#000000;stroke-width:7.33207;stroke-linecap:round;stroke-dasharray:none;stroke-opacity:1"
       id="rect1-0"
       width="215.90237"
       height="128.45099"
       x="329.8537"
       y="58.177559"
       rx="74.074989"
       ry="64.225494" />
    <rect
       style="fill:#e0faec;fill-opacity:1;stroke:#000000;stroke-width:7.34903;stroke-linecap:round;stroke-dasharray:none;stroke-opacity:1"
       id="rect1-0-8"
       width="216.40204"
       height="128.74826"
       x="565.98065"
       y="57.917793"
       rx="74.246422"
       ry="64.37413" />
    <path
       d="m 411.28115,100.41236 c -1e-4,-18.745621 22.66246,-28.130178 35.91607,-14.876686 13.2536,13.253492 3.86924,35.916136 -14.87638,35.916196 -11.61984,4e-5 -21.03963,-9.41967 -21.03969,-21.03951 z m 33.66347,29.45541 h -25.24757 c -11.6199,-2e-5 -21.0397,9.41978 -21.03967,21.03968 v 8.41575 c -6e-5,2.32405 1.88397,4.20808 4.20802,4.20803 h 58.91086 c 2.32405,6e-5 4.20809,-1.88398 4.20803,-4.20803 v -8.41575 c 3e-5,-11.6199 -9.41977,-21.0397 -21.03967,-21.03968 z m 19.59829,-50.494983 c -3.03863,-0.01342 -6.04237,0.647697 -8.79457,1.935671 11.65407,10.069882 11.65407,28.137852 0,38.207732 2.7522,1.28798 5.75594,1.9491 8.79457,1.93568 11.59655,-0.0329 20.97999,-9.44296 20.97999,-21.03954 0,-11.596586 -9.38344,-21.006676 -20.97999,-21.039543 z m 9.13652,50.494983 h -7.83207 c 7.06258,4.67132 11.31315,12.57202 11.31933,21.03968 v 8.41575 c -0.002,1.47806 -0.39407,2.92941 -1.13555,4.20803 h 17.96783 c 2.32405,5e-5 4.20808,-1.88398 4.20802,-4.20803 v -8.41575 c 0,-11.6199 -9.41976,-21.03968 -21.03967,-21.03968 z"
       id="path1"
       style="fill:#1da960;fill-opacity:1;stroke:#000000;stroke-width:6;stroke-dasharray:none;stroke-opacity:1" /><path
       style="fill:#23a24d;stroke:#000000;stroke-width:6;stroke-dasharray:none;stroke-opacity:1"
       d="M 714.28841,108.67865 H 690.04349 V 84.43389 c 0,-5.956567 -5.00289,-10.83224 -10.96156,-10.83224 -5.95876,0 -10.96164,4.875673 -10.96164,10.83224 v 24.24476 h -24.24493 c -5.95652,0 -10.83222,5.00288 -10.83222,10.96164 0,5.95875 4.8757,10.96164 10.83222,10.96164 h 24.24493 v 24.24484 c 0,5.9566 5.00288,10.83231 10.96164,10.83231 5.95867,0 10.96156,-4.87571 10.96156,-10.83231 v -24.24484 h 24.24492 c 5.95652,0 10.83231,-5.00289 10.83231,-10.96164 0,-5.95876 -4.87579,-10.96164 -10.83231,-10.96164 z"
       id="path1-6" />
    <path
       d="M 201.91083,166.43623 164.68935,129.2148 c -4.8885,-5.01527 -7.5871,-11.60955 -7.5871,-18.55962 0,-14.639286 11.88932,-26.52848 26.52865,-26.52848 6.56818,0 13.1371,2.851475 18.27993,7.866718 5.14281,-5.015243 11.71099,-7.866718 18.27916,-7.866718 14.6393,0 26.52856,11.889194 26.52856,26.52848 0,6.97543 -2.69857,13.56971 -7.5863,18.55962 z"
       id="path1-1"
       style="fill:#1da960;fill-opacity:1;stroke:#000000;stroke-width:6;stroke-dasharray:none;stroke-opacity:1" /></g></svg>
