<?xml version="1.0" encoding="UTF-8" standalone="no"?>
<!-- icon666.com - MILLIONS vector ICONS FREE -->

<svg
   id="Layer_1"
   viewBox="0 0 512 512"
   data-name="Layer 1"
   version="1.1"
   sodipodi:docname="favorite_vmoamm2fh6j5.svg"
   inkscape:version="1.3.2 (091e20e, 2023-11-25, custom)"
   xmlns:inkscape="http://www.inkscape.org/namespaces/inkscape"
   xmlns:sodipodi="http://sodipodi.sourceforge.net/DTD/sodipodi-0.dtd"
   xmlns="http://www.w3.org/2000/svg"
   xmlns:svg="http://www.w3.org/2000/svg">
  <defs
     id="defs1" />
  <sodipodi:namedview
     id="namedview1"
     pagecolor="#ffffff"
     bordercolor="#000000"
     borderopacity="0.25"
     inkscape:showpageshadow="2"
     inkscape:pageopacity="0.0"
     inkscape:pagecheckerboard="0"
     inkscape:deskcolor="#d1d1d1"
     inkscape:zoom="0.14035103"
     inkscape:cx="-1225.4987"
     inkscape:cy="110.43738"
     inkscape:window-width="1920"
     inkscape:window-height="1009"
     inkscape:window-x="-8"
     inkscape:window-y="-8"
     inkscape:window-maximized="1"
     inkscape:current-layer="Layer_1" />
  <path
     d="m473.637 76.725a131.791 131.791 0 0 0 -185.9 0l-31.737 31.733-31.733-31.733a131.791 131.791 0 0 0 -185.9 0 131.792 131.792 0 0 0 0 185.9l206.32 206.326a16 16 0 0 0 22.626 0l206.324-206.323a131.792 131.792 0 0 0 0-185.9zm-22.627 163.275-195.01 195.011-195.01-195.011a99.792 99.792 0 0 1 0-140.649 99.793 99.793 0 0 1 140.65 0l43.047 43.049a16 16 0 0 0 22.626 0l43.047-43.048a99.454 99.454 0 0 1 140.65 140.648z"
     id="path1" />
  <rect
     style="fill:#000000;fill-rule:evenodd;stroke:#000000;stroke-width:45.3543;stroke-linecap:round"
     id="rect1"
     width="559.31189"
     height="5.34375"
     x="36.073235"
     y="-3.2679129"
     rx="0"
     ry="0.94464946"
     transform="rotate(45.741209)" />
</svg>
