<?xml version="1.0" encoding="UTF-8" standalone="no"?>
<!-- icon666.com - MILLIONS OF FREE VECTOR ICONS -->

<svg
   viewBox="0 0 24 24"
   fill="none"
   version="1.1"
   id="svg1"
   sodipodi:docname="double_check.svg"
   inkscape:version="1.4.2 (f4327f4, 2025-05-13)"
   xmlns:inkscape="http://www.inkscape.org/namespaces/inkscape"
   xmlns:sodipodi="http://sodipodi.sourceforge.net/DTD/sodipodi-0.dtd"
   xmlns="http://www.w3.org/2000/svg"
   xmlns:svg="http://www.w3.org/2000/svg">
  <defs
     id="defs1" />
  <sodipodi:namedview
     id="namedview1"
     pagecolor="#ffffff"
     bordercolor="#000000"
     borderopacity="0.25"
     inkscape:showpageshadow="2"
     inkscape:pageopacity="0.0"
     inkscape:pagecheckerboard="0"
     inkscape:deskcolor="#d1d1d1"
     inkscape:zoom="16"
     inkscape:cx="13.03125"
     inkscape:cy="10.90625"
     inkscape:window-width="1920"
     inkscape:window-height="1009"
     inkscape:window-x="-8"
     inkscape:window-y="-8"
     inkscape:window-maximized="1"
     inkscape:current-layer="svg1"
     showguides="true" />
  <path
     fill-rule="evenodd"
     clip-rule="evenodd"
     d="m 15.771216,5.9767558 c 0.300229,0.2632765 0.359246,0.8335694 -0.01052,1.1978951 L 6.4335651,17.133101 C 6.0668508,17.494385 5.7784025,17.301962 5.3980617,16.953996 L 1.4654601,13.709597 c -0.3835124,-0.350973 -0.50768859,-0.824769 -0.142436,-1.193233 0.3652394,-0.368462 0.7690934,-0.28894 1.1526058,0.0619 l 3.5335668,2.94791 8.5580943,-9.3800718 c 0.439656,-0.511896 0.899227,-0.4365428 1.203925,-0.1693464 z"
     fill="#000000"
     id="path1"
     sodipodi:nodetypes="acccccccca"
     style="stroke-width:1.30522" />
  <path
     fill-rule="evenodd"
     clip-rule="evenodd"
     d="m 22.771144,6.0017127 c 0.308411,0.2766373 0.324761,0.8777636 -0.04497,1.2420892 L 12.87729,17.976706 c -0.366714,0.361285 -0.757741,0.151017 -1.138081,-0.196951 l -1.651722,-1.530691 c -0.3835107,-0.350974 -0.4910465,-0.814737 -0.1257944,-1.1832 0.3652394,-0.368463 0.8550314,-0.281128 1.2385424,0.06971 l 1.186233,1.124504 9.199221,-10.0856219 c 0.523757,-0.5657815 0.888193,-0.4393809 1.185455,-0.1727434 z"
     fill="#000000"
     id="path1-8"
     sodipodi:nodetypes="acccccccca"
     style="stroke-width:1.30522" />
</svg>
