<?xml version="1.0" encoding="UTF-8" standalone="no"?>
<!-- icon666.com - MILLIONS OF FREE VECTOR ICONS -->

<svg
   viewBox="0 0 24 24"
   fill="none"
   version="1.1"
   id="svg1"
   sodipodi:docname="check_yxfp0xi4l5nv.svg"
   inkscape:version="1.4 (86a8ad7, 2024-10-11)"
   xmlns:inkscape="http://www.inkscape.org/namespaces/inkscape"
   xmlns:sodipodi="http://sodipodi.sourceforge.net/DTD/sodipodi-0.dtd"
   xmlns="http://www.w3.org/2000/svg"
   xmlns:svg="http://www.w3.org/2000/svg">
  <defs
     id="defs1" />
  <sodipodi:namedview
     id="namedview1"
     pagecolor="#ffffff"
     bordercolor="#000000"
     borderopacity="0.25"
     inkscape:showpageshadow="2"
     inkscape:pageopacity="0.0"
     inkscape:pagecheckerboard="0"
     inkscape:deskcolor="#d1d1d1"
     inkscape:zoom="16"
     inkscape:cx="16.65625"
     inkscape:cy="22.09375"
     inkscape:window-width="1920"
     inkscape:window-height="1009"
     inkscape:window-x="-8"
     inkscape:window-y="-8"
     inkscape:window-maximized="1"
     inkscape:current-layer="svg1" />
  <path
     fill-rule="evenodd"
     clip-rule="evenodd"
     d="m 15.743595,5.8717946 c 0.379166,0.3552153 0.386867,0.9385306 0.0171,1.3028563 L 6.4335651,17.133101 c -0.3667143,0.361284 -0.9676626,0.371986 -1.3480034,0.02402 L 1.1529601,13.912722 c -0.38351237,-0.350973 -0.39831359,-0.934144 -0.033061,-1.302608 0.3652394,-0.368462 0.9722184,-0.38269 1.3557308,-0.03185 l 3.2463047,2.616454 8.6656684,-9.3064283 c 0.369638,-0.3643389 0.976826,-0.3717133 1.355992,-0.016498 z"
     fill="#000000"
     id="path1"
     sodipodi:nodetypes="sccccccccss"
     style="stroke-width:1.30522" />
  <path
     fill-rule="evenodd"
     clip-rule="evenodd"
     d="m 23.124209,6.216834 c 0.308181,0.3059942 0.363431,0.9385306 -0.0063,1.3028562 L 13.269025,18.252594 c -0.366714,0.361285 -0.967663,0.371988 -1.348003,0.02402 L 9.866747,16.440911 c -0.3835116,-0.350974 -0.3983126,-0.934146 -0.03306,-1.302609 0.36524,-0.368463 0.972219,-0.38269 1.35573,-0.03185 l 1.367978,1.20776 9.187387,-10.0808826 c 0.620747,-0.6118488 1.053114,-0.3404927 1.379427,-0.016495 z"
     fill="#000000"
     id="path1-8"
     sodipodi:nodetypes="acccccccca"
     style="stroke-width:1.30522" />
</svg>
