<?xml version="1.0" encoding="UTF-8" standalone="no"?>
<svg
   width="800px"
   height="800px"
   viewBox="0 0 24 24"
   version="1.1"
   id="svg1"
   sodipodi:docname="emoji_add.svg"
   inkscape:version="1.4.4 (dcaf3e7, 2026-05-05)"
   xml:space="preserve"
   xmlns:inkscape="http://www.inkscape.org/namespaces/inkscape"
   xmlns:sodipodi="http://sodipodi.sourceforge.net/DTD/sodipodi-0.dtd"
   xmlns="http://www.w3.org/2000/svg"
   xmlns:svg="http://www.w3.org/2000/svg"
   xmlns:rdf="http://www.w3.org/1999/02/22-rdf-syntax-ns#"
   xmlns:cc="http://creativecommons.org/ns#"
   xmlns:dc="http://purl.org/dc/elements/1.1/"><defs
     id="defs1" /><sodipodi:namedview
     id="namedview1"
     pagecolor="#ffffff"
     bordercolor="#000000"
     borderopacity="0.25"
     inkscape:showpageshadow="2"
     inkscape:pageopacity="0.0"
     inkscape:pagecheckerboard="0"
     inkscape:deskcolor="#d1d1d1"
     showgrid="false"
     showguides="true"
     inkscape:zoom="0.25"
     inkscape:cx="-158"
     inkscape:cy="130"
     inkscape:window-width="1920"
     inkscape:window-height="1009"
     inkscape:window-x="-8"
     inkscape:window-y="-8"
     inkscape:window-maximized="1"
     inkscape:current-layer="svg1"><sodipodi:guide
       position="5.7487781,11.038733"
       orientation="1,0"
       id="guide1"
       inkscape:locked="false" /><sodipodi:guide
       position="14.626504,12.428198"
       orientation="0,-1"
       id="guide3"
       inkscape:locked="false" /><sodipodi:guide
       position="10.967226,15.026815"
       orientation="0,-1"
       id="guide4"
       inkscape:locked="false" /><sodipodi:guide
       position="4.38,18.27"
       orientation="0,-1"
       id="guide5"
       inkscape:locked="false" /><sodipodi:guide
       position="-0.39,20.61"
       orientation="0,-1"
       id="guide6"
       inkscape:locked="false" /><sodipodi:guide
       position="14.255273,10.508403"
       orientation="1,0"
       id="guide10"
       inkscape:locked="false" /><sodipodi:guide
       position="16.455,12.015"
       orientation="1,0"
       id="guide11"
       inkscape:locked="false" /><sodipodi:guide
       position="6.93,11.01"
       orientation="1,0"
       id="guide12"
       inkscape:locked="false" /></sodipodi:namedview><title
     id="title1">ic_fluent_emoji_24_regular</title><desc
     id="desc1">Created with Sketch.</desc><path
     id="🎨-Color"
     style="fill:#000000;stroke-width:0.951107"
     d="m 11.661883,2.6734092 c -5.2536361,0 -9.5125429,4.2589067 -9.5125429,9.5125418 0,5.253637 4.2589068,9.512543 9.5125429,9.512543 5.253636,0 9.512543,-4.258906 9.512543,-9.512543 0,-1.683361 -0.01509,-1.669333 -0.481027,-2.791787 C 20.54464,8.8389893 20.123882,8.567996 19.704142,8.6550343 19.245347,8.7501713 19.176579,9.243029 19.257974,9.601154 c 0.529979,1.076114 0.489737,1.304182 0.489737,2.584795 0,4.465713 -3.620168,8.085882 -8.08588,8.085882 -4.4657138,0 -8.0858825,-3.620169 -8.0858825,-8.085882 0,-4.4657121 3.6201687,-8.0858808 8.0858825,-8.0858808 1.724976,0 1.880885,0.110989 3.092648,0.7878276 0.326119,0.1566395 0.789658,0.1816278 1.017763,-0.1892329 C 16.012145,4.3086196 15.99312,3.8049039 15.529072,3.6107097 14.140941,2.8186469 13.374469,2.6734092 11.661883,2.6734092 Z"
     sodipodi:nodetypes="sssscscsssscscs" /><path
     d="m 21.264521,5.2333027 h -1.664517 v -1.664516 c 0,-0.085122 -0.069,-0.1541219 -0.154121,-0.1541219 -0.08513,0 -0.154122,0.069001 -0.154122,0.1541219 v 1.664516 h -1.664516 c -0.08513,0 -0.154122,0.069001 -0.154122,0.1541218 0,0.085121 0.069,0.1541219 0.154122,0.1541219 h 1.664516 v 1.6645159 c 0,0.085122 0.069,0.1541218 0.154122,0.1541218 0.08513,0 0.154121,-0.069001 0.154121,-0.1541218 V 5.5415464 h 1.664517 c 0.08513,0 0.154121,-0.069001 0.154121,-0.1541219 0,-0.085121 -0.069,-0.1541218 -0.154121,-0.1541218 z"
     id="path1-0"
     style="fill:#000000;fill-opacity:1;stroke:#000000;stroke-width:1.02322;stroke-dasharray:none;stroke-opacity:1"
     sodipodi:nodetypes="scssscssscssscsss" /><path
     id="path9"
     style="baseline-shift:baseline;display:inline;overflow:visible;opacity:1;vector-effect:none;fill:#000000;fill-rule:evenodd;stroke-width:0.951107;stroke-linecap:round;stroke-linejoin:round;stroke-miterlimit:146.2;paint-order:stroke markers fill;enable-background:accumulate;stop-color:#000000;stop-opacity:1"
     d="m 6.9398013,14.707824 c -0.013931,-7.33e-4 -0.02571,0.01019 -0.026025,0.02414 0,1.705159 0.9103274,2.580634 2.3870385,3.433213 1.4767112,0.85258 3.2955832,0.85258 4.7722932,0 1.476712,-0.852579 2.38704,-1.728053 2.38704,-3.433213 -3.12e-4,-0.0132 -0.01094,-0.02383 -0.02414,-0.02414 H 11.6879 Z"
     sodipodi:nodetypes="ccsscccc" /><metadata
     id="metadata1"><rdf:RDF><cc:Work
         rdf:about=""><dc:title>ic_fluent_emoji_24_regular</dc:title></cc:Work></rdf:RDF></metadata><path
     d="m 14.946569,8.1818353 c -0.832506,0 -1.507403,0.6748959 -1.507403,1.5074018 0,0.8325079 0.674897,1.5074039 1.507403,1.5074039 0.832507,0 1.507403,-0.674896 1.507403,-1.5074039 0,-0.8325059 -0.674896,-1.5074018 -1.507403,-1.5074018 z"
     style="fill:#000000;stroke-width:0.84597"
     id="path1" /><path
     d="m 8.4368283,8.1778721 c -0.8325067,0 -1.5074025,0.6748957 -1.5074025,1.5074017 0,0.8325082 0.6748958,1.5074042 1.5074025,1.5074042 0.8325065,0 1.5074023,-0.674896 1.5074023,-1.5074042 0,-0.832506 -0.6748958,-1.5074017 -1.5074023,-1.5074017 z"
     style="fill:#000000;stroke-width:0.84597"
     id="path1-5" /></svg>
