<?xml version="1.0" encoding="UTF-8" standalone="no"?>
<svg
   version="1.1"
   id="Layer_1"
   x="0px"
   y="0px"
   viewBox="0 0 512 512"
   style="enable-background:new 0 0 512 512;"
   xml:space="preserve"
   sodipodi:docname="envelope_blue.svg"
   inkscape:version="1.3.2 (091e20e, 2023-11-25, custom)"
   xmlns:inkscape="http://www.inkscape.org/namespaces/inkscape"
   xmlns:sodipodi="http://sodipodi.sourceforge.net/DTD/sodipodi-0.dtd"
   xmlns="http://www.w3.org/2000/svg"
   xmlns:svg="http://www.w3.org/2000/svg"><sodipodi:namedview
   id="namedview1"
   pagecolor="#ffffff"
   bordercolor="#000000"
   borderopacity="0.25"
   inkscape:showpageshadow="2"
   inkscape:pageopacity="0.0"
   inkscape:pagecheckerboard="0"
   inkscape:deskcolor="#d1d1d1"
   inkscape:zoom="0.79394531"
   inkscape:cx="200.26568"
   inkscape:cy="166.88807"
   inkscape:window-width="1920"
   inkscape:window-height="1009"
   inkscape:window-x="-8"
   inkscape:window-y="-8"
   inkscape:window-maximized="1"
   inkscape:current-layer="g82" />
    <defs
   id="defs2" />
    <g
   id="g2">
        <g
   id="g1" />
    </g>
    <g
   id="g82"
   transform="translate(1,-53)">
    <path
   id="rect29"
   style="fill:#2196f3;fill-opacity:1;stroke:none;stroke-width:4.74943"
   d="m 50.794922,110.65234 c -26.749577,0 -48.1961677,8.69895 -50.0782911,34.95272 L 250.55078,337.47461 c 68.5263,-54.31295 245.3705,-193.62199 260.39393,-206.19393 0,-20.00617 -22.31318,-20.62834 -50.37049,-20.62834 z M 272.75391,341.14453 c -0.91458,0.40281 -5.30147,4.0168 -9.34375,6.68164 -4.25145,2.80273 -5.96017,3.67383 -11.97071,3.67383 -6.10825,0 -9.51252,-1.93829 -12.65039,-3.88867 -4.36543,-2.71339 -6.83482,-5.06667 -8.0664,-5.81836 L 0.27148438,161.01367 c -1.8495e-4,0.0567 -0.007813,0.11124 -0.007813,0.16797 v 299.16211 c 0,27.99385 22.53740062,50.53125 50.53124962,50.53125 H 460.57422 c 27.99385,0 50.53125,-22.5374 50.53125,-50.53125 l -0.44531,-311.8535 z"
   sodipodi:nodetypes="scccsscsssccssssscc" />
    
    </g>
</svg>
