<?xml version="1.0" encoding="UTF-8" standalone="no"?>
<!-- icon666.com - MILLIONS OF FREE VECTOR ICONS -->

<svg
   version="1.1"
   id="Layer_1"
   x="0px"
   y="0px"
   viewBox="0 0 297 297"
   style="enable-background:new 0 0 297 297;"
   xml:space="preserve"
   sodipodi:docname="eraser_wg0kx3ha4eyj.svg"
   inkscape:version="1.4 (86a8ad7, 2024-10-11)"
   xmlns:inkscape="http://www.inkscape.org/namespaces/inkscape"
   xmlns:sodipodi="http://sodipodi.sourceforge.net/DTD/sodipodi-0.dtd"
   xmlns="http://www.w3.org/2000/svg"
   xmlns:svg="http://www.w3.org/2000/svg"><defs
     id="defs2" /><sodipodi:namedview
     id="namedview2"
     pagecolor="#ffffff"
     bordercolor="#000000"
     borderopacity="0.25"
     inkscape:showpageshadow="2"
     inkscape:pageopacity="0.0"
     inkscape:pagecheckerboard="0"
     inkscape:deskcolor="#d1d1d1"
     showguides="true"
     inkscape:zoom="1"
     inkscape:cx="141.5"
     inkscape:cy="7.5"
     inkscape:window-width="1920"
     inkscape:window-height="1009"
     inkscape:window-x="-8"
     inkscape:window-y="-8"
     inkscape:window-maximized="1"
     inkscape:current-layer="g1"><sodipodi:guide
       position="94.125,57.09375"
       orientation="1,0"
       id="guide5"
       inkscape:locked="false" /><sodipodi:guide
       position="112.78353,76.029132"
       orientation="1,0"
       id="guide6"
       inkscape:locked="false" /><sodipodi:guide
       position="114.98629,64.796236"
       orientation="0,-1"
       id="guide7"
       inkscape:locked="false" /><sodipodi:guide
       position="105.625,72.65625"
       orientation="0,-1"
       id="guide8"
       inkscape:locked="false" /><sodipodi:guide
       position="204.25,68.875001"
       orientation="1,0"
       id="guide9"
       inkscape:locked="false" /><sodipodi:guide
       position="143.3659,53.932045"
       orientation="0,-1"
       id="guide10"
       inkscape:locked="false" /><sodipodi:guide
       position="225.39029,89.287384"
       orientation="1,0"
       id="guide11"
       inkscape:locked="false" /></sodipodi:namedview><g
     id="g2"><g
       id="g1"><path
         id="path1"
         d="m 9.8125,275.70377 c -5.218,0 -9.44921875,4.23217 -9.44921875,9.45117 0,5.219 3.92932045,9.44922 9.14832045,9.44922 l 67.5067223,0 c 4.998734,0 10.074975,-3.25653 10.074975,-9.17591 0,-5.56004 -4.992717,-9.72448 -9.839489,-9.72448 z m 99.36188,0 c -3.95993,0 -8.56617,5.4109 -8.50569,9.71444 0.0587,4.17376 4.80595,9.18595 8.51068,9.18595 l 178.73274,0 c 5.218,0 9.45117,-4.23022 9.45117,-9.44922 0,-5.219 -4.23217,-9.45117 -9.45117,-9.45117 z"
         sodipodi:nodetypes="ssssssssasssss" /><path
         id="path1-9"
         d="m 212.99563,8.7666845 c -4.99889,-4.9988966 -11.56739,-7.4972806 -18.13368,-7.4971606 -6.5663,1.2e-4 -13.13215,2.498743 -18.13105,7.4971625 L 16.88931,168.60828 c -4.842274,4.84324 -7.5090691,11.28325 -7.5090672,18.13237 2.9e-6,6.84911 2.6681072,13.28778 7.5103922,18.13104 0,0 56.737353,56.73464 61.615153,61.61244 4.056411,4.05641 12.572652,9.04103 19.815726,8.92302 6.402276,-0.10429 13.572026,-2.69896 18.162166,-7.28911 5.48911,-5.4891 158.59008,-161.00844 158.59008,-161.00844 9.92191,-10.07311 9.9978,-26.264287 0,-36.262088 z m -12.80219,12.8021965 62.07947,62.079477 c 1.42443,1.423469 2.20933,3.316989 2.20933,5.331496 0,2.012587 -0.78585,3.905383 -2.20932,5.328851 L 158.20298,198.37865 85.460482,125.63886 189.53442,21.567621 c 1.46993,-1.469927 3.39972,-2.205605 5.33018,-2.20536 1.93045,2.43e-4 3.86083,0.737713 5.32884,2.206682 z M 72.662282,138.4397 145.4021,211.17953 c 0,0 -37.86171,38.01781 -42.83451,42.99061 -3.257811,3.25782 -8.221641,2.5433 -11.10831,-0.34337 -4.156173,-4.15617 -61.769286,-61.75708 -61.769286,-61.75708 -2.938897,-2.93794 -2.93889,-7.7224 0,-10.66035 z"
         sodipodi:nodetypes="csccscssscccccsscccsccccssccc"
         style="stroke-width:0.957919" /></g></g></svg>
