<?xml version="1.0" encoding="UTF-8" standalone="no"?>
<!-- icon666.com - MILLIONS OF FREE VECTOR ICONS -->

<svg
   viewBox="0 0 512 512"
   version="1.1"
   id="svg4"
   sodipodi:docname="exit_chat.svg"
   inkscape:version="1.4 (86a8ad7, 2024-10-11)"
   xml:space="preserve"
   xmlns:inkscape="http://www.inkscape.org/namespaces/inkscape"
   xmlns:sodipodi="http://sodipodi.sourceforge.net/DTD/sodipodi-0.dtd"
   xmlns="http://www.w3.org/2000/svg"
   xmlns:svg="http://www.w3.org/2000/svg"><defs
     id="defs4" /><sodipodi:namedview
     id="namedview4"
     pagecolor="#ffffff"
     bordercolor="#000000"
     borderopacity="0.25"
     inkscape:showpageshadow="2"
     inkscape:pageopacity="0.0"
     inkscape:pagecheckerboard="0"
     inkscape:deskcolor="#d1d1d1"
     inkscape:zoom="0.5"
     inkscape:cx="-56"
     inkscape:cy="21"
     inkscape:window-width="1920"
     inkscape:window-height="1009"
     inkscape:window-x="-8"
     inkscape:window-y="-8"
     inkscape:window-maximized="1"
     inkscape:current-layer="svg4" /><path
     id="path1"
     style="stroke:#000000;stroke-width:17.4082;stroke-dasharray:none;stroke-opacity:1"
     d="m 233.43884,25.658928 c -59.51753,0 -115.47433,23.177587 -157.559908,65.26316 -42.085573,42.085582 -65.264926,98.044142 -65.264926,157.561672 0,43.82638 12.662271,86.07687 36.666482,122.47417 l -23.796123,76.58632 c -0.958808,3.08725 -0.130045,6.44923 2.154775,8.73744 2.284818,2.28483 5.650204,3.11536 8.737431,2.15654 L 110.96289,434.6421 c 36.39732,24.00422 78.64956,36.66472 122.47595,36.66472 26.88247,10e-6 36.24737,-3.34455 45.22286,-5.73911 5.29033,-1.4114 9.80344,-7.43545 7.59907,-11.72692 -2.47359,-4.81559 -8.35539,-5.13227 -13.60094,-3.79331 -10.72606,2.7379 -16.16964,3.85158 -39.22099,3.85158 -41.71497,0 -81.87873,-12.44113 -116.14763,-35.98294 -1.4654,-1.00642 -3.1903,-1.52955 -4.92772,-1.52955 -0.86698,0 -1.73736,0.13207 -2.58396,0.39387 l -64.76332,20.12241 20.124177,-64.76156 c 0.792206,-2.54661 0.37054,-5.31351 -1.135672,-7.50991 C 40.462907,330.36246 28.02352,290.19873 28.02352,248.48376 c 0,-113.26859 92.14673,-205.417084 205.41532,-205.417084 113.26859,0 201.34773,103.017314 201.34773,164.723644 0,10.02278 1.28948,19.17361 8.28954,19.2985 7.1136,0.12693 9.0473,-6.65512 9.11822,-19.2985 C 452.40638,169.97621 433.08607,133.00767 391.0005,90.922088 348.91491,48.836515 292.95638,25.658928 233.43884,25.658928 Z"
     sodipodi:nodetypes="ssscccccssssscsccccsssasss" /><path
     d="m 272.08086,359.00957 c 0,55.57975 39.94888,105.16519 94.34804,116.79171 27.18133,5.80871 56.08485,1.89567 80.68284,-11.06361 23.66687,-12.47243 42.79998,-32.92003 53.64149,-57.38412 11.27963,-25.44692 13.24529,-54.66082 5.55309,-81.40702 -7.41833,-25.80293 -23.70033,-48.68174 -45.55677,-64.25782 -45.69369,-32.56707 -109.87543,-28.21282 -150.82236,10.1021 -23.99856,22.45279 -37.84633,54.35046 -37.84633,87.21876 z m 62.21306,-6.45072 33.3521,-33.34908 c 8.32205,-8.32511 21.23568,4.58549 12.90755,12.91059 l -16.75364,16.75062 h 77.46353 c 5.52573,0 10.13863,4.61591 10.13863,10.14164 0,5.5257 -4.6129,10.14164 -10.13863,10.14164 h -77.84998 l 16.42504,16.82363 c 8.21252,8.40422 -4.81677,21.19614 -13.06275,12.75237 l -32.55793,-33.343 c -3.49313,-3.57223 -3.45966,-9.29269 0.076,-12.82841 z"
     id="path1-9"
     style="stroke-width:3.04282" /></svg>
