<?xml version="1.0" encoding="UTF-8" standalone="no"?>

<svg
   version="1.1"
   id="Capa_1"
   x="0px"
   y="0px"
   viewBox="0 0 512 512"
   style="enable-background:new 0 0 512 512;"
   xml:space="preserve"
   xmlns="http://www.w3.org/2000/svg">
    <defs id="defs9" />
    <path
     style="fill:#5ea7d2;fill-opacity:1"
     d="M95.687,392.266c-30.989,0-56.11,25.121-56.11,56.11s25.121,56.11,56.11,56.11H384.25V392.266H95.687 z"
     id="path1" /><rect
     x="151.796"
     y="63.624"
     style="fill:#F6F5F5;"
     width="320.626"
     height="376.736"
     id="rect1" /><path
     style="fill:#EEEBEA;"
     d="M95.687,7.515c-30.989,0-56.11,25.121-56.11,56.11v384.751c0-30.989,25.121-56.11,56.11-56.11 s56.11,25.121,56.11,56.11V63.624C151.796,32.636,126.675,7.515,95.687,7.515z"
     id="path2" /><rect
     x="151.796"
     y="440.36"
     style="fill:#D8D7DD;"
     width="320.626"
     height="32.063"
     id="rect2" /><path
     style="fill:#F17690;"
     d="M312.11,128.562c-75.782-50.521-107.129,25.717-88.412,63.151 c25.26,50.521,88.412,88.412,88.412,88.412s63.151-37.891,88.412-88.412C419.239,154.278,387.892,78.04,312.11,128.562z"
     id="path3" /><path
     style="fill:#EE5375;"
     d="M252.725,175.682c-9.187-18.375-6.304-46.09,7.967-63.583c-37.605,4.18-50.673,52.255-36.994,79.614 c25.26,50.521,88.412,88.412,88.412,88.412s11.067-6.642,25.784-18.066C324.691,253.574,274.558,219.348,252.725,175.682z"
     id="path4" /><path
     d="M312.11,119.624c-42.318-26.32-68.226-13.175-80.077-2.711c-10.174,8.982-17.266,22.279-19.97,37.444 c-2.58,14.471-0.789,29.312,4.915,40.719c25.941,51.881,88.611,89.902,91.266,91.495c2.358,1.413,5.376,1.413,7.733,0 c2.655-1.594,65.327-39.613,91.266-91.495c5.703-11.406,7.494-26.246,4.915-40.719c-2.703-15.166-9.795-28.463-19.97-37.444 C380.336,106.447,354.426,93.305,312.11,119.624z M393.8,188.352c-20.444,40.89-67.841,73.854-81.694,82.879 c-13.854-9.014-61.211-41.923-81.689-82.879c-9.234-18.468-3.832-46.586,11.56-60.174c6.67-5.889,14.792-8.815,24.026-8.815 c12.28,0,26.528,5.177,41.937,15.45c2.524,1.683,5.813,1.683,8.336,0c26.997-17.997,50.422-20.354,65.963-6.635 C397.633,141.766,403.034,169.885,393.8,188.352z"
     id="path5" /><path
     d="M400.282,304.661H223.937c-4.15,0-7.515,3.364-7.515,7.515c0,4.151,3.365,7.515,7.515,7.515h176.344 c4.15,0,7.515-3.364,7.515-7.515C407.796,308.025,404.432,304.661,400.282,304.661z"
     id="path6" /><path
     d="M400.282,344.739H223.937c-4.15,0-7.515,3.364-7.515,7.515c0,4.151,3.365,7.515,7.515,7.515h176.344 c4.15,0,7.515-3.364,7.515-7.515C407.796,348.103,404.432,344.739,400.282,344.739z"
     id="path7" /><path
     d="M400.282,384.818H223.937c-4.15,0-7.515,3.364-7.515,7.515c0,4.151,3.365,7.515,7.515,7.515h176.344 c4.15,0,7.515-3.364,7.515-7.515C407.796,388.181,404.432,384.818,400.282,384.818z"
     id="path8" /><path
     d="m 472.423,56.11 h -56.11 c -4.15,0 -7.515,3.364 -7.515,7.515 0,4.151 3.365,7.515 7.515,7.515 h 48.595 V 432.846 H 159.311 V 71.139 l 256.78971,0 c 9.8266,0 9.8266,-15.03 0,-15.03 l -257.24871,0 C 155.121,24.558 128.225,0 95.687,0 60.604,0 32.063,28.542 32.063,63.624 v 384.751 c 0,35.083 28.542,63.624 63.624,63.624 H 384.25 c 4.15,0 7.515,-3.364 7.515,-7.515 v -24.548 h 80.658 c 4.15,0 7.515,-3.364 7.515,-7.515 V 63.624 c -10e-4,-4.151 -3.365,-7.514 -7.515,-7.514 z M 47.092,63.624 c 0,-26.795 21.8,-48.595 48.595,-48.595 26.795,0 48.595,21.8 48.595,48.595 V 407.35 c -11.68,-13.813 -29.131,-22.599 -48.595,-22.599 -19.464,0 -36.915,8.786 -48.595,22.599 V 63.624 Z M 376.736,496.971 H 95.687 c -26.795,0 -48.595,-21.8 -48.595,-48.595 0,-26.795 21.8,-48.595 48.595,-48.595 26.795,0 48.595,21.8 48.595,48.595 v 24.047 c 0,4.151 3.365,7.515 7.515,7.515 h 224.939 z m 88.172,-32.063 H 159.311 v -16.532 -0.501 h 305.597 z"
     id="path9" />
</svg>
