<?xml version="1.0" encoding="UTF-8" standalone="no"?>
<!-- icon666.com - MILLIONS OF FREE VECTOR ICONS -->

<svg
   id="Layer_1"
   data-name="Layer 1"
   viewBox="0 0 425.2 425.2"
   version="1.1"
   sodipodi:docname="pencil_t03oxucw4f6r.svg"
   inkscape:version="1.4 (86a8ad7, 2024-10-11)"
   xmlns:inkscape="http://www.inkscape.org/namespaces/inkscape"
   xmlns:sodipodi="http://sodipodi.sourceforge.net/DTD/sodipodi-0.dtd"
   xmlns="http://www.w3.org/2000/svg"
   xmlns:svg="http://www.w3.org/2000/svg">
  <defs
     id="defs1" />
  <sodipodi:namedview
     id="namedview1"
     pagecolor="#ffffff"
     bordercolor="#000000"
     borderopacity="0.25"
     inkscape:showpageshadow="2"
     inkscape:pageopacity="0.0"
     inkscape:pagecheckerboard="0"
     inkscape:deskcolor="#d1d1d1"
     inkscape:zoom="0.23724129"
     inkscape:cx="-174.92739"
     inkscape:cy="191.78786"
     inkscape:window-width="1920"
     inkscape:window-height="1009"
     inkscape:window-x="-8"
     inkscape:window-y="-8"
     inkscape:window-maximized="1"
     inkscape:current-layer="Layer_1"
     showguides="true" />
  <path
     id="path1"
     d="m 321.61041,6.662295 c -1.26554,0.2566941 -2.52213,0.5903979 -3.76392,1.0008124 -6.55419,2.165732 -12.2551,6.3496636 -16.28656,11.9527936 l -196.99061,274.071029 -0.42408,0.52134 c -0.90424,1.26196 -1.53092,2.70115 -1.83875,4.22282 l 0.0201,0.12309 c -0.11499,0.60452 -0.17544,1.21817 -0.18065,1.8335 l -7.75742,78.12067 c -1.103668,11.12423 8.65623,20.26167 19.6837,18.42834 1.44755,-0.2349 2.85767,-0.66012 4.19378,-1.26457 l 73.35843,-32.96735 -0.011,-0.0672 c 1.18146,-0.66392 2.22816,-1.54317 3.08604,-2.59232 l 0.24173,-0.3249 0.16998,-0.21357 0.15011,-0.22947 197.18842,-274.348516 c 5.07336,-7.033668 7.12631,-15.802753 5.70238,-24.357509 -1.38236,-8.564319 -6.13014,-16.220989 -13.18706,-21.266601 L 347.18523,12.150193 C 339.74874,6.8105259 330.46922,4.8654323 321.61042,6.662313 Z m 5.41672,25.531236 c 1.69319,-0.273333 3.45201,0.125087 4.88073,1.154672 l 37.77984,27.154553 c 2.94801,2.111611 3.61968,6.216411 1.49846,9.157512 l 0.0327,0.02522 -190.61537,265.212672 c -18.00804,13.10562 -38.50044,21.41761 -58.67417,30.48605 1.25111,-21.90519 5.28266,-43.27904 9.74695,-64.7098 L 322.74102,34.848185 c 0.67167,-0.937053 1.57844,-1.680554 2.62894,-2.155602 0.5349,-0.2418 1.09277,-0.407931 1.65717,-0.499052 z"
     sodipodi:nodetypes="sccccccccccccccccccccssscccccccccs"
     style="display:inline;stroke-width:0.967617" />
  <path
     id="path1-4"
     style="display:inline;stroke-width:0.967617"
     d="m 358.59301,138.92862 c -3.54159,5.30038 -16.10728,22.60664 -18.27936,25.73555 l 18.11922,0.39844 c 3.74996,0.0455 5.80051,3.16043 6.55665,6.58007 l -0.0899,46.52539 c -9.8e-4,3.62625 -2.94603,6.56164 -6.57226,6.54883 l -0.002,0.041 c 0,0 -53.22921,-0.19101 -60.47625,-0.21485 -3.72975,5.38287 -15.05182,20.86191 -18.83031,26.24805 20.718,-0.0197 56.94018,-0.0166 79.26945,0.10352 8.6724,0.031 17.23025,-1.91329 23.35743,-8.05079 6.15918,-6.10926 9.38984,-15.91858 9.38476,-24.59374 l 0.0879,-46.5254 c 0.0131,-9.15495 -2.94217,-19.67371 -9.70312,-25.97656 -5.8286,-5.43368 -9.96383,-6.75887 -16.86655,-6.77539 z"
     sodipodi:nodetypes="cccccccccccccscc" />
  <path
     id="path1-4-2"
     style="display:inline;stroke-width:0.967617"
     d="m 158.13852,137.64663 c 4.86623,3.42791 16.66824,11.92913 20.95122,14.94618 l 46.2617,-64.980897 c 2.19676,-3.039493 5.9242,-2.922021 9.1553,-1.570853 l 9.08766,7.42819 c 2.25105,-3.195567 12.33019,-17.704523 14.95398,-21.429221 l -8.9273,-7.31278 c -7.47688,-5.282945 -17.77816,-8.924567 -26.82448,-7.027045 -7.79881,1.635847 -11.26363,4.253349 -15.25233,9.887003 z"
     sodipodi:nodetypes="cccccccscc" />
  <path
     style="fill:none;fill-rule:evenodd;stroke:#000000;stroke-width:19.948;stroke-dasharray:none;stroke-opacity:1"
     id="path8"
     sodipodi:type="arc"
     sodipodi:cx="-71.9617"
     sodipodi:cy="347.72269"
     sodipodi:rx="54.624924"
     sodipodi:ry="54.624924"
     sodipodi:start="1.8145501"
     sodipodi:end="5.3860587"
     sodipodi:arc-type="arc"
     d="m -85.145269,400.73284 a 54.624924,54.624924 0 0 1 -40.932961,-45.57484 54.624924,54.624924 0 0 1 27.124749,-54.92559 54.624924,54.624924 0 0 1 61.069987,4.79885"
     sodipodi:open="true"
     transform="rotate(-25.054483)" />
</svg>
