<?xml version="1.0" encoding="UTF-8" standalone="no"?>
<!-- icon666.com - MILLIONS OF FREE VECTOR ICONS -->

<svg
   version="1.1"
   id="Layer_1"
   x="0px"
   y="0px"
   viewBox="0 0 512 512"
   style="enable-background:new 0 0 512 512;"
   xml:space="preserve"
   sodipodi:docname="file_pdf.svg"
   inkscape:version="1.4 (86a8ad7, 2024-10-11)"
   xmlns:inkscape="http://www.inkscape.org/namespaces/inkscape"
   xmlns:sodipodi="http://sodipodi.sourceforge.net/DTD/sodipodi-0.dtd"
   xmlns="http://www.w3.org/2000/svg"
   xmlns:svg="http://www.w3.org/2000/svg"><defs
     id="defs6" /><sodipodi:namedview
     id="namedview6"
     pagecolor="#ffffff"
     bordercolor="#000000"
     borderopacity="0.25"
     inkscape:showpageshadow="2"
     inkscape:pageopacity="0.0"
     inkscape:pagecheckerboard="0"
     inkscape:deskcolor="#d1d1d1"
     inkscape:zoom="0.39404296"
     inkscape:cx="91.360596"
     inkscape:cy="69.789345"
     inkscape:window-width="1920"
     inkscape:window-height="1009"
     inkscape:window-x="-8"
     inkscape:window-y="-8"
     inkscape:window-maximized="1"
     inkscape:current-layer="Layer_1" /><polygon
     style=""
     points="63.24,508 63.24,4 337.192,4 441.88,108.672 441.88,508 "
     fill="#FFFFFF"
     id="polygon1" /><rect
     style="fill:#ff0000;fill-opacity:1;fill-rule:evenodd;stroke:none;stroke-width:4.57665;stroke-linecap:round;stroke-linejoin:round;stroke-miterlimit:16.1;paint-order:stroke fill markers"
     id="rect6"
     width="415.4248"
     height="154.77184"
     x="22.508114"
     y="268.25702"
     rx="2.0576386" /><path
     d="M 335.544,8 437.88,110.336 V 504 H 67.24 V 8 h 268.304 m 3.312,-8 H 59.24 V 512 H 445.88 V 107.024 Z"
     fill="#cccccc"
     id="path1"
     sodipodi:nodetypes="cccccccccccc"
     style="fill:#e4e4e4;fill-opacity:1" /><polygon
     style="fill:#e4e4e4;fill-opacity:1"
     points="445.88,107.024 338.84,107.024 338.84,0 "
     fill="#999999"
     id="polygon2" /><polygon
     style="fill:#e4e4e4;fill-opacity:1"
     points="59.24,460.08 59.24,422.896 22.04,422.896 "
     fill="#999999"
     id="polygon4" /><g
     id="g6"
     transform="matrix(1.5222691,0,0,1.5222691,-114.41367,-198.63191)"><path
       d="M 144.968,395.456 V 320.8 h 30.08 3.712 c 10.096,0 16.912,1.76 20.416,5.28 3.52,3.52 5.28,10.32 5.28,20.368 0,9.984 -1.68,16.624 -5.024,19.904 -3.344,3.28 -10.128,4.928 -20.336,4.928 l -3.28,0.048 h -16.672 v 24.128 z m 14.16,-36.032 h 16.128 c 6.416,0 10.496,-0.752 12.224,-2.224 1.728,-1.488 2.608,-4.976 2.608,-10.464 0,-6.32 -0.72,-10.224 -2.16,-11.728 -1.44,-1.52 -5.184,-2.272 -11.232,-2.272 h -17.552 v 26.688 z"
       fill="#ffffff"
       id="path4" /><path
       d="M 213.496,395.456 V 320.8 h 36.688 c 10.432,0 17.728,2.288 21.904,6.848 4.176,4.56 6.272,12.544 6.272,23.952 0,18.624 -1.68,30.592 -5.024,35.904 -3.36,5.296 -10.928,7.952 -22.704,7.952 z m 14.16,-11.92 h 20.176 c 6.784,0 11.152,-1.568 13.152,-4.672 1.984,-3.12 2.976,-10 2.976,-20.656 0,-11.008 -0.896,-18 -2.672,-20.992 -1.792,-2.992 -5.984,-4.464 -12.576,-4.464 h -21.056 z"
       fill="#ffffff"
       id="path5" /><path
       d="m 302.856,332.736 v 20.128 h 33.456 v 11.904 h -33.456 v 30.688 H 288.68 V 320.8 h 49.44 v 11.936 z"
       fill="#ffffff"
       id="path6" /></g></svg>
