<?xml version="1.0" encoding="UTF-8" standalone="no"?>
<!-- icon666.com - MILLIONS OF FREE VECTOR ICONS -->

<svg
   fill="none"
   viewBox="0 0 20 20"
   version="1.1"
   id="svg3"
   sodipodi:docname="filter.svg"
   inkscape:version="1.4 (86a8ad7, 2024-10-11)"
   xmlns:inkscape="http://www.inkscape.org/namespaces/inkscape"
   xmlns:sodipodi="http://sodipodi.sourceforge.net/DTD/sodipodi-0.dtd"
   xmlns="http://www.w3.org/2000/svg"
   xmlns:svg="http://www.w3.org/2000/svg">
  <defs
     id="defs3" />
  <sodipodi:namedview
     id="namedview3"
     pagecolor="#ffffff"
     bordercolor="#000000"
     borderopacity="0.25"
     inkscape:showpageshadow="2"
     inkscape:pageopacity="0.0"
     inkscape:pagecheckerboard="0"
     inkscape:deskcolor="#d1d1d1"
     inkscape:zoom="32"
     inkscape:cx="5.109375"
     inkscape:cy="7.234375"
     inkscape:window-width="1920"
     inkscape:window-height="1009"
     inkscape:window-x="-8"
     inkscape:window-y="-8"
     inkscape:window-maximized="1"
     inkscape:current-layer="g3"
     showguides="true" />
  <g
     fill="rgb(0,0,0)"
     id="g3">
    <path
       d="M 0,4.6157293 C 0,4.1035602 0.447715,4 1,4 h 18 c 0.5523,0 1,0.1035602 1,0.6157293 0,0.5121692 -0.4477,0.6218855 -1,0.6218855 H 1 c -0.552284,0 -1,-0.1097163 -1,-0.6218855 z"
       id="path1"
       sodipodi:nodetypes="sssssss"
       style="stroke-width:0.963001;stroke-dasharray:none" />
    <path
       d="m 3.1375992,9.5133708 c 0,-0.5121691 0.447715,-0.6157293 1,-0.6157293 H 15.825487 c 0.5523,0 1,0.1035602 1,0.6157293 0,0.5121692 -0.4477,0.6218852 -1,0.6218852 H 4.1375992 c -0.552284,0 -1,-0.109716 -1,-0.6218852 z"
       id="path1-8"
       sodipodi:nodetypes="sssssss"
       style="stroke-width:0.963001;stroke-dasharray:none" />
    <path
       d="m 7.109375,14.257118 c 0,-0.51217 0.447715,-0.61573 1,-0.61573 h 3.851951 c 0.5523,0 1,0.10356 1,0.61573 0,0.512168 -0.4477,0.621885 -1,0.621885 H 8.109375 c -0.552284,0 -1,-0.109717 -1,-0.621885 z"
       id="path1-8-8"
       sodipodi:nodetypes="sssssss"
       style="stroke-width:0.963001;stroke-dasharray:none" />
  </g>
</svg>
