<?xml version="1.0" encoding="UTF-8" standalone="no"?>
<!-- icon666.com - MILLIONS vector ICONS FREE -->

<svg
   id="Capa_1"
   enable-background="new 0 0 512 512"
   viewBox="0 0 700 512"
   version="1.1"
   sodipodi:docname="geolocation_o3rqo791j8cx.svg"
   width="700"
   height="512"
   inkscape:version="1.3.2 (091e20e, 2023-11-25, custom)"
   xmlns:inkscape="http://www.inkscape.org/namespaces/inkscape"
   xmlns:sodipodi="http://sodipodi.sourceforge.net/DTD/sodipodi-0.dtd"
   xmlns="http://www.w3.org/2000/svg"
   xmlns:svg="http://www.w3.org/2000/svg">
  <defs
     id="defs8" />
  <sodipodi:namedview
     id="namedview8"
     pagecolor="#ffffff"
     bordercolor="#000000"
     borderopacity="0.25"
     inkscape:showpageshadow="2"
     inkscape:pageopacity="0.0"
     inkscape:pagecheckerboard="0"
     inkscape:deskcolor="#d1d1d1"
     inkscape:zoom="0.79394531"
     inkscape:cx="256.31488"
     inkscape:cy="258.83395"
     inkscape:window-width="1920"
     inkscape:window-height="1009"
     inkscape:window-x="-8"
     inkscape:window-y="-8"
     inkscape:window-maximized="1"
     inkscape:current-layer="Capa_1" />
  <path
     d="m 549.90102,373.07629 c -1.853,0 -6.08081,-1.6612 -7.53181,-2.73377 -3.006,-2.22156 -4.46629,-8.23897 -1.61629,-10.58212 73.611,-60.51518 74.08859,-152.60255 0.47759,-213.14112 -2.85,-2.34316 -0.69026,-8.43696 2.31574,-10.65852 3.007,-2.22155 9.45175,-3.40283 12.30075,-1.05889 38.292,31.49152 59.38,73.33472 59.38,117.82118 0,44.48724 -21.089,86.32421 -59.381,117.80404 -1.475,1.21445 -3.95898,2.5492 -5.94498,2.5492 z M 159.598,372.35266 c -1.987,0 -3.969,-0.61112 -5.444,-1.82401 -38.292,-31.47984 -59.381,-73.3168 -59.381,-117.80404 0,-44.48646 21.088,-86.32965 59.38,-117.82118 2.849,-2.34316 9.76183,-1.02596 12.76783,1.19559 3.006,2.22156 4.70841,9.07065 1.85841,11.4138 -73.611002,60.53856 -73.887526,151.22951 -0.27653,211.74469 2.85,2.34316 0.59855,8.6412 -2.40745,10.86276 -1.45,1.07101 -4.64426,2.23239 -6.49726,2.23239 z"
     fill="#989ba3"
     id="path1"
     style="fill:#e4f1e8;fill-opacity:1;stroke-width:0.88289"
     sodipodi:nodetypes="scccccscsscscscccs" />
  <path
     d="m 617.706,436.993 c -1.919,0 -6.34815,-2.25255 -7.81315,-3.71655 -2.93,-2.928 -4.21523,-8.69921 -1.28723,-11.62821 93.993,-94.053 93.22257,-242.18162 -0.77043,-336.234616 -2.928,-2.93 -0.72181,-8.781091 2.20719,-11.708091 2.93,-2.929 10.04062,-4.187533 12.96862,-1.256533 48.357,48.387 74.989,112.73 74.989,181.172 0,68.443 -26.632,132.785 -74.989,181.174 -1.465,1.466 -3.385,2.198 -5.305,2.198 z m -535.412,0 c -1.92,0 -3.84,-0.732 -5.305,-2.198 C 28.632,386.406 2,322.065 2,253.621 2,185.179 28.632,120.836 76.989,72.448 c 2.929,-2.929 10.353507,-1.200143 13.283507,1.728857 2.93,2.928 6.709598,9.566299 3.781598,12.495299 C 0.06110456,180.72516 -0.7666224,326.18286 93.226378,420.23586 c 2.928,2.93 0.800538,10.21717 -2.128462,13.14417 -1.465,1.465 -6.885916,3.61297 -8.803916,3.61297 z"
     fill="#989ba3"
     id="path2"
     sodipodi:nodetypes="ssccccsssscscccccs"
     style="fill:#e4f1e8;fill-opacity:1" />
  <g
     clip-rule="evenodd"
     fill-rule="evenodd"
     id="g8"
     style="fill:#1da960;fill-opacity:1"
     transform="translate(0,40)">
    <path
       d="M 330.942,413.013 298.938,375.915 C 270.168,337.558 237.954,300.46 221.788,254.642 183.318,145.594 240.859,39.663 355.88,39.633 c 114.992,0.03 172.562,105.961 134.062,215.008 -16.167,45.818 -48.38,82.917 -77.15,121.273 l -32.004,37.098 c -15.178,17.621 -34.638,17.621 -49.846,10e-4 z"
       fill="#98bce5"
       id="path5"
       style="fill:#1da960;fill-opacity:1"
       sodipodi:nodetypes="cccccccc" />
    <path
       d="m 431.953,187.816 c 0,-42.043 -34.069,-76.144 -76.072,-76.144 -42.033,0 -76.102,34.102 -76.102,76.144 0,42.073 34.069,76.144 76.102,76.144 42.002,0.001 76.072,-34.071 76.072,-76.144 z"
       fill="#f8f2f0"
       id="path6"
       style="fill:#1da960;fill-opacity:1;stroke:#000000;stroke-width:10;stroke-dasharray:none;stroke-opacity:1"
       sodipodi:nodetypes="ssscs" />
  </g>
</svg>
