<!-- icon666.com - MILLIONS vector ICONS FREE --><svg id="Layer_1" enable-background="new 0 0 512 512" viewBox="0 0 512 512" xmlns="http://www.w3.org/2000/svg"><g><path d="m267 256h-11v-245c0-6.075 4.925-11 11-11 70.692 0 128 57.307 128 128 0 70.693-57.307 128-128 128z" fill="#f44336"></path><path d="m267 0c-2.528 0-4.849.861-6.706 2.294 59.12 11.314 103.801 63.288 103.801 125.706 0 63.921-46.856 116.894-108.095 126.457v1.543h11c70.692 0 128-57.308 128-128 0-70.693-57.307-128-128-128z" fill="#e53935" style="fill: rgb(244, 67, 54);"></path><path d="m256 245v11h-245c-6.075 0-11-4.925-11-11 0-70.692 57.307-128 128-128 70.693 0 128 57.307 128 128z" fill="#ffc107"></path><path d="m128 117c-5.231 0-10.386.321-15.453.931 63.405 7.631 112.547 61.607 112.547 127.069v11h30.906v-11c0-70.693-57.307-128-128-128z" fill="#ffb300" style="fill: rgb(255, 193, 7);"></path><path d="m256 267v-11h245c6.075 0 11 4.925 11 11 0 70.692-57.307 128-128 128-70.693 0-128-57.307-128-128z" fill="#2196f3"></path><path d="m501 256h-30.905c6.075 0 11 4.925 11 11 0 65.461-49.143 119.438-112.547 127.069 5.066.609 10.221.931 15.452.931 70.692 0 128-57.308 128-128 0-6.075-4.925-11-11-11z" fill="#1e88e5" style="fill: rgb(33, 150, 243);"></path><path d="m245 256h11v245c0 6.075-4.925 11-11 11-70.692 0-128-57.307-128-128 0-70.693 57.307-128 128-128z" fill="#43a047"></path><path d="m245 256c-6.771 0-13.418.53-19.905 1.543v243.457c0 3.548-1.686 6.694-4.294 8.706 7.837 1.5 15.925 2.294 24.199 2.294 6.075 0 11-4.925 11-11v-245z" fill="#388e3c" style="fill: rgb(67, 160, 71);"></path></g></svg>