<?xml version="1.0" encoding="UTF-8" standalone="no"?>
<!-- icon666.com - MILLIONS OF FREE VECTOR ICONS -->

<svg
   clip-rule="evenodd"
   fill-rule="evenodd"
   image-rendering="optimizeQuality"
   shape-rendering="geometricPrecision"
   text-rendering="geometricPrecision"
   viewBox="0 0 24 24"
   version="1.1"
   id="svg3"
   sodipodi:docname="hand_gu2r9u1vljzy.svg"
   xml:space="preserve"
   width="24"
   height="24"
   inkscape:version="1.4.2 (f4327f4, 2025-05-13)"
   xmlns:inkscape="http://www.inkscape.org/namespaces/inkscape"
   xmlns:sodipodi="http://sodipodi.sourceforge.net/DTD/sodipodi-0.dtd"
   xmlns="http://www.w3.org/2000/svg"
   xmlns:svg="http://www.w3.org/2000/svg"><defs
     id="defs3" /><sodipodi:namedview
     id="namedview3"
     pagecolor="#ffffff"
     bordercolor="#999999"
     borderopacity="1"
     inkscape:showpageshadow="2"
     inkscape:pageopacity="0"
     inkscape:pagecheckerboard="0"
     inkscape:deskcolor="#d1d1d1"
     showguides="true"
     inkscape:zoom="11.914187"
     inkscape:cx="-4.2806111"
     inkscape:cy="19.26275"
     inkscape:window-width="1920"
     inkscape:window-height="1009"
     inkscape:window-x="-8"
     inkscape:window-y="-8"
     inkscape:window-maximized="1"
     inkscape:current-layer="Layer_x0020_1" /><linearGradient
     id="id0"
     gradientUnits="userSpaceOnUse"
     x1="2167.46"
     x2="2156.927"
     y1="1.7"
     y2="410.77481"
     gradientTransform="rotate(90,2977.4314,1906.5315)"><stop
       offset="0"
       stop-color="#5cc6d0"
       id="stop1" /><stop
       offset="1"
       stop-color="#a53692"
       id="stop2" /></linearGradient><g
     id="Layer_x0020_1"><path
       d="m 5.0732543,13.166105 h 1.7470019 c 0.078856,0 0.1637783,0.03033 0.2244408,0.08492 l 4.234055,3.433344 c 0.497406,0.406422 0.746113,0.606598 0.946293,0.697588 0.194109,0.0728 0.400351,0.06673 0.873499,0.06066 0.194111,-0.0061 0.424618,-0.01213 0.703654,-0.01213 h 7.13966 c 0.576268,0 1.02515,-0.454949 1.02515,-1.025151 0,-0.576269 -0.448882,-1.031218 -1.02515,-1.031218 H 15.70085 c -0.157716,0.5884 -0.655126,1.079745 -1.23746,1.23746 -0.552005,0.139518 -1.110075,-0.03033 -1.534693,-0.473145 L 10.36279,13.572525 c -0.139519,-0.139517 -0.139519,-0.370024 0,-0.509543 0.139514,-0.139517 0.370021,-0.139517 0.509538,0 l 2.565912,2.571976 0.0061,0.0061 c 0.309364,0.321497 0.618729,0.321497 0.831039,0.266903 0.339693,-0.09099 0.636928,-0.388224 0.727917,-0.727917 0.05459,-0.212309 0.04853,-0.521674 -0.266903,-0.83104 l -0.0061,-0.0061 L 9.1374601,8.7500673 H 5.0732543 Z M 4.3514019,8.3982463 V 8.392197 8.3861478 7.5187105 H 2.1130545 V 14.537036 H 4.3514019 V 13.530084 Z M 5.0732543,8.0342869 h 4.2097898 c 0.097054,0 0.1880433,0.036388 0.254772,0.1031211 l 5.7020189,5.70202 c 0.242639,0.24264 0.406422,0.527741 0.473147,0.824974 h 5.228876 c 0.958424,0 1.747002,0.78251 1.747002,1.747002 0,0.958425 -0.788578,1.740936 -1.747002,1.740936 h -7.13966 c -0.272969,0 -0.491344,0.0061 -0.685455,0.01213 -1.097944,0.02427 -1.188934,-0.01213 -2.292939,-0.915963 L 10.702484,17.151457 6.6928702,13.88796 H 5.0732543 v 1.013019 c 0,0.200178 -0.1577172,0.357893 -0.3578932,0.357893 H 1.7551615 c -0.1941096,0 -0.3578932,-0.163781 -0.3578932,-0.357893 V 7.1607833 c 0,-0.2001757 0.1577173,-0.3639593 0.3578932,-0.3639593 h 2.9601996 c 0.200176,0 0.3578932,0.1637836 0.3578932,0.3639593 z"
       fill="url(#id0)"
       id="path3"
       sodipodi:nodetypes="csccccsssscccssccccccccccccccccccccssscsssscccccssssssssc"
       style="fill:#000000;fill-opacity:1;stroke-width:0.00606599" /><path
       d="m 21.841892,3.5095301 a 2.482287,2.482287 0 0 0 -3.501432,0 l -0.597768,0.5976944 -0.59769,-0.5976944 a 2.482287,2.482287 0 0 0 -3.501432,0 2.4823057,2.4823057 0 0 0 0,3.5014338 l 3.886042,3.8861721 a 0.30136041,0.30136041 0 0 0 0.426162,0 l 3.886118,-3.8861194 a 2.4823057,2.4823057 0 0 0 0,-3.5014285 z M 21.415711,6.5848202 17.742692,10.257858 14.069674,6.5848202 a 1.8795849,1.8795849 0 0 1 0,-2.6491306 1.8796038,1.8796038 0 0 1 2.649147,0 l 0.810791,0.8108296 a 0.30136041,0.30136041 0 0 0 0.426162,0 l 0.810792,-0.8108085 a 1.8732187,1.8732187 0 0 1 2.649145,2.6491095 z"
       id="path1"
       style="stroke:#000000;stroke-width:0.242639;stroke-dasharray:none;stroke-opacity:1" /></g></svg>
