<?xml version="1.0" encoding="UTF-8" standalone="no"?>
<!-- Created with Inkscape (http://www.inkscape.org/) -->

<svg
   width="650mm"
   height="256mm"
   viewBox="0 0 650 256"
   version="1.1"
   id="svg1"
   inkscape:version="1.3.2 (091e20e, 2023-11-25, custom)"
   sodipodi:docname="hidden_pin_code.svg"
   xmlns:inkscape="http://www.inkscape.org/namespaces/inkscape"
   xmlns:sodipodi="http://sodipodi.sourceforge.net/DTD/sodipodi-0.dtd"
   xmlns="http://www.w3.org/2000/svg"
   xmlns:svg="http://www.w3.org/2000/svg">
  <sodipodi:namedview
     id="namedview1"
     pagecolor="#ffffff"
     bordercolor="#000000"
     borderopacity="0.25"
     inkscape:showpageshadow="2"
     inkscape:pageopacity="0.0"
     inkscape:pagecheckerboard="0"
     inkscape:deskcolor="#d1d1d1"
     inkscape:document-units="mm"
     inkscape:zoom="0.1280329"
     inkscape:cx="-187.45182"
     inkscape:cy="-246.03051"
     inkscape:window-width="1920"
     inkscape:window-height="1009"
     inkscape:window-x="-8"
     inkscape:window-y="-8"
     inkscape:window-maximized="1"
     inkscape:current-layer="layer1" />
  <defs
     id="defs1" />
  <g
     inkscape:label="Слой 1"
     inkscape:groupmode="layer"
     id="layer1">
    <path
       d="m 373.17553,115.00189 h -24.79024 l 12.39513,-21.467059 c 3.03832,-5.22509 1.24607,-11.914521 -4.00054,-14.931326 -5.20256,-2.995278 -11.91454,-1.224557 -14.93134,4.000543 L 329.45342,104.09364 317.0583,82.604048 c -3.01681,-5.246605 -9.72776,-7.017347 -14.93134,-4.000543 -5.22508,3.016805 -7.01734,9.706236 -4.00054,14.931326 l 12.39513,21.467059 h -24.79024 c -6.03362,0 -10.9308,4.89718 -10.9308,10.93078 0,6.0336 4.89718,10.93079 10.9308,10.93079 h 24.79024 l -12.39513,21.46706 c -3.03832,5.22509 -1.24606,11.91452 4.00054,14.93132 1.72668,0.98374 3.60706,1.46435 5.46489,1.46435 3.75972,0 7.45491,-1.94596 9.46543,-5.46489 l 12.39511,-21.48959 12.39514,21.48959 c 2.01154,3.51994 5.70568,5.46489 9.46541,5.46489 1.85783,0 3.73822,-0.45909 5.46489,-1.46435 5.22509,-3.0168 7.01734,-9.70623 4.00053,-14.93132 l -12.39513,-21.46706 h 24.7923 c 6.03361,0 10.93079,-4.89719 10.93079,-10.93079 0,-6.0336 -4.89718,-10.93078 -10.93079,-10.93078 z"
       id="path1"
       style="stroke-width:1.02473" />
    <path
       d="M 98.837312,114.47272 H 74.047059 L 86.442186,93.005664 C 89.480512,87.780574 87.688259,81.091143 82.441653,78.074338 77.239097,75.07906 70.527119,76.849781 67.510319,82.074881 L 55.115192,103.56447 42.720067,82.074881 C 39.703267,76.828276 32.992311,75.057534 27.788745,78.074338 22.563642,81.091143 20.7714,87.780574 23.7882,93.005664 L 36.183314,114.47272 H 11.394095 c -6.0335986,0 -10.93077514,4.89718 -10.93077514,10.93078 0,6.0336 4.89717654,10.93079 10.93077514,10.93079 h 24.790253 l -12.395127,21.46706 c -3.038325,5.22509 -1.24606,11.91452 4.000546,14.93132 1.726666,0.98374 3.607042,1.46435 5.464871,1.46435 3.759744,0 7.45491,-1.94596 9.465429,-5.46489 l 12.395125,-21.48959 12.395127,21.48959 c 2.01154,3.51994 5.705697,5.46489 9.465429,5.46489 1.857829,0 3.738205,-0.45909 5.464871,-1.46435 5.225092,-3.0168 7.017357,-9.70623 4.000545,-14.93132 L 74.046038,136.33429 h 24.791274 c 6.033588,0 10.930788,-4.89719 10.930788,-10.93079 0,-6.0336 -4.8972,-10.93078 -10.930788,-10.93078 z"
       id="path2"
       style="stroke-width:1.02473" />
    <path
       d="m 638.84768,114.47272 h -24.79025 l 12.39509,-21.467056 c 3.03839,-5.22509 1.24609,-11.914521 -4.00051,-14.931326 -5.22511,-2.995278 -11.91454,-1.224557 -14.93137,4.000543 L 595.12558,103.56447 582.73039,82.074881 c -3.01678,-5.246605 -9.68469,-7.017347 -14.93126,-4.000543 -5.24668,3.016805 -7.01737,9.706236 -4.00058,14.931326 l 12.39509,21.467056 h -24.79022 c -6.03361,0 -10.93078,4.89718 -10.93078,10.93078 0,6.0336 4.89717,10.93079 10.93078,10.93079 h 24.79022 l -12.39509,21.46706 c -3.03833,5.22509 -1.2461,11.91452 4.00058,14.93132 1.72664,0.98374 3.60702,1.46435 5.46487,1.46435 3.75968,0 7.45486,-1.94596 9.4654,-5.46489 l 12.39512,-21.48959 12.3951,21.48959 c 2.01157,3.51994 5.70574,5.46489 9.46546,5.46489 1.85785,0 3.7382,-0.45909 5.4649,-1.46435 5.22508,-3.0168 7.01734,-9.70623 4.00054,-14.93132 l -12.39514,-21.46706 h 24.7923 c 6.03357,0 10.93078,-4.89719 10.93078,-10.93079 0,-6.0336 -4.89721,-10.93078 -10.93078,-10.93078 z"
       id="path4"
       style="stroke-width:1.02473" />
  </g>
</svg>
