<?xml version="1.0" encoding="UTF-8" standalone="no"?>
<!-- Created with Inkscape (http://www.inkscape.org/) -->

<svg
   version="1.1"
   id="svg1"
   width="218.56"
   height="247.67999"
   viewBox="0 0 218.56 247.67999"
   sodipodi:docname="highlighter.svg"
   inkscape:version="1.4 (86a8ad7, 2024-10-11)"
   xmlns:inkscape="http://www.inkscape.org/namespaces/inkscape"
   xmlns:sodipodi="http://sodipodi.sourceforge.net/DTD/sodipodi-0.dtd"
   xmlns="http://www.w3.org/2000/svg"
   xmlns:svg="http://www.w3.org/2000/svg">
  <defs
     id="defs1" />
  <sodipodi:namedview
     id="namedview1"
     pagecolor="#ffffff"
     bordercolor="#000000"
     borderopacity="0.25"
     inkscape:showpageshadow="2"
     inkscape:pageopacity="0.0"
     inkscape:pagecheckerboard="0"
     inkscape:deskcolor="#d1d1d1"
     inkscape:zoom="2.3039211"
     inkscape:cx="83.119165"
     inkscape:cy="95.272358"
     inkscape:window-width="1920"
     inkscape:window-height="1009"
     inkscape:window-x="-8"
     inkscape:window-y="-8"
     inkscape:window-maximized="1"
     inkscape:current-layer="g1" />
  <g
     inkscape:groupmode="layer"
     inkscape:label="Image"
     id="g1">
    <path
       style="fill:#ffdd55;fill-rule:evenodd;stroke:none;stroke-width:1.84149;stroke-linecap:round;stroke-linejoin:round;stroke-miterlimit:16.1;paint-order:stroke fill markers"
       d="m 77.333933,239.12512 c -3.296332,-0.70108 -5.639435,-2.62024 -7.359718,-6.0281 l -0.918455,-1.81945 v -36.37812 -36.37812 h 40.30138 40.30138 l -0.11607,21.56075 -0.11606,21.56074 -0.88704,1.8523 c -1.08105,2.25742 -1.59263,2.75354 -4.90901,4.76072 -3.04573,1.84336 -56.451923,28.59041 -59.842684,29.97059 -2.854435,1.16187 -4.281782,1.36063 -6.453723,0.89869 z"
       id="path2" />
    <path
       style="fill:#ffdd55;fill-rule:evenodd;stroke:none;stroke-width:6;stroke-linecap:round;stroke-linejoin:round;stroke-miterlimit:16.1;paint-order:stroke fill markers"
       d="M 9.4404273,20.291493 H 209.20629 c 0,0 1.11195,10.727124 -4.58039,25.75539 -4.73499,12.500781 -13.2131,22.531853 -13.2131,22.531853 0,0 -10.59087,12.150501 -15.44575,18.57507 -5.47772,7.24879 -9.72518,23.570134 -10.05947,23.570134 -12.05708,0 -113.646134,-0.002 -113.646134,-0.002 0,0 -3.40411,-13.436182 -7.121012,-19.138574 C 41.123041,85.419596 38.686942,80.414107 32.308907,73.854385 27.052485,68.448226 21.970414,62.523589 18.528195,55.882989 15.258562,49.575337 13.205554,44.102957 11.068087,35.917028 9.1807793,28.689142 9.4404273,20.291493 9.4404273,20.291493 Z"
       id="path3"
       sodipodi:nodetypes="ccscsscssssc" />
    <path
       style="fill:#ffffff;fill-rule:evenodd;stroke-width:13.0213;stroke-linecap:round;stroke-linejoin:round;stroke-miterlimit:16.1;paint-order:stroke fill markers"
       d="m 73.89733,246.5805 c -4.553537,-1.48935 -8.819916,-5.41613 -11.130268,-10.24429 l -1.350029,-2.82127 -0.119883,-38.05032 -0.119887,-38.05031 -2.002551,-0.68234 c -3.078282,-1.04888 -5.3709,-2.55654 -7.81114,-5.13673 -4.339671,-4.58857 -5.313307,-8.0484 -5.34546,-18.99522 -0.02831,-9.63819 -0.733689,-17.133 -2.134499,-22.6796 C 40.887554,98.057345 35.694174,89.031268 25.590862,78.127674 17.705321,69.617522 13.73165,63.944971 9.5634237,55.247967 5.3374787,46.43053 3.0721075,38.386793 2.1874701,29.057894 1.9396544,26.444565 1.7367328,19.276919 1.7365333,13.12979 L 1.7361705,1.9531919 H 5.4255329 9.1148953 V 12.758269 c 0,5.942792 0.2070358,12.827793 0.4600791,15.300003 0.9225026,9.01276 3.5241716,17.5597 8.0403836,26.414079 3.267552,6.406282 6.445221,10.776519 13.412971,18.446812 5.998695,6.603529 7.261683,8.258082 11.609936,15.209379 4.228756,6.760262 5.641122,9.967368 8.354778,18.971478 l 1.144605,3.79787 h 56.994032 56.99403 l 2.26669,-6.61915 c 4.35347,-12.712971 6.27791,-15.763948 20.19108,-32.010641 9.99554,-11.672001 15.78095,-22.375827 18.88529,-34.940432 1.71781,-6.952731 2.17382,-12.152304 2.17382,-24.78642 V 1.9531919 h 3.40603 3.40602 l 0.28136,4.8829796 c 1.1926,20.6969815 -0.97775,34.1885715 -7.80272,48.5042645 -3.30293,6.92808 -7.77405,13.416505 -14.50609,21.051068 -17.83696,20.22824 -22.0131,30.462396 -22.1394,54.255326 -0.0525,9.88499 -0.47872,13.57424 -1.90522,16.48989 -2.13893,4.37183 -6.71823,8.13794 -12.06552,9.92294 -0.70667,0.23589 -0.76204,1.53164 -0.79494,18.60548 -0.0465,24.1537 -0.2744,28.053 -1.82425,31.2208 -1.89377,3.87072 -4.22813,6.15979 -9.0302,8.855 -2.37511,1.33305 -17.3247,8.88916 -33.2213,16.79135 l -28.902911,14.36762 -4.401504,0.14171 c -2.938387,0.0946 -5.014178,-0.0587 -6.244615,-0.46112 z m 38.60837,-22.26322 c 16.3038,-8.15394 30.8559,-15.61206 32.33803,-16.5736 2.06366,-1.33882 2.9531,-2.25806 3.79787,-3.92513 l 1.10311,-2.17689 V 179.9251 158.20854 H 109.37874 69.012779 l 0.0041,36.78511 0.0041,36.78512 1.291259,2.25145 c 2.284132,3.98264 4.81635,5.38618 9.4233,5.2231 l 3.126956,-0.11069 z m 45.8775,-75.20202 c 1.90296,-0.97082 5.59522,-4.88767 5.90019,-6.25909 0.11304,-0.50832 0.25734,-6.44215 0.32066,-13.18627 l 0.11513,-12.26204 -55.72524,3.4e-4 -55.725242,3.3e-4 0.241428,12.04469 c 0.138008,6.88531 0.449707,12.73712 0.727659,13.66119 0.524558,1.74393 4.114004,5.7366 5.745852,6.39133 0.588692,0.2362 20.670665,0.41227 48.869843,0.42848 46.63532,0.0268 47.91331,0.006 49.52972,-0.81896 z"
       id="path5" />
  </g>
</svg>
