<?xml version="1.0" encoding="UTF-8" standalone="no"?>
<!-- icon666.com - MILLIONS OF FREE VECTOR ICONS -->

<svg
   id="Capa_1"
   enable-background="new 0 0 458.353 458.353"
   viewBox="0 0 458.353 458.353"
   version="1.1"
   sodipodi:docname="italic.svg"
   inkscape:version="1.4.2 (f4327f4, 2025-05-13)"
   xmlns:inkscape="http://www.inkscape.org/namespaces/inkscape"
   xmlns:sodipodi="http://sodipodi.sourceforge.net/DTD/sodipodi-0.dtd"
   xmlns="http://www.w3.org/2000/svg"
   xmlns:svg="http://www.w3.org/2000/svg">
  <defs
     id="defs1" />
  <sodipodi:namedview
     id="namedview1"
     pagecolor="#ffffff"
     bordercolor="#999999"
     borderopacity="1"
     inkscape:showpageshadow="2"
     inkscape:pageopacity="0"
     inkscape:pagecheckerboard="0"
     inkscape:deskcolor="#d1d1d1"
     inkscape:zoom="0.6224844"
     inkscape:cx="212.05351"
     inkscape:cy="277.11538"
     inkscape:window-width="1920"
     inkscape:window-height="1009"
     inkscape:window-x="-8"
     inkscape:window-y="-8"
     inkscape:window-maximized="1"
     inkscape:current-layer="Capa_1" />
  <path
     d="m 395.9269,61.079797 c 4.23556,0 7.98767,-7.15168 8.00072,-11.943553 0.0132,-4.831197 -3.72071,-12.085294 -8.00072,-12.085294 H 218.15501 c -3.8889,0 -7.4795,8.056863 -7.4795,11.790532 0,4.275945 3.32504,12.238315 7.4795,12.238315 h 77.3146 L 149.6953,397.48447 c 0,0 -72.671546,0 -79.502378,0 -4.678079,0 -8.077678,7.19354 -8.076471,12.0209 0.0011,4.82378 3.402098,12.00793 8.076471,12.00793 5.342624,0 189.102598,0 189.102598,0 4.03792,0 6.56658,-7.52334 6.55062,-12.11381 -0.0159,-4.53232 -2.57894,-11.91502 -6.55062,-11.91502 H 175.89157 L 321.66673,61.079797 Z"
     id="path1"
     sodipodi:nodetypes="sassssccsassasccs"
     style="stroke:#000000;stroke-width:12.6168;stroke-dasharray:none;stroke-opacity:1" />
</svg>
