<?xml version="1.0" encoding="UTF-8" standalone="no"?>
<!-- icon666.com - MILLIONS OF FREE VECTOR ICONS -->

<svg
   viewBox="0 0 480 480"
   version="1.1"
   id="svg1"
   sodipodi:docname="language.svg"
   inkscape:version="1.4 (86a8ad7, 2024-10-11)"
   xmlns:inkscape="http://www.inkscape.org/namespaces/inkscape"
   xmlns:sodipodi="http://sodipodi.sourceforge.net/DTD/sodipodi-0.dtd"
   xmlns="http://www.w3.org/2000/svg"
   xmlns:svg="http://www.w3.org/2000/svg">
  <defs
     id="defs1" />
  <sodipodi:namedview
     id="namedview1"
     pagecolor="#ffffff"
     bordercolor="#000000"
     borderopacity="0.25"
     inkscape:showpageshadow="2"
     inkscape:pageopacity="0.0"
     inkscape:pagecheckerboard="0"
     inkscape:deskcolor="#d1d1d1"
     inkscape:zoom="0.4203125"
     inkscape:cx="182.00743"
     inkscape:cy="-27.360595"
     inkscape:window-width="1920"
     inkscape:window-height="1009"
     inkscape:window-x="-8"
     inkscape:window-y="-8"
     inkscape:window-maximized="1"
     inkscape:current-layer="svg1"
     showguides="true" />
  <path
     id="path1"
     d="M 240,0 C 107.45312,0 0,107.45312 0,240 0,372.54688 110.29206,479.89485 242.83894,479.89485 375.38582,479.89485 480,372.54688 480,240 479.85156,107.51562 372.48437,0.148438 240,0 Z m 1.81169,16.451172 c 44.90406,0.03505 58.72087,70.103614 72.98253,120.892658 -37.50137,0 -141.87372,0.49705 -151.24572,0.49705 C 179.03621,88.124651 196.90768,16.416167 241.81173,16.451212 Z M 202.30453,16.274099 C 172.42172,43.067067 155.74569,99.425957 143.98395,137.79704 L 40.527344,138.28906 C 67.382812,85.855483 146.42563,34.922536 202.30453,16.274099 Z m 81.01833,-0.03646 C 339.49915,28.640722 412.61719,85.85548 439.47266,138.28906 L 334.1072,137.64834 C 322.34548,99.277258 313.20567,43.030606 283.32286,16.237643 Z m 35.85186,139.784581 c 7.18879,30.41563 9.77498,44.01865 10.31014,74.78818 H 151.89132 c 0.53516,-30.76953 1.9467,-45.11604 8.5407,-74.93688 53.81286,-0.48657 104.93152,0.15026 158.7427,0.1487 z m -178.0455,-0.27919 c -4.83853,28.94975 -5.59492,45.37596 -6.12227,75.06737 L 16.199219,232 c 0.902343,-26.11719 6.398437,-51.87109 16.234375,-76.07812 z m 196.8767,0.1013 109.56049,0.0775 c 9.83593,24.20703 15.33203,49.96093 16.23437,76.07812 l -116.24196,-1.1896 c -0.52734,-29.69141 -1.7404,-46.31372 -9.5529,-74.96607 z M 16.199219,248 135.00695,246.8104 c 0.52735,29.69141 5.63828,58.88768 13.45078,87.54003 L 37.147123,334.52056 C 27.311185,310.31353 17.101562,274.11719 16.199219,248 Z m 135.692101,-1.1896 h 177.59354 c -0.53516,30.76953 -13.24803,87.47023 -13.24803,87.47023 0,0 -122.16403,0.99557 -152.71203,0.22305 -6.594,-28.92864 -11.09832,-56.92375 -11.63348,-87.69328 z m 195.6675,0 L 463.80078,248 c -0.90234,26.11719 -13.75866,62.1754 -23.59459,86.38243 l -107.28774,-0.0883 c 7.8125,-28.65235 14.11303,-57.79231 14.64037,-87.48372 z M 44.943476,350.96379 153.09247,351.07438 c 11.76172,38.37109 24.86539,87.1409 49.09764,110.3651 C 142.94653,453.72623 71.798944,403.39738 44.943476,350.96379 Z M 435.26682,350.5432 c -26.85547,52.43359 -96.94487,89.95268 -152.82377,108.60111 20.06868,-22.332 33.67107,-69.70631 45.43283,-108.0774 z m -124.33873,0.46353 c 4.09868,0 -26.14559,111.76974 -68.46952,111.76974 -42.12449,0 -47.55952,-34.8087 -73.21503,-111.75414 -1.97013,-5.90876 94.20551,-0.0156 141.68455,-0.0156 z"
     sodipodi:nodetypes="cssccccccccccccccccccccccccccccccccccccccscccccccccccccsccsscss" />
</svg>
