<?xml version="1.0" encoding="UTF-8" standalone="no"?>
<!-- Скачано с сайта svg4.ru / Downloaded from svg4.ru -->

<svg
   width="800"
   height="800"
   viewBox="0 0 125 125"
   fill="none"
   version="1.1"
   id="svg80"
   sodipodi:docname="laughing_emoji.svg"
   inkscape:version="1.4.4 (dcaf3e7, 2026-05-05)"
   xmlns:inkscape="http://www.inkscape.org/namespaces/inkscape"
   xmlns:sodipodi="http://sodipodi.sourceforge.net/DTD/sodipodi-0.dtd"
   xmlns="http://www.w3.org/2000/svg"
   xmlns:svg="http://www.w3.org/2000/svg">
  <sodipodi:namedview
     id="namedview80"
     pagecolor="#ffffff"
     bordercolor="#000000"
     borderopacity="0.25"
     inkscape:showpageshadow="2"
     inkscape:pageopacity="0.0"
     inkscape:pagecheckerboard="0"
     inkscape:deskcolor="#d1d1d1"
     inkscape:zoom="0.13931523"
     inkscape:cx="-1776.5466"
     inkscape:cy="-312.24153"
     inkscape:window-width="1920"
     inkscape:window-height="1009"
     inkscape:window-x="-8"
     inkscape:window-y="-8"
     inkscape:window-maximized="1"
     inkscape:current-layer="svg80" />
  <path
     d="M 43.271963,109.28041 C 68.930574,119.22537 97.792785,106.48689 107.73768,80.828434 117.68264,55.169819 104.94432,26.307669 79.285705,16.362711 53.627242,6.417812 24.76494,19.156079 14.819982,44.81469 4.8750821,70.473153 17.6135,99.335514 43.271963,109.28041 Z"
     fill="url(#paint0_radial)"
     id="path1"
     style="fill:url(#paint0_radial);stroke-width:1.63576" />
  <path
     opacity="0.5"
     d="M 43.271963,109.28041 C 68.930574,119.22537 97.792785,106.48689 107.73768,80.828434 117.68264,55.169819 104.94432,26.307669 79.285705,16.362711 53.627242,6.417812 24.76494,19.156079 14.819982,44.81469 4.8750821,70.473153 17.6135,99.335514 43.271963,109.28041 Z"
     fill="url(#paint1_radial)"
     id="path2"
     style="fill:url(#paint1_radial);stroke-width:1.63576" />
  <path
     d="m 95.110008,70.488332 c -0.367574,-0.142474 -0.793789,-0.133624 -1.158556,-0.02625 -10.454173,3.233973 -21.337243,5.008599 -32.382848,5.277999 -11.037422,0.247838 -21.987524,-1.01236 -32.579222,-3.774809 -0.384364,-0.09916 -0.788924,-0.08189 -1.170418,0.0686 -1.131624,0.481363 -2.882399,2.239715 -0.362346,8.761698 l -0.0085,0.02164 c 3.770768,8.299842 13.438078,22.81393 34.741981,22.31804 21.252194,-0.49103 30.258435,-15.451416 33.667961,-23.927296 2.232647,-6.594561 0.406007,-8.297245 -0.748116,-8.719658 z"
     fill="url(#paint2_radial)"
     id="path3"
     style="fill:url(#paint2_radial);stroke-width:1.63576" />
  <path
     d="m 23.725373,81.761428 c 0.324398,6.541293 -5.468641,10.388398 -10.48393,9.662911 C 8.2343372,90.677288 4.1470778,85.760958 5.8304865,79.749277 9.6398966,66.007354 28.04178,63.118474 28.04178,63.118474 c 0,0 -4.751315,9.82084 -4.316407,18.642954 z"
     fill="url(#paint3_linear)"
     id="path4"
     style="fill:url(#paint3_linear);stroke-width:1.63576" />
  <path
     d="m 17.099691,80.635624 c -3.84544,5.173881 -12.6229824,2.542662 -10.0673273,-4.051086 -0.4803021,0.982571 -0.88252,2.020318 -1.2149881,3.134745 -1.6835611,6.011621 2.4036982,10.927955 7.4108034,11.675004 5.007047,0.747202 10.808269,-3.121463 10.484023,-9.662699 -0.421737,-8.792274 4.329578,-18.613114 4.329578,-18.613114 -9.754617,10.219083 -9.066134,14.986823 -10.942089,17.51715 z"
     fill="url(#paint4_linear)"
     id="path5"
     style="fill:url(#paint4_linear);stroke-width:1.63576" />
  <path
     d="M 21.926711,77.483541 C 20.301156,88.093094 7.6694719,88.220365 5.5353475,81.151674 c -0.7046395,5.346687 3.0865129,9.551433 7.6925255,10.242495 5.006953,0.746989 10.80833,-3.12162 10.484025,-9.6627 -0.421737,-8.792274 4.329576,-18.613115 4.329576,-18.613115 0,0 -4.778828,5.657516 -6.114763,14.365187 z"
     fill="url(#paint5_linear)"
     id="path6"
     style="fill:url(#paint5_linear);stroke-width:1.63576" />
  <path
     d="m 20.300979,83.666867 c -4.382637,6.880336 -12.5951144,3.945871 -14.8612855,-0.985659 0.05071,2.307469 0.972606,4.355603 2.3753971,5.869096 8.1978054,5.987266 15.7942154,-1.935089 15.8923774,-6.422672 -0.0014,-0.124922 -0.0026,-0.249792 -0.0041,-0.374717 -0.01456,-0.154759 -0.02076,-0.331188 -0.0056,-0.499278 -0.222252,-8.665134 4.34349,-18.135283 4.34349,-18.135283 -6.766577,10.208479 -2.380178,12.107532 -7.740494,20.548513 z"
     fill="url(#paint6_linear)"
     id="path7"
     style="fill:url(#paint6_linear);stroke-width:1.63576" />
  <path
     opacity="0.75"
     d="m 28.041628,63.118415 c 0,0 -13.035758,7.007774 -14.031013,13.360906 C 13.01536,82.832453 6.7516087,80.131028 8.0971449,76.723736 10.456467,70.700356 20.28819,64.838019 28.041628,63.118415 Z"
     fill="url(#paint7_linear)"
     id="path8"
     style="fill:url(#paint7_linear);stroke-width:1.63576" />
  <path
     d="m 62.147943,100.80637 c 8.811563,-0.21532 15.386067,-3.063245 20.253403,-6.895998 -5.510625,-2.334789 -12.260421,-3.782196 -20.491003,-3.590282 -8.252182,0.183366 -14.937009,1.968921 -20.317223,4.558538 5.033036,3.567 11.729994,6.113012 20.554823,5.927742 z"
     fill="url(#paint8_radial)"
     id="path9"
     style="fill:url(#paint8_radial);stroke-width:1.63576" />
  <path
     d="m 99.651193,80.006759 c -0.02866,6.553743 5.943187,10.136386 10.923087,9.157159 4.9799,-0.979224 8.82181,-6.079733 6.86776,-12.009368 -4.45122,-13.536749 -22.953467,-15.585538 -22.953467,-15.585538 0,0 5.19709,9.623528 5.16262,18.437747 z"
     fill="url(#paint9_linear)"
     id="path10"
     style="fill:url(#paint9_linear);stroke-width:1.63576" />
  <path
     d="m 106.23687,78.605566 c 4.08379,4.989547 12.7445,1.955683 9.87637,-4.502443 0.5269,0.95033 0.97702,1.970201 1.34206,3.081477 1.9539,5.92958 -1.88786,11.03015 -6.86776,12.009372 -4.97989,0.979222 -10.951688,-2.603568 -10.923083,-9.157164 0.03433,-8.814275 -5.162772,-18.437802 -5.162772,-18.437802 10.197575,9.746281 9.723885,14.560924 11.735185,17.00656 z"
     fill="url(#paint10_linear)"
     id="path11"
     style="fill:url(#paint10_linear);stroke-width:1.63576" />
  <path
     d="m 101.25367,75.679442 c 2.11533,10.51777 14.74792,10.067707 16.5526,2.909389 0.94842,5.316015 -2.66033,9.686399 -7.21033,10.583484 -4.97996,0.979374 -10.951752,-2.603418 -10.923242,-9.157221 0.03448,-8.814218 -5.162618,-18.437747 -5.162618,-18.437747 0,0 5.023201,5.453119 6.74359,14.102095 z"
     fill="url(#paint11_linear)"
     id="path12"
     style="fill:url(#paint11_linear);stroke-width:1.63576" />
  <path
     d="m 103.17059,81.768712 c 4.69198,6.692415 12.76412,3.380607 14.79821,-1.674656 0.0506,2.307407 -0.75382,4.38275 -2.12294,5.990613 -7.91024,6.358491 -15.871046,-1.202998 -16.169047,-5.695009 -0.0014,-0.124775 -0.0026,-0.249639 -0.0041,-0.374566 0.0072,-0.146384 9.85e-4,-0.322951 -0.0056,-0.499433 -0.170597,-8.669849 -5.165643,-17.916655 -5.165643,-17.916655 7.23229,9.890085 2.918791,11.973004 8.6689,20.169706 z"
     fill="url(#paint12_linear)"
     id="path13"
     style="fill:url(#paint12_linear);stroke-width:1.63576" />
  <path
     opacity="0.75"
     d="m 94.501685,61.599006 c 0,0 13.330585,6.410058 14.621085,12.70424 1.29055,6.294033 7.39422,3.313436 5.93291,-0.03795 C 112.41754,68.36892 102.32702,62.96591 94.501685,61.598989 Z"
     fill="url(#paint13_linear)"
     id="path14"
     style="fill:url(#paint13_linear);stroke-width:1.63576" />
  <path
     d="m 28.69974,71.877923 c -0.06482,-0.02513 -0.138041,-0.02863 -0.219733,-0.0108 -0.701042,0.07652 -4.115608,0.866684 -0.993489,8.914958 l -0.0085,0.02164 c 1.512801,3.346595 3.99681,7.716086 7.828623,11.687828 -3.591817,-4.077664 0.662612,-6.457153 8.356399,-5.713125 7.693833,0.744069 18.171721,0.528128 18.171721,0.528128 L 61.568299,75.739963 C 50.427821,75.997506 39.369583,74.695399 28.69974,71.877923 Z"
     fill="url(#paint14_linear)"
     id="path15"
     style="fill:url(#paint14_linear);stroke-width:1.63576" />
  <path
     d="m 94.234455,70.372833 c 0.08159,-0.01819 0.141657,-0.04457 0.21487,-0.04109 0.702289,0.04835 4.158082,0.691653 1.408647,8.876203 l 0.02164,0.0085 c -1.375649,3.42071 -3.652733,7.88444 -7.280713,12.048257 3.403372,-4.226138 -0.968951,-6.418147 -8.604295,-5.324144 -7.656787,1.085512 -18.138139,1.37467 -18.138139,1.37467 L 61.58994,75.748484 c 11.118972,-0.265876 22.113647,-2.071806 32.644499,-5.375526 z"
     fill="url(#paint15_linear)"
     id="path16"
     style="fill:url(#paint15_linear);stroke-width:1.63576" />
  <path
     d="m 91.302859,81.271941 c 1.434283,-0.364234 2.471255,-1.628398 2.571624,-3.106282 l 0.403292,-5.339106 C 83.742206,76.078625 72.764258,77.841389 61.623631,78.09887 50.504811,78.364806 39.459682,77.09269 28.764715,74.340038 l 0.647071,5.323595 c 0.179473,1.46197 1.273331,2.681697 2.718951,2.993413 9.692952,2.065876 19.653552,2.992198 29.662058,2.768361 10.016844,-0.245345 19.905171,-1.634672 29.510064,-4.153466 z"
     fill="url(#paint16_radial)"
     id="path17"
     style="fill:url(#paint16_radial);stroke-width:1.63576" />
  <path
     d="m 92.392824,43.623829 c -0.169931,-0.588126 -0.690207,-0.914158 -1.28311,-0.795728 -3.094272,0.541337 -8.423428,2.678306 -13.51777,5.428369 -4.054067,2.183475 -8.841292,7.862647 -8.34199,9.846457 0.561846,2.207169 6.743112,4.031039 9.368189,4.700255 4.110488,1.071088 9.545062,1.934171 12.435133,1.214031 0.772884,-0.197614 1.025551,-0.721417 1.016718,-1.147631 -0.01505,-0.602639 -0.519871,-1.09655 -1.27521,-1.265106 -8.343246,-1.89098 -13.887391,-4.139291 -13.935819,-5.426086 0,0 -0.365981,-2.006871 5.011079,-5.293997 3.267862,-2.015761 6.836318,-3.716243 9.034651,-4.704307 1.296848,-0.715734 1.712332,-1.72343 1.48813,-2.556265 z"
     fill="url(#paint17_radial)"
     id="path18"
     style="fill:url(#paint17_radial);stroke-width:1.63576" />
  <path
     d="m 91.087751,42.819589 c -3.094274,0.541337 -8.568233,2.025359 -13.517617,5.428429 -4.539298,3.114485 -8.841291,7.862645 -8.342144,9.846396 0.328,1.271125 2.540778,2.427003 4.862234,3.302034 0.08648,0.03352 0.172959,0.06703 0.259436,0.100567 l 0.02164,0.0085 C 72.203523,59.720262 70.927318,57.559714 73.465423,54.539911 75.068365,52.649702 79.811024,46.828873 92.392501,43.623832 92.214176,43.057364 91.6939,42.731331 91.087736,42.81971 Z"
     fill="url(#paint18_linear)"
     id="path19"
     style="fill:url(#paint18_linear);stroke-width:1.63576" />
  <path
     d="m 92.06984,62.86953 c -0.01505,-0.602639 -0.51981,-1.096702 -1.27521,-1.265105 -8.343248,-1.890978 -13.887392,-4.139291 -13.93576,-5.426238 0.07935,2.169277 0.15978,3.244974 7.071984,4.979004 5.120399,1.288487 7.554482,1.809115 7.12227,2.859973 0.751286,-0.206164 1.02555,-0.721417 1.016716,-1.147634 z"
     fill="url(#paint19_linear)"
     id="path20"
     style="fill:url(#paint19_linear);stroke-width:1.63576" />
  <path
     d="m 29.320036,45.063518 c 0.153009,-0.587161 0.661654,-0.937191 1.252433,-0.857332 3.121795,0.414216 8.51545,2.280873 13.760898,4.786556 4.154951,1.983378 9.199657,7.444833 8.794911,9.45139 -0.466855,2.231071 -6.549948,4.324408 -9.150472,5.131678 -4.068325,1.257977 -9.451531,2.379294 -12.37303,1.76922 -0.785243,-0.155234 -1.06206,-0.660404 -1.092455,-1.094803 -0.01521,-0.602698 0.457239,-1.115888 1.216918,-1.343708 8.242669,-2.275753 13.684237,-4.76703 13.665923,-6.067243 0,0 0.279812,-2.005153 -5.255615,-5.045849 -3.361162,-1.849742 -6.985982,-3.40397 -9.226097,-4.296945 -1.315165,-0.584477 -1.795336,-1.591081 -1.593414,-2.432964 z"
     fill="url(#paint20_radial)"
     id="path21"
     style="fill:url(#paint20_radial);stroke-width:1.63576" />
  <path
     d="m 30.572469,44.206186 c 3.121795,0.414216 8.641883,1.63376 13.760898,4.786556 4.668642,2.903503 9.199657,7.444833 8.794971,9.451238 -0.27464,1.286134 -2.427004,2.540778 -4.698554,3.525374 -0.08995,0.0397 -0.179889,0.07938 -0.261441,0.09743 l -0.03005,0.01325 c 2.072321,-1.882315 3.279913,-4.099962 0.600746,-7.003216 -1.681669,-1.820527 -6.706121,-7.39851 -19.402276,-10.056479 0.127883,-0.522342 0.636529,-0.872373 1.235703,-0.814173 z"
     fill="url(#paint21_linear)"
     id="path22"
     style="fill:url(#paint21_linear);stroke-width:1.63576" />
  <path
     d="m 30.52549,64.280068 c -0.01505,-0.602487 0.457333,-1.115677 1.217014,-1.343499 8.242727,-2.275903 13.684084,-4.767088 13.665921,-6.067239 0.02764,2.17415 -0.0168,3.251093 -6.83217,5.309196 -5.064474,1.518351 -7.464914,2.129847 -6.979873,3.188161 -0.763736,-0.146891 -1.061907,-0.660343 -1.070892,-1.086619 z"
     fill="url(#paint22_linear)"
     id="path23"
     style="fill:url(#paint22_linear);stroke-width:1.63576" />
  <path
     d="m 49.628597,32.892424 c -0.04318,-2.005965 -2.239174,-3.205161 -5.958243,-3.104927 -3.159534,0.06834 -10.041195,1.976545 -14.671748,8.213792 -0.848632,1.162959 0.518091,1.742507 1.354106,0.997276 2.883058,-2.562782 10.657532,-5.940318 16.820269,-5.416562 2.478209,0.214413 2.455616,-0.689579 2.455616,-0.689579 z"
     fill="url(#paint23_linear)"
     id="path24"
     style="fill:url(#paint23_linear);stroke-width:1.63576" />
  <path
     d="m 71.548555,32.41163 c -0.04297,-2.00606 2.074411,-3.298997 5.785086,-3.377574 3.159743,-0.06844 10.130588,1.514298 15.030613,7.541409 0.907791,1.122697 -0.437303,1.770085 -1.306053,1.060398 -2.988499,-2.426504 -10.917669,-5.450103 -17.049036,-4.643502 -2.451126,0.293264 -2.46061,-0.580731 -2.46061,-0.580731 z"
     fill="url(#paint24_linear)"
     id="path25"
     style="fill:url(#paint24_linear);stroke-width:1.63576" />
  <defs
     id="defs80">
    <radialGradient
       id="paint0_radial"
       cx="0"
       cy="0"
       r="1"
       gradientUnits="userSpaceOnUse"
       gradientTransform="matrix(60.107022,-1.3794391,1.3794391,60.107022,51.01454,42.858732)">
      <stop
         stop-color="#FFDF30"
         id="stop25" />
      <stop
         offset="1"
         stop-color="#FFB82E"
         id="stop26" />
    </radialGradient>
    <radialGradient
       id="paint1_radial"
       cx="0"
       cy="0"
       r="1"
       gradientUnits="userSpaceOnUse"
       gradientTransform="matrix(47.288852,-1.085266,1.085266,47.288852,51.01454,42.858732)">
      <stop
         stop-color="#FFE95F"
         id="stop27" />
      <stop
         offset="1"
         stop-color="#FFBB47"
         stop-opacity="0"
         id="stop28" />
    </radialGradient>
    <radialGradient
       id="paint2_radial"
       cx="0"
       cy="0"
       r="1"
       gradientUnits="userSpaceOnUse"
       gradientTransform="matrix(27.447457,-0.62991107,0.62991107,27.447457,61.8394,87.144635)">
      <stop
         offset="0.00132565"
         stop-color="#7A4400"
         id="stop29" />
      <stop
         offset="1"
         stop-color="#643800"
         id="stop30" />
    </radialGradient>
    <linearGradient
       id="paint3_linear"
       x1="8.1523104"
       y1="53.4259"
       x2="25.304501"
       y2="60.749001"
       gradientUnits="userSpaceOnUse"
       gradientTransform="matrix(1.5252013,0.59114897,-0.59114897,1.5252013,25.019925,-22.238171)">
      <stop
         offset="0.0723628"
         stop-color="#17BAFD"
         id="stop31" />
      <stop
         offset="0.2085"
         stop-color="#D0F1FF"
         id="stop32" />
      <stop
         offset="0.668"
         stop-color="#80D9FD"
         id="stop33" />
      <stop
         offset="1"
         stop-color="#0098D5"
         id="stop34" />
    </linearGradient>
    <linearGradient
       id="paint4_linear"
       x1="30.729099"
       y1="65.581299"
       x2="6.9030299"
       y2="50.854401"
       gradientUnits="userSpaceOnUse"
       gradientTransform="matrix(1.5252013,0.59114897,-0.59114897,1.5252013,25.019925,-22.238171)">
      <stop
         stop-color="#D0F1FF"
         id="stop35" />
      <stop
         offset="0.668"
         stop-color="#80D9FD"
         id="stop36" />
      <stop
         offset="1"
         stop-color="#0098D5"
         id="stop37" />
    </linearGradient>
    <linearGradient
       id="paint5_linear"
       x1="10.2443"
       y1="49.6768"
       x2="26.4447"
       y2="67.3908"
       gradientUnits="userSpaceOnUse"
       gradientTransform="matrix(1.5252013,0.59114897,-0.59114897,1.5252013,25.019925,-22.238171)">
      <stop
         offset="0.566"
         stop-color="#80D9FD"
         id="stop38" />
      <stop
         offset="1"
         stop-color="#0098D5"
         id="stop39" />
    </linearGradient>
    <linearGradient
       id="paint6_linear"
       x1="11.5448"
       y1="50.322399"
       x2="24.5674"
       y2="66.501404"
       gradientUnits="userSpaceOnUse"
       gradientTransform="matrix(1.5252013,0.59114897,-0.59114897,1.5252013,25.019925,-22.238171)">
      <stop
         offset="0.566"
         stop-color="#80D9FD"
         id="stop40" />
      <stop
         offset="1"
         stop-color="#0098D5"
         id="stop41" />
    </linearGradient>
    <linearGradient
       id="paint7_linear"
       x1="18.8627"
       y1="63.429699"
       x2="13.674"
       y2="43.937099"
       gradientUnits="userSpaceOnUse"
       gradientTransform="matrix(1.5252013,0.59114897,-0.59114897,1.5252013,25.019925,-22.238171)">
      <stop
         stop-color="white"
         id="stop42" />
      <stop
         offset="1"
         stop-color="#80D9FD"
         id="stop43" />
    </linearGradient>
    <radialGradient
       id="paint8_radial"
       cx="0"
       cy="0"
       r="1"
       gradientUnits="userSpaceOnUse"
       gradientTransform="matrix(22.748025,-0.52206036,0.1578233,6.8769175,62.472238,96.785896)">
      <stop
         offset="0.2479"
         stop-color="#FF0000"
         id="stop44" />
      <stop
         offset="1"
         stop-color="#C10000"
         id="stop45" />
    </radialGradient>
    <linearGradient
       id="paint9_linear"
       x1="70.7603"
       y1="27.491699"
       x2="63.810398"
       y2="44.7985"
       gradientUnits="userSpaceOnUse"
       gradientTransform="matrix(1.5252013,0.59114897,-0.59114897,1.5252013,25.019925,-22.238171)">
      <stop
         offset="0.0723628"
         stop-color="#17BAFD"
         id="stop46" />
      <stop
         offset="0.2085"
         stop-color="#D0F1FF"
         id="stop47" />
      <stop
         offset="0.668"
         stop-color="#80D9FD"
         id="stop48" />
      <stop
         offset="1"
         stop-color="#0098D5"
         id="stop49" />
    </linearGradient>
    <linearGradient
       id="paint10_linear"
       x1="63.391701"
       y1="52.051201"
       x2="69.825302"
       y2="24.790001"
       gradientUnits="userSpaceOnUse"
       gradientTransform="matrix(1.5252013,0.59114897,-0.59114897,1.5252013,25.019925,-22.238171)">
      <stop
         stop-color="#D0F1FF"
         id="stop50" />
      <stop
         offset="0.668"
         stop-color="#80D9FD"
         id="stop51" />
      <stop
         offset="1"
         stop-color="#0098D5"
         id="stop52" />
    </linearGradient>
    <linearGradient
       id="paint11_linear"
       x1="66.629898"
       y1="26.3202"
       x2="67.7005"
       y2="50.301201"
       gradientUnits="userSpaceOnUse"
       gradientTransform="matrix(1.5252013,0.59114897,-0.59114897,1.5252013,25.019925,-22.238171)">
      <stop
         offset="0.566"
         stop-color="#80D9FD"
         id="stop53" />
      <stop
         offset="1"
         stop-color="#0098D5"
         id="stop54" />
    </linearGradient>
    <linearGradient
       id="paint12_linear"
       x1="66.166702"
       y1="27.696301"
       x2="68.399002"
       y2="48.344898"
       gradientUnits="userSpaceOnUse"
       gradientTransform="matrix(1.5252013,0.59114897,-0.59114897,1.5252013,25.019925,-22.238171)">
      <stop
         offset="0.566"
         stop-color="#80D9FD"
         id="stop55" />
      <stop
         offset="1"
         stop-color="#0098D5"
         id="stop56" />
    </linearGradient>
    <linearGradient
       id="paint13_linear"
       x1="70.260803"
       y1="42.139"
       x2="60.146099"
       y2="24.6868"
       gradientUnits="userSpaceOnUse"
       gradientTransform="matrix(1.5252013,0.59114897,-0.59114897,1.5252013,25.019925,-22.238171)">
      <stop
         stop-color="white"
         id="stop57" />
      <stop
         offset="1"
         stop-color="#80D9FD"
         id="stop58" />
    </linearGradient>
    <linearGradient
       id="paint14_linear"
       x1="23.8521"
       y1="59.305"
       x2="43.833698"
       y2="51.028198"
       gradientUnits="userSpaceOnUse"
       gradientTransform="matrix(1.5252013,0.59114897,-0.59114897,1.5252013,25.019925,-22.238171)">
      <stop
         offset="0.00132565"
         stop-color="#3C2200"
         id="stop59" />
      <stop
         offset="1"
         stop-color="#512D00"
         id="stop60" />
    </linearGradient>
    <linearGradient
       id="paint15_linear"
       x1="63.812599"
       y1="42.751598"
       x2="43.831001"
       y2="51.0284"
       gradientUnits="userSpaceOnUse"
       gradientTransform="matrix(1.5252013,0.59114897,-0.59114897,1.5252013,25.019925,-22.238171)">
      <stop
         offset="0.00132565"
         stop-color="#3C2200"
         id="stop61" />
      <stop
         offset="1"
         stop-color="#512D00"
         id="stop62" />
    </linearGradient>
    <radialGradient
       id="paint16_radial"
       cx="0"
       cy="0"
       r="1"
       gradientUnits="userSpaceOnUse"
       gradientTransform="matrix(60.193036,-1.381413,1.381413,60.193036,61.66328,79.487523)">
      <stop
         offset="0.00132565"
         stop-color="white"
         id="stop63" />
      <stop
         offset="1"
         stop-color="#A8BBBD"
         id="stop64" />
    </radialGradient>
    <radialGradient
       id="paint17_radial"
       cx="0"
       cy="0"
       r="1"
       gradientUnits="userSpaceOnUse"
       gradientTransform="matrix(-5.9337826,-10.108918,6.5399447,-3.8388487,82.043578,55.70026)">
      <stop
         offset="0.00132565"
         stop-color="#7A4400"
         id="stop65" />
      <stop
         offset="1"
         stop-color="#643800"
         id="stop66" />
    </radialGradient>
    <linearGradient
       id="paint18_linear"
       x1="42.073399"
       y1="34.795898"
       x2="55.022598"
       y2="25.576"
       gradientUnits="userSpaceOnUse"
       gradientTransform="matrix(1.5252013,0.59114897,-0.59114897,1.5252013,25.019925,-22.238171)">
      <stop
         offset="0.00132565"
         stop-color="#3C2200"
         id="stop67" />
      <stop
         offset="1"
         stop-color="#512D00"
         id="stop68" />
    </linearGradient>
    <linearGradient
       id="paint19_linear"
       x1="47.8778"
       y1="35.584702"
       x2="56.269798"
       y2="31.9622"
       gradientUnits="userSpaceOnUse"
       gradientTransform="matrix(1.5252013,0.59114897,-0.59114897,1.5252013,25.019925,-22.238171)">
      <stop
         offset="0.00132565"
         stop-color="#3C2200"
         id="stop69" />
      <stop
         offset="1"
         stop-color="#512D00"
         id="stop70" />
    </linearGradient>
    <radialGradient
       id="paint20_radial"
       cx="0"
       cy="0"
       r="1"
       gradientUnits="userSpaceOnUse"
       gradientTransform="matrix(5.4638078,-10.370311,6.7092813,3.5349201,40.192794,56.660733)">
      <stop
         offset="0.00132565"
         stop-color="#7A4400"
         id="stop71" />
      <stop
         offset="1"
         stop-color="#643800"
         id="stop72" />
    </radialGradient>
    <linearGradient
       id="paint21_linear"
       x1="33.6208"
       y1="38.3368"
       x2="17.944"
       y2="40.973999"
       gradientUnits="userSpaceOnUse"
       gradientTransform="matrix(1.5252013,0.59114897,-0.59114897,1.5252013,25.019925,-22.238171)">
      <stop
         offset="0.00132565"
         stop-color="#3C2200"
         id="stop73" />
      <stop
         offset="1"
         stop-color="#512D00"
         id="stop74" />
    </linearGradient>
    <linearGradient
       id="paint22_linear"
       x1="30.0854"
       y1="43.007702"
       x2="21.589399"
       y2="46.380501"
       gradientUnits="userSpaceOnUse"
       gradientTransform="matrix(1.5252013,0.59114897,-0.59114897,1.5252013,25.019925,-22.238171)">
      <stop
         offset="0.00132565"
         stop-color="#3C2200"
         id="stop75" />
      <stop
         offset="1"
         stop-color="#512D00"
         id="stop76" />
    </linearGradient>
    <linearGradient
       id="paint23_linear"
       x1="21.054701"
       y1="30.340099"
       x2="19.826099"
       y2="27.3741"
       gradientUnits="userSpaceOnUse"
       gradientTransform="matrix(1.5252013,0.59114897,-0.59114897,1.5252013,25.019925,-22.238171)">
      <stop
         offset="0.00132565"
         stop-color="#3C2200"
         id="stop77" />
      <stop
         offset="1"
         stop-color="#7A4400"
         id="stop78" />
    </linearGradient>
    <linearGradient
       id="paint24_linear"
       x1="45.311501"
       y1="20.2925"
       x2="44.082901"
       y2="17.326401"
       gradientUnits="userSpaceOnUse"
       gradientTransform="matrix(1.5252013,0.59114897,-0.59114897,1.5252013,25.019925,-22.238171)">
      <stop
         offset="0.00132565"
         stop-color="#3C2200"
         id="stop79" />
      <stop
         offset="1"
         stop-color="#7A4400"
         id="stop80" />
    </linearGradient>
  </defs>
</svg>
