<?xml version="1.0" encoding="UTF-8" standalone="no"?>
<!-- icon666.com - MILLIONS OF FREE VECTOR ICONS -->

<svg
   id="outline"
   viewBox="0 0 32 32"
   version="1.1"
   sodipodi:docname="location_pin.svg"
   inkscape:version="1.4 (86a8ad7, 2024-10-11)"
   xmlns:inkscape="http://www.inkscape.org/namespaces/inkscape"
   xmlns:sodipodi="http://sodipodi.sourceforge.net/DTD/sodipodi-0.dtd"
   xmlns="http://www.w3.org/2000/svg"
   xmlns:svg="http://www.w3.org/2000/svg">
  <defs
     id="defs1" />
  <sodipodi:namedview
     id="namedview1"
     pagecolor="#ffffff"
     bordercolor="#000000"
     borderopacity="0.25"
     inkscape:showpageshadow="2"
     inkscape:pageopacity="0.0"
     inkscape:pagecheckerboard="0"
     inkscape:deskcolor="#d1d1d1"
     inkscape:zoom="17.832349"
     inkscape:cx="15.954152"
     inkscape:cy="10.514599"
     inkscape:window-width="1920"
     inkscape:window-height="1009"
     inkscape:window-x="-8"
     inkscape:window-y="-8"
     inkscape:window-maximized="1"
     inkscape:current-layer="outline" />
  <path
     d="M 16.710327,2.7537795 C 9.0245213,2.7633358 8.0761021,13.921598 15.65004,15.228182 l -0.111296,13.945821 c -6.29e-4,0.549547 0.44408,0.995696 0.993626,0.996847 0.219694,-0.01164 0.429343,-0.09574 0.596203,-0.239118 0.220605,-0.18743 0.348722,-0.461587 0.350977,-0.751054 l 0.167482,-13.941747 c 3.044593,-0.473056 5.296914,-3.0841 5.318139,-6.1651535 0.02608,-3.4757357 -2.779017,-6.310046 -6.254836,-6.319998 z m 4.257852,6.3092476 C 20.948249,12.118365 17.832417,14.174733 15.015315,12.991848 12.198211,11.808965 11.484489,8.1445906 13.651787,5.9909168 l 0.218422,-0.1888719 c 1.705587,-1.4629123 4.248765,-1.3705759 5.843774,0.212173 0.810134,0.8068689 1.262058,1.9054391 1.254196,3.0488092 z"
     id="path1"
     style="stroke-width:0.99571"
     sodipodi:nodetypes="scccccccsscscccc" />
</svg>
