<?xml version="1.0" encoding="UTF-8" standalone="no"?>
<svg
   version="1.1"
   id="Capa_1"
   x="0px"
   y="0px"
   viewBox="0 0 512 512"
   style="enable-background:new 0 0 512 512;"
   xml:space="preserve"
   xmlns="http://www.w3.org/2000/svg">
    <defs
   id="defs2" />
    <g
   id="g23"
   style="stroke:#000000;stroke-opacity:1;stroke-width:15;stroke-dasharray:none"><path
   id="path3"
   style="fill:#f96533;fill-opacity:1;stroke:#000000;stroke-width:15;stroke-opacity:1;stroke-dasharray:none"
   d="m 255.85547,1.2070312 c -20.71326,0.040706 -41.48411,4.6856603 -58.68164,13.6074218 -31.54113,16.362949 -56.092,48.521061 -65.78321,86.167967 -4.67566,18.16332 -5.28464,23.77537 -6.33593,58.27735 l -1.00977,33.14257 -13.73633,0.93555 c -16.813519,1.14493 -21.33493,2.63068 -28.925778,9.5 -6.800318,6.15393 -10.389988,11.79223 -13.574218,21.33008 l -2.544922,7.625 v 122.31055 c 0,120.10348 0.03174,122.40391 1.767578,127.44921 4.69698,13.65201 18.132934,26.00165 31.144531,28.62696 2.029119,0.40941 74.164109,0.68187 160.300779,0.60547 l 156.61328,-0.13868 7.54688,-3.74023 c 9.09656,-4.50781 16.30755,-11.73183 20.46094,-20.49609 l 2.72656,-5.75 0.23047,-130.42188 0.23242,-130.42383 -3.20703,-5.73633 c -4.42122,-7.90586 -8.58049,-12.23432 -14.74024,-15.34374 -7.21687,-3.64307 -14.44951,-4.93779 -31.57031,-5.65626 l -14.65625,-0.61523 -0.60351,-27.43945 c -0.9205,-41.93411 -2.93584,-57.3806 -10.25391,-78.611331 C 356.9153,44.808185 329.51198,16.963383 292.29297,6.1777344 280.68953,2.8151897 268.28343,1.1826078 255.85547,1.2070312 Z m -0.0918,49.1015628 c 10.19519,-0.03229 12.79369,0.258159 18.08008,2.023437 24.3806,8.141373 41.74273,32.867908 48.18359,68.621089 1.60985,8.93622 1.94609,14.91087 2.30664,41.10352 l 0.42188,30.64844 h -72.49609 -72.49415 l 0.38086,-31.9707 c 0.42341,-35.5214 0.61763,-36.9778 7.3379,-55.12891 5.86638,-15.844806 13.22512,-27.226964 24.4414,-37.804689 7.69437,-7.256334 15.33457,-11.891167 24.87695,-15.089843 6.22996,-2.088331 8.44787,-2.369054 18.96094,-2.402344 z M 255.3457,277.10742 c 13.09779,-0.19538 23.89765,4.2698 32.44922,13.41211 7.45756,7.97274 11.15633,17.80242 11.17383,29.6875 0.0174,11.8216 -3.57919,20.76643 -12.24609,30.46289 l -4.42188,4.94922 3.4375,31.21094 c 3.31966,30.13765 3.38578,31.30357 1.89844,33.85547 -0.84719,1.45356 -2.86826,3.53584 -4.49024,4.6289 -2.88292,1.94276 -3.48504,1.98683 -26.85156,1.95313 -25.55853,-0.0369 -27.97702,-0.38763 -30.84375,-4.48047 -2.13334,-3.04576 -1.80273,-12.31257 1.50195,-42.00586 l 2.8711,-25.79492 -3.45313,-3.3086 c -7.37351,-7.06477 -12.52594,-17.86741 -13.47265,-28.24609 -2.04084,-22.37347 14.85086,-43.53116 36.6914,-45.95508 1.96504,-0.21808 3.88475,-0.34123 5.75586,-0.36914 z m 1.57422,4.95313 c -19.48268,-0.17231 -38.74815,14.39511 -38.76172,38.08593 -0.006,10.64605 2.91068,17.68765 11.26368,27.20118 l 5.33984,6.08398 -2.72852,24.73242 c -2.91883,26.46226 -3.44859,41.21352 -1.55078,43.11133 0.64675,0.64676 12.0579,1.17578 25.35938,1.17578 19.09637,0 24.63743,-0.54408 26.33203,-2.58594 1.69384,-2.04095 1.4369,-9.19672 -1.21875,-33.95507 l -3.36524,-31.36719 7.44922,-10.12109 c 11.28505,-15.33179 12.3333,-30.64029 3.07422,-44.91993 -7.73518,-11.92941 -19.50375,-17.33802 -31.19336,-17.4414 z" />
    </g>
</svg>
