<?xml version="1.0" encoding="UTF-8" standalone="no"?>
<svg
    viewBox="0 0 512 512"
    version="1.1"
    id="svg12"
    width="512"
    height="512"
    xml:space="preserve"
    xmlns="http://www.w3.org/2000/svg">
    <defs id="defs12" />
    <g
    id="Layer_1"
    transform="translate(0,-2)">
    <path
        d=""
        style="fill:#ffffff;stroke:#000000;stroke-width:12.4726"
        id="path20" />
    <path
        d=""
        style="fill:#ffffff;stroke:#000000;stroke-width:3.11815"
        id="path19" />
    <path
        id="path18"
        style="fill:#1da960;fill-opacity:1;stroke:#000000;stroke-width:13.1719;stroke-dasharray:none"
        d="m 264.06412,289.82701 c -6.45471,-0.002 -12.89352,1.50348 -19.0709,4.51496 -6.73027,3.28101 -11.77166,7.40895 -16.3182,13.3674 -2.68741,3.52196 -6.22707,10.86062 -7.29599,15.12449 -3.738,14.91089 0.28748,30.26343 10.87451,41.48624 l 2.74243,2.90965 -2.8762,25.79063 c -3.14764,28.22678 -3.15553,28.49333 -1.05477,32.63896 2.09176,4.12788 5.76713,7.15571 10.10272,8.32246 2.82427,0.76004 41.30777,0.9148 44.77408,0.18009 2.41994,-0.51294 4.78231,-1.60541 6.79944,-3.14117 3.25031,-2.47464 5.85016,-7.79626 5.85016,-11.97305 0,-1.0708 -1.20206,-12.72994 -2.67032,-25.90895 -1.46841,-13.17901 -2.66784,-24.53482 -2.66784,-25.23752 0,-1.01812 0.50277,-1.77673 2.48001,-3.73031 4.97645,-4.91684 8.97503,-11.99005 10.96965,-19.4105 0.95707,-3.56027 1.07154,-4.73378 1.07022,-10.96969 -0.001,-5.79872 -0.14818,-7.50567 -0.85669,-10.07443 -3.71223,-13.45955 -11.96218,-23.68435 -23.69133,-29.35886 -6.2357,-3.01677 -12.70625,-4.52764 -19.16098,-4.5304 z m -0.0515,-277.458246 c -72.787,0 -106.84908,71.538489 -106.84908,144.324586 v 50.88664 H 130.0686 c -39.352641,0 -43.675567,33.31858 -43.675567,54.21306 v 204.10482 c 0,20.79995 24.817057,37.71476 45.617897,37.71476 h 264.00345 c 20.7998,0 48.25223,-16.91394 48.25223,-37.71476 V 256.52429 c 0,-26.7029 -7.7203,-48.9443 -48.94428,-48.9443 h -22.6494 v -50.88664 c 0,-72.786097 -35.87332,-144.324586 -108.66028,-144.324586 z m 0,56.572139 c 41.59109,0 58.83096,46.161387 58.83096,87.752447 v 50.88664 H 206.99537 v -50.88664 c 0,-41.59106 15.42615,-87.752447 57.01722,-87.752447 z m 0.0515,220.886107 c 6.45473,0.002 12.92528,1.51363 19.16098,4.5304 11.72915,5.67447 19.9791,15.89936 23.69133,29.35886 0.70851,2.56875 0.8555,4.27573 0.85669,10.07443 10e-4,6.2359 -0.11328,7.40944 -1.07022,10.96969 -1.99462,7.42042 -5.9932,14.49367 -10.96965,19.4105 -1.97724,1.95358 -2.48001,2.7122 -2.48001,3.73031 0,0.7027 1.19943,12.05855 2.66784,25.23752 1.46826,13.17896 2.67032,24.83817 2.67032,25.90895 0,4.17677 -2.59985,9.49841 -5.85016,11.97305 -2.01713,1.53576 -4.3795,2.62823 -6.79944,3.14117 -3.46631,0.73471 -41.94983,0.57995 -44.77408,-0.18009 -4.33558,-1.16674 -8.01097,-4.19459 -10.10272,-8.32246 -2.10076,-4.14562 -2.09286,-4.41226 1.05477,-32.63896 l 2.8762,-25.79063 -2.74243,-2.90965 c -10.58701,-11.22277 -14.61251,-26.5754 -10.87451,-41.48624 1.06892,-4.26385 4.60858,-11.60255 7.29599,-15.12449 4.54653,-5.95842 9.58796,-10.0864 16.3182,-13.3674 6.17734,-3.01148 12.6162,-4.51773 19.0709,-4.51496 z" />
    </g>
</svg>
