<?xml version="1.0" encoding="UTF-8" standalone="no"?>
<svg
   version="1.1"
   width="479px"
   height="476px"
   style="shape-rendering:geometricPrecision; text-rendering:geometricPrecision; image-rendering:optimizeQuality; fill-rule:evenodd; clip-rule:evenodd"
   id="svg5"
   sodipodi:docname="logo.svg"
   inkscape:version="1.4 (86a8ad7, 2024-10-11)"
   xmlns:inkscape="http://www.inkscape.org/namespaces/inkscape"
   xmlns:sodipodi="http://sodipodi.sourceforge.net/DTD/sodipodi-0.dtd"
   xmlns="http://www.w3.org/2000/svg"
   xmlns:svg="http://www.w3.org/2000/svg">
  <sodipodi:namedview
     id="namedview1"
     pagecolor="#ffffff"
     bordercolor="#000000"
     borderopacity="0.25"
     inkscape:showpageshadow="2"
     inkscape:pageopacity="0.0"
     inkscape:pagecheckerboard="0"
     inkscape:deskcolor="#d1d1d1"
     inkscape:zoom="0.21192227"
     inkscape:cx="792.74349"
     inkscape:cy="-644.10409"
     inkscape:window-width="1920"
     inkscape:window-height="1009"
     inkscape:window-x="-8"
     inkscape:window-y="-8"
     inkscape:window-maximized="1"
     inkscape:current-layer="svg5" />
  <defs
     id="defs5" />
  <path
     style="clip-rule:evenodd;fill:#ffffff;fill-opacity:1;fill-rule:evenodd;stroke-width:4.67627;image-rendering:optimizeQuality;shape-rendering:geometricPrecision;text-rendering:geometricPrecision"
     id="path6"
     d="M 478.84076,241.47028 C 477.05812,365.96182 368.39085,477.50994 236.28546,475.7257 104.18006,473.94147 -1.4794343,366.19172 0.23562978,235.00614 1.9506882,103.82057 110.39145,-1.1690021 242.49896,0.4529755 374.60647,2.0749501 478.84076,103.38567 478.84076,241.47028 Z"
     sodipodi:nodetypes="csssc" />
  <path
     style="fill:#000000;fill-opacity:1;stroke-width:0.532847"
     d="m 229.83666,403.80333 c -6.15894,-0.67641 -16.98808,-2.73161 -24.33589,-4.6186 -12.12912,-3.11488 -32.62891,-11.46775 -42.42002,-17.28455 -2.69173,-1.59913 -5.81102,-2.90751 -6.93179,-2.90751 -1.12076,0 -5.38093,1.09194 -9.46704,2.4265 -4.08612,1.33459 -12.54464,3.92467 -18.79671,5.75575 -6.25208,1.83108 -15.54366,4.57566 -20.64798,6.09906 -10.180298,3.03834 -14.451896,3.44683 -16.336498,1.56222 -1.56346,-1.56346 -1.105821,-7.65827 1.323002,-17.61968 0.95275,-3.90754 2.754752,-11.74039 4.004448,-17.40634 1.249696,-5.66594 2.71198,-12.21996 3.249519,-14.56449 4.261159,-18.58545 4.269739,-19.16314 0.378651,-25.52041 -14.950183,-24.42571 -24.266611,-57.86893 -24.154003,-86.70574 0.09602,-24.58767 3.69557,-43.84854 12.153906,-65.03437 15.672635,-39.25569 45.535895,-71.892159 83.191185,-90.916623 16.99806,-8.587877 34.7678,-14.09566 55.23691,-17.12083 16.47896,-2.435464 41.79767,-1.338492 59.32365,2.570286 18.56794,4.141164 40.76993,13.149806 54.67678,22.185565 5.45222,3.542484 17.74352,12.680503 21.68027,16.118272 10.75827,9.39467 22.87296,23.25419 31.07247,35.54773 7.932,11.89245 20.92944,39.08263 19.92879,41.69029 -0.2133,0.55581 -3.05979,2.06081 -6.32555,3.34442 -8.17676,3.2139 -37.71301,14.22392 -46.78938,17.44133 -4.10291,1.4544 -9.57161,3.45057 -12.15265,4.43591 -2.58104,0.98534 -5.25105,1.67924 -5.93336,1.54201 -0.68231,-0.13723 -2.01048,-1.62229 -2.95147,-3.30013 -13.15771,-23.46079 -32.21478,-43.3127 -49.5522,-51.61891 -12.00222,-5.75017 -23.84747,-7.75459 -43.27137,-7.32227 -14.61537,0.32531 -19.37239,1.16805 -29.61131,5.24586 -8.9726,3.57348 -18.96737,9.80791 -29.12696,18.16851 -10.39184,8.55172 -20.17968,23.77932 -25.23096,39.25351 -7.37506,22.59284 -4.12,51.08453 8.20173,71.79034 10.54416,17.71872 26.81303,31.6376 45.22295,38.69063 13.02318,4.98932 22.73326,6.36045 47.16752,6.66034 l 17.50169,0.21481 5.94359,2.9262 c 3.26897,1.60941 8.09147,3.7671 12.05919,5.80737 2.2035,1.13306 4.28993,2.43313 6.51934,3.57094 0.51428,0.26247 1.21303,0.74371 1.97148,0.74371 1.3258,0 1.37899,-0.64243 1.37899,-16.65342 v -16.65341 l 3.69198,-4.8381 c 2.03058,-2.66094 7.24468,-9.15415 11.5869,-14.42933 4.34224,-5.27519 8.82994,-10.87008 9.97268,-12.4331 3.03627,-4.15292 7.67589,-9.86716 8.49543,-10.46311 0.39076,-0.28415 1.34989,-0.32704 2.13139,-0.0953 2.24592,0.66595 67.16821,27.84414 67.74399,28.35944 0.5161,0.46187 -2.3712,8.06451 -6.19081,16.30119 -20.59745,44.41687 -60.34749,78.57581 -107.73326,92.57989 -10.2106,3.01757 -12.36953,3.49292 -23.44529,5.16223 -11.35131,1.71084 -34.53472,2.39579 -44.40393,1.31192 z"
     id="path1"
     sodipodi:nodetypes="ssssssssssssssssssssssssscsssssssscsassscssssssssss" />
  <path
     d="m 273.43273,269.86438 -7.02345,-6.07921 h -21.58173 c -28.3057,0 -33.05824,-1.1862 -42.96526,-10.72369 -5.9716,-5.74888 -7.93565,-12.66938 -7.49893,-26.42363 0.29622,-9.3288 0.98203,-10.4427 3.53844,-14.83805 3.44443,-5.92225 9.03792,-11.46545 15.02007,-14.02968 7.07921,-3.03451 16.8589,-2.87713 46.00014,-2.36696 31.60506,0.55331 33.21834,0.54436 40.52323,7.07715 2.94898,2.63722 5.23463,5.94422 6.63153,9.56314 2.16628,5.61215 2.34744,5.99995 2.34744,17.89389 0,0 0.0695,8.54767 -1.05465,12.61478 -0.428,1.54865 -2.12221,4.32781 -2.12221,4.32781 -1.7473,2.3803 -4.85714,5.69221 -6.91077,7.3598 -3.87154,3.14376 -12.76806,7.06277 -14.42423,7.80851 -0.73459,0.33078 -1.10768,1.89454 -1.10768,6.94769 0,5.25892 -0.28541,6.94767 -1.17424,6.94767 -0.64581,0 -4.33477,-2.73564 -8.1977,-6.07922 z m 10.30278,-15.22545 c 3.505,-1.21226 7.64717,-2.83649 10.67001,-5.41208 6.46725,-5.23609 6.68156,-12.74435 6.61773,-20.5461 -0.0209,-11.4411 -0.11221,-12.28321 -3.04784,-17.37999 -1.85381,-3.21858 -5.94696,-6.18127 -8.52782,-7.17213 -4.25783,-1.63469 -12.4936,-2.40886 -36.17053,-2.40886 -33.57606,0 -32.26529,-0.059 -37.83729,2.26402 -5.38961,2.24694 -9.16861,7.17119 -11.30117,12.14628 -1.26667,2.95489 -2.1007,7.27464 -2.1007,13.55328 0,7.32696 0.007,9.33991 2.12836,13.29449 2.40119,4.47487 4.67395,6.89714 11.20381,10.32413 0,0 3.32089,1.41414 5.08187,1.73488 9.75076,1.77604 29.71898,0.93217 29.71898,0.93217 24.43599,0 30.40257,-0.23644 33.56459,-1.33009 z"
     style="fill:#000000;fill-opacity:1;stroke:#000000;stroke-width:7.16477;stroke-dasharray:none;stroke-opacity:1"
     id="path1-8"
     sodipodi:nodetypes="scsssssssacscssssssssassscsacscs" />
  <circle
     style="fill:#000000;fill-opacity:1;fill-rule:evenodd;stroke-width:0.450021"
     id="path2"
     cx="230.20001"
     cy="229.00554"
     r="8.7894478" />
  <circle
     style="fill:#000000;fill-opacity:1;fill-rule:evenodd;stroke-width:0.450021"
     id="path2-2"
     cx="251.88498"
     cy="228.63182"
     r="8.7894478" />
  <circle
     style="fill:#000000;fill-opacity:1;fill-rule:evenodd;stroke-width:0.450021"
     id="path2-2-2"
     cx="273.30676"
     cy="228.96811"
     r="8.7894478" />
</svg>
