<?xml version="1.0" encoding="UTF-8" standalone="no"?>
<!-- icon666.com - MILLIONS OF FREE VECTOR ICONS -->

<svg
   id="Object"
   viewBox="0 0 32 32"
   version="1.1"
   sodipodi:docname="maximize.svg"
   inkscape:version="1.3.2 (091e20e, 2023-11-25, custom)"
   xmlns:inkscape="http://www.inkscape.org/namespaces/inkscape"
   xmlns:sodipodi="http://sodipodi.sourceforge.net/DTD/sodipodi-0.dtd"
   xmlns="http://www.w3.org/2000/svg"
   xmlns:svg="http://www.w3.org/2000/svg">
  <defs
     id="defs1" />
  <sodipodi:namedview
     id="namedview1"
     pagecolor="#ffffff"
     bordercolor="#000000"
     borderopacity="0.25"
     inkscape:showpageshadow="2"
     inkscape:pageopacity="0.0"
     inkscape:pagecheckerboard="0"
     inkscape:deskcolor="#d1d1d1"
     inkscape:zoom="17.832349"
     inkscape:cx="23.636819"
     inkscape:cy="17.187865"
     inkscape:window-width="1920"
     inkscape:window-height="1009"
     inkscape:window-x="-8"
     inkscape:window-y="-8"
     inkscape:window-maximized="1"
     inkscape:current-layer="Object" />
  <path
     id="path1"
     d="M 5.0964646,6.6635328 C 3.3320411,6.669449 1.9031618,8.0983283 1.8972458,9.8627518 V 27.464314 c 0.00592,1.764423 1.4347953,3.193303 3.1992188,3.199219 H 22.698027 c 1.764424,-0.0059 3.193303,-1.434795 3.199219,-3.199219 V 9.8627518 c -0.0059,-1.7644235 -1.434795,-3.193303 -3.199219,-3.199219 z m 0,2 H 22.698027 c 0.662132,4.308e-4 1.198788,0.5370872 1.199219,1.199219 V 27.464314 c -4.31e-4,0.662132 -0.537087,1.198788 -1.199219,1.199219 H 5.0964646 C 4.4343328,28.663102 3.8976766,28.126446 3.8972458,27.464314 V 9.8627518 C 3.8976766,9.20062 4.4343328,8.6639637 5.0964646,8.6635328 Z"
     sodipodi:nodetypes="cccccccccccccccccc"
     style="stroke:#000000;stroke-opacity:1;stroke-width:0.5;stroke-dasharray:none" />
  <path
     d="m 11.795783,0.99291653 c -0.863016,0 -1.148247,0.29954287 -1.148247,0.82219237 0,0.505934 0.204197,0.9254572 1.108594,0.9254572 h 15.927731 c 0.662132,4.31e-4 1.423099,0.7894374 1.42353,1.4515694 V 21.064686 c 0,0.625274 0.320489,0.895617 0.837889,0.895617 0.477505,0 0.9378,-0.324418 0.9378,-0.895617 V 4.1921355 C 30.87718,2.4277115 29.448284,0.99883253 27.683861,0.99291653 Z"
     id="path1-4"
     sodipodi:nodetypes="sssccsssccs"
     style="stroke:#000000;stroke-width:0.5;stroke-dasharray:none;stroke-opacity:1" />
</svg>
