<?xml version="1.0" encoding="UTF-8" standalone="no"?>
<!-- Created with Inkscape (http://www.inkscape.org/) -->

<svg
   width="24mm"
   height="24mm"
   viewBox="0 0 24 24"
   version="1.1"
   id="svg1"
   xml:space="preserve"
   inkscape:version="1.4.2 (f4327f4, 2025-05-13)"
   sodipodi:docname="maximize_image.svg"
   xmlns:inkscape="http://www.inkscape.org/namespaces/inkscape"
   xmlns:sodipodi="http://sodipodi.sourceforge.net/DTD/sodipodi-0.dtd"
   xmlns="http://www.w3.org/2000/svg"
   xmlns:svg="http://www.w3.org/2000/svg"><sodipodi:namedview
     id="namedview1"
     pagecolor="#ffffff"
     bordercolor="#000000"
     borderopacity="0.25"
     inkscape:showpageshadow="2"
     inkscape:pageopacity="0.0"
     inkscape:pagecheckerboard="0"
     inkscape:deskcolor="#d1d1d1"
     inkscape:document-units="mm"
     showguides="true"
     inkscape:zoom="7.2407734"
     inkscape:cx="42.329732"
     inkscape:cy="56.830945"
     inkscape:window-width="1920"
     inkscape:window-height="1009"
     inkscape:window-x="-8"
     inkscape:window-y="-8"
     inkscape:window-maximized="1"
     inkscape:current-layer="Layer_6" /><defs
     id="defs1" /><rect
     style="fill:none;fill-rule:evenodd;stroke:#000000;stroke-width:1.44004;stroke-linecap:round;stroke-linejoin:round;stroke-miterlimit:16.1;stroke-dasharray:none;stroke-opacity:1;paint-order:stroke fill markers"
     id="rect1"
     width="22.527946"
     height="18.271725"
     x="0.7175374"
     y="2.7813554"
     rx="2.2456274"
     ry="2.2970166" /><g
     id="Layer_6"
     data-name="Layer 6"
     transform="matrix(18.873253,0,0,18.873253,-28.991537,31.715445)"><path
       d="m 1.7197198,-1.1421865 c -0.015473,2.232e-4 -0.029315,-0.013929 -0.029315,-0.035997 v -0.1878199 c 0,-0.012225 0.00654,-0.026064 0.017889,-0.035923 0.011584,-0.010051 0.028096,-0.016007 0.037941,-0.016007 h 0.1839209 c 0.026544,0 0.033922,0.013161 0.034016,0.026372 9.49e-5,0.013305 -0.0073,0.026658 -0.034016,0.026658 H 1.7473488 v 0.1867214 c 0,0.022069 -0.012504,0.03578 -0.027628,0.035998 z"
       id="path4"
       sodipodi:nodetypes="assssssscsa"
       style="stroke:#000000;stroke-width:0.014302;stroke-dasharray:none;stroke-opacity:1" /><path
       d="m 1.719734,-0.95346529 c -0.015473,-2.247e-4 -0.029315,0.013929 -0.029315,0.035998 v 0.18781993 c 0,0.0122253 0.00654,0.0260647 0.017889,0.0359234 0.011584,0.0100503 0.028096,0.0160063 0.037941,0.0160063 h 0.1839198 c 0.026544,0 0.033978,-0.0120243 0.034015,-0.0263714 3.75e-5,-0.0144052 -0.0073,-0.0266574 -0.034015,-0.0266574 H 1.7473619 v -0.18672183 c 0,-0.022069 -0.012504,-0.035779 -0.027628,-0.035997 z"
       id="path4-8"
       sodipodi:nodetypes="asssssascsa"
       style="stroke:#000000;stroke-width:0.014302;stroke-dasharray:none;stroke-opacity:1" /><path
       d="m 2.6237241,-0.96009869 c 0.0152,-2.208e-4 0.028798,0.013684 0.028798,0.035364 v 0.18451277 c 0,0.01201 -0.00642,0.0256056 -0.017574,0.0352908 -0.01138,0.009873 -0.027601,0.0157243 -0.037273,0.0157243 H 2.4169944 c -0.026077,0 -0.03338,-0.0118125 -0.033417,-0.025907 -3.7e-5,-0.0141515 0.00717,-0.026188 0.033417,-0.026188 h 0.1795885 v -0.18343347 c 0,-0.02168 0.012284,-0.035149 0.027141,-0.0353634 z"
       id="path4-8-5"
       sodipodi:nodetypes="asssssascsa"
       style="stroke:#000000;stroke-width:0.0140501;stroke-dasharray:none;stroke-opacity:1" /><path
       d="m 2.6237198,-1.14717 c 0.0152,2.207e-4 0.0288,-0.013684 0.0288,-0.035364 v -0.1845125 c 0,-0.01201 -0.00642,-0.025605 -0.017574,-0.03529 -0.01138,-0.00987 -0.027602,-0.015725 -0.037271,-0.015725 H 2.4169916 c -0.026076,0 -0.03338,0.011813 -0.033417,0.025907 -3.69e-5,0.014151 0.00717,0.026188 0.033417,0.026188 h 0.1795872 v 0.1834334 c 0,0.02168 0.012284,0.035149 0.027141,0.035363 z"
       id="path4-8-5-7"
       sodipodi:nodetypes="asssssascsa"
       style="stroke:#000000;stroke-width:0.0140501;stroke-dasharray:none;stroke-opacity:1" /></g></svg>
