<?xml version="1.0" encoding="UTF-8" standalone="no"?>
<!-- icon666.com - MILLIONS OF FREE VECTOR ICONS -->

<svg
   version="1.1"
   id="Capa_1"
   x="0px"
   y="0px"
   viewBox="0 0 512 512"
   style="enable-background:new 0 0 512 512;"
   xml:space="preserve"
   sodipodi:docname="film_strip_ba0x93x9c2fx.svg"
   inkscape:version="1.4 (86a8ad7, 2024-10-11)"
   xmlns:inkscape="http://www.inkscape.org/namespaces/inkscape"
   xmlns:sodipodi="http://sodipodi.sourceforge.net/DTD/sodipodi-0.dtd"
   xmlns="http://www.w3.org/2000/svg"
   xmlns:svg="http://www.w3.org/2000/svg"><defs
     id="defs2" /><sodipodi:namedview
     id="namedview2"
     pagecolor="#ffffff"
     bordercolor="#000000"
     borderopacity="0.25"
     inkscape:showpageshadow="2"
     inkscape:pageopacity="0.0"
     inkscape:pagecheckerboard="0"
     inkscape:deskcolor="#d1d1d1"
     showguides="true"
     inkscape:zoom="0.78808594"
     inkscape:cx="207.46468"
     inkscape:cy="76.768278"
     inkscape:window-width="1920"
     inkscape:window-height="1009"
     inkscape:window-x="-8"
     inkscape:window-y="-8"
     inkscape:window-maximized="1"
     inkscape:current-layer="g2" /><g
     id="g2"
     transform="matrix(0.66104048,0,0,0.66104048,-7.4371706,17.944916)"><g
       id="g1"
       transform="translate(28.79318,44.149542)"><path
         id="path1"
         d="M 76.001253,5.9981198e-4 C 51.188253,5.9981198e-4 30.9994,20.186499 30.9994,44.999499 V 466.99935 c 0,24.813 20.188853,45.00185 45.001853,45.00185 H 354.04027 c 0,-10.75621 0.25046,-18.5949 0.25046,-30.00123 H 151.00139 V 29.998881 H 419.36608 V 176.70667 c 6.42087,0 23.88742,-0.0695 29.99829,-0.0695 v -59.64079 h 59.99951 l -0.0618,31.0971 c 6.16465,0 24.3045,0.07 31.08098,0.07 L 539.36512,44.999499 C 539.1203,20.187707 519.17922,5.9981198e-4 494.36622,5.9981198e-4 Z m 0,29.99828118802 H 121.00015 V 106.00063 H 61.000635 V 44.999499 c 0,-8.271 6.729618,-15.000618 15.000618,-15.000618 z m 373.363117,0 h 45.00185 c 8.271,0 14.99766,6.729618 14.99766,15.000618 V 86.998101 H 449.36437 Z M 61.000635,135.99891 h 59.999515 v 60.00248 H 61.000635 Z m 0,90.00076 h 59.999515 v 59.99951 H 61.000635 Z m 0,90.00075 h 59.999515 v 59.99952 H 61.000635 Z m 0,90.00075 h 59.999515 v 75.9988 H 76.001253 c -8.271,0 -15.000618,-6.72962 -15.000618,-15.00062 z"
         sodipodi:nodetypes="sssscccccccccccsssscccsscsscccccccccccccccccccccssc" /></g></g><path
     d="m 259.91034,188.46785 c 0.0904,6.71448 0,215.2784 0,215.2784 -8.94889,-5.09157 -19.59858,-7.84668 -30.71014,-7.84668 -13.86358,0 -27.01503,4.27903 -37.03058,12.04848 -10.73077,8.32402 -16.88439,20.12533 -16.88439,32.37694 0,12.25161 6.15362,24.05369 16.88362,32.37694 10.01632,7.771 23.167,12.05003 37.03135,12.05003 13.86437,0 27.01581,-4.27903 37.03137,-12.04926 10.73,-8.32402 16.8836,-20.12533 16.8836,-32.37693 V 289.10995 l 179.64037,-58.13993 v 108.92164 c -8.94887,-5.09158 -19.59855,-7.84669 -30.71012,-7.84669 -13.86359,0 -27.01503,4.27904 -37.03059,12.04925 -10.73001,8.32325 -16.88362,20.12456 -16.88362,32.37618 0,12.25161 6.15361,24.0537 16.88362,32.37694 10.01556,7.77022 23.16777,12.04926 37.03059,12.04926 13.86358,0 27.01581,-4.27904 37.03134,-12.04926 10.73001,-8.32403 16.88362,-20.12533 16.88362,-32.37694 V 115.30963 c 0,0 -219.27984,71.34416 -226.05004,73.15822 z m -30.71091,273.07927 c -16.64728,0 -30.71013,-9.71818 -30.71013,-21.2229 0,-11.50316 14.06363,-21.22211 30.71013,-21.22211 16.6465,0 30.71013,9.71817 30.71013,21.22211 7.8e-4,11.50549 -14.06363,21.2229 -30.71013,21.2229 z m 202.84444,-63.85383 c -16.6465,0 -30.71014,-9.71818 -30.71014,-21.22289 0,-11.50317 14.06364,-21.22212 30.71014,-21.22212 16.6465,0 30.71013,9.71818 30.71013,21.22212 7.7e-4,11.50471 -14.06287,21.22289 -30.71013,21.22289 z m 30.71167,-191.11217 -179.64037,58.13915 v -59.37344 l 179.64037,-58.13761 z"
     id="path1-9"
     sodipodi:nodetypes="ccscscscscccscscscsccssscsssscsccccc"
     style="display:inline;stroke:#000000;stroke-width:2;stroke-dasharray:none;stroke-opacity:1" /></svg>
