<?xml version="1.0" encoding="UTF-8" standalone="no"?>
<!-- icon666.com - MILLIONS OF FREE VECTOR ICONS -->

<svg
   version="1.1"
   id="Capa_1"
   x="0px"
   y="0px"
   viewBox="0 0 28 24"
   xml:space="preserve"
   sodipodi:docname="megaphone_thrdu0dieue0.svg"
   width="28"
   height="24"
   inkscape:version="1.4.2 (f4327f4, 2025-05-13)"
   xmlns:inkscape="http://www.inkscape.org/namespaces/inkscape"
   xmlns:sodipodi="http://sodipodi.sourceforge.net/DTD/sodipodi-0.dtd"
   xmlns="http://www.w3.org/2000/svg"
   xmlns:svg="http://www.w3.org/2000/svg"><defs
     id="defs5" /><sodipodi:namedview
     id="namedview5"
     pagecolor="#ffffff"
     bordercolor="#000000"
     borderopacity="0.25"
     inkscape:showpageshadow="2"
     inkscape:pageopacity="0.0"
     inkscape:pagecheckerboard="0"
     inkscape:deskcolor="#d1d1d1"
     inkscape:zoom="16"
     inkscape:cx="9.96875"
     inkscape:cy="14.21875"
     inkscape:window-width="1920"
     inkscape:window-height="1009"
     inkscape:window-x="-8"
     inkscape:window-y="-8"
     inkscape:window-maximized="1"
     inkscape:current-layer="g3"
     showguides="true" /><g
     id="g5"><g
       id="g4"><g
         id="g3"
         transform="translate(0,-0.13258252)"><path
           id="path1"
           d="m 18.085856,2.1279188 c -0.419623,0 -2.426127,0.682858 -2.976661,0.8967206 -1.740688,0.6761955 -3.856722,1.4923359 -3.856722,1.4923359 v 9.7011257 c 0,0 1.607308,0.717222 3.854751,1.513772 0.149155,0.05287 2.643817,0.920228 2.84,0.920228 0.80641,0 0.80033,-0.576526 0.799731,-1.393101 0,0 0.05975,-10.7105663 0.05975,-11.5428421 0,-0.7360848 -0.0092,-1.5882391 -0.720849,-1.5882391 z M 4.635588,4.8209524 c -2.4731125,0 -4.47471463,2.0645631 -4.47471463,4.5828766 0,2.490629 1.95514723,4.512494 4.38036733,4.563734 l 1.3386722,6.739993 c 0.069707,0.350958 0.3469472,0.599004 0.6894466,0.599004 h 3.4172617 c 0.4127938,0 0.7296598,-0.322054 0.6586928,-0.726088 C 10.041365,16.683296 9.9254651,17.894223 9.2754534,13.968537 H 9.9633972 V 4.8209524 Z"
           style="stroke-width:0.0449255"
           sodipodi:nodetypes="ssccssssssccssscccss" /><path
           style="fill:none;stroke:#000000;stroke-width:1.92051;stroke-linecap:butt;stroke-dasharray:none"
           d="m 25.092405,4.4101883 c 0.921927,1.5621538 1.818245,3.1619432 1.818245,5.0705976 0,1.6222581 -0.228863,3.0624351 -1.843854,5.6339971"
           id="path6"
           sodipodi:nodetypes="csc" /><path
           style="fill:none;stroke:#000000;stroke-width:1.79591;stroke-linecap:butt;stroke-dasharray:none"
           d="m 22.387167,6.0929666 c 0.652682,1.1059332 1.287235,2.2385112 1.287235,3.5897518 0,1.1484846 -0.162024,2.1680656 -1.305364,3.9886146"
           id="path6-9"
           sodipodi:nodetypes="csc" /></g></g></g></svg>
