<?xml version="1.0" encoding="UTF-8" standalone="no"?>
<!-- icon666.com - MILLIONS OF FREE VECTOR ICONS -->

<svg
   version="1.1"
   id="Capa_1"
   x="0px"
   y="0px"
   viewBox="0 0 700 612"
   xml:space="preserve"
   sodipodi:docname="menu.svg"
   inkscape:version="1.4 (86a8ad7, 2024-10-11)"
   width="700"
   height="612"
   xmlns:inkscape="http://www.inkscape.org/namespaces/inkscape"
   xmlns:sodipodi="http://sodipodi.sourceforge.net/DTD/sodipodi-0.dtd"
   xmlns="http://www.w3.org/2000/svg"
   xmlns:svg="http://www.w3.org/2000/svg"><defs
     id="defs2" /><sodipodi:namedview
     id="namedview2"
     pagecolor="#ffffff"
     bordercolor="#000000"
     borderopacity="0.25"
     inkscape:showpageshadow="2"
     inkscape:pageopacity="0.0"
     inkscape:pagecheckerboard="0"
     inkscape:deskcolor="#d1d1d1"
     inkscape:zoom="0.65931374"
     inkscape:cx="452.74348"
     inkscape:cy="399.65798"
     inkscape:window-width="1920"
     inkscape:window-height="1009"
     inkscape:window-x="-8"
     inkscape:window-y="-8"
     inkscape:window-maximized="1"
     inkscape:current-layer="g1" /><g
     id="g2"><g
       id="_x33__6_"><g
         id="g1"><path
           d="M 30.616381,132.21723 H 669.38665 c 16.891,0 30.6,-8.58904 30.6,-25.48104 0,-16.891989 -13.709,-26.618589 -30.6,-26.618589 H 30.616381 c -16.891,0.001 -30.74595947,13.101 -30.59999922,26.619589 0.14330203,13.27239 13.70899922,25.48004 30.59999922,25.48004 z"
           id="path1-8"
           sodipodi:nodetypes="sssscas" /><path
           d="M 30.638259,329.90679 H 669.40853 c 16.891,0 30.6,-8.58904 30.6,-25.48104 0,-16.89199 -13.709,-26.61859 -30.6,-26.61859 H 30.638259 c -16.891,10e-4 -30.74596044,13.101 -30.60000044,26.61959 0.1433,13.27239 13.70900044,25.48004 30.60000044,25.48004 z"
           id="path1-8-9"
           sodipodi:nodetypes="sssscas" /><path
           d="M 30.633721,528.16627 H 669.40399 c 16.891,0 30.6,-8.58904 30.6,-25.48104 0,-16.89199 -13.709,-26.61859 -30.6,-26.61859 H 30.633721 c -16.891,10e-4 -30.74595993,13.101 -30.59999993,26.61959 0.1433,13.27239 13.70899993,25.48004 30.59999993,25.48004 z"
           id="path1-8-9-8"
           sodipodi:nodetypes="sssscas" /></g></g></g></svg>
