<?xml version="1.0" encoding="UTF-8" standalone="no"?>
<!-- Created with Inkscape (http://www.inkscape.org/) -->

<svg
   version="1.1"
   id="svg1"
   width="800"
   height="800"
   viewBox="0 0 800 800"
   sodipodi:docname="microphone_filled.svg"
   inkscape:version="1.4.4 (dcaf3e7, 2026-05-05)"
   xml:space="preserve"
   xmlns:inkscape="http://www.inkscape.org/namespaces/inkscape"
   xmlns:sodipodi="http://sodipodi.sourceforge.net/DTD/sodipodi-0.dtd"
   xmlns="http://www.w3.org/2000/svg"
   xmlns:svg="http://www.w3.org/2000/svg"><defs
     id="defs1" /><sodipodi:namedview
     id="namedview1"
     pagecolor="#ffffff"
     bordercolor="#000000"
     borderopacity="0.25"
     inkscape:showpageshadow="2"
     inkscape:pageopacity="0.0"
     inkscape:pagecheckerboard="0"
     inkscape:deskcolor="#d1d1d1"
     showguides="true"
     inkscape:zoom="0.27863046"
     inkscape:cx="-183.03814"
     inkscape:cy="-231.48941"
     inkscape:window-width="1920"
     inkscape:window-height="1009"
     inkscape:window-x="-8"
     inkscape:window-y="-8"
     inkscape:window-maximized="1"
     inkscape:current-layer="path3" /><g
     id="path3"
     style="opacity:1"><path
       style="baseline-shift:baseline;display:inline;overflow:visible;fill:#53bdeb;stroke:#53bdeb;stroke-width:32.8038;stroke-dasharray:none;stroke-opacity:1;paint-order:stroke markers fill;enable-background:accumulate;stop-color:#000000;stop-opacity:1"
       d="m 399.18505,19.153305 c -19.65668,0 -27.75263,1.717701 -44.53911,9.943409 -32.61861,15.983762 -38.46204,25.05959 -48.75875,46.072406 -10.19241,20.800017 -7.29175,260.02203 -7.28467,328.67735 0.007,58.20244 0.0562,59.72689 2.1926,67.23493 5.39181,18.94964 13.70325,33.37638 26.75752,46.445 16.74996,16.7684 37.70243,26.96834 60.30137,29.35491 11.03549,1.16539 10.81635,1.16429 21.34039,0.0613 24.19683,-2.53592 44.41322,-12.18592 61.6246,-29.41624 13.05426,-13.06863 21.36569,-27.49536 26.7575,-46.445 2.13635,-7.50804 2.18481,-9.03249 2.19107,-67.23493 0.008,-68.65532 0.90283,-311.621532 -7.45487,-328.677355 -11.28037,-23.020212 -31.43521,-39.54009 -55.09431,-49.243196 -6.72564,-1.650717 -13.96645,-6.772584 -38.03334,-6.772584 z M 224.49094,447.34379 c -5.13655,-0.10648 -11.27892,4.43172 -13.33965,9.40675 -2.13817,5.162 -2.06404,40.98708 2.89178,60.58965 5.75837,22.77688 16.96673,44.33535 30.5018,63.53815 10.04999,14.2583 21.71187,28.46791 36.819,37.19002 45.1851,26.08763 67.59675,26.12308 93.01556,29.9023 l 8.72443,1.29716 0.11501,37.48904 c 0.11341,36.56184 -0.26926,83.55593 1.75562,86.28738 2.41283,3.25483 7.07845,7.32761 14.21056,7.32761 7.59527,0 10.89882,-2.53755 14.44976,-7.32761 2.02487,-2.73145 1.07293,-49.40899 1.34777,-85.97 l 0.28519,-37.80642 8.7229,-1.29716 c 43.15288,-6.41588 85.00433,-19.55315 129.5737,-67.12299 16.2628,-17.35764 26.07586,-40.7693 31.90018,-63.83101 4.92139,-19.48659 3.9982,-55.17038 1.88748,-60.26612 -2.15746,-5.20856 -7.90046,-9.37589 -13.286,-9.20743 -5.27713,0.16512 -9.52765,4.79679 -12.42735,9.81922 -3.50072,6.06344 0.97979,29.82558 -11.39235,67.74091 -10.20977,31.28858 -34.42994,56.7671 -62.49398,73.77749 -33.29077,20.17845 -116.4214,24.55938 -152.87347,11.51044 -46.37791,-16.60215 -84.56893,-55.56747 -92.91759,-103.94198 -3.98173,-23.07157 -2.22448,-44.88678 -4.05401,-49.46097 -1.99318,-4.98325 -8.47029,-9.5419 -13.41634,-9.64443 z"
       id="path5"
       sodipodi:nodetypes="sssccsscsssssssssssccssscccssssssssssss" /></g></svg>
