<?xml version="1.0" encoding="UTF-8" standalone="no"?>
<!-- icon666.com - MILLIONS OF FREE VECTOR ICONS -->

<svg
   fill="none"
   viewBox="0 0 24 24"
   version="1.1"
   id="svg3"
   sodipodi:docname="user_p2gqwmyrfbho.svg"
   inkscape:version="1.4 (86a8ad7, 2024-10-11)"
   xmlns:inkscape="http://www.inkscape.org/namespaces/inkscape"
   xmlns:sodipodi="http://sodipodi.sourceforge.net/DTD/sodipodi-0.dtd"
   xmlns="http://www.w3.org/2000/svg"
   xmlns:svg="http://www.w3.org/2000/svg">
  <defs
     id="defs3" />
  <sodipodi:namedview
     id="namedview3"
     pagecolor="#ffffff"
     bordercolor="#000000"
     borderopacity="0.25"
     inkscape:showpageshadow="2"
     inkscape:pageopacity="0.0"
     inkscape:pagecheckerboard="0"
     inkscape:deskcolor="#d1d1d1"
     inkscape:zoom="8.40625"
     inkscape:cx="29.561338"
     inkscape:cy="11.717472"
     inkscape:window-width="1920"
     inkscape:window-height="1009"
     inkscape:window-x="-8"
     inkscape:window-y="-8"
     inkscape:window-maximized="1"
     inkscape:current-layer="g3" />
  <g
     clip-rule="evenodd"
     fill="rgb(0,0,0)"
     fill-rule="evenodd"
     id="g3">
    <path
       d="m 8.3308551,7.1450924 c 0,-2.222483 1.8016809,-4.0241636 4.0241649,-4.0241636 2.2225,0 4.024163,1.8016806 4.024163,4.0241636 0,2.2225007 -1.801663,4.0241646 -4.024163,4.0241646 -2.222484,0 -4.0241649,-1.8016639 -4.0241649,-4.0241646 z"
       id="path1"
       style="stroke-width:0.894259" />
    <path
       d="m 17.006086,19.200551 c -1.507052,0.83532 -3.304023,1.218053 -5.027034,1.204 -1.615361,-0.01318 -3.2992167,-0.390407 -4.6939165,-1.2055 C 6.4563282,18.714678 5.7275171,17.975815 5.2919159,17.120367 4.7835245,16.121972 4.4427971,14.902943 4.6982355,13.812068 c 0.1245042,-0.531707 0.4291105,-1.3164 0.9752,-1.3164 H 18.619226 c 0.546925,0 0.857109,0.784852 0.97644,1.3186 0.262174,1.172668 -0.135913,2.477716 -0.707316,3.534779 -0.418507,0.774213 -1.112511,1.42485 -1.882264,1.851504 z"
       id="path2"
       sodipodi:nodetypes="aaaaassaaa" />
  </g>
</svg>
