<?xml version="1.0" encoding="UTF-8" standalone="no"?>
<!-- icon666.com - MILLIONS OF FREE VECTOR ICONS -->

<svg
   fill="none"
   viewBox="0 0 24 24"
   version="1.1"
   id="svg3"
   sodipodi:docname="new_group.svg"
   inkscape:version="1.4 (86a8ad7, 2024-10-11)"
   xmlns:inkscape="http://www.inkscape.org/namespaces/inkscape"
   xmlns:sodipodi="http://sodipodi.sourceforge.net/DTD/sodipodi-0.dtd"
   xmlns="http://www.w3.org/2000/svg"
   xmlns:svg="http://www.w3.org/2000/svg">
  <defs
     id="defs3" />
  <sodipodi:namedview
     id="namedview3"
     pagecolor="#ffffff"
     bordercolor="#000000"
     borderopacity="0.25"
     inkscape:showpageshadow="2"
     inkscape:pageopacity="0.0"
     inkscape:pagecheckerboard="0"
     inkscape:deskcolor="#d1d1d1"
     inkscape:zoom="16"
     inkscape:cx="6.34375"
     inkscape:cy="20.96875"
     inkscape:window-width="1920"
     inkscape:window-height="1009"
     inkscape:window-x="-8"
     inkscape:window-y="-8"
     inkscape:window-maximized="1"
     inkscape:current-layer="g3" />
  <g
     clip-rule="evenodd"
     fill="rgb(0,0,0)"
     fill-rule="evenodd"
     id="g3">
    <path
       id="path1"
       style="stroke:#000000;stroke-width:0.371713;stroke-dasharray:none;stroke-opacity:1"
       d="m 8.8783985,4.1458859 c -1.8476245,0 -3.3464407,1.4971931 -3.3464407,3.3448167 0,1.8476383 1.4988162,3.3464404 3.3464407,3.3464404 1.8476375,0 3.3448155,-1.498802 3.3448155,-3.3464404 0,-1.8476237 -1.497178,-3.3448167 -3.3448155,-3.3448167 z m 0.027603,0.4806144 c 1.5818315,0 2.8642015,1.2823826 2.8642015,2.8642023 0,1.581832 -1.28237,2.8642024 -2.8642015,2.8642024 -1.5818199,0 -2.8642024,-1.2823704 -2.8642024,-2.8642024 0,-1.5818196 1.2823825,-2.8642024 2.8642024,-2.8642023 z" />
    <path
       id="path2"
       d="m 3.3237293,11.939634 c -0.4539823,0 -0.7083443,0.652346 -0.8118487,1.094372 -0.2123544,0.90688 0.070961,1.920544 0.493604,2.750544 0.3621296,0.711161 0.9687802,1.324938 1.6577951,1.727613 1.1594602,0.677614 2.5588423,0.990864 3.9017453,1.001822 1.4323961,0.01168 2.926534,-0.305768 4.179397,-1.000198 0.639921,-0.354692 1.217325,-0.895637 1.565244,-1.539265 0.475026,-0.878772 0.805733,-1.964015 0.587778,-2.938893 -0.0992,-0.443722 -0.357171,-1.095995 -0.811848,-1.095995 z m 0.6949425,0.349095 h 9.3492502 c 0.394943,0 0.814337,0.499147 0.938497,0.919012 0.252225,0.852937 -0.130227,1.83908 -0.586154,2.602787 -0.343708,0.575733 -0.922008,1.013131 -1.518158,1.320067 C 11.095863,17.700157 9.817361,18.00942 8.573143,17.999272 7.406663,17.989755 6.1920821,17.713987 5.1828628,17.128971 4.5246741,16.747437 3.9419433,16.169235 3.5916394,15.493907 3.2396561,14.815342 2.9623643,13.976502 3.1678544,13.240216 3.282145,12.830703 3.6243308,12.288729 4.0186718,12.288729 Z"
       style="stroke:#000000;stroke-width:0.415666;stroke-dasharray:none;stroke-opacity:1" />
    <path
       id="path1-4"
       style="stroke:#000000;stroke-width:0.415925;stroke-dasharray:none;stroke-opacity:1"
       d="m 17.381397,6.3257251 c -1.378258,0 -2.496319,1.1168497 -2.496319,2.4951074 0,1.3782695 1.118061,2.4963205 2.496319,2.4963205 1.378269,0 2.495108,-1.118051 2.495108,-2.4963205 0,-1.3782577 -1.116839,-2.4951074 -2.495108,-2.4951074 z m 0.02059,0.3585204 c 1.179986,0 2.136586,0.9566089 2.136586,2.136587 0,1.1799865 -0.9566,2.1365865 -2.136586,2.1365865 -1.179978,0 -2.136588,-0.9566 -2.136588,-2.1365865 0,-1.1799781 0.95661,-2.1365871 2.136588,-2.136587 z" />
    <path
       id="path2-8"
       style="stroke:#000000;stroke-width:0.465106;stroke-linecap:round;stroke-linejoin:round;stroke-dasharray:none;stroke-opacity:1;paint-order:normal"
       d="m 15.501461,12.139349 c 0,0.05061 -0.231369,-0.08521 -0.231369,0.123338 0,0.247957 0.207015,0.07576 0.207015,0.138076 h 5.252661 c 0.294613,0 0.608819,0.371996 0.701437,0.685201 0.18815,0.636257 -0.09829,1.372245 -0.438399,1.941943 -0.256392,0.429473 -0.687011,0.754998 -1.131716,0.98396 -0.825218,0.424872 -1.778564,0.655425 -2.706704,0.647855 -0.708687,-0.0058 -1.441876,-0.14361 -2.096194,-0.43028 -0.132617,-0.03595 -0.242483,0.08422 -0.265549,0.139886 -0.02842,0.06857 0.01596,0.251621 0.109678,0.231941 -0.0024,0.0053 -0.0041,0.01088 -0.0065,0.01624 0.710864,0.28501 1.493796,0.420846 2.252068,0.427033 1.068515,0.0087 2.18291,-0.228883 3.1175,-0.746902 0.477357,-0.264585 0.907904,-0.66783 1.167438,-1.147953 0.354352,-0.65553 0.600984,-1.464769 0.438398,-2.191992 -0.074,-0.331 -0.266466,-0.818343 -0.605639,-0.818343 z"
       sodipodi:nodetypes="cscssssccscccssssc" />
  </g>
</svg>
