<?xml version="1.0" encoding="UTF-8" standalone="no"?>
<!-- icon666.com - MILLIONS OF FREE VECTOR ICONS -->

<svg
   clip-rule="evenodd"
   fill-rule="evenodd"
   stroke-linejoin="round"
   stroke-miterlimit="2"
   viewBox="0 0 32 32"
   version="1.1"
   id="svg2"
   sodipodi:docname="notification_none.svg"
   inkscape:version="1.4.2 (f4327f4, 2025-05-13)"
   xmlns:inkscape="http://www.inkscape.org/namespaces/inkscape"
   xmlns:sodipodi="http://sodipodi.sourceforge.net/DTD/sodipodi-0.dtd"
   xmlns="http://www.w3.org/2000/svg"
   xmlns:svg="http://www.w3.org/2000/svg">
  <defs
     id="defs2" />
  <sodipodi:namedview
     id="namedview2"
     pagecolor="#ffffff"
     bordercolor="#000000"
     borderopacity="0.25"
     inkscape:showpageshadow="2"
     inkscape:pageopacity="0.0"
     inkscape:pagecheckerboard="0"
     inkscape:deskcolor="#d1d1d1"
     inkscape:zoom="5.6568543"
     inkscape:cx="15.202796"
     inkscape:cy="-23.953242"
     inkscape:window-width="1920"
     inkscape:window-height="1009"
     inkscape:window-x="-8"
     inkscape:window-y="-8"
     inkscape:window-maximized="1"
     inkscape:current-layer="Icon"
     showguides="true" />
  <g
     transform="translate(-128 -80)"
     id="g2">
    <g
       transform="translate(-1.0309789,-47.920694)"
       id="g1">
      <g
         id="Icon">
        <path
           id="path1"
           d="m 145.51145,131.10624 c -1.34411,0 -2.56524,-0.008 -3.54569,0.60792 -0.33476,0.2102 -0.28567,0.91211 -0.0762,1.20508 0.17464,0.24423 0.58519,0.70803 0.98437,0.55664 0.64269,-0.24375 1.85564,-0.36964 2.63749,-0.36964 4.971,0 7.48828,4.22822 7.48828,9.19922 0,2.471 -1.8e-4,0.20094 0.004,1.71094 0.23049,2.51858 0.34171,3.14689 2.19531,4.51953 0.188,0.187 0.29297,0.44203 0.29297,0.70703 0,0.265 2.00004,0.79597 2.00004,-3e-5 0,-0.796 -0.31591,-1.55909 -0.87891,-2.12109 -1.33618,-1.07873 -1.28829,-1.33984 -1.60937,-3.10938 v -0.002 c 0,-1.51001 -0.004,0.76392 -0.004,-1.70508 0,-6.075 -3.41328,-11.19922 -9.48828,-11.19922 z m -7.52518,3.14611 c -1.7061,1.39918 -2.23849,3.62669 -2.23849,8.05312 v 1.77148 c 0,1.7654 -0.69444,3.1311 -1.9336,4.1543 -0.563,0.562 -0.8789,2.01259 -0.8789,2.80859 0,0.796 0.3159,1.5591 0.8789,2.1211 0.562,0.563 1.3251,0.8789 2.1211,0.8789 h 3.66796 c 0.464,2.281 3.15722,4.51563 5.57422,4.51563 2.417,0 5.05163,-2.23463 5.51563,-4.51563 h 2.70898 c 0.31177,0 0.65329,-0.65163 0.65037,-1.00953 -0.003,-0.37884 -0.41272,-0.99049 -0.64839,-0.99049 H 135.9353 c -0.265,0 -0.52004,-0.10496 -0.70704,-0.29296 -0.188,-0.187 -0.29296,-0.44204 -0.29296,-0.70704 0,-0.265 0.10496,-1.20753 0.29296,-1.39453 1.73481,-1.41097 2.51954,-2.99249 2.51954,-5.56836 v -1.77148 c 0,-3.87486 -0.0861,-4.54078 1.66232,-6.67812 0.21907,-0.26781 -0.01,-0.89081 -0.24414,-1.13672 -0.24299,-0.25487 -0.91789,-0.45313 -1.17971,-0.23826 z m 3.68924,19.78748 h 6.94531 c -0.412,1.165 -2.13836,2.51563 -3.44336,2.51563 -1.305,0 -3.08995,-1.35063 -3.50195,-2.51563 z"
           sodipodi:nodetypes="csccssccssccsscccsscscscscsssscscsscccccsc" />
        <rect
           style="fill:#000000;fill-rule:evenodd;stroke:none;stroke-width:1.6;paint-order:stroke fill markers"
           id="rect1"
           width="35.326706"
           height="2.5321617"
           x="186.79005"
           y="-24.333736"
           rx="0.54407692"
           ry="0.4249208"
           transform="rotate(50.412256)" />
      </g>
    </g>
  </g>
</svg>
