<?xml version="1.0" encoding="UTF-8" standalone="no"?>
<!-- icon666.com - MILLIONS OF FREE VECTOR ICONS -->

<svg
   version="1.1"
   id="Capa_1"
   x="0px"
   y="0px"
   viewBox="0 0 24.000001 24.000001"
   xml:space="preserve"
   sodipodi:docname="ok.svg"
   width="24"
   height="24"
   inkscape:version="1.4.2 (f4327f4, 2025-05-13)"
   xmlns:inkscape="http://www.inkscape.org/namespaces/inkscape"
   xmlns:sodipodi="http://sodipodi.sourceforge.net/DTD/sodipodi-0.dtd"
   xmlns="http://www.w3.org/2000/svg"
   xmlns:svg="http://www.w3.org/2000/svg"><defs
     id="defs1" /><sodipodi:namedview
     id="namedview1"
     pagecolor="#ffffff"
     bordercolor="#000000"
     borderopacity="0.25"
     inkscape:showpageshadow="2"
     inkscape:pageopacity="0.0"
     inkscape:pagecheckerboard="0"
     inkscape:deskcolor="#d1d1d1"
     inkscape:zoom="11.773331"
     inkscape:cx="5.3935457"
     inkscape:cy="10.404872"
     inkscape:window-width="1920"
     inkscape:window-height="1009"
     inkscape:window-x="-8"
     inkscape:window-y="-8"
     inkscape:window-maximized="1"
     inkscape:current-layer="Capa_1" /><rect
     style="fill:none;stroke:#000000;stroke-width:1.91989;stroke-dasharray:none"
     id="rect1"
     width="21.998283"
     height="21.994951"
     x="1.0184178"
     y="1.021365"
     ry="5.6019764"
     rx="5.6019764" /><g
     id="g1"
     transform="matrix(0.1389996,0,0,0.1389996,5.3001788,5.2715312)"><g
       id="g3"><g
         id="g2"><path
           d="M 43.041,67.254 C 35.639,66.482 28.965,64.659 23.251,60.19 22.542,59.634 21.81,59.098 21.163,58.477 18.662,56.075 18.41,53.324 20.389,50.489 c 1.693,-2.426 4.535,-3.075 7.489,-1.682 0.572,0.27 1.117,0.607 1.639,0.969 10.649,7.317 25.278,7.519 35.967,0.329 1.059,-0.812 2.191,-1.474 3.503,-1.812 2.551,-0.655 4.93,0.282 6.299,2.514 1.564,2.549 1.544,5.037 -0.383,7.016 -2.956,3.034 -6.511,5.229 -10.461,6.761 -3.735,1.448 -7.826,2.177 -11.875,2.661 0.611,0.665 0.899,0.992 1.281,1.376 5.498,5.524 11.02,11.025 16.5,16.566 1.867,1.888 2.257,4.229 1.229,6.425 -1.124,2.4 -3.64,3.979 -6.107,3.81 -1.563,-0.108 -2.782,-0.886 -3.865,-1.977 -4.149,-4.175 -8.376,-8.273 -12.441,-12.527 -1.183,-1.237 -1.752,-1.003 -2.796,0.071 -4.174,4.297 -8.416,8.528 -12.683,12.735 -1.916,1.889 -4.196,2.229 -6.418,1.15 -2.362,-1.145 -3.865,-3.556 -3.749,-5.979 0.08,-1.639 0.886,-2.891 2.011,-4.014 5.441,-5.433 10.867,-10.88 16.295,-16.322 0.359,-0.362 0.694,-0.746 1.217,-1.305 z"
           id="path1" /><path
           d="M 47.55,48.329 C 34.345,48.284 23.517,37.337 23.594,24.111 23.67,10.739 34.505,-0.037 47.84,0 61.202,0.036 71.927,10.967 71.86,24.478 71.792,37.677 60.889,48.375 47.55,48.329 Z M 59.551,24.143 C 59.528,17.576 54.298,12.348 47.744,12.342 41.135,12.335 35.858,17.658 35.909,24.285 c 0.049,6.542 5.324,11.733 11.896,11.709 6.552,-0.023 11.768,-5.285 11.746,-11.851 z"
           id="path2" /></g></g><g
       id="g4" /><g
       id="g5" /><g
       id="g6" /><g
       id="g7" /><g
       id="g8" /><g
       id="g9" /><g
       id="g10" /><g
       id="g11" /><g
       id="g12" /><g
       id="g13" /><g
       id="g14" /><g
       id="g15" /><g
       id="g16" /><g
       id="g17" /><g
       id="g18" /></g></svg>
