<?xml version="1.0" encoding="UTF-8" standalone="no"?>
<!-- icon666.com - MILLIONS OF FREE VECTOR ICONS -->

<svg
   viewBox="0 0 128 128"
   version="1.1"
   id="svg1"
   sodipodi:docname="pen.svg"
   inkscape:version="1.4 (86a8ad7, 2024-10-11)"
   xmlns:inkscape="http://www.inkscape.org/namespaces/inkscape"
   xmlns:sodipodi="http://sodipodi.sourceforge.net/DTD/sodipodi-0.dtd"
   xmlns="http://www.w3.org/2000/svg"
   xmlns:svg="http://www.w3.org/2000/svg">
  <defs
     id="defs1" />
  <sodipodi:namedview
     id="namedview1"
     pagecolor="#ffffff"
     bordercolor="#000000"
     borderopacity="0.25"
     inkscape:showpageshadow="2"
     inkscape:pageopacity="0.0"
     inkscape:pagecheckerboard="0"
     inkscape:deskcolor="#d1d1d1"
     inkscape:zoom="1.4142136"
     inkscape:cx="32.173358"
     inkscape:cy="-50.558135"
     inkscape:window-width="1920"
     inkscape:window-height="1009"
     inkscape:window-x="-8"
     inkscape:window-y="-8"
     inkscape:window-maximized="1"
     inkscape:current-layer="svg1" />
  <path
     id="path1"
     style="stroke-width:2.92436"
     d="M 16.959299,0.68480381 V 31.517903 c 0.01126,0.157954 0.03057,0.31517 0.05885,0.470989 0.01038,0.130419 0.01126,0.256485 0.02533,0.378475 0.05801,0.365899 0.156745,0.724169 0.294381,1.068136 l 0.0086,0.03358 35.997734,60.690618 v 18.444349 c 0.0083,19.79576 29.714333,19.79576 29.706079,0 l -0.0086,-18.444344 29.584057,-60.640152 0.0167,-0.0086 0.0167,-0.01679 c 0.003,-0.02591 0.009,-0.05103 0.0167,-0.07571 0.13025,-0.33132 0.22611,-0.675149 0.28598,-1.026088 0.023,-0.134506 0.0212,-0.262902 0.0336,-0.39531 0.0118,-0.13218 0.0485,-0.307505 0.0506,-0.462579 V 0.67614381 c -0.89595,0 -10.18641,0.0083 -11.0249,0.0083 V 26.404351 H 27.931123 V 0.68486891 Z M 31.215692,36.63152 H 100.39226 L 74.5217,88.011601 H 61.889044 Z m 32.372284,61.615707 h 9.234788 v 14.348413 c -0.05878,2.52537 -2.092018,4.55863 -4.617391,4.61742 -2.552095,0.004 -4.622164,-2.06535 -4.617397,-4.61742 z"
     sodipodi:nodetypes="cccccccccccccccscccccccccccccccccc" />
</svg>
