<?xml version="1.0" encoding="UTF-8" standalone="no"?>
<!-- icon666.com - MILLIONS OF FREE VECTOR ICONS -->

<svg
   version="1.1"
   id="Capa_1"
   x="0px"
   y="0px"
   viewBox="0 0 512.001 512.001"
   style="enable-background:new 0 0 512.001 512.001;"
   xml:space="preserve"
   sodipodi:docname="pencil.svg"
   inkscape:version="1.4 (86a8ad7, 2024-10-11)"
   xmlns:inkscape="http://www.inkscape.org/namespaces/inkscape"
   xmlns:sodipodi="http://sodipodi.sourceforge.net/DTD/sodipodi-0.dtd"
   xmlns="http://www.w3.org/2000/svg"
   xmlns:svg="http://www.w3.org/2000/svg"><defs
     id="defs2" /><sodipodi:namedview
     id="namedview2"
     pagecolor="#ffffff"
     bordercolor="#000000"
     borderopacity="0.25"
     inkscape:showpageshadow="2"
     inkscape:pageopacity="0.0"
     inkscape:pagecheckerboard="0"
     inkscape:deskcolor="#d1d1d1"
     showguides="true"
     inkscape:zoom="0.70710678"
     inkscape:cx="135.05739"
     inkscape:cy="313.2483"
     inkscape:window-width="1920"
     inkscape:window-height="1009"
     inkscape:window-x="-8"
     inkscape:window-y="-8"
     inkscape:window-maximized="1"
     inkscape:current-layer="g1" /><g
     id="g2"
     transform="matrix(0.48627589,-0.48627589,0.48627589,0.48627589,16.270072,239.6446)"><g
       id="g1"><path
         id="path1"
         d="M 653.48571,164.67721 507.57097,310.59193 c -6.62086,-36.66507 -13.10395,-73.34296 -18.94536,-110.13421 -3.2378,-20.39266 2.6376,-14.24397 -17.57847,-17.43913 -45.98453,-7.26782 -92.06306,-13.93208 -138.10715,-20.811 C 325.71155,113.64276 319.07684,72.031449 311.95183,23.911263 309.25141,5.6734608 313.05612,8.2816558 295.55539,5.4946268 256.03426,-0.79917133 223.52668,-5.6854156 184.54829,-12.548528 L 330.40382,-158.4041 291.4591,-197.35954 108.31986,-14.220271 c -0.87278,0.854435 -1.66381,1.786228 -2.42292,2.761653 -0.15419,0.198045 -0.30618,0.402163 -0.45656,0.603872 -0.58672,0.803083 -1.13621,1.6348124 -1.64226,2.5112734 -0.0806,0.135817 -0.16632,0.26954 -0.24317,0.405016 -0.54274,0.979102 -1.02539,1.996405 -1.45077,3.056201 -0.10273,0.253141 -0.17704,0.516569 -0.27244,0.77327 -0.19058,0.517053 -0.39099,1.0295133 -0.55235,1.5685793 L 22.083108,260.52904 c -0.01819,0.0623 -0.03698,0.1255 -0.05901,0.19138 l -65.35868,217.13815 c -5.16319,17.15078 -0.5001,35.67723 12.158575,48.33223 9.251964,9.25565 21.6224969,14.23527 34.3104998,14.23527 4.679153,0 9.4049702,-0.67958 14.0291122,-2.06938 L 234.32368,472.99067 c 0.055,-0.0161 0.10718,-0.0293 0.16208,-0.0441 l 263.0842,-79.19624 c 0.0331,-0.0105 0.0628,-0.0263 0.0958,-0.0368 0.83609,-0.25682 1.65668,-0.54269 2.46708,-0.87638 0.51705,-0.21271 1.01097,-0.47231 1.5097,-0.71437 0.30803,-0.15055 0.62722,-0.28051 0.92792,-0.44182 0.62341,-0.33005 1.21384,-0.6938 1.80425,-1.06783 0.16491,-0.10626 0.34326,-0.19179 0.50817,-0.30181 0.67837,-0.45103 1.32815,-0.93737 1.95888,-1.44341 0.0734,-0.0586 0.14006,-0.11072 0.21349,-0.16936 0.75907,-0.6234 1.4941,-1.27689 2.17983,-1.97362 L 692.38692,203.57308 Z M 261.46159,56.867843 281.42636,190.4646 c 1.78584,11.95825 11.18056,21.34928 23.1388,23.13882 L 438.16191,233.56818 458.31819,348.1207 234.39022,415.52666 79.503124,260.63955 146.90907,36.711609 Z M 61.50467,320.42336 174.59905,433.51778 12.804185,482.2256 Z"
         sodipodi:nodetypes="ccsscssccccsccccccccccscccccsccccsccccccccccccccccc"
         style="stroke-width:3.66705" /></g></g></svg>
