<?xml version="1.0" encoding="UTF-8" standalone="no"?>
<!-- Created with Inkscape (http://www.inkscape.org/) -->

<svg
   width="512mm"
   height="512mm"
   viewBox="0 0 512 512"
   version="1.1"
   id="svg1"
   xml:space="preserve"
   inkscape:version="1.3.2 (091e20e, 2023-11-25, custom)"
   sodipodi:docname="pin_code.svg"
   xmlns:inkscape="http://www.inkscape.org/namespaces/inkscape"
   xmlns:sodipodi="http://sodipodi.sourceforge.net/DTD/sodipodi-0.dtd"
   xmlns="http://www.w3.org/2000/svg"
   xmlns:svg="http://www.w3.org/2000/svg"><sodipodi:namedview
     id="namedview1"
     pagecolor="#ffffff"
     bordercolor="#000000"
     borderopacity="0.25"
     inkscape:showpageshadow="2"
     inkscape:pageopacity="0.0"
     inkscape:pagecheckerboard="0"
     inkscape:deskcolor="#d1d1d1"
     inkscape:document-units="mm"
     inkscape:zoom="0.1280329"
     inkscape:cx="335.85117"
     inkscape:cy="1558.1932"
     inkscape:window-width="1920"
     inkscape:window-height="1009"
     inkscape:window-x="-8"
     inkscape:window-y="-8"
     inkscape:window-maximized="1"
     inkscape:current-layer="g4" /><defs
     id="defs1" /><g
     inkscape:label="Слой 1"
     inkscape:groupmode="layer"
     id="layer1"><rect
       style="fill:#000000;fill-opacity:1;fill-rule:evenodd;stroke:#000000;stroke-width:12;stroke-linecap:round;stroke-dasharray:none;stroke-opacity:1"
       id="rect1"
       width="498.8299"
       height="70.735115"
       x="6.8523192"
       y="293.80276"
       ry="35.07011"
       rx="29.447996" /><g
       id="g4"
       transform="matrix(0.26458333,0,0,0.26458333,146.97076,147.96738)"><path
         d="m 568.30449,41.240687 h -79.78458 l 39.8923,-69.089256 c 9.77849,-16.816371 4.01033,-38.345563 -12.87529,-48.054791 -16.74383,-9.63999 -38.34557,-3.9411 -48.05481,12.875286 l -39.89228,69.16182 -39.8923,-69.16182 c -9.70925,-16.885616 -31.30769,-22.584546 -48.05482,-12.875286 -16.81634,9.709228 -22.58452,31.23842 -12.87528,48.054791 l 39.89231,69.089256 h -79.78461 c -19.41849,0 -35.1795,15.761045 -35.1795,35.179523 0,19.41846 15.76101,35.17948 35.1795,35.17948 h 79.78461 l -39.89231,69.08928 c -9.77849,16.81636 -4.01033,38.34554 12.87528,48.0548 5.55711,3.16604 11.60888,4.7128 17.58811,4.7128 12.10026,0 23.99277,-6.26287 30.46339,-17.58811 l 39.8923,-69.16183 39.89232,69.16183 c 6.47392,11.32854 18.36311,17.58811 30.46339,17.58811 5.97922,0 12.03101,-1.47751 17.58809,-4.7128 16.81637,-9.70926 22.58455,-31.23844 12.87529,-48.0548 l -39.89231,-69.08928 h 79.7912 c 19.41848,0 35.17952,-15.76102 35.17952,-35.17948 0,-19.418478 -15.76104,-35.179523 -35.17952,-35.179523 z"
         id="path1"
         style="stroke-width:3.29798" /><path
         d="m -231.1714,41.240687 h -79.78461 l 39.8923,-69.089256 c 9.7785,-16.816371 4.01034,-38.345563 -12.87528,-48.054791 -16.74382,-9.63999 -38.34555,-3.9411 -48.0548,12.875286 l -39.89231,69.16182 -39.89229,-69.16182 c -9.70924,-16.885616 -31.30768,-22.584546 -48.05479,-12.875286 -16.81637,9.709228 -22.58452,31.23842 -12.8753,48.054791 l 39.8923,69.089256 h -79.7813 c -19.41847,0 -35.17949,15.761045 -35.17949,35.179523 0,19.41846 15.76102,35.17948 35.17949,35.17948 h 79.7846 l -39.89229,69.08928 c -9.77851,16.81636 -4.01033,38.34554 12.87528,48.0548 5.5571,3.16604 11.60887,4.7128 17.5881,4.7128 12.10028,0 23.99278,-6.26287 30.4634,-17.58811 l 39.89229,-69.16183 39.89231,69.16183 c 6.47394,11.32854 18.36313,17.58811 30.4634,17.58811 5.97922,0 12.031,-1.47751 17.5881,-4.7128 16.81636,-9.70926 22.58454,-31.23844 12.87528,-48.0548 l -39.8923,-69.08928 h 79.78791 c 19.41847,0 35.17949,-15.76102 35.17949,-35.17948 0,-19.418478 -15.76102,-35.179523 -35.17949,-35.179523 z"
         id="path2"
         style="stroke-width:3.29798" /><path
         d="m 1343.2957,41.240687 h -79.7846 l 39.8922,-69.089256 c 9.7787,-16.816371 4.0104,-38.345563 -12.8752,-48.054791 -16.8164,-9.63999 -38.3456,-3.9411 -48.0549,12.875286 l -39.8921,69.16182 -39.8925,-69.16182 c -9.7092,-16.885616 -31.1691,-22.584546 -48.0546,-12.875286 -16.8858,9.709228 -22.5846,31.23842 -12.8754,48.054791 l 39.8922,69.089256 h -79.7845 c -19.4185,0 -35.1795,15.761045 -35.1795,35.179523 0,19.41846 15.761,35.17948 35.1795,35.17948 h 79.7845 l -39.8922,69.08928 c -9.7785,16.81636 -4.0104,38.34554 12.8754,48.0548 5.557,3.16604 11.6088,4.7128 17.5881,4.7128 12.1001,0 23.9926,-6.26287 30.4633,-17.58811 l 39.8923,-69.16183 39.8922,69.16183 c 6.474,11.32854 18.3633,17.58811 30.4635,17.58811 5.9793,0 12.031,-1.47751 17.5882,-4.7128 16.8163,-9.70926 22.5845,-31.23844 12.8753,-48.0548 l -39.8924,-69.08928 h 79.7912 c 19.4184,0 35.1795,-15.76102 35.1795,-35.17948 0,-19.418478 -15.7611,-35.179523 -35.1795,-35.179523 z"
         id="path4"
         style="stroke-width:3.29798" /></g></g></svg>
