<?xml version="1.0" encoding="UTF-8" standalone="no"?>
<!-- icon666.com - MILLIONS OF FREE VECTOR ICONS -->

<svg
   id="Layer_1"
   enable-background="new 0 0 48 48"
   viewBox="0 0 24 24"
   version="1.1"
   sodipodi:docname="question_ai.svg"
   inkscape:version="1.4.2 (f4327f4, 2025-05-13)"
   width="24"
   height="24"
   xml:space="preserve"
   xmlns:inkscape="http://www.inkscape.org/namespaces/inkscape"
   xmlns:sodipodi="http://sodipodi.sourceforge.net/DTD/sodipodi-0.dtd"
   xmlns="http://www.w3.org/2000/svg"
   xmlns:svg="http://www.w3.org/2000/svg"><defs
     id="defs1"><linearGradient
       id="swatch2"
       inkscape:swatch="solid"><stop
         style="stop-color:#000000;stop-opacity:1;"
         offset="0"
         id="stop2" /></linearGradient></defs><sodipodi:namedview
     id="namedview1"
     pagecolor="#ffffff"
     bordercolor="#000000"
     borderopacity="0.25"
     inkscape:showpageshadow="2"
     inkscape:pageopacity="0.0"
     inkscape:pagecheckerboard="0"
     inkscape:deskcolor="#d1d1d1"
     showguides="true"
     inkscape:zoom="22.627417"
     inkscape:cx="15.335378"
     inkscape:cy="10.31934"
     inkscape:window-width="1920"
     inkscape:window-height="1009"
     inkscape:window-x="-8"
     inkscape:window-y="-8"
     inkscape:window-maximized="1"
     inkscape:current-layer="g2" /><path
     d="m 15.942252,9.0829616 c 1.39726,0.9001047 4.639104,2.7601374 4.639104,2.7601374 0.392772,0.227386 0.877151,0.227386 1.269923,0 0.320852,-0.16774 0.52819,-0.493557 0.544252,-0.855255 V 5.4416548 c -0.0058,-0.3699756 -0.212319,-0.7075332 -0.539069,-0.881171 -0.398598,-0.2219832 -0.885859,-0.2120779 -1.275106,0.025921 0,0 -3.186181,1.8699306 -4.639104,2.7601369 -0.238378,0.1460542 -0.476038,0.5043315 -0.483219,0.8221229 -0.0078,0.3446243 0.231655,0.7522414 0.483219,0.914297 z"
     id="path1-4"
     style="fill:none;fill-opacity:1;stroke:#009678;stroke-width:1.4;stroke-dasharray:none;stroke-opacity:1"
     sodipodi:nodetypes="sccccccsas" /><g
     id="g2"
     transform="translate(-275.38761,-237.1805)"><path
       style="fill:none;fill-opacity:1;stroke:#009678;stroke-width:1.6;stroke-dasharray:none;stroke-opacity:1"
       d="m 284.65717,259.01374 c -0.73324,0 -1.26797,-3.50444 -2.56468,-4.75343 -1.2701,-1.22337 -4.74678,-1.52172 -4.74678,-2.33582 0,-0.82624 3.36515,-1.34588 4.61812,-2.58855 1.31186,-1.30108 1.99726,-4.81261 2.75,-4.81261 0.75059,0 1.3191,3.65978 2.66682,4.97112 1.31718,1.28164 4.92791,1.73725 4.92791,2.47252 0,0.73375 -3.59877,1.0478 -4.93261,2.27158 -1.34964,1.23829 -1.97402,4.77519 -2.71878,4.77519 z"
       id="path2-5"
       sodipodi:nodetypes="sasasasas" /><g
       id="g5" /><circle
       style="fill:none;fill-opacity:1;fill-rule:evenodd;stroke:#009678;stroke-width:1.04159;stroke-dasharray:none;stroke-opacity:1"
       id="path5"
       cx="288.82169"
       cy="240.56505"
       r="1.6928235" /></g></svg>
