<?xml version="1.0" encoding="UTF-8" standalone="no"?>
<!-- icon666.com - MILLIONS OF FREE VECTOR ICONS -->

<svg
   id="Layer_1"
   data-name="Layer 1"
   viewBox="0 0 24 24"
   version="1.1"
   sodipodi:docname="question.svg"
   width="24"
   height="24"
   inkscape:version="1.4.2 (f4327f4, 2025-05-13)"
   xmlns:inkscape="http://www.inkscape.org/namespaces/inkscape"
   xmlns:sodipodi="http://sodipodi.sourceforge.net/DTD/sodipodi-0.dtd"
   xmlns="http://www.w3.org/2000/svg"
   xmlns:svg="http://www.w3.org/2000/svg">
  <defs
     id="defs3" />
  <sodipodi:namedview
     id="namedview3"
     pagecolor="#ffffff"
     bordercolor="#000000"
     borderopacity="0.25"
     inkscape:showpageshadow="2"
     inkscape:pageopacity="0.0"
     inkscape:pagecheckerboard="0"
     inkscape:deskcolor="#d1d1d1"
     inkscape:zoom="23.776466"
     inkscape:cx="14.405001"
     inkscape:cy="8.600942"
     inkscape:window-width="1920"
     inkscape:window-height="1009"
     inkscape:window-x="-8"
     inkscape:window-y="-8"
     inkscape:window-maximized="1"
     inkscape:current-layer="Layer_1" />
  <path
     id="path1"
     style="fill:#000000;fill-opacity:1;stroke-width:0.772967"
     d="M 3.1183625,0.37623312 A 3.0918673,3.0918673 0 0 0 0.02577131,3.4668266 V 16.184808 a 3.0918673,3.0918673 0 0 0 3.09259119,3.092591 h 4.1594153 a 0.91364681,0.91364681 0 0 1 0.7172095,0.351612 l 2.4732747,3.200472 a 1.8744445,1.8744445 0 0 0 1.496351,0.73519 h 0.03196 a 1.8767636,1.8767636 0 0 0 1.504342,-0.785135 l 2.257511,-3.126553 a 0.90978198,0.90978198 0 0 1 0.73519,-0.375586 h 4.381171 a 3.0918673,3.0918673 0 0 0 3.090594,-3.092591 V 3.4668266 A 3.0918673,3.0918673 0 0 0 20.874791,0.37623312 Z M 11.720881,4.2439699 a 3.0918673,3.0918673 0 0 1 1.294574,5.9474451 0.7250429,0.7250429 0 0 0 -0.407552,0.681248 v 1.096791 a 0.77296685,0.77296685 0 0 1 -0.773147,0.773148 0.77296685,0.77296685 0 0 1 -0.771151,-0.773148 v -1.096791 a 2.2547443,2.2547443 0 0 1 1.362499,-2.1116719 1.5459337,1.5459337 0 1 0 -2.135646,-1.4284255 0.7731482,0.7731482 0 0 1 -1.5462964,0 3.0918673,3.0918673 0 0 1 2.9767194,-3.0885957 z m 0.113875,9.2717801 a 1.1594503,1.1594503 0 0 1 1.16072,1.158722 1.1594503,1.1594503 0 0 1 -1.16072,1.160721 1.1594503,1.1594503 0 0 1 -1.158723,-1.160721 1.1594503,1.1594503 0 0 1 1.158723,-1.158722 z" />
</svg>
