<?xml version="1.0" encoding="UTF-8" standalone="no"?>
<!-- icon666.com - MILLIONS OF FREE VECTOR ICONS -->

<svg
   id="Capa_1"
   enable-background="new 0 0 512 512"
   viewBox="0 0 30 24"
   version="1.1"
   sodipodi:docname="review.svg"
   width="30"
   height="24"
   inkscape:version="1.4.2 (f4327f4, 2025-05-13)"
   xmlns:inkscape="http://www.inkscape.org/namespaces/inkscape"
   xmlns:sodipodi="http://sodipodi.sourceforge.net/DTD/sodipodi-0.dtd"
   xmlns="http://www.w3.org/2000/svg"
   xmlns:svg="http://www.w3.org/2000/svg">
  <defs
     id="defs2" />
  <sodipodi:namedview
     id="namedview2"
     pagecolor="#ffffff"
     bordercolor="#999999"
     borderopacity="1"
     inkscape:showpageshadow="2"
     inkscape:pageopacity="0"
     inkscape:pagecheckerboard="0"
     inkscape:deskcolor="#d1d1d1"
     inkscape:zoom="8"
     inkscape:cx="-17.25"
     inkscape:cy="12.1875"
     inkscape:window-width="1920"
     inkscape:window-height="1009"
     inkscape:window-x="-8"
     inkscape:window-y="-8"
     inkscape:window-maximized="1"
     inkscape:current-layer="g2" />
  <g
     id="g2">
    <path
       d="m 12.132651,6.768147 h -1.40311 L 11.22721,5.6250108 C 11.802236,4.3042206 11.195443,2.7618515 9.8746561,2.1867782 9.0543495,1.8092935 8.0075025,2.221117 7.6642135,3.0563037 L 6.6823595,5.8675738 C 6.4599715,6.3783105 5.9750355,6.7200735 5.4260979,6.7633299 5.3057696,6.5376027 5.068215,6.3837948 4.7946043,6.3837948 H 2.0775508 c -0.3950829,0 -0.7153843,0.3203012 -0.7153843,0.7153846 v 7.8223946 c -0.00782,0.387311 0.3364692,0.727546 0.7235397,0.715336 l 2.7170536,-0.03815 c 0.3918873,-0.0045 0.7072287,-0.323402 0.7072287,-0.715337 v -0.206031 h 0.513169 c 0.369997,0 0.733889,0.100249 1.051995,0.289684 0.539305,0.32154 0.914322,0.491516 1.542621,0.491516 h 1.6238455 c 1.071709,0 1.823355,-1.076762 2.32207,-1.979367 0.709592,-1.284262 1.327801,-2.747038 1.778612,-4.1360805 C 14.54233,8.726812 14.274289,8.1613688 13.904371,7.5654215 13.455444,7.058739 12.809691,6.76815 12.132651,6.76815 Z m -8.0534312,7.407997 -1.2862847,0.02184 V 7.8145158 H 4.0792198 Z M 13.06265,9.2486703 c 0,0 -0.913181,2.9706307 -1.825439,4.1045897 -0.313231,0.34198 -0.829684,0.674512 -1.216802,0.674512 H 8.6178215 c -0.370426,0 -0.734175,-0.100154 -1.052331,-0.289874 -0.539733,-0.321445 -0.914654,-0.491326 -1.542285,-0.491326 H 5.5100365 V 8.1920004 c 1.084761,-0.074638 1.803591,-0.7461455 2.242075,-1.7533115 L 8.9760865,3.6274191 C 9.0308865,3.5016068 9.1778247,3.443804 9.3035888,3.4986022 9.9010781,3.7587635 10.175547,4.4564545 9.9154331,5.0539432 L 8.9820005,7.1980451 c -0.212709,0.4521707 0.1565252,1.0154646 0.6559116,1.0009183 h 2.4947869 c 0.546601,-0.01364 1.009073,0.5087812 0.929951,1.0497069 z"
       id="path1"
       style="fill:#009678;fill-opacity:1;stroke-width:0.0476923"
       sodipodi:nodetypes="cccccccssscccscscssssccccccccccsscscccccccccc" />
    <path
       d="m 16.140311,18.263398 h 2.702064 l -0.497669,1.143136 c -0.575026,1.320789 0.03177,2.863159 1.352554,3.438232 0.820306,0.377485 1.867153,-0.03434 2.210442,-0.869525 l 0.981854,-2.81127 c 0.222388,-0.510737 0.707324,-0.8525 1.256262,-0.895756 0.120328,0.225726 0.357883,0.379534 0.631494,0.379534 h 2.717054 c 0.395082,0 0.715384,-0.320301 0.715384,-0.715384 V 10.109971 C 28.21765,9.7226603 27.87328,9.3824251 27.48621,9.3946344 l -2.717054,0.03815 c -0.391887,0.00449 -0.707229,0.3234027 -0.707229,0.7153376 v 0.206031 h -0.513169 c -0.369996,0 -0.733889,-0.100249 -1.051995,-0.289684 C 21.957458,9.7429287 21.582441,9.5729522 20.954142,9.5729522 h -3.184846 c -1.109418,0 -1.823065,1.0295778 -2.181445,1.9324928 -0.517126,1.302863 -1.797815,4.104831 -1.797815,4.104831 v 2.85e-4 c -0.08146,0.672412 0.129437,1.348735 0.578555,1.855562 0.448927,0.506682 1.09468,0.797271 1.77172,0.797271 z m 9.352385,-7.407996 1.286285,-0.02184 v 6.383465 h -1.286285 z m -10.282384,4.927472 c 0,0 1.252735,-2.731635 1.797767,-4.104589 0.125083,-0.315089 0.374051,-0.674511 0.761169,-0.674511 h 3.184846 c 0.370426,0 0.734175,0.100153 1.052331,0.289873 0.539733,0.321446 0.914654,0.491327 1.542285,0.491327 h 0.513169 v 5.05457 c -1.084761,0.07463 -1.803591,0.746146 -2.242075,1.753311 l -1.223975,2.811271 c -0.0548,0.125811 -0.201738,0.183614 -0.327502,0.128817 -0.597489,-0.260162 -0.871958,-0.957853 -0.611844,-1.555341 l 0.933432,-2.144103 c 0.212709,-0.45217 -0.156525,-1.015465 -0.655911,-1.000918 H 16.140263 C 15.593662,16.846221 15.13119,16.3238 15.210312,15.782874 Z"
       id="path1-2"
       style="fill:#009678;fill-opacity:1;stroke-width:0.0476923"
       sodipodi:nodetypes="cccccccssscccscscssscccccccccccssscscccccccccc" />
  </g>
</svg>
