<?xml version="1.0" encoding="UTF-8" standalone="no"?>
<!-- icon666.com - MILLIONS OF FREE VECTOR ICONS -->

<svg
   version="1.1"
   id="Capa_1"
   x="0px"
   y="0px"
   viewBox="0 0 512 512"
   style="enable-background:new 0 0 512 512;"
   xml:space="preserve"
   sodipodi:docname="rotation.svg"
   inkscape:version="1.4 (86a8ad7, 2024-10-11)"
   xmlns:inkscape="http://www.inkscape.org/namespaces/inkscape"
   xmlns:sodipodi="http://sodipodi.sourceforge.net/DTD/sodipodi-0.dtd"
   xmlns="http://www.w3.org/2000/svg"
   xmlns:svg="http://www.w3.org/2000/svg"><defs
     id="defs1" /><sodipodi:namedview
     id="namedview1"
     pagecolor="#ffffff"
     bordercolor="#000000"
     borderopacity="0.25"
     inkscape:showpageshadow="2"
     inkscape:pageopacity="0.0"
     inkscape:pagecheckerboard="0"
     inkscape:deskcolor="#d1d1d1"
     inkscape:zoom="0.39404298"
     inkscape:cx="-521.51671"
     inkscape:cy="-87.553901"
     inkscape:window-width="1920"
     inkscape:window-height="1009"
     inkscape:window-x="-8"
     inkscape:window-y="-8"
     inkscape:window-maximized="1"
     inkscape:current-layer="g1"
     showguides="true" /><g
     id="g1"><path
       id="path1-4"
       style="stroke:#000000;stroke-width:14.9211;stroke-dasharray:none;stroke-opacity:1"
       d="m 455.28278,486.07818 h -78.23063 c -2.43925,0.0602 -4.7465,-1.10757 -6.14192,-3.10916 -0.74401,-1.19619 -1.14413,-2.5748 -1.15639,-3.98343 l 0.025,-75.72915 c -0.005,-1.92446 0.75199,-3.77326 2.10706,-5.1398 4.5764,-4.62982 12.46348,-1.37002 12.43664,5.1398 l -0.0147,68.33682 70.99993,-0.0338 c 7.27715,0 6.90846,14.51874 -0.025,14.51874 z M 399.41723,470.20177 386.0593,456.84385 c 0.66064,-0.66063 33.0415,-33.04917 33.69237,-33.71588 87.09401,-89.22214 86.43812,-232.67982 -1.97482,-321.09274 -89.06609,-89.066102 -234.00279,-89.073632 -323.076389,-1e-5 -40.806174,40.80616 -66.334296,93.82769 -66.334296,146.85595 0,12.84009 -18.908563,13.54693 -18.908563,0.004 0,-58.39554 27.444041,-115.7856 71.884932,-160.226477 96.437986,-96.4384639 253.360926,-96.4378084 349.796656,0.0039 95.95436,95.954297 96.43913,251.778597 1.46054,348.334577 -0.48321,0.49118 -32.6944,32.70613 -33.18251,33.19426 z"
       sodipodi:nodetypes="cccccccccccccssssscsscc" /><circle
       style="fill:none;fill-rule:evenodd;stroke:#000000;stroke-width:25.6211;stroke-dasharray:none;stroke-opacity:1"
       id="path2"
       cx="254.18994"
       cy="245.94212"
       r="55.437088" /></g></svg>
