<?xml version="1.0" encoding="UTF-8" standalone="no"?>
<!-- icon666.com - MILLIONS OF FREE VECTOR ICONS -->

<svg
   version="1.1"
   id="Layer_1"
   x="0px"
   y="0px"
   viewBox="0 0 512 512"
   style="enable-background:new 0 0 512 512;"
   xml:space="preserve"
   sodipodi:docname="save.svg"
   inkscape:version="1.4 (86a8ad7, 2024-10-11)"
   xmlns:inkscape="http://www.inkscape.org/namespaces/inkscape"
   xmlns:sodipodi="http://sodipodi.sourceforge.net/DTD/sodipodi-0.dtd"
   xmlns="http://www.w3.org/2000/svg"
   xmlns:svg="http://www.w3.org/2000/svg"><defs
     id="defs6" /><sodipodi:namedview
     id="namedview6"
     pagecolor="#ffffff"
     bordercolor="#000000"
     borderopacity="0.25"
     inkscape:showpageshadow="2"
     inkscape:pageopacity="0.0"
     inkscape:pagecheckerboard="0"
     inkscape:deskcolor="#d1d1d1"
     inkscape:zoom="0.70710678"
     inkscape:cx="381.83766"
     inkscape:cy="344.361"
     inkscape:window-width="1920"
     inkscape:window-height="1009"
     inkscape:window-x="-8"
     inkscape:window-y="-8"
     inkscape:window-maximized="1"
     inkscape:current-layer="g5" /><g
     id="g2"><g
       id="g1" /></g><g
     id="g4"><g
       id="g3" /></g><g
     id="g6"><g
       id="g5"><path
         id="path4"
         d="M 64,0 C 28.71,0 0,28.71 0,64 v 384 c 0,35.29 28.71,64 64,64 h 384 c 35.29,0 64,-28.71 64,-64 V 79.585938 c 0,-3.979 -1.58153,-7.793469 -4.39453,-10.605469 L 443.02148,4.3945312 C 440.20848,1.5805312 436.39206,0 432.41406,0 Z m 0,30 h 33 v 82 c 0,25.916 21.084,47 47,47 h 224 c 25.916,0 47,-21.084 47,-47 V 30 h 11.20117 L 482,85.798828 V 448 c 0,18.748 -15.252,34 -34,34 H 415 V 272 c 0,-25.916 -21.084,-47 -47,-47 H 144 c -25.916,0 -47,21.084 -47,47 V 482 H 64 C 45.252,482 30,466.748 30,448 V 64 C 30,45.252 45.252,30 64,30 Z m 63,1 h 258 v 81 c 0,9.374 -7.626,17 -17,17 H 144 c -9.374,0 -17,-7.626 -17,-17 z m 17,224 h 224 c 9.374,0 17,7.626 17,17 V 481 H 127 V 272 c 0,-9.374 7.626,-17 17,-17 z"
         sodipodi:nodetypes="sssssssccssscsssscccsscsssscssssccsssscsssccss" /></g></g></svg>
