<?xml version="1.0" encoding="UTF-8" standalone="no"?>

<svg
   id="Layer_1"
   enable-background="new 0 0 491.5 491.5"
   viewBox="0 0 491.5 491.5"
   version="1.1"
   xmlns="http://www.w3.org/2000/svg">
  <defs id="defs1" />
  <g
     id="Layer_x0020_1">
    <g
       id="_298824616">
      <g
         clip-rule="evenodd"
         fill-rule="evenodd"
         id="g1">
        <path
           id="_298826800"
           d="m238.1 415.7c.5 0 1.1.1 1.6.3 1.9.7 3.2 2.5 3.2 4.5v29.9c0 1.6 1.3 2.9 2.9 2.9s2.9-1.3 2.9-2.9v-29.9c0-2 1.3-3.8 3.2-4.5s4 0 5.3 1.5l18.4 23.1c.5.6 1.2 1 2 1.1s1.5-.1 2.2-.6c.6-.5 1-1.2 1.1-2s-.1-1.5-.6-2.2l-30.4-38.1c-.7-.8-1-1.9-1-3v-13.6c0-2.6 2.1-4.7 4.7-4.7h13.6c1.1 0 2.1.4 3 1l38.1 30.4c1.3 1 3.1.8 4.1-.5.5-.6.7-1.4.6-2.2s-.5-1.5-1.1-2l-23.1-18.4c-1.6-1.3-2.2-3.4-1.5-5.3s2.5-3.2 4.5-3.2h29.9c1.6 0 2.9-1.3 2.9-2.9s-1.3-2.9-2.9-2.9h-29.9c-2 0-3.8-1.3-4.5-3.2s-.1-4 1.5-5.3l23.1-18.4c.6-.5 1-1.2 1.1-2s-.1-1.5-.6-2.1c-1-1.3-2.8-1.5-4.1-.5l-38.3 30.6c-.8.7-1.9 1-3 1h-13.6c-2.6 0-4.7-2.1-4.7-4.7v-13.6c0-1.1.4-2.1 1-3l30.4-38.1c.5-.6.7-1.4.6-2.2s-.5-1.5-1.1-2c-1.3-1-3.1-.8-4.1.5l-18.4 23.1c-1.3 1.6-3.4 2.2-5.3 1.5s-3.2-2.5-3.2-4.5v-29.9c0-1.6-1.3-2.9-2.9-2.9s-2.9 1.3-2.9 2.9v29.9c0 2-1.3 3.8-3.2 4.5s-4 0-5.3-1.5l-18.3-23c-1-1.3-2.9-1.5-4.1-.5-1.3 1-1.5 2.8-.5 4.1l30.4 38.1c.7.8 1 1.9 1 3v13.6c0 2.6-2.1 4.7-4.7 4.7h-13.6c-1.1 0-2.1-.4-3-1l-38.1-30.4c-1.3-1-3.1-.8-4.1.5-.5.6-.7 1.4-.6 2.2s.5 1.5 1.1 2l23.1 18.4c1.6 1.3 2.2 3.4 1.5 5.3s-2.5 3.2-4.5 3.2h-29.9c-1.6 0-2.9 1.3-2.9 2.9s1.3 2.9 2.9 2.9h29.9c2 0 3.8 1.3 4.5 3.2s.1 4-1.5 5.3l-23.1 18.4c-.6.5-1 1.2-1.1 2s.1 1.5.6 2.2c.5.6 1.2 1 2 1.1s1.5-.1 2.2-.6l38.1-30.4c.8-.7 1.9-1 2.9-1h13.6c2.6 0 4.7 2.1 4.7 4.7v13.6c0 1.1-.4 2.1-1 3l-30.4 38.1c-1 1.3-.8 3.1.5 4.1s3.1.8 4.1-.5l18.4-23.1c.9-1.4 2.3-2 3.7-2zm7.7 47c-6.8 0-12.4-5.6-12.4-12.4v-16.3l-9.9 12.5c-4.3 5.3-12.1 6.2-17.4 2-5.3-4.3-6.2-12.1-2-17.4l29.3-36.8v-7.3h-7.2l-36.8 29.3c-5.4 4.3-13.2 3.4-17.4-2-2.1-2.6-3-5.8-2.6-9.1s2-6.2 4.6-8.3l12.5-9.9h-16.5c-6.9 0-12.4-5.6-12.4-12.4s5.6-12.4 12.4-12.4h16.3l-12.5-9.9c-2.6-2.1-4.2-5-4.6-8.3s.6-6.5 2.6-9.1c2.1-2.6 5-4.2 8.3-4.6s6.5.6 9.1 2.6l36.8 29.3h7.2v-7.2l-29.2-36.9c-4.3-5.3-3.4-13.2 2-17.4 5.3-4.3 13.2-3.4 17.4 2l9.9 12.5v-16.4c0-6.8 5.6-12.4 12.4-12.4s12.4 5.6 12.4 12.4v16.4l9.9-12.5c4.2-5.3 12.1-6.2 17.4-2 2.6 2.1 4.2 5 4.6 8.3s-.6 6.5-2.6 9.1l-29.3 36.8v7.2h7.2l36.8-29.3c5.4-4.3 13.2-3.4 17.4 2 2.1 2.6 3 5.8 2.6 9.1s-2 6.2-4.6 8.3l-12.5 9.9h16.4c6.8 0 12.4 5.6 12.4 12.4s-5.6 12.4-12.4 12.4h-16.4l12.5 9.9c5.3 4.3 6.2 12.1 2 17.4-4.3 5.3-12.1 6.2-17.4 2l-36.7-29.2h-7.2v7.2l29.3 36.8c4.3 5.4 3.4 13.2-2 17.4-2.6 2.1-5.8 3-9.1 2.6s-6.2-2-8.3-4.6l-9.9-12.5v16.4c0 6.9-5.6 12.4-12.4 12.4z" />
        <path
           id="_298827040"
           d="m245.8 52.3c-2.6 0-4.7-2.1-4.7-4.7v-14c0-2.6 2.1-4.7 4.7-4.7s4.7 2.1 4.7 4.7v14c0 2.5-2.1 4.7-4.7 4.7z" />
        <path
           id="_298827016"
           d="m294.9 72.6c-1.2 0-2.4-.5-3.3-1.4-1.9-1.9-1.9-4.9 0-6.7l9.9-9.9c1.9-1.8 4.9-1.8 6.7 0 1.9 1.9 1.9 4.9 0 6.7l-9.9 9.9c-1 1-2.2 1.4-3.4 1.4z" />
        <path
           id="_298826440"
           d="m329.2 121.7h-14c-2.6 0-4.7-2.1-4.7-4.7s2.1-4.7 4.7-4.7h14c2.6 0 4.7 2.1 4.7 4.7.1 2.6-2.1 4.7-4.7 4.7z" />
        <path
           id="_298825672"
           d="m304.8 180.8c-1.2 0-2.4-.5-3.4-1.4l-9.9-9.9c-1.9-1.9-1.9-4.8 0-6.7 1.8-1.8 4.8-1.8 6.7 0l9.9 9.9c1.9 1.8 1.9 4.8 0 6.7-.9.9-2.1 1.4-3.3 1.4z" />
        <path
           id="_298825912"
           d="m245.8 205.2c-2.6 0-4.7-2.1-4.7-4.7v-14c0-2.6 2.1-4.7 4.7-4.7s4.7 2.1 4.7 4.7v14c0 2.6-2.1 4.7-4.7 4.7z" />
        <path
           id="_298825768"
           d="m186.7 180.8c-1.2 0-2.4-.5-3.3-1.4-1.8-1.9-1.8-4.9 0-6.7l9.9-9.9c1.8-1.8 4.8-1.8 6.7 0 1.9 1.9 1.9 4.8 0 6.7l-9.9 9.9c-.9.9-2.2 1.4-3.4 1.4z" />
        <path
           id="_298825960"
           d="m176.3 121.7h-14c-2.6 0-4.7-2.1-4.7-4.7s2.1-4.7 4.7-4.7h14c2.6 0 4.7 2.1 4.7 4.7s-2.1 4.7-4.7 4.7z" />
        <path
           id="_298825840"
           d="m196.6 72.6c-1.2 0-2.4-.5-3.3-1.4l-9.9-9.9c-1.8-1.8-1.8-4.8 0-6.7 1.8-1.8 4.8-1.8 6.7 0l9.9 9.9c1.9 1.8 1.9 4.8 0 6.7-.9 1-2.2 1.4-3.4 1.4z" />
        <path
           id="_298826080"
           d="m245.8 70.4c-25.7 0-46.6 20.9-46.6 46.6s20.9 46.6 46.6 46.6 46.6-20.9 46.6-46.6-20.9-46.6-46.6-46.6zm0 102.7c-30.9 0-56.1-25.2-56.1-56.1s25.2-56.1 56.1-56.1 56.1 25.2 56.1 56.1-25.2 56.1-56.1 56.1z" />
        <path
           id="_298826056"
           d="m363.9 287.1c.6.3 1.2.8 2 1.3 3.5 2.5 11.7 8.5 24.1 8.5h.2c15.2-.1 31.8-8.7 49.5-25.7-3.3-2.4-9.2-5.2-17.6-3.9-1.5.2-3-.3-4-1.3-1.1-1-1.6-2.5-1.4-4 .1-.7 2.5-17.5 19.5-36 1.1-1.2 1.6-2.5 1.5-4.1s-.7-2.9-2-3.9c-8.7-7.2-14.3-18.7-14.6-29.7-9.7 5.3-22.4 6.1-33 2.2-1.5-.6-2.9-.5-4.4.2s-2.4 1.8-2.9 3.3c-7.5 24-20.8 34.5-21.4 34.9-1.2.9-2.7 1.2-4.2.8-1.4-.4-2.6-1.5-3.1-2.8-3.1-7.9-8.5-11.6-12.2-13.3-5.9 23.8-5.1 42.6 2.5 55.7 6.2 10.8 15.5 15 19.4 16.7.8.5 1.5.8 2.1 1.1zm26 19.3c-15.4 0-25.4-7.2-29.6-10.3-.4-.3-1-.7-1.1-.8-.2-.1-.8-.4-1.3-.6-4.8-2.2-16.1-7.2-23.8-20.7-9.3-16.3-10-39.1-2.1-67.7.6-2.3 2.9-3.8 5.2-3.4.6.1 12.8 2 20.5 14.3 4-4.6 9.9-13.1 14-26 1.3-4 3.9-7.2 7.7-9 3.8-1.9 7.9-2.1 11.9-.6 7.1 2.7 18.1 2.9 26.6-2.5 2.6-1.6 5.8-1.7 8.5-.2 2.6 1.5 4.2 4.4 4.1 7.4-.4 10.1 5.3 19.5 11.2 24.4 3.2 2.7 5.1 6.3 5.4 10.6.3 4.2-1.1 8.1-3.9 11.2-9.2 10-13.5 19.4-15.5 25.1 14.5.6 22.3 10.2 22.6 10.7 1.5 1.9 1.3 4.5-.3 6.2-20.8 21.2-40.9 31.9-59.7 32-.3-.1-.3-.1-.4-.1z" />
        <path
           id="_298826104"
           d="m349.1 317.4c-.8 0-1.6-.2-2.4-.6-2.3-1.3-3-4.2-1.7-6.5l43.4-75.2c1.3-2.3 4.2-3 6.5-1.7s3 4.2 1.7 6.5l-43.4 75.1c-.9 1.5-2.4 2.4-4.1 2.4z" />
        <path
           id="_298826248"
           d="m372.5 276.9c-2.3 0-4.4-1.7-4.7-4.1-.4-2.6 1.4-5 4-5.3l24.4-3.4c2.6-.4 5 1.4 5.3 4 .4 2.6-1.4 5-4 5.3l-24.4 3.4c-.2.1-.4.1-.6.1z" />
        <path
           id="_298826032"
           d="m372.5 276.9c-1.9 0-3.6-1.1-4.4-3l-9.2-22.9c-1-2.4.2-5.2 2.6-6.2s5.2.2 6.2 2.6l9.2 22.9c1 2.4-.2 5.2-2.6 6.2-.6.3-1.2.4-1.8.4z" />
        <path
           id="_298825480"
           d="m86.5 203.6c-8.6 0-16 6.4-17.3 14.8-.3 2.1-2 3.7-4.1 4-8.7 1.1-15.3 8.6-15.3 17.4 0 9.7 7.9 17.6 17.6 17.6h82.6c11.3 0 20.5-9.2 20.5-20.5s-9.2-20.5-20.5-20.5c-1.8 0-3.6.2-5.4.7-1.7.5-3.5 0-4.7-1.3s-1.6-3.1-1-4.8c.8-2.2 1.1-4.5 1.1-6.8 0-11.3-9.2-20.5-20.5-20.5-10.1 0-18.8 7.5-20.3 17.5-.2 1.4-1.1 2.7-2.3 3.4s-2.8.8-4.1.3c-2-.9-4.1-1.3-6.3-1.3zm63.5 63.3h-82.6c-14.9 0-27-12.1-27-27 0-12.4 8.5-23.1 20.2-26.1 3.3-11.5 13.7-19.5 26-19.5 1.5 0 3.1.1 4.6.4 4.1-11.9 15.5-20.4 28.4-20.4 16.5 0 30 13.5 30 30 0 .9 0 1.8-.1 2.7h.6c16.6 0 30 13.5 30 30-.1 16.4-13.5 29.9-30.1 29.9z" />
        <path
           id="_298825432"
           d="m245.8 295.8c-2.6 0-4.7-2.1-4.7-4.7v-49h-65.8c-2.6 0-4.7-2.1-4.7-4.7s2.1-4.7 4.7-4.7h70.5c2.6 0 4.7 2.1 4.7 4.7v53.7c0 2.6-2.1 4.7-4.7 4.7z" />
        <path
           id="_298825072"
           d="m331.3 242.1h-85.6c-2.6 0-4.7-2.1-4.7-4.7s2.1-4.7 4.7-4.7h85.6c2.6 0 4.7 2.1 4.7 4.7.1 2.6-2 4.7-4.7 4.7z" />
        <path
           id="_298825528"
           d="m136.3 190c-1 0-2.1-.3-2.9-1-2.1-1.6-2.4-4.6-.8-6.7 15.7-19.8 39.9-35.1 68.2-42.9 2.5-.7 5.1.8 5.8 3.3s-.8 5.1-3.3 5.8c-26.3 7.3-48.8 21.4-63.3 39.7-.9 1.2-2.3 1.8-3.7 1.8zm232.6 24.2c-1.9 0-3.8-1.2-4.5-3.1-10.5-28.8-39-52.2-76.2-62.6-2.5-.7-4-3.3-3.3-5.8s3.3-4 5.8-3.3c40.2 11.2 71 36.8 82.6 68.4.9 2.5-.4 5.2-2.8 6.1-.5.2-1 .3-1.6.3z" />
      </g>
      <path
         id="_298825600"
         d="m87.8 289c-4.1 6-5 10.3-4.2 13.1.6 2 2.4 3 4.2 3s3.6-1 4.2-3c.8-2.7-.1-7-4.2-13.1zm-13.3 15.7c-1.7-6 .1-14.9 9.4-26.2 1.8-2.6 5.5-2.8 7.6-.4 5.6 6.7 12.3 17.3 9.7 26.6-1.9 6.6-7.6 9.9-13.3 9.9-5.8 0-11.5-3.3-13.4-9.9z" />
      <path
         id="_298824712"
         d="m132.5 289c-4.1 6-5 10.3-4.2 13.1.6 2 2.4 3 4.2 3s3.6-1 4.2-3c.8-2.7-.1-7-4.2-13.1zm-13.3 15.7c-1.7-6 .1-14.9 9.4-26.2 1.8-2.6 5.5-2.8 7.6-.4 5.6 6.7 12.3 17.3 9.7 26.6-1.9 6.6-7.6 9.9-13.3 9.9-5.8 0-11.5-3.3-13.4-9.9z" />
    </g>
    <path
       style="fill:#000000;fill-opacity:1;stroke-width:3.08252"
       d="m 61.392063,256.85331 c -5.266687,-1.67523 -9.136942,-5.43354 -11.498653,-11.16606 -1.358295,-3.29696 -0.947411,-10.19074 0.814195,-13.66053 2.428508,-4.78336 7.787037,-8.79461 13.08737,-9.79684 2.685028,-0.50772 4.57064,-2.46105 5.168095,-5.35372 1.478114,-7.15649 7.81845,-12.99588 15.223689,-14.02085 1.956003,-0.27074 4.183442,-0.0519 6.826138,0.6704 5.18857,1.41828 7.035385,0.65445 8.175792,-3.38143 2.449971,-8.67047 6.950711,-14.01744 14.089561,-16.73864 12.67742,-4.83241 27.14849,5.44454 27.14849,19.28009 0,2.05114 -0.30912,4.96903 -0.68693,6.48421 -1.39502,5.59455 1.27139,8.08301 7.74214,7.2255 7.65161,-1.01403 14.07381,1.25325 18.89804,6.6717 3.96442,4.45273 5.5268,8.92804 5.19777,14.88864 -0.44762,8.10923 -4.89965,14.55954 -12.48825,18.09358 l -3.01862,1.40578 -46.01222,0.12125 c -37.391437,0.0985 -46.509527,-0.0369 -48.666607,-0.72308 z"
       id="path1" />
    <path
       style="fill:#000000;fill-opacity:1;stroke-width:3.07899"
       d="m 236.10146,163.49797 c -11.26882,-2.425 -21.8002,-9.23896 -28.4108,-18.38223 -9.51451,-13.15972 -11.85888,-28.02647 -6.79151,-43.06802 6.37695,-18.928837 24.71416,-31.953123 44.98754,-31.953123 8.07294,0 13.69678,1.295095 21.25111,4.893839 18.41234,8.771306 29.50127,29.283144 26.33279,48.709294 -1.78399,10.93777 -6.12999,19.33852 -13.93175,26.92977 -7.17311,6.97957 -14.48391,10.9456 -23.76149,12.89033 -5.11438,1.07207 -14.64649,1.06244 -19.67589,-0.0199 z"
       id="path2" />
  </g>
</svg>
