<?xml version="1.0" encoding="UTF-8" standalone="no"?>
<!-- icon666.com - MILLIONS OF FREE VECTOR ICONS -->

<svg
   version="1.1"
   id="Layer_1"
   x="0px"
   y="0px"
   viewBox="0 0 24 24"
   xml:space="preserve"
   sodipodi:docname="shield_check.svg"
   width="24"
   height="24"
   inkscape:version="1.4.2 (f4327f4, 2025-05-13)"
   xmlns:inkscape="http://www.inkscape.org/namespaces/inkscape"
   xmlns:sodipodi="http://sodipodi.sourceforge.net/DTD/sodipodi-0.dtd"
   xmlns="http://www.w3.org/2000/svg"
   xmlns:svg="http://www.w3.org/2000/svg"><defs
     id="defs4" /><sodipodi:namedview
     id="namedview4"
     pagecolor="#ffffff"
     bordercolor="#999999"
     borderopacity="1"
     inkscape:showpageshadow="2"
     inkscape:pageopacity="0"
     inkscape:pagecheckerboard="0"
     inkscape:deskcolor="#d1d1d1"
     inkscape:zoom="17.832175"
     inkscape:cx="2.8039205"
     inkscape:cy="10.739015"
     inkscape:window-width="1920"
     inkscape:window-height="1009"
     inkscape:window-x="-8"
     inkscape:window-y="-8"
     inkscape:window-maximized="1"
     inkscape:current-layer="g2" /><g
     id="g4"
     transform="matrix(0.03710341,0,0,0.03710341,2.5169538,2.3273573)"
     style="stroke:#009678;stroke-width:18.8662;stroke-dasharray:none;stroke-opacity:1"><g
       id="g3"
       style="stroke:#009678;stroke-width:18.8662;stroke-dasharray:none;stroke-opacity:1"><g
         id="g2"
         style="stroke:#009678;stroke-width:18.8662;stroke-dasharray:none;stroke-opacity:1"><path
           d="M 461.88581,66.120408 265.59063,2.1204085 c -2.292,-0.813 -4.792,-0.813 -7.083,0 L 59.006272,66.120408 c -4.271,1.51 -7.125,5.542 -7.125,10.063 V 204.18341 c 0,165.646 42.731362,226.188 205.356358,308.188 1.521,0.76 3.167,1.146 4.812,1.146 1.646,0 3.292,-0.385 4.813,-1.146 162.625,-82 202.15018,-142.542 202.15018,-308.188 V 76.183408 c -0.002,-4.521 -2.857,-8.552 -7.127,-10.063 z m -14.209,138.063002 c 0,158.656 -35.19118,210.01 -185.62918,286.708 -150.437,-76.698 -188.834358,-128.052 -188.834358,-286.708 V 83.735408 l 188.835358,-60.24 185.62918,60.24 V 204.18341 Z"
           id="path1"
           style="fill:#009678;fill-opacity:1;stroke:#009678;stroke-width:18.8662;stroke-dasharray:none;stroke-opacity:1"
           sodipodi:nodetypes="ccccsscscsccccsccccc" /><path
           d="m 169.00111,233.87946 c -4.11404,-4.11403 -10.77824,-4.11403 -14.89128,0 -4.11405,4.11403 -4.11405,10.77824 0,14.89129 l 74.79142,73.82532 c 2.06985,2.04311 4.75182,3.08528 7.44614,3.08528 2.69431,0 5.38863,-1.02875 7.44614,-3.08528 L 379.70857,189.81848 c 4.16179,-4.06572 4.11403,-10.77824 0,-14.89128 -4.11404,-4.11405 -10.77825,-4.11405 -14.8913,0 L 236.34739,300.25865 Z"
           id="path2"
           style="fill:#009678;fill-opacity:1;stroke:#009678;stroke-width:18.6264;stroke-dasharray:none;stroke-opacity:1"
           sodipodi:nodetypes="cccsscscccc" /></g></g></g></svg>
