<?xml version="1.0" encoding="UTF-8" standalone="no"?>

<svg
   version="1.1"
   id="Capa_1"
   x="0px"
   y="0px"
   viewBox="0 0 1050 450"
   xml:space="preserve"
   width="1050"
   height="450"
   xmlns="http://www.w3.org/2000/svg">
    <defs
     id="defs5" />
   <path
     d="M 210.05173,11.116824 H 67.693612 c -58.081637,0 -58.442919,32.71582 -58.442919,40.38242 V 406.84279 c 0,4.97409 4.612278,34.63242 42.317919,34.63242 H 280.0996 c 50.6649,0 58.01147,-34.85364 58.01147,-42.52024 V 124.92901 c 0,-5.52321 -2.7229,-10.67666 -7.22389,-14.72464 L 227.49221,17.215814 c -4.50099,-4.047977 -10.89955,-6.09899 -17.44048,-6.09899 z"
     fill="#d4f582"
     id="path1"
     style="fill:#2196f3;fill-opacity:1;stroke-width:0.914782" /><path
     d="M 242.07499,149.11914 H 101.28677 c -12.95873,0 -23.464382,10.60563 -23.464382,23.68769 v 173.71065 c 0,13.08206 10.505652,23.68769 23.464382,23.68769 h 140.78727 c 12.95874,0 23.46439,-10.60563 23.46439,-23.68769 V 172.80683 c 9.4e-4,-13.08302 -10.50471,-23.68769 -23.46344,-23.68769 z"
     fill="#ffdc64"
     id="path4"
     style="fill:#90caf9;fill-opacity:1;stroke-width:0.951634" /><path
     d="m 265.53937,251.76578 v -15.79179 h -40.54885 c -1.32126,-3.73951 -3.51577,-7.02293 -6.37992,-9.63131 v -77.22449 h -15.64292 v 71.06401 h -15.64293 c -2.71923,0 -5.35985,0.5211 -7.82146,1.42275 v -72.48581 h -15.64292 v 72.47243 c -2.49192,-0.89018 -5.11928,-1.40937 -7.82146,-1.40937 h -7.82146 c -4.3199,0 -7.82147,-3.53489 -7.82147,-7.89589 v -63.16812 h -15.64292 v 63.16812 c 0,13.08205 10.50565,23.68768 23.46439,23.68768 h 7.82146 c 1.96341,0 3.84159,0.74006 5.28597,2.07389 5.75292,5.33341 14.75356,5.39652 20.55005,0.14438 1.41218,-1.28028 3.09145,-2.21922 4.98952,-2.21922 h 16.10418 c 4.31989,0 7.82146,3.53489 7.82146,7.89589 v 31.58358 c 0,4.36101 -3.50157,7.8959 -7.82146,7.8959 h -16.10608 c -1.8848,0 -3.55461,-0.92843 -4.95826,-2.19915 -5.76239,-5.21389 -14.67874,-5.2311 -20.42881,-0.006 -1.40082,1.27264 -3.06968,2.20489 -4.95448,2.20489 h -16.12407 c -4.31989,0 -7.82146,-3.53489 -7.82146,-7.8959 v -15.79179 c 0,-13.08206 -10.50565,-23.68768 -23.46439,-23.68768 H 77.825229 v 15.79179 h 31.285851 c 4.3199,0 7.82147,3.53489 7.82147,7.89589 v 15.79179 H 77.825229 v 15.79179 h 39.107321 c 4.30189,0 7.82146,3.55306 7.82146,7.8959 v 71.06401 h 15.64292 v -71.06401 h 15.64292 c 2.71924,0 5.35986,-0.52111 7.82147,-1.42276 v 72.48581 h 15.64292 v -72.47242 c 2.49192,0.89113 5.11928,1.40937 7.82146,1.40937 h 15.64293 v 71.06401 h 15.64292 v -71.06401 c 0,-4.34284 3.51956,-7.8959 7.82146,-7.8959 h 39.10731 v -15.79179 h -39.10731 v -23.68768 z"
     fill="#e1a546"
     id="path5"
     style="fill:#000000;stroke-width:0.951634" /><path
     d="M 909.5065,12.614814 H 754.88727 c -43.74575,0 -43.69529,37.328518 -43.69529,44.995118 V 399.74585 c 0,7.66744 0.30408,43.22735 48.29149,43.22735 H 991.1561 c 48.5975,0 49.4716,-32.46582 49.4716,-40.13242 V 122.77015 c 0,-5.52321 -2.6029,-10.81947 -7.2365,-14.72464 L 926.9775,18.713804 c -4.6335,-3.90517 -10.9186,-6.09899 -17.471,-6.09899 z"
     fill="#d4f582"
     id="path1-9"
     style="fill:#e1f1fa;fill-opacity:1;stroke-width:0.915582" /><path
     d="M 950.59166,150.82316 H 809.80344 c -12.95874,0 -23.46439,10.60563 -23.46439,23.68769 V 348.2215 c 0,13.08206 10.50565,23.68769 23.46439,23.68769 h 140.78727 c 12.95874,0 23.46439,-10.60563 23.46439,-23.68769 V 174.51085 c 9e-4,-13.08302 -10.50471,-23.68769 -23.46344,-23.68769 z"
     fill="#ffdc64"
     id="path4-5"
     style="fill:#ffffff;stroke-width:0.951634" /><path
     d="m 974.056,253.4698 v -15.79179 h -40.54881 c -1.32126,-3.73951 -3.51577,-7.02293 -6.37992,-9.63131 v -77.22449 h -15.64292 v 71.06401 h -15.64293 c -2.71923,0 -5.35985,0.5211 -7.82146,1.42275 v -72.48581 h -15.64292 v 72.47243 c -2.49192,-0.89018 -5.11928,-1.40937 -7.82146,-1.40937 h -7.82146 c -4.3199,0 -7.82147,-3.53489 -7.82147,-7.89589 v -63.16812 h -15.64292 v 63.16812 c 0,13.08205 10.50565,23.68768 23.46439,23.68768 h 7.82146 c 1.96341,0 3.84159,0.74006 5.28597,2.07389 5.75292,5.33341 14.75356,5.39652 20.55005,0.14438 1.41218,-1.28028 3.09145,-2.21922 4.98952,-2.21922 h 16.10418 c 4.31989,0 7.82146,3.53489 7.82146,7.89589 v 31.58358 c 0,4.36101 -3.50157,7.8959 -7.82146,7.8959 h -16.10608 c -1.8848,0 -3.55461,-0.92843 -4.95826,-2.19915 -5.76239,-5.21389 -14.67874,-5.2311 -20.42881,-0.006 -1.40082,1.27264 -3.06968,2.20489 -4.95448,2.20489 H 848.9136 c -4.31989,0 -7.82146,-3.53489 -7.82146,-7.8959 v -15.79179 c 0,-13.08206 -10.50565,-23.68768 -23.46439,-23.68768 h -31.28586 v 15.79179 h 31.28586 c 4.3199,0 7.82147,3.53489 7.82147,7.89589 v 15.79179 h -39.10733 v 15.79179 h 39.10733 c 4.30189,0 7.82146,3.55306 7.82146,7.8959 v 71.06401 h 15.64292 v -71.06401 h 15.64292 c 2.71924,0 5.35986,-0.52111 7.82147,-1.42276 v 72.48581 h 15.64292 v -72.47242 c 2.49192,0.89113 5.11928,1.40937 7.82146,1.40937 h 15.64293 v 71.06401 h 15.64292 v -71.06401 c 0,-4.34284 3.51956,-7.8959 7.82146,-7.8959 H 974.057 v -15.79179 h -39.10732 v -23.68768 z"
     fill="#e1a546"
     id="path5-2"
     style="fill:#000000;stroke-width:0.951634" /><path
     style="fill:#e1f1fa;fill-opacity:1;stroke-width:3.19953"
     id="path7"
     d="m 438.75521,236.51977 a 20.479084,20.287142 0 0 1 -24.73309,14.92586 20.479084,20.287142 0 0 1 -15.06836,-24.5005 20.479084,20.287142 0 0 1 24.73153,-14.9284 20.479084,20.287142 0 0 1 15.07092,24.49896 l -19.90147,-4.78426 z" /><path
     style="fill:#e1f1fa;fill-opacity:1;stroke-width:3.19953"
     id="path7-9"
     d="m 546.3796,237.07548 a 20.479084,20.287142 0 0 1 -24.73309,14.92586 20.479084,20.287142 0 0 1 -15.06836,-24.5005 20.479084,20.287142 0 0 1 24.73153,-14.9284 20.479084,20.287142 0 0 1 15.07092,24.49896 l -19.90147,-4.78426 z" /><path
     style="fill:#e1f1fa;fill-opacity:1;stroke-width:3.19953"
     id="path7-9-1"
     d="m 646.37954,237.07548 a 20.479084,20.287142 0 0 1 -24.73309,14.92586 20.479084,20.287142 0 0 1 -15.06836,-24.5005 20.479084,20.287142 0 0 1 24.73153,-14.9284 20.479084,20.287142 0 0 1 15.07092,24.49896 l -19.90148,-4.78426 z" /></svg>
