<?xml version="1.0" encoding="UTF-8" standalone="no"?>

<svg
    id="Christmas_C"
    viewBox="0 0 100 100"
    xmlns="http://www.w3.org/2000/svg">
    <path d="m88.986 27.548c-.653-1.175-2.262-1.606-3.416-.913l-7.421 4.29.736-7.788c.228-3.287-4.592-3.754-4.977-.472 0 0-1.071 11.331-1.071 11.331l-3.955 2.287 1.165-9.422c.215-1.445-1.024-2.84-2.482-2.807-1.259 0-2.324.943-2.479 2.193l-1.297 10.488-3.837-2.412c-.152-.316-4.876-2.652-5.258-2.897l8.434-6.367c.534-.402.879-.988.972-1.65.375-2.123-2.31-3.703-3.982-2.341 0 0-7.555 5.704-7.555 5.704l-.003-4.563 9.261-6.581c1.973-1.35.937-4.583-1.449-4.539-.522 0-1.023.161-1.447.463l-6.368 4.525-.005-8.566c0-1.378-1.122-2.499-2.501-2.499s-2.499 1.122-2.499 2.502l.005 8.57-6.378-4.531c-.426-.304-.927-.464-1.448-.464-2.386-.044-3.422 3.19-1.449 4.539 0 0 9.279 6.593 9.279 6.593l.003 4.568-7.578-5.721c-1.674-1.361-4.358.217-3.981 2.342.093.661.436 1.246.97 1.648l8.435 6.367-4.006 2.115c-.354-.026-4.735 2.896-5.141 3.105l-1.297-10.488c-.154-1.25-1.222-2.193-2.482-2.193-1.457-.031-2.693 1.363-2.479 2.807l1.162 9.396-3.954-2.28-1.069-11.312c-.122-1.377-1.357-2.396-2.725-2.252-1.372.13-2.382 1.352-2.252 2.724l.735 7.778-7.424-4.28c-1.154-.694-2.762-.258-3.415.918-.687 1.194-.275 2.726.919 3.414l7.425 4.281-7.115 3.257c-2.416 1.1-1.607 4.782 1.042 4.773.223.396 10.935-4.851 11.389-4.964l3.957 2.282-8.743 3.703c-2.481 1.035-1.715 4.815.976 4.802.186.348 10.282-4.221 10.704-4.319l-.171 4.532c-.196.287.142 5.549.121 6-.459-.113-10.481-4.654-10.708-4.321-2.687-.011-3.454 3.769-.973 4.803 0 0 8.716 3.691 8.716 3.691l-3.951 2.284c-.478-.124-11.124-5.344-11.367-4.956-2.65-.009-3.462 3.672-1.043 4.773 0 0 7.102 3.252 7.102 3.252l-7.417 4.288c-1.191.689-1.602 2.222-.912 3.416.653 1.175 2.263 1.606 3.416.913 0 0 7.42-4.29 7.42-4.29l-.736 7.788c-.228 3.291 4.593 3.749 4.977.472 0 0 1.071-11.33 1.071-11.33l3.956-2.287-1.166 9.42c-.216 1.445 1.023 2.844 2.482 2.809 1.259 0 2.324-.942 2.479-2.192l1.298-10.489 3.838 2.413c.151.314 4.877 2.652 5.257 2.896l-8.434 6.367c-.534.402-.879.988-.972 1.65-.374 2.124 2.308 3.702 3.982 2.341 0 0 7.555-5.704 7.555-5.704l.003 4.563-9.261 6.582c-1.972 1.348-.937 4.582 1.449 4.538.521 0 1.022-.16 1.447-.462l6.368-4.526.005 8.567c0 1.378 1.122 2.499 2.501 2.499s2.499-1.122 2.499-2.502l-.005-8.571 6.379 4.533c.425.302.926.462 1.447.462 2.386.044 3.422-3.189 1.449-4.538 0 0-9.279-6.593-9.279-6.593l-.003-4.568 7.578 5.721c.438.33.958.505 1.505.505 2.348.041 3.414-3.111 1.507-4.495 0 0-8.435-6.367-8.435-6.367l4.006-2.115c.354.025 4.735-2.896 5.141-3.105l1.298 10.489c.154 1.25 1.22 2.192 2.479 2.192 1.459.035 2.699-1.363 2.482-2.808 0 0-1.162-9.395-1.162-9.395l3.955 2.28 1.068 11.309c.383 3.283 5.21 2.814 4.977-.469 0 0-.735-7.778-.735-7.778l7.424 4.28c.379.218.811.333 1.246.333 2.506.041 3.448-3.445 1.249-4.666l-7.424-4.281 7.115-3.257c2.416-1.101 1.608-4.782-1.043-4.772-.22-.398-10.936 4.852-11.388 4.964l-3.957-2.282 8.743-3.702c2.48-1.034 1.715-4.815-.973-4.803-.201-.344-10.277 4.219-10.708 4.32l.171-4.531c.196-.287-.142-5.549-.121-6 .46.112 10.476 4.654 10.704 4.319 2.691.013 3.457-3.767.976-4.802 0 0-8.717-3.691-8.717-3.691l3.951-2.284c.481.125 11.122 5.341 11.37 4.956 2.647.008 3.46-3.673 1.041-4.773 0 0-7.103-3.251-7.103-3.251l7.418-4.289c1.191-.689 1.602-2.222.912-3.416zm-52.598 22.88c.014-.091.022-.182.025-.274l.191-5.078 8.394 4.84-8.446 4.883zm7.179 11.575c-.074-.059-.15-.112-.228-.16l-4.302-2.704 8.388-4.85.006 9.756-3.865-2.042zm-4.447-21.249 3.696-2.324c.089-.034.175-.074.258-.119l4.494-2.373.006 9.69-8.453-4.874zm17.312-2.756c.073.058.148.111.227.16l4.302 2.704-8.387 4.849-.006-9.755 3.865 2.042zm.751 23.572c-.089.034-.175.074-.258.119l-4.494 2.373-.006-9.69 8.453 4.874-3.696 2.324zm6.402-11.723-.191 5.077-8.394-4.84 8.446-4.883.164 4.372c-.014.09-.022.181-.025.273z"
        fill="#c5f3ff"
        style="fill: rgb(229, 241, 246);">
    </path>
</svg>