<?xml version="1.0" encoding="UTF-8" standalone="no"?>
<!-- icon666.com - MILLIONS OF FREE VECTOR ICONS -->

<svg
   id="Layer_1"
   viewBox="0 0 64 64"
   version="1.1"
   sodipodi:docname="special_features.svg"
   inkscape:version="1.4.2 (f4327f4, 2025-05-13)"
   xmlns:inkscape="http://www.inkscape.org/namespaces/inkscape"
   xmlns:sodipodi="http://sodipodi.sourceforge.net/DTD/sodipodi-0.dtd"
   xmlns="http://www.w3.org/2000/svg"
   xmlns:svg="http://www.w3.org/2000/svg">
  <sodipodi:namedview
     id="namedview1"
     pagecolor="#ffffff"
     bordercolor="#000000"
     borderopacity="0.25"
     inkscape:showpageshadow="2"
     inkscape:pageopacity="0.0"
     inkscape:pagecheckerboard="0"
     inkscape:deskcolor="#d1d1d1"
     showguides="true"
     inkscape:zoom="11.313709"
     inkscape:cx="31.510446"
     inkscape:cy="42.382213"
     inkscape:window-width="1920"
     inkscape:window-height="1009"
     inkscape:window-x="-8"
     inkscape:window-y="-8"
     inkscape:window-maximized="1"
     inkscape:current-layer="g2" />
  <defs
     id="defs2" />
  <g
     fill="#9b9b9b"
     id="g2"
     style="fill:#000000">
    <path
       d="m 32,4.1781443 c 3.27,0 6,2.73 6,5.9999997 0,3.27 -2.73,6 -6,6 -3.27,0 -6,-2.73 -6,-6 0,-3.2699997 2.73,-5.9999997 6,-5.9999997 z"
       id="path1"
       style="fill:#000000" />
    <path
       d="m 52.823131,16.957616 c 3.848842,-0.404118 4.421326,5.534062 0.58101,6.012469 l -14.343362,1.856681 v 31.54985 c 0,3.87 -5.975545,3.87 -5.985545,0.01 v -0.01 -13.457408 c 0,-1.292818 -2.460497,-1.303652 -2.460497,0 v 13.457408 0.01 c -0.01,3.86 -6.09238,3.859924 -6.068061,-0.01 L 24.744941,24.826766 11.206969,23.104042 C 7.3679255,22.615519 7.9131559,16.621684 11.762111,17.024736 L 32,19.14399 Z"
       id="path2"
       style="fill:#000000"
       sodipodi:nodetypes="sscsccssccscsscs" />
  </g>
</svg>
