<?xml version="1.0" encoding="UTF-8" standalone="no"?>
<!-- icon666.com - MILLIONS OF FREE VECTOR ICONS -->

<svg
   id="Layer_1"
   viewBox="0 0 64 64"
   data-name="Layer 1"
   version="1.1"
   sodipodi:docname="flower_zvk2saw8zudp.svg"
   inkscape:version="1.4.2 (f4327f4, 2025-05-13)"
   xmlns:inkscape="http://www.inkscape.org/namespaces/inkscape"
   xmlns:sodipodi="http://sodipodi.sourceforge.net/DTD/sodipodi-0.dtd"
   xmlns="http://www.w3.org/2000/svg"
   xmlns:svg="http://www.w3.org/2000/svg">
  <defs
     id="defs38" />
  <sodipodi:namedview
     id="namedview38"
     pagecolor="#ffffff"
     bordercolor="#000000"
     borderopacity="0.25"
     inkscape:showpageshadow="2"
     inkscape:pageopacity="0.0"
     inkscape:pagecheckerboard="0"
     inkscape:deskcolor="#d1d1d1"
     inkscape:zoom="3.1523438"
     inkscape:cx="28.391574"
     inkscape:cy="52.183395"
     inkscape:window-width="1920"
     inkscape:window-height="1009"
     inkscape:window-x="-8"
     inkscape:window-y="-8"
     inkscape:window-maximized="1"
     inkscape:current-layer="g37" />
  <path
     d="m 18.458488,7.7011388 c 0,1.66 -1.34,8.0000002 -3,8.0000002 -1.66,0 -3,-6.3400002 -3,-8.0000002 0,-1.66 1.34,-3 3,-3 1.66,0 3,1.34 3,3 z"
     fill="#e7cee3"
     id="path1"
     style="fill:#c386b9;fill-opacity:1" />
  <path
     d="m 13.458488,8.7011388 c 0,1.24 0.75,5.1000002 1.83,6.9700002 -1.58,-0.41 -2.83,-6.3700002 -2.83,-7.9700002 0,-1.6 1.34,-3 3,-3 1.09,0 2.04,0.57 2.56,1.44 -0.45,-0.28 -0.99,-0.44 -1.56,-0.44 -1.66,0 -3,1.34 -3,3 z"
     fill="#ecd8e9"
     id="path2"
     style="fill:#e2c5df;fill-opacity:1" />
  <path
     d="m 36.82404,56 c 0,0 -0.04,0 -0.06,0 -0.55,-0.03 -0.97,-0.51 -0.94,-1.06 1.01,-17.17 9.58,-26.36 9.94,-26.74 0.38,-0.4 1.01,-0.41 1.41,-0.04 0.4,0.38 0.42,1.01 0.04,1.41 -0.08,0.09 -8.43,9.08 -9.39,25.48 -0.03,0.53 -0.47,0.94 -1,0.94 z"
     fill="#cad17c"
     id="path3" />
  <path
     d="m 31,54.665428 c -0.55,0 -1,-0.45 -1,-1 C 30,28.645428 14.71,18.97 14.55,18.89 14.06,18.64 13.86,18.04 14.11,17.55 14.36,17.06 14.96,16.86 15.45,17.1 16.13,17.44 32,27.345428 32,53.655428 c 0,0.55 -0.45,1 -1,1 z"
     fill="#cad17c"
     id="path4"
     sodipodi:nodetypes="cscscscc" />
  <path
     d="m 25.468488,17.461139 c -1.51,0.51 -7.7,1.19 -8.19,-0.38 -0.49,-1.57 4.9,-4.81 6.41,-5.33 1.51,-0.52 3.13,0.35 3.63,1.93 0.5,1.58 -0.34,3.27 -1.85,3.78 z"
     fill="#e7cee3"
     id="path5"
     style="fill:#c386b9;fill-opacity:1" />
  <path
     style="fill:#43a838;stroke-width:0.124941"
     d="M 1.3807368,62.674313 H 60.346848 c 0.365018,0 0.656836,-0.299169 0.649228,-0.665434 -0.05387,-2.608664 -0.03953,-12.171471 2.912177,-15.783543 0.08256,-0.101015 -0.0192,-0.246347 -0.142041,-0.203035 -1.405957,0.49557 -5.597017,2.200965 -6.640068,5.230595 -0.04151,0.120671 -0.21313,0.114537 -0.246052,-0.0088 l -1.626559,-6.085673 c -0.03093,-0.115913 -0.188689,-0.131182 -0.241063,-0.02328 l -1.817494,3.738375 c -0.04314,0.08888 -0.16561,0.09851 -0.222103,0.01752 l -3.466379,-4.970282 c -0.06523,-0.09363 -0.210507,-0.06296 -0.232708,0.04906 l -1.608356,8.112519 c -0.02694,0.135816 -0.218738,0.140573 -0.252159,0.0062 L 44.510824,40.463114 c -0.0323,-0.129306 -0.214502,-0.131558 -0.250041,-0.0031 l -2.441529,8.822266 c -0.03245,0.117165 -0.193298,0.129182 -0.242681,0.01816 l -2.821394,-6.348418 c -0.04889,-0.109905 -0.207635,-0.09965 -0.241933,0.01565 l -2.262701,7.595669 c -0.0378,0.127055 -0.218734,0.122046 -0.249536,-0.0069 L 34.66763,44.978876 c -0.0292,-0.121922 -0.196665,-0.135566 -0.244923,-0.01991 l -3.693723,8.841167 c -0.04426,0.105905 -0.193674,0.106154 -0.238315,3.81e-4 L 25.547747,42.082429 c -0.05725,-0.135815 -0.260019,-0.08663 -0.247923,0.06033 0.185066,2.259923 0.453066,8.473526 -1.845174,11.3204 -0.0641,0.07937 -0.189183,0.06009 -0.223724,-0.03592 l -2.429561,-6.750106 c -0.04262,-0.118416 -0.211377,-0.112658 -0.245924,0.0084 l -2.023881,7.10598 c -0.03152,0.110657 -0.17983,0.129181 -0.236446,0.02915 -0.728171,-1.28956 -3.743733,-7.091835 -2.239379,-12.304781 0,0 -3.942765,5.198174 -4.07695,9.02768 -0.0051,0.141072 -0.200031,0.171864 -0.249665,0.0398 L 10.096819,46.239094 C 10.05281,46.121804 9.885065,46.12919 9.8513935,46.24986 L 7.864423,53.363075 C 7.826124,53.500148 7.6269785,53.484626 7.6115155,53.343055 7.3935263,51.350505 6.2530717,45.754395 0.28867267,41.722983 0.18740945,41.654503 0.05709006,41.754153 0.09449884,41.870815 0.67214431,43.6756 3.0667856,52.127971 0.75046323,61.870657 c -0.0976466,0.409825 0.21050706,0.803629 0.63027357,0.803629 z"
     id="path1-9" />
  <g
     id="g4"
     transform="matrix(0.12517582,0,0,0.12517582,-0.15171395,20.752638)">
    <path
       style="fill:#338727"
       d="m 488.402,339.8 c 0.063,2.916 -2.281,5.312 -5.197,5.312 H 10.365 c -3.364,0 -5.832,-3.145 -5.051,-6.416 2.104,-8.811 3.718,-17.497 4.926,-25.985 0.042,0.01 0.083,0.01 0.125,0.01 h 472.84 c 2.916,0 4.921,-0.156 4.921,-0.156 0.001,7.245 0.08,17.611 0.276,27.235 z"
       id="path2-4" />
    <circle
       style="fill:#338727"
       cx="96.578003"
       cy="288.51801"
       r="8.8999996"
       id="circle2" />
    <circle
       style="fill:#338727"
       cx="121.458"
       cy="313.39801"
       r="8.8999996"
       id="circle3" />
    <circle
       style="fill:#338727"
       cx="418.478"
       cy="275.578"
       r="8.8999996"
       id="circle4" />
  </g>
  <path
     d="m 27.008488,13.011139 c -0.68,-0.41 -1.52,-0.53 -2.32,-0.25 -1.42,0.48 -6.28,3.39 -6.44,5.03 -0.51,-0.15 -0.87,-0.38 -0.97,-0.71 -0.49,-1.57 4.9,-4.81 6.41,-5.32 1.28,-0.44 2.64,0.11 3.32,1.25 z"
     fill="#ecd8e9"
     id="path6"
     style="fill:#e2c5df;fill-opacity:1" />
  <path
     d="m 7.0384882,23.981139 c 0.99,-1.33 5.8699998,-5.63 7.2299998,-4.66 1.36,0.96 -1.32,6.83 -2.31,8.16 -0.99,1.33 -2.8899998,1.62 -4.2499998,0.66 -1.36,-0.96 -1.66,-2.82 -0.67,-4.15 z"
     fill="#e7cee3"
     id="path7"
     style="fill:#c386b9;fill-opacity:1" />
  <path
     d="m 18.958488,27.471139 c -0.99,-1.33 -3.67,-7.19 -2.31,-8.16 1.36,-0.97 6.24,3.34 7.23,4.66 0.99,1.32 0.69,3.19 -0.67,4.15 -1.36,0.96 -3.26,0.67 -4.25,-0.66 z"
     fill="#e7cee3"
     id="path8"
     style="fill:#c386b9;fill-opacity:1" />
  <path
     d="m 14.638488,20.191139 c -1.85,0.15 -5.7299998,3.62 -6.5999998,4.79 -0.74,0.99 -0.75,2.27 -0.15,3.26 -0.06,-0.03 -0.12,-0.07 -0.18,-0.11 -1.35,-0.96 -1.66,-2.82 -0.67,-4.15 0.99,-1.33 5.8699998,-5.63 7.2299998,-4.66 0.24,0.17 0.35,0.47 0.37,0.87 z"
     fill="#ecd8e9"
     id="path9"
     style="fill:#e2c5df;fill-opacity:1" />
  <circle
     cx="15.458488"
     cy="17.701139"
     fill="#fbf1d6"
     r="3"
     id="circle19" />
  <path
     d="m 7.2284882,11.761139 c 1.51,0.51 6.8999998,3.75 6.4099998,5.33 -0.49,1.58 -6.6799998,0.89 -8.1899998,0.38 -1.51,-0.51 -2.34,-2.2 -1.85,-3.78 0.49,-1.58 2.11,-2.44 3.63,-1.93 z"
     fill="#e7cee3"
     id="path20"
     style="fill:#c386b9;fill-opacity:1" />
  <path
     d="m 18.018488,16.141139 c -0.45,-0.28 -0.99,-0.44 -1.56,-0.44 -1.66,0 -3,1.34 -3,3 0,0.57 0.16,1.11 0.44,1.56 -0.87,-0.52 -1.44,-1.47 -1.44,-2.56 0,-1.66 1.34,-3 3,-3 1.09,0 2.04,0.57 2.56,1.44 z"
     fill="#fcf4de"
     id="path21" />
  <path
     d="m 13.148488,15.781139 c -1.59,-1.36 -3.9899998,-2.7 -4.9199998,-3.02 -1.51,-0.52 -3.14,0.35 -3.63,1.92 -0.27,0.88 -0.13,1.8 0.32,2.53 -1.17,-0.68 -1.75,-2.15 -1.32,-3.53 0.49,-1.57 2.12,-2.44 3.63,-1.92 1.16,0.39 4.5999998,2.4 5.9199998,4.02 z"
     fill="#ecd8e9"
     id="path22"
     style="fill:#e2c5df;fill-opacity:1" />
  <path
     d="m 59.41329,24.461139 c -1.51,0.51 -7.7,1.19 -8.19,-0.38 -0.49,-1.57 4.9,-4.81 6.41,-5.33 1.51,-0.52 3.13,0.35 3.63,1.93 0.5,1.58 -0.34,3.27 -1.85,3.78 z"
     fill="#b3dbdb"
     id="path23"
     style="fill:#79c0c0;fill-opacity:1" />
  <path
     d="m 60.95329,20.011139 c -0.68,-0.41 -1.52,-0.53 -2.32,-0.25 -1.42,0.48 -6.28,3.39 -6.44,5.03 -0.51,-0.15 -0.87,-0.38 -0.97,-0.71 -0.49,-1.57 4.9,-4.81 6.41,-5.32 1.28,-0.44 2.64,0.11 3.32,1.25 z"
     fill="#c2e2e2"
     id="path24" />
  <path
     d="m 40.98329,30.981139 c 0.99,-1.33 5.87,-5.63 7.23,-4.66 1.36,0.96 -1.32,6.83 -2.31,8.16 -0.99,1.33 -2.89,1.62 -4.25,0.66 -1.36,-0.96 -1.66,-2.82 -0.67,-4.15 z"
     fill="#b3dbdb"
     id="path25"
     style="fill:#79c0c0;fill-opacity:1" />
  <path
     d="m 52.90329,34.471139 c -0.99,-1.33 -3.67,-7.19 -2.31,-8.16 1.36,-0.97 6.24,3.34 7.23,4.66 0.99,1.32 0.69,3.19 -0.67,4.15 -1.36,0.96 -3.26,0.67 -4.25,-0.66 z"
     fill="#b3dbdb"
     id="path26"
     style="fill:#79c0c0;fill-opacity:1" />
  <path
     d="m 48.58329,27.191139 c -1.85,0.15 -5.73,3.62 -6.6,4.79 -0.74,0.99 -0.75,2.27 -0.15,3.26 -0.06,-0.03 -0.12,-0.07 -0.18,-0.11 -1.35,-0.96 -1.66,-2.82 -0.67,-4.15 0.99,-1.33 5.87,-5.63 7.23,-4.66 0.24,0.17 0.35,0.47 0.37,0.87 z"
     fill="#c2e2e2"
     id="path27" />
  <path
     d="m 52.40329,14.701139 c 0,1.66 -1.34,8 -3,8 -1.66,0 -3,-6.34 -3,-8 0,-1.66 1.34,-3 3,-3 1.66,0 3,1.34 3,3 z"
     fill="#b3dbdb"
     id="path28"
     style="fill:#79c0c0;fill-opacity:1" />
  <path
     d="m 41.17329,18.761139 c 1.51,0.51 6.9,3.75 6.41,5.33 -0.49,1.58 -6.68,0.89 -8.19,0.38 -1.51,-0.51 -2.34,-2.2 -1.85,-3.78 0.49,-1.58 2.11,-2.44 3.63,-1.93 z"
     fill="#b3dbdb"
     id="path29"
     style="fill:#79c0c0;fill-opacity:1" />
  <path
     d="m 47.40329,15.701139 c 0,1.24 0.75,5.1 1.83,6.97 -1.58,-0.41 -2.83,-6.37 -2.83,-7.97 0,-1.6 1.34,-3 3,-3 1.09,0 2.04,0.57 2.56,1.44 -0.45,-0.28 -0.99,-0.44 -1.56,-0.44 -1.66,0 -3,1.34 -3,3 z"
     fill="#c2e2e2"
     id="path30" />
  <path
     d="m 47.09329,22.781139 c -1.59,-1.36 -3.99,-2.7 -4.92,-3.02 -1.51,-0.52 -3.14,0.35 -3.63,1.92 -0.27,0.88 -0.13,1.8 0.32,2.53 -1.17,-0.68 -1.75,-2.15 -1.32,-3.53 0.49,-1.57 2.12,-2.44 3.63,-1.92 1.16,0.39 4.6,2.4 5.92,4.02 z"
     fill="#c2e2e2"
     id="path31" />
  <g
     fill="#e6dcd2"
     id="g37"
     transform="translate(1.2688971,3.4768274)">
    <path
       d="m 12.11,34.74 c 0,0 -2.21,-4.48 -5.73,-2.75 0,0 1.34,4.92 5.73,2.75 z"
       id="path32" />
    <path
       d="m 12.11,34.74 c 0,0 -2.21,-4.48 1.3,-6.22 0,0 3.09,4.05 -1.3,6.22 z"
       id="path33" />
    <path
       d="m 29.722934,20.740779 c 0,0 0.94,-4.91 -2.91,-5.65 0,0 -1.91,4.73 2.91,5.65 z"
       id="path34" />
    <path
       d="m 29.722934,20.740779 c 0,0 0.94,-4.91 4.79,-4.17 0,0 0.02,5.1 -4.79,4.17 z"
       id="path35" />
    <path
       d="m 51.73,39.4 c 0,0 3.34,-3.72 0.43,-6.34 0,0 -4.07,3.06 -0.43,6.34 z"
       id="path36" />
    <path
       d="m 51.73,39.4 c 0,0 3.34,-3.72 6.26,-1.1 0,0 -2.61,4.37 -6.26,1.1 z"
       id="path37" />
  </g>
  <circle
     cx="49.40329"
     cy="24.701139"
     fill="#fad4af"
     r="3"
     id="circle37" />
  <path
     d="m 51.96329,23.141139 c -0.45,-0.28 -0.99,-0.44 -1.56,-0.44 -1.66,0 -3,1.34 -3,3 0,0.57 0.16,1.11 0.44,1.56 -0.87,-0.52 -1.44,-1.47 -1.44,-2.56 0,-1.66 1.34,-3 3,-3 1.09,0 2.04,0.57 2.56,1.44 z"
     fill="#fbddbf"
     id="path38" />
</svg>
