<?xml version="1.0" encoding="UTF-8" standalone="no"?>
<!-- icon666.com - MILLIONS OF FREE VECTOR ICONS -->

<svg
   id="Capa_1"
   enable-background="new 0 0 512.423 512.423"
   viewBox="0 0 24.000001 24.000001"
   version="1.1"
   sodipodi:docname="starburst.svg"
   xml:space="preserve"
   inkscape:version="1.4.2 (f4327f4, 2025-05-13)"
   width="24"
   height="24"
   xmlns:inkscape="http://www.inkscape.org/namespaces/inkscape"
   xmlns:sodipodi="http://sodipodi.sourceforge.net/DTD/sodipodi-0.dtd"
   xmlns="http://www.w3.org/2000/svg"
   xmlns:svg="http://www.w3.org/2000/svg"><defs
     id="defs8"><inkscape:path-effect
       effect="join_type"
       id="path-effect8"
       is_visible="true"
       lpeversion="1"
       linecap_type="round"
       line_width="5.4428158"
       linejoin_type="round"
       miter_limit="100"
       attempt_force_join="true" /></defs><sodipodi:namedview
     id="namedview8"
     pagecolor="#ffffff"
     bordercolor="#000000"
     borderopacity="0.25"
     inkscape:showpageshadow="2"
     inkscape:pageopacity="0.0"
     inkscape:pagecheckerboard="0"
     inkscape:deskcolor="#d1d1d1"
     inkscape:zoom="17.81763"
     inkscape:cx="11.898327"
     inkscape:cy="5.6966049"
     inkscape:window-width="1920"
     inkscape:window-height="1009"
     inkscape:window-x="-8"
     inkscape:window-y="-8"
     inkscape:window-maximized="1"
     inkscape:current-layer="Capa_1" /><path
     sodipodi:type="star"
     style="fill:#000000;fill-opacity:1;fill-rule:evenodd;stroke:#000000;stroke-width:4.53543;stroke-linecap:round;stroke-linejoin:round;stroke-miterlimit:16.1;paint-order:stroke fill markers"
     id="path10"
     inkscape:flatsided="false"
     sodipodi:sides="13"
     sodipodi:cx="718.38959"
     sodipodi:cy="-472.34116"
     sodipodi:r1="316.74323"
     sodipodi:r2="386.27222"
     sodipodi:arg1="0.52359878"
     sodipodi:arg2="0.76525975"
     inkscape:rounded="0.14"
     inkscape:randomized="0"
     d="m 992.69727,-313.96954 c -7.65045,13.25096 14.87213,98.17351 4.27279,109.20856 -10.59931,11.03504 -96.35988,-8.04975 -109.29204,0.12806 -12.93217,8.1778 -32.45493,93.83973 -46.96839,98.68504 -14.51345,4.8453 -81.58152,-51.90836 -96.8328,-50.67715 -15.25128,1.23121 -72.34691,68.008403 -87.44966,65.553967 -15.10276,-2.454436 -48.11384,-83.875397 -62.19035,-89.872837 -14.07651,-5.99744 -95.66509,26.59717 -107.89728,17.40527 -12.23219,-9.19189 -3.62385,-96.62759 -13.30083,-108.47974 -9.67698,-11.85215 -97.06754,-20.90716 -103.62692,-34.73076 -6.55939,-13.8236 41.69632,-87.24357 38.63575,-102.23524 -3.06058,-14.99168 -76.23301,-63.62191 -75.6169,-78.9104 0.6161,-15.28849 77.46437,-57.8731 81.72134,-72.56988 4.25698,-14.69679 -37.93439,-91.76165 -30.28394,-105.01261 7.65044,-13.25097 95.48626,-15.2446 106.08556,-26.27964 10.5993,-11.03505 9.05452,-98.8799 21.98669,-107.0577 12.93216,-8.17781 91.6334,30.87626 106.14686,26.03095 14.51345,-4.8453 53.96916,-83.34595 69.22044,-84.57716 15.25128,-1.23121 66.78843,69.92373 81.89119,72.37817 15.10275,2.45444 86.52011,-48.71846 100.59662,-42.72101 14.07651,5.99744 26.64304,92.95252 38.87523,102.14442 12.23219,9.19189 99.25037,-2.93015 108.92737,8.922 9.6769,11.85215 -19.60599,94.68701 -13.0466,108.51061 6.5594,13.8236 89.2435,43.52942 92.3041,58.5211 3.0606,14.99167 -61.3635,74.72984 -61.9796,90.01833 -0.6161,15.28849 58.7921,80.01692 54.5351,94.71371 -4.2569,14.69679 -89.0633,37.65297 -96.71373,50.90394 z"
     inkscape:transform-center-x="-0.20470904"
     inkscape:transform-center-y="-0.023199367"
     transform="matrix(0.03092925,0.00211262,-0.00211262,0.03092925,-11.197877,25.220359)" /></svg>
