<?xml version="1.0" encoding="UTF-8" standalone="no"?>
<svg
   width="64"
   height="64"
   version="1.1"
   viewBox="0 0 64 64"
   id="svg1"
   sodipodi:docname="status_add.svg"
   inkscape:version="1.4 (86a8ad7, 2024-10-11)"
   xmlns:inkscape="http://www.inkscape.org/namespaces/inkscape"
   xmlns:sodipodi="http://sodipodi.sourceforge.net/DTD/sodipodi-0.dtd"
   xmlns="http://www.w3.org/2000/svg"
   xmlns:svg="http://www.w3.org/2000/svg">
  <defs
     id="defs1" />
  <sodipodi:namedview
     id="namedview1"
     pagecolor="#ffffff"
     bordercolor="#000000"
     borderopacity="0.25"
     inkscape:showpageshadow="2"
     inkscape:pageopacity="0.0"
     inkscape:pagecheckerboard="0"
     inkscape:deskcolor="#d1d1d1"
     showguides="true"
     inkscape:zoom="3.1523438"
     inkscape:cx="55.831474"
     inkscape:cy="-0.15861214"
     inkscape:window-width="1920"
     inkscape:window-height="1009"
     inkscape:window-x="-8"
     inkscape:window-y="-8"
     inkscape:window-maximized="1"
     inkscape:current-layer="svg1" />
  <ellipse
     cx="32.134605"
     cy="31.153816"
     rx="12.854185"
     ry="12.931931"
     fill="none"
     stroke="#000000"
     stroke-width="4.80133"
     id="ellipse1"
     style="stroke-width:3.5;stroke-dasharray:none" />
  <path
     id="path1-5"
     style="fill:none;stroke:#000000;stroke-width:3.5;stroke-dasharray:none"
     d="m 7.3936347,30.703067 c 0.3334719,-3.905517 1.2638711,-7.13599 3.0547273,-10.426313 1.379777,-2.535051 4.207457,-5.626512 7.254321,-7.711305 2.690206,-1.840752 4.088833,-2.489232 5.461992,-2.9737166 2.111049,-0.74483 4.977465,-1.4509703 9.09824,-2.0382621 M 42.593389,54.63009 C 35.598907,57.843941 26.825124,57.849245 20.106643,53.970328 13.21828,49.99333 9.8262841,45.295132 8.1133206,38.316732 M 52.756074,21.231565 c 1.989685,3.065265 2.887405,5.132043 3.280453,6.441231 0.549439,1.830105 0.756844,3.400002 0.687698,6.479284 -0.05869,2.613843 -0.805686,4.959569 -1.372277,6.647394 -0.749722,2.233357 -3.562378,6.414547 -5.744734,8.532095"
     sodipodi:nodetypes="csssccsccsssc" />
  <rect
     style="fill:#000000;fill-opacity:1;fill-rule:evenodd;stroke:#000000;stroke-width:1.5;stroke-dasharray:none;stroke-opacity:1"
     id="rect1"
     width="2.0489571"
     height="16.459948"
     x="45.748363"
     y="1.3817881"
     rx="0.85373175"
     ry="0.99715883" />
  <rect
     style="fill:#000000;fill-opacity:1;fill-rule:evenodd;stroke:#000000;stroke-width:1.5;stroke-dasharray:none;stroke-opacity:1"
     id="rect1-8"
     width="2.0489571"
     height="16.459948"
     x="-10.4655"
     y="38.414806"
     rx="0.85373175"
     ry="0.99715883"
     transform="rotate(-90)" />
</svg>
