<?xml version="1.0" encoding="UTF-8" standalone="no"?>
<!-- icon666.com - MILLIONS OF FREE VECTOR ICONS -->

<svg
   version="1.1"
   id="Layer_1"
   x="0px"
   y="0px"
   viewBox="0 0 335 335"
   style="enable-background:new 0 0 335 335;"
   xml:space="preserve"
   sodipodi:docname="strikethrough.svg"
   inkscape:version="1.4.2 (f4327f4, 2025-05-13)"
   xmlns:inkscape="http://www.inkscape.org/namespaces/inkscape"
   xmlns:sodipodi="http://sodipodi.sourceforge.net/DTD/sodipodi-0.dtd"
   xmlns="http://www.w3.org/2000/svg"
   xmlns:svg="http://www.w3.org/2000/svg"><defs
     id="defs1" /><sodipodi:namedview
     id="namedview1"
     pagecolor="#ffffff"
     bordercolor="#999999"
     borderopacity="1"
     inkscape:showpageshadow="2"
     inkscape:pageopacity="0"
     inkscape:pagecheckerboard="0"
     inkscape:deskcolor="#d1d1d1"
     showguides="true"
     inkscape:zoom="1.4142136"
     inkscape:cx="117.37973"
     inkscape:cy="165.81654"
     inkscape:window-width="1920"
     inkscape:window-height="1009"
     inkscape:window-x="-8"
     inkscape:window-y="-8"
     inkscape:window-maximized="1"
     inkscape:current-layer="Layer_1" /><path
     id="path1"
     d="M 167.5,15 C 100.436,15 55.376953,48.668344 55.376953,98.777344 c 0,16.114326 3.888305,30.131806 11.599609,41.517026 41.643118,0.15359 8.77418,-0.0101 49.285158,0.0473 C 96.474764,132.74434 85.378906,121.18946 85.378906,98.777344 85.377906,59.084344 129.616,45 167.5,45 c 40.518,0 70.98,14.601469 79.5,38.105469 l 28.20312,-10.222657 c -6.79199,-18.739999 -21.2617,-33.997999 -41.8457,-44.125 C 215.05942,19.757813 192.286,15 167.5,15 Z M 0,152.49983 v 30 h 166.39258 c 51.633,8.48 83.23047,15.87566 83.23047,53.72266 C 249.62305,275.91566 205.384,290 167.5,290 126.969,290 96.503141,275.39105 87.994141,251.87305 l -28.210938,10.20898 c 6.785,18.75 21.25475,34.01839 41.843747,44.15039 C 119.92695,315.23942 142.706,320 167.5,320 c 67.064,0 112.12305,-33.66834 112.12305,-83.77734 0,-22.515 -7.58422,-40.50866 -22.57422,-53.72266 H 335 v -30 z"
     sodipodi:nodetypes="sscccscccscccsscccsscccc" /></svg>
