<?xml version="1.0" encoding="UTF-8" standalone="no"?>

<svg
   viewBox="0 0 610 512"
   version="1.1"
   id="svg12"
   width="610"
   height="512"
   xml:space="preserve"
   xmlns="http://www.w3.org/2000/svg">
    <defs id="defs12" />
    <g id="Layer_1">
    <path
       d="M 121.161,504.929 H 67.518 c -6.124676,0 -11.089552,-4.96532 -11.089,-11.09 v -19.3 h 75.821 v 19.3 c 0,6.12445 -4.96455,11.08945 -11.089,11.09 z m 364.30971,-0.20005 h -53.643 c -6.12468,0 -11.08955,-3.53216 -11.089,-9.65684 v -20.51268 h 75.821 v 20.51268 c 0,6.12445 -4.96455,9.65629 -11.089,9.65684 z"
       fill="#68544f"
       style="fill:#f96533;fill-opacity:1"
       id="path1"
       />
    <path
       d="M 486.67649,466.921 H 60.525 c -15.116892,0 -46.982,-13.27464 -46.982,-66.982 V 66.99 c 0,-54.805724 45.570485,-56.982207 66.982,-56.983 h 398.15149 c 18.35402,-1.064051 64.982,-2.4571619 64.982,56.983 v 344.949 c 0,36.95039 -33.96165,54.982 -56.982,54.982 z"
       fill="#6cf"
       style="fill:#f96533;fill-opacity:1"
       id="path3" />
    <path
       d="M 493.9063,64.912 H 73.778483 C 57.234522,64.912 58.4,75.878883 58.4,79.518781 V 103.112 c -9.120171,0.25155 -16.386698,7.71037 -16.4,16.834 v 65.733 c 0.01383,9.12342 7.280056,16.58193 16.4,16.834 V 264.1 c -9.120104,0.2526 -16.386188,7.71141 -16.4,16.835 v 65.732 c 0.01437,9.12303 7.280444,16.58095 16.4,16.833 v 33.57877 c 0,8.54321 6.953739,15.02923 15.341048,15.02923 H 490.57807 c 6.64263,0 18.4592,-2.58833 18.4592,-16.12058 V 81.14999 c 0,-9.825338 -4.71687,-16.23799 -15.13097,-16.23799 z M 52,187.679 v -69.733 c 0.0022,-1.5768 1.280198,-2.85435 2.857,-2.856 h 18 c 1.57703,10e-4 2.855346,1.27897 2.857,2.856 v 69.733 c -0.0017,1.57719 -1.279808,2.85535 -2.857,2.857 h -18 C 53.280036,190.534 52.002203,189.25596 52,187.679 Z m 0,160.988 v -69.732 c 0.0017,-1.57735 1.279646,-2.8558 2.857,-2.858 h 18 c 1.577582,0.002 2.855898,1.28042 2.857,2.858 v 69.732 c -0.0017,1.57719 -1.279808,2.85535 -2.857,2.857 h -18 C 53.280036,351.522 52.002203,350.24396 52,348.667 Z m 447.03727,53.442 H 68.4 v -38.663 c 8.66824,-0.80581 17.30085,-8.0734 17.313,-16.779 V 280.935 C 85.7009,272.2292 77.06839,264.9613 68.4,264.155 v -61.7 c 8.66824,-0.80581 17.30085,-8.0734 17.313,-16.779 v -65.73 C 85.7008,111.2406 75.06808,103.97332 66.4,103.168 V 74.912 H 499.03727 M 208,321.18982 c 19.92992,0 36.73354,-7.04953 50.51262,-17.5078 10.58926,-8.0372 24.07227,-23.75175 27.95214,-38.65675 12.01173,-46.14458 -6.92241,-70.18637 -21.82087,-87.20887 -5.5392,-6.32892 -17.20175,-12.61103 -23.70194,-15.32103 -21.94232,-9.14799 -38.94877,-10.37622 -64.30696,-0.41835 -32.80647,12.88272 -51.13255,41.18787 -51.13215,76.43398 0.0546,48.10497 34.39219,82.62481 82.49716,82.67882 z M 147.225,231.511 H 135.2 c 1.38444,-14.51421 7.09419,-28.27859 16.39,-39.511 l 8.485,8.485 c 2.73381,2.73381 7.16619,2.73381 9.9,0 2.73381,-2.73381 2.73381,-7.16619 0,-9.9 L 161.49,182.1 c 11.23235,-9.2951 24.99629,-15.00447 39.51,-16.389 v 12.024 c 0,3.866 3.13401,7 7,7 3.86599,0 7,-3.134 7,-7 v -12.024 c 14.51382,1.38482 28.27777,7.09454 39.51,16.39 l -8.486,8.485 c -2.73381,2.73381 -2.73381,7.16619 0,9.9 2.73381,2.73381 7.16619,2.73381 9.9,0 L 264.41,192 c 9.29562,11.23214 15.00536,24.99614 16.39,39.51 h -12.025 c -3.866,0 -7,3.13401 -7,7 0,3.86599 3.134,7 7,7 H 280.8 c -1.38483,14.51352 -7.09456,28.27714 -16.39,39.509 l -8.485,-8.485 c -2.73381,-2.73381 -7.16619,-2.73381 -9.9,0 -2.73381,2.73381 -2.73381,7.16619 0,9.9 l 8.486,8.485 c -11.23227,9.29637 -24.99661,15.00681 -39.511,16.392 v -12.025 c 0,-3.866 -3.13401,-7 -7,-7 -3.86599,0 -7,3.134 -7,7 v 12.025 c -14.51382,-1.38482 -28.27777,-7.09454 -39.51,-16.39 l 8.486,-8.485 c 2.73381,-2.73381 2.73381,-7.16619 0,-9.9 -2.73381,-2.73381 -7.16619,-2.73381 -9.9,0 l -8.485,8.485 c -9.29544,-11.23186 -15.00517,-24.99548 -16.39,-39.509 h 12.025 c 3.866,0 7,-3.13401 7,-7 0,-3.86599 -3.134,-7 -7,-7 z M 208,278.519 c 16.18171,0 30.77017,-9.74769 36.96229,-24.69737 6.19211,-14.94965 2.76835,-32.15697 -8.6738,-43.59912 -11.44215,-11.44215 -28.64947,-14.86591 -43.59912,-8.6738 -14.94968,6.19212 -24.69737,20.78058 -24.69737,36.96229 0.0248,22.08553 17.92247,39.9832 40.008,40.008 z m 0,-68.016 c 10.51924,0 22.00277,8.33668 26.02808,18.05502 4.0253,9.71832 0.3162,24.16266 -7.12199,31.60086 -7.4382,7.43819 -21.14075,8.4055 -30.85907,4.3802 C 186.32868,260.51377 179.992,249.03024 179.992,238.511 180.00633,224.15263 193.64163,210.51599 208,210.5 Z"
       fill="#000000"
       style="fill:#000000;fill-opacity:1;stroke:#000000;stroke-width:0;stroke-miterlimit:4;stroke-dasharray:none;stroke-opacity:1"
       id="path12" />
    <path
       d=""
       style="fill:#ffffff;stroke:#000000;stroke-width:12.4726"
       id="path20" />
    <path
       d=""
       style="fill:#ffffff;stroke:#000000;stroke-width:3.11815"
       id="path19" />
    <path
       id="path18"
       style="fill:#ffffff;stroke:#000000;stroke-width:10;stroke-dasharray:none"
       d="m 456.48598,338.56389 c -4.90038,-0.002 -9.78869,1.14144 -14.47851,3.42773 -5.10958,2.49093 -8.93697,5.62483 -12.38867,10.14844 -2.04027,2.67385 -4.72756,8.24532 -5.53907,11.48242 -2.83787,11.32025 0.21825,22.9758 8.25586,31.49609 l 2.08203,2.20899 -2.18359,19.58008 c -2.38967,21.42959 -2.39566,21.63195 -0.80078,24.77929 1.58806,3.13386 4.37837,5.43257 7.66992,6.31836 2.14417,0.57702 31.3606,0.69451 33.9922,0.13672 1.8372,-0.38941 3.6307,-1.21882 5.1621,-2.38476 2.4676,-1.87873 4.4414,-5.91887 4.4414,-9.08985 0,-0.81295 -0.9126,-9.6645 -2.0273,-19.66992 -1.1148,-10.00542 -2.0254,-18.62668 -2.0254,-19.16016 0,-0.77295 0.3817,-1.34888 1.8828,-2.83203 3.7781,-3.73283 6.8138,-9.10277 8.3281,-14.73633 0.7266,-2.70293 0.8135,-3.59385 0.8125,-8.32812 -9e-4,-4.40235 -0.1125,-5.69825 -0.6504,-7.64844 -2.8183,-10.2184 -9.0816,-17.98101 -17.9863,-22.28906 -4.7341,-2.29031 -9.6465,-3.43736 -14.54689,-3.43945 z m -0.0391,-210.64453 c -55.25943,0 -81.11914,54.31156 -81.11914,109.57031 v 38.63281 h -20.57031 c -29.87627,0 -33.15821,25.29525 -33.15821,41.1582 v 154.95508 c 0,15.79119 18.84095,28.63281 34.63282,28.63281 h 200.42973 c 15.79108,0 36.63278,-12.84095 36.63278,-28.63281 V 313.28068 c 0,-20.27267 -5.8612,-37.1582 -37.15818,-37.1582 h -17.1953 v -38.63281 c 0,-55.25875 -27.2348,-109.57031 -82.49419,-109.57031 z m 0,42.94921 c 31.57569,0 44.66409,35.04543 44.66409,66.6211 v 38.63281 h -87.9512 v -38.63281 c 0,-31.57567 11.71143,-66.6211 43.28711,-66.6211 z m 0.0391,167.69532 c 4.90039,0.002 9.81279,1.14914 14.54689,3.43945 8.9047,4.30803 15.168,12.07069 17.9863,22.28906 0.5379,1.95018 0.6495,3.24611 0.6504,7.64844 10e-4,4.73426 -0.086,5.6252 -0.8125,8.32812 -1.5143,5.63354 -4.55,11.00351 -8.3281,14.73633 -1.5011,1.48315 -1.8828,2.05909 -1.8828,2.83203 0,0.53348 0.9106,9.15477 2.0254,19.16016 1.1147,10.00539 2.0273,18.85698 2.0273,19.66992 0,3.17097 -1.9738,7.21112 -4.4414,9.08985 -1.5314,1.16594 -3.3249,1.99535 -5.1621,2.38476 -2.6316,0.55779 -31.84804,0.4403 -33.9922,-0.13672 -3.29154,-0.88578 -6.08187,-3.18451 -7.66992,-6.31836 -1.59488,-3.14733 -1.58888,-3.34976 0.80078,-24.77929 l 2.18359,-19.58008 -2.08203,-2.20899 c -8.03759,-8.52026 -11.09373,-20.17588 -8.25586,-31.49609 0.81151,-3.23709 3.4988,-8.80858 5.53907,-11.48242 3.45169,-4.52359 7.27911,-7.65752 12.38867,-10.14844 4.6898,-2.28629 9.57814,-3.42983 14.47851,-3.42773 z" />
    </g>
</svg>
