<?xml version="1.0" encoding="UTF-8" standalone="no"?>
<!-- icon666.com - MILLIONS OF FREE VECTOR ICONS -->

<svg
   viewBox="0 0 64 64"
   version="1.1"
   id="svg24"
   sodipodi:docname="summer.svg"
   inkscape:version="1.4.2 (f4327f4, 2025-05-13)"
   xmlns:inkscape="http://www.inkscape.org/namespaces/inkscape"
   xmlns:sodipodi="http://sodipodi.sourceforge.net/DTD/sodipodi-0.dtd"
   xmlns="http://www.w3.org/2000/svg"
   xmlns:svg="http://www.w3.org/2000/svg">
  <defs
     id="defs24" />
  <sodipodi:namedview
     id="namedview24"
     pagecolor="#ffffff"
     bordercolor="#000000"
     borderopacity="0.25"
     inkscape:showpageshadow="2"
     inkscape:pageopacity="0.0"
     inkscape:pagecheckerboard="0"
     inkscape:deskcolor="#d1d1d1"
     inkscape:zoom="8"
     inkscape:cx="33.4375"
     inkscape:cy="36.8125"
     inkscape:window-width="1920"
     inkscape:window-height="1009"
     inkscape:window-x="-8"
     inkscape:window-y="-8"
     inkscape:window-maximized="1"
     inkscape:current-layer="svg24" />
  <g
     id="g9"
     transform="matrix(0.10276521,0,0,0.10276521,3.9294825,-5.2334681)"
     style="fill:#cff6ff;fill-opacity:1">
    <path
       style="fill:#cff6ff;fill-opacity:1"
       d="m 510.39585,191.94954 c 2.606,0 5.06,0.423 7.238,1.168 2.354,-1.567 5.576,-2.536 9.134,-2.536 3.281,0 6.281,0.828 8.576,2.184 1.36394,2.99862 9.56854,4.84903 11.90512,7.1856 0.70117,0.70117 7.64028,4.33496 7.29434,7.9032 -0.40694,4.19735 -4.25329,4.80408 -10.20646,7.4752 -0.687,-0.141 -1.344,-0.329 -1.961,-0.558 -1.256,2.917 -5.207,5.042 -9.897,5.042 -2.865,0 -5.453,-0.792 -7.326,-2.078 -1.867,1.286 -4.455,2.078 -7.32,2.078 -2.724,0 -5.195,-0.716 -7.044,-1.89 -1.878,1.403 -4.59,2.283 -7.602,2.283 -2.823,0 -5.377,-0.769 -7.232,-2.019 -0.851,0.129 -1.737,0.194 -2.641,0.194 -6.786,0 -12.28,-3.739 -12.28,-8.353 0,-4.62 5.494,-8.359 12.28,-8.359 0.364,0 0.734,0.018 1.092,0.035 0.869,-5.482 7.696,-9.755 15.99,-9.755 z"
       id="path7-8"
       sodipodi:nodetypes="scscsaccscscscssscs" />
    <path
       style="fill:#cff6ff;fill-opacity:1"
       d="m 279.98123,247.13595 c 4.655,0 9.051,0.751 12.943,2.09 4.209,-2.812 9.979,-4.543 16.342,-4.543 11.018,0 20.251,5.189 22.728,12.174 5.506,1.127 9.92,3.956 11.939,7.59 0.663,-0.053 1.332,-0.07 2.013,-0.07 10.172,0 18.431,5.612 18.431,12.54401 0,6.932 -8.259,12.55 -18.431,12.55 -3.176,0 -6.163,-0.546 -8.764,-1.503 -2.236,5.212 -9.315,9.022 -17.704,9.022 -5.119,0 -9.756,-1.421 -13.096,-3.721 -3.34,2.301 -7.977,3.721 -13.102,3.721 -4.866,0 -9.298,-1.291 -12.597,-3.387 -3.369,2.506 -8.212,4.085 -13.606,4.085 -5.048,0 -9.615,-1.379 -12.937,-3.61 -1.52,0.229 -3.111,0.346 -4.731,0.346 -12.133,0 -21.965,-6.692 -21.965,-14.951 0,-8.253 9.832,-14.94501 21.965,-14.94501 0.663,0 1.321,0.023 1.966,0.065 1.558,-9.82 13.767,-17.457 28.606,-17.457 z"
       id="path8-2" />
    <path
       style="fill:#cff6ff;fill-opacity:1"
       d="m 15.400353,145.04806 c 2.606,0 5.06,0.423 7.238,1.168 2.354,-1.567 5.576,-2.536 9.134,-2.536 6.158,0 11.323,2.9 12.702,6.803 3.082,0.628 5.547,2.213 6.674,4.244 0.37,-0.029 0.745,-0.041 1.127,-0.041 5.688,0 10.307,3.14 10.307,7.014 0,3.874 -4.62,7.015 -10.307,7.015 -1.773,0 -3.446,-0.305 -4.895,-0.845 -1.25,2.917 -5.207,5.042 -9.897,5.042 -2.865,0 -5.453,-0.792 -7.32,-2.078 -1.867,1.286 -4.461,2.078 -7.326,2.078 -2.718,0 -5.195,-0.716 -7.038,-1.89 -1.884,1.403 -4.596,2.283 -7.6070001,2.283 -2.818,0 -5.377,-0.769 -7.23200002,-2.019 -0.851,0.129 -1.737,0.194 -2.64099998,0.194 -6.7859997,0 -12.2799999,-3.739 -12.2799999,-8.353 0,-4.614 5.4940002,-8.359 12.2799999,-8.359 0.364,0 0.73399998,0.018 1.09799998,0.041 0.868,-5.487 7.69500002,-9.761 15.98300012,-9.761 z"
       id="path9-4" />
  </g>
  <g
     id="g1"
     transform="matrix(0.04544008,0,0,0.04544008,23.944991,-0.04492692)">
    <polygon
       style="fill:#f5c525"
       points="340.945,374.184 283.764,363.211 256.724,414.779 210,380 163.276,414.779 136.236,363.211 79.055,374.184 77.073,315.986 20.762,301.144 44.226,247.858 0,210 44.226,172.143 20.762,118.855 77.074,104.014 79.055,45.816 136.236,56.789 163.276,5.221 210,40 256.723,5.221 283.764,56.789 340.945,45.816 342.927,104.014 399.238,118.856 375.774,172.142 420,210 375.774,247.857 399.238,301.145 342.926,315.986 "
       id="polygon1" />
    <circle
       style="fill:#f8a805"
       cx="210"
       cy="210"
       r="140"
       id="circle1" />
  </g>
  <g
     id="summer-2"
     data-name="summer">
    <path
       d="m 58.93637,36.483573 -3.488694,-0.0955 c -1.982466,-0.05283 -3.904459,-0.693923 -5.521667,-1.84179 -0.135296,-0.173768 -0.290583,-0.348082 -0.446145,-0.512402 l -1.79696,-1.829239 2.856112,0.04756 c 2.270561,0.06221 4.452521,0.894478 6.187731,2.360208 z"
       style="fill:#97ff5c;fill-opacity:1"
       id="path2"
       sodipodi:nodetypes="cccscccc" />
    <path
       d="m 59.075038,26.803238 -2.54804,2.389412 c -1.656312,1.555659 -3.793656,2.499907 -6.05908,2.676817 l -2.725055,0.198569 c 0.669372,-0.867586 1.587916,-1.613807 2.38431,-2.360622 1.656312,-1.555658 3.793656,-2.499906 6.05908,-2.676816 z"
       style="fill:#77ff7a;fill-opacity:1"
       id="path3"
       sodipodi:nodetypes="ccccccc" />
    <path
       d="m 51.808235,40.264426 0.05971,2.897108 -2.237867,-2.682117 c -1.414223,-1.69296 -2.226276,-3.807587 -2.308703,-6.011979 l 0.212748,-2.172177 1.733511,1.745473 c 0.202922,0.199055 0.417602,0.379091 0.632281,0.559127 1.206314,1.645553 1.873003,3.624518 1.908323,5.664565 z"
       style="fill:#80ff84;fill-opacity:1"
       id="path4"
       sodipodi:nodetypes="cccccccsc" />
    <path
       d="m 51.3475,20.419052 v 3.5 c -0.0032,2.267835 -0.775213,4.467583 -2.19,6.24 l -1.05,1.31 -0.48,0.48 -0.28,-2.5 v -0.52 c 4.9e-5,-2.271414 0.772302,-4.475331 2.19,-6.25 z"
       style="fill:#a0ffa1;fill-opacity:1"
       id="path5"
       sodipodi:nodetypes="ccccccccc" />
    <path
       d="m 47.344498,35.234403 -0.01385,0.2396 c -0.135782,2.266546 -1.03326,4.42076 -2.546913,6.113251 l -1.937364,2.151817 0.201914,-3.49417 c 0.01327,-0.229617 0.03594,-0.448674 0.06918,-0.677137 0.245894,-2.021029 1.111194,-3.91644 2.477157,-5.426131 0.50237,-0.594973 1.091254,-1.29136 1.640501,-1.839168 0.07963,1.592228 -0.04842,0.146207 0.09038,2.740523 0.0014,0.0642 0.0078,0.128192 0.01899,0.191415 z"
       style="fill:#00cd06;fill-opacity:1"
       id="path6"
       sodipodi:nodetypes="ccccscccccc" />
    <path
       d="m 47.285,29.933427 0.03315,1.94734 -1.973146,-1.62734 c -0.22,-0.18 -0.45,-0.34 -0.68,-0.5 -1.349409,-1.530403 -2.191364,-3.441395 -2.41,-5.47 l -0.32,-2.88 2.47,2.47 c 1.608042,1.605504 2.620436,3.711425 2.87,5.97 z"
       style="fill:#bbffbb;fill-opacity:1"
       id="path7"
       sodipodi:nodetypes="ccccccccc" />
    <path
       d="m 46.56,32.770302 -1.73,1.73 c -1.28913,1.29471 -2.912987,2.205316 -4.69,2.63 -0.419451,0.114584 -0.84753,0.194849 -1.28,0.24 l -2.88,0.32 2.47,-2.47 c 1.605504,-1.608042 3.711425,-2.620436 5.97,-2.87 l 2.689437,-0.234757 c 0,0 -0.397035,0.467962 -0.549437,0.654757 z"
       style="fill:#00a006;fill-opacity:1"
       id="path8"
       sodipodi:nodetypes="ccccccccc" />
    <path
       d="m 47.15305,31.994509 -2.96839,0.164868 c -2.265947,0.157488 -4.518117,-0.460049 -6.38684,-1.751249 l -2.380093,-1.648896 3.491572,-0.242748 c 1.975181,-0.138655 3.94691,0.314018 5.663823,1.300309 0.151453,0.159881 0.32286,0.318374 0.493571,0.466892 z"
       style="fill:#007804;fill-opacity:1"
       id="path9"
       sodipodi:nodetypes="ccccccsc" />
    <path
       d="m 45.009687,34.281552 0.880892,-0.845691 0.661608,-0.657747 0.130708,0.101951 -1.239145,1.454924 c -1.276594,1.585978 -2.124858,3.473465 -2.25375,5.505313 l -0.14,-0.01 c -2.974605,3.228249 -5.179725,7.088064 -6.45,11.29 -1.35713,-0.164795 -2.722902,-0.248278 -4.09,-0.25 1.425141,-5.117234 4.039535,-9.825199 7.63,-13.74 1.777013,-0.424684 3.580557,-1.55404 4.869687,-2.84875 z"
       style="fill:#957856"
       id="path10"
       sodipodi:nodetypes="ccccccccccc" />
    <path
       d="m 30.69,50.936769 c 0.01,0.1 0.01,0.19 0.02,0.29 l -3.99,0.37 c 0,-0.12 -0.01,-0.24 -0.02,-0.36 a 31.678,31.678 0 0 0 -7.55,-18.63 9.967,9.967 0 0 0 -1.67,-5.29 9.885,9.885 0 0 0 4.18,2.15 35.541,35.541 0 0 1 9.03,21.47 z"
       style="fill:#c0ab91"
       id="path11" />
    <path
       d="m 26.31,20.196769 -2.26,1.81 a 9.966,9.966 0 0 1 -6.24,2.19 h -2.82 l 1.81,-1.81 c 0.15,-0.16 0.3,-0.32 0.44,-0.48 0,0 0.01,-0.02 0.02,-0.02 a 9.969,9.969 0 0 1 5.56,-1.69 z"
       style="fill:#00cd06;fill-opacity:1"
       id="path12" />
    <path
       d="m 25.81,30.026769 -2.87,-0.32 a 8.016,8.016 0 0 1 -1.28,-0.24 9.885,9.885 0 0 1 -4.18,-2.15 0.035,0.035 0 0 1 -0.01,-0.02 c -0.16,-0.23 -0.32,-0.46 -0.5,-0.68 l -1.74,-2.17 2.15,0.24 a 9.959,9.959 0 0 1 5.96,2.87 z"
       style="fill:#00a006;fill-opacity:1"
       id="path13" />
    <path
       d="m 19.99,13.536769 -0.32,2.88 a 10.011,10.011 0 0 1 -2.41,5.47 c -0.01,0 -0.02,0.02 -0.02,0.02 a 7.5,7.5 0 0 0 -0.67,0.48 l -2.16,1.73 0.24,-2.14 a 9.986,9.986 0 0 1 2.87,-5.97 z"
       style="fill:#80ff84;fill-opacity:1"
       id="path14" />
    <path
       d="m 19.15,32.606769 a 2.09,2.09 0 0 1 0.01,0.25 v 3.5 l -1.81,-2.26 a 10.014,10.014 0 0 1 -2.19,-6.25 v -2.82 l 1.81,1.81 c 0.16,0.16 0.33,0.32 0.5,0.46 a 0.035,0.035 0 0 0 0.01,0.02 9.967,9.967 0 0 1 1.67,5.29 z"
       style="fill:#007804;fill-opacity:1"
       id="path15" />
    <path
       d="m 12.74,27.006769 2.17,-1.74 -0.24,2.15 a 10.1,10.1 0 0 1 -2.87,5.97 l -2.47,2.47 0.32,-2.88 a 9.87,9.87 0 0 1 2.41,-5.47 c 0.23,-0.16 0.46,-0.32 0.68,-0.5 z"
       style="fill:#bbffbb;fill-opacity:1"
       id="path16" />
    <path
       d="m 14.33,25.196769 -1.81,1.81 c -0.16,0.16 -0.32,0.33 -0.46,0.5 a 10,10 0 0 1 -5.57,1.69 H 3 l 2.26,-1.81 a 9.993,9.993 0 0 1 6.25,-2.19 z"
       style="fill:#a0ffa1;fill-opacity:1"
       id="path17" />
    <path
       d="m 14.16,21.546769 v 2.83 l -1.82,-1.82 c -0.16,-0.16 -0.32,-0.31 -0.49,-0.45 v -0.01 a 9.969,9.969 0 0 1 -1.69,-5.56 v -3.5 l 1.81,2.26 a 10.074,10.074 0 0 1 2.19,6.25 z"
       style="fill:#97ff5c;fill-opacity:1"
       id="path18" />
    <path
       d="m 14.09,24.946769 -2.15,-0.24 a 9.959,9.959 0 0 1 -5.97,-2.87 l -2.47,-2.47 2.88,0.32 a 10.011,10.011 0 0 1 5.47,2.41 v 0.01 c 0.16,0.23 0.33,0.45 0.5,0.67 z"
       style="fill:#77ff7a;fill-opacity:1"
       id="path19" />
    <path
       d="m 54.409788,25.033751 c 0,0 1.139001,-0.243813 2.09198,-0.0612 0.954184,0.182609 1.949505,0.975254 3.027302,1.036458 1.076592,0.0612 0.852845,-0.346355 0.852845,-0.346355 0,0 -0.691507,0.102542 -0.873916,-0.486423 -0.182609,-0.59017 0.568898,-1.058934 1.725558,-1.870441 1.159067,-0.812712 1.38161,-1.626628 1.159067,-2.135526 0,0 -0.203679,0.325085 -1.159067,0.833983 -0.954184,0.508898 -1.644287,1.444018 -2.395794,2.113251 -0.751508,0.672644 -0.792645,0.712578 -1.503015,0.570102 -0.71037,-0.142676 -2.233453,-0.365218 -2.92496,0.346155 z"
       id="path10-4"
       style="stroke-width:0.20067" />
    <g
       id="g13"
       transform="matrix(0.20066957,0,0,0.20066957,-27.749184,14.449185)">
      <path
         d="m 145.27784,133.08575 c 0,0 5.676,-1.215 10.425,-0.305 4.76,0.91 9.721,4.86 15.086,5.171 5.365,0.299 4.25,-1.726 4.25,-1.726 0,0 -3.44,0.505 -4.355,-2.43 -0.904,-2.941 2.835,-5.277 8.605,-9.321 5.77,-4.05 6.885,-8.106 5.77,-10.642 0,0 -1.01,1.62 -5.77,4.156 -4.755,2.536 -8.194,7.196 -11.939,10.531 -3.745,3.352 -3.95,3.551 -7.496,2.841 -3.541,-0.711 -11.131,-1.82 -14.576,1.725 z"
         id="path12-5" />
      <path
         d="m 274.01629,77.123452 c 0,0 5.67,-1.221 10.425,-0.311 4.76,0.916 9.715,4.866 15.086,5.171 5.359,0.299 4.244,-1.726 4.244,-1.726 0,0 -3.44,0.511 -4.35,-2.43 -0.91,-2.935 2.835,-5.271 8.599,-9.315 5.776,-4.056 6.891,-8.106 5.776,-10.642 0,0 -1.015,1.62 -5.776,4.156 -4.755,2.536 -8.194,7.196 -11.939,10.531 -3.745,3.346 -3.95,3.545 -7.49,2.841 -3.539,-0.711 -11.135,-1.82 -14.575,1.725 z"
         id="path13-5" />
    </g>
    <path
       style="fill:#ffb54c;stroke-width:0.124806"
       d="m 6.1388939,50.470839 c 0,0 4.8952471,-2.364817 5.9296371,-2.921574 1.035133,-0.556008 7.41232,3.060729 7.41232,3.060729 l 7.859254,-3.199261 c 0,0 5.976432,3.106908 7.365519,3.879078 1.389707,0.772921 -3.612372,1.700349 -6.484892,1.484191 C 25.348204,52.557209 5.459705,52.371877 6.1388939,50.470839 Z"
       id="path5-7"
       sodipodi:nodetypes="ccccccc" />
    <path
       style="fill:#ffcb7f;stroke-width:0.124806"
       d="m 0.0175912,50.487594 c 1.4738243,-1.032082 3.4407335,-2.818231 5.426013,-1.708462 1.9860275,1.109894 5.9758098,2.454924 7.2731638,2.701787 1.297479,0.247615 4.311283,-2.807248 6.957408,-2.701787 2.646872,0.105464 7.711229,3.134741 8.699564,2.887124 0.988208,-0.246866 5.558961,-4.698798 7.659313,-4.203571 2.10035,0.495227 3.535487,4.558895 5.882706,4.002887 2.347217,-0.556757 11.415956,-6.443208 13.63425,-5.610257 2.219039,0.832951 6.054684,3.206373 8.434063,4.580108 0,1.863805 0.0058,2.301775 0.0058,3.468098 0,2.345262 -1.116113,8.020251 -1.520484,9.298635 l -60.2930651,0.05868 c -0.6811453,-1.79877 -2.15819724,-5.945004 -2.15819724,-9.243508 0,-1.177726 -5.3446e-4,-2.863964 -5.3446e-4,-3.529734 z"
       id="path6-11"
       sodipodi:nodetypes="cccccscccsccsc" />
    <path
       style="fill:#44bac9;stroke-width:0.117018"
       d="m 63.991979,53.753073 c 0,1.374147 -0.05192,4.517536 -0.05192,7.677136 0,1.221739 0.0341,-0.01588 0.0341,1.949087 0,0.110561 -2.962724,0.598277 -4.455655,0.59827 -1.743123,-9e-6 -3.785364,-0.07099 -4.588402,-0.07099 -1.419759,0 -15.734239,0.05064 -19.871549,0.05064 -0.12088,0.0117 -0.24106,0.0227 -0.36404,0.033 l -0.26306,0.0199 c -0.18617,0.0137 -0.37434,-0.195571 -0.56051,-0.183871 l -0.17927,0.008 c -0.21017,0.0103 -0.41963,0.0179 -0.6319,0.0247 l -0.10789,0.003 c -0.22187,0.003 -0.447121,0.008 -0.671801,0.008 l -0.035,7e-4 c -0.0769,0 -0.15586,-0.001 -0.232859,-0.003 -0.16008,-0.001 -0.318761,-0.002 -0.47743,-0.005 -0.13738,-0.005 -0.27336,-0.011 -0.41144,-0.0144 -0.0996,-0.006 -0.19916,-0.007 -0.29816,-0.0117 -0.15388,-0.008 -0.30635,-0.0158 -0.45953,-0.0261 l -0.23836,0.205871 c -0.17928,-0.0131 -0.35925,-0.0282 -0.53782,-0.0426 l -0.11339,-0.011 c -4.899361,0 -18.654392,0.02048 -20.5852266,0.02048 -0.7533435,0 -1.8928519,-0.03605 -3.0406454,-0.01133 -1.5064701,0.03245 -4.4987289,0.017 -5.6743163,0.017 -0.25094978,0 -0.1098748,-0.786078 -0.1098748,-1.010274 0,-1.400914 -0.0316484,-2.954324 -0.0316484,-3.309862 0,-1.756978 0.03006987,-3.487293 0.03006987,-5.15303 0,-1.671875 18.29230963,-3.072643 23.90611963,-0.116307 13.273937,4.390269 40.021384,-2.066544 40.021408,-0.64632 z"
       id="path16-8"
       sodipodi:nodetypes="csssscccccccccccccccccsssssccc" />
    <path
       style="fill:#22b1c3;stroke-width:0.117018"
       d="m 63.993166,61.962273 c 0,0.542948 -0.0092,1.423266 -0.0092,1.859755 0,0.198812 -0.193421,0.178266 -0.284758,0.178266 -1.447065,0 -2.97481,-0.005 -3.72694,-0.005 -0.307697,0 -1.936542,7.94e-4 -2.939595,-9.66e-4 -3.175383,-0.0054 -6.949336,0.0045 -10.042495,0.0045 -4.038071,0 -8.065653,-0.134521 -11.931626,-0.134521 -0.12088,0.0117 -0.24106,0.0227 -0.36404,0.033 l -0.26306,0.0199 c -0.18617,0.0137 -0.37434,0.0254 -0.56051,0.0371 l -0.17927,0.008 c -0.21017,0.0103 -0.41963,0.0179 -0.6319,0.0247 l -0.10789,0.003 c -0.22187,0.003 -0.447121,0.008 -0.671801,0.008 l -0.035,7e-4 c -0.0769,0 -0.15586,-0.001 -0.232859,-0.003 -0.16008,-0.001 -0.318761,-0.002 -0.47743,-0.005 -0.13738,-0.005 -0.27336,-0.011 -0.41144,-0.0144 -0.0996,-0.006 -0.19916,-0.007 -0.29816,-0.0117 -0.15388,-0.008 -0.30635,-0.0158 -0.45953,-0.0261 l -0.23836,-0.0151 c -0.17928,-0.0131 -0.35925,-0.0282 -0.53782,-0.0426 l -0.11339,-0.011 c -4.125176,0 -17.210236,0.125001 -20.6113587,0.125001 -1.4034908,0 -8.75430815,0.04722 -8.75430815,-0.03336 0,-2.07882 -0.06892724,-3.599644 -0.06892724,-5.615112 0,-2.088277 63.93557309,-2.688191 63.93557309,-1.267805 z"
       id="path17-8"
       sodipodi:nodetypes="cssssscccccccccccccccccssccc" />
    <path
       style="fill:#dff5f9;stroke-width:0.117018"
       d="m 59.075272,56.389175 c 0.573537,-0.02336 3.027644,-0.07915 3.027644,-0.25009 0,-0.258112 -2.285574,-0.573779 -2.728951,-0.644091 -2.50301,0.07969 -4.105393,0.217585 -4.105393,0.431844 0,0.201388 1.54475,0.375861 3.8067,0.462337 z m -17.70572,1.739937 c 6.49238,0 11.75596,0.155868 11.75596,0.348245 0,0.191675 -5.26358,0.347543 -11.75596,0.347543 -6.49238,0 -11.75595,-0.155868 -11.75595,-0.347543 0,-0.192377 5.26357,-0.348245 11.75595,-0.348245 z"
       id="path18-2"
       sodipodi:nodetypes="cscscsssss" />
    <path
       d="m 22.120352,62.241678 c 2.78257,0 5.03832,0.116784 5.03832,0.261067 0,0.143581 -2.25575,0.260364 -5.03832,0.260364 -2.78256,0 -5.038309,-0.116783 -5.038309,-0.260364 1.09e-4,-0.1444 2.255749,-0.261067 5.038309,-0.261067 z"
       style="fill:#dff5f9;stroke-width:0.117018"
       id="path1" />
    <path
       d="m 7.195794,60.462933 c 3.465984,0 6.275758,0.201459 6.275758,0.450354 0,0.247687 -2.809774,0.449143 -6.275758,0.449143 -3.4659724,0 -6.27574529,-0.201456 -6.27574529,-0.449143 1.358e-4,-0.249097 2.80977289,-0.450354 6.27574529,-0.450354 z"
       style="fill:#dff5f9;stroke-width:0.171531"
       id="path1-5" />
    <path
       d="M 63.576487,61.511523 C 63.747673,60.872649 53.3237,61.093285 53.3237,61.407258 c 2.43e-4,0.318703 10.159381,0.452863 10.252787,0.104265 z"
       style="fill:#dff5f9;stroke-width:0.117018"
       id="path1-6"
       sodipodi:nodetypes="scs" />
    <path
       d="m 39.811472,60.607465 c 2.47691,0 4.48459,0.09268 4.48459,0.207472 0,0.114678 -2.00779,0.207473 -4.48459,0.207473 -2.47691,0 -4.48459,-0.09268 -4.48459,-0.207473 0,-0.114794 2.00768,-0.207472 4.48459,-0.207472 z"
       style="fill:#dff5f9;stroke-width:0.117018"
       id="path1-4" />
    <path
       d="m 11.124933,57.227357 c 4.11785,0 7.45614,0.09069 7.45614,0.202675 0,0.111986 -3.33829,0.202675 -7.45614,0.202675 -4.1178611,0 -7.4561411,-0.09069 -7.4561411,-0.202675 0,-0.111986 3.33828,-0.202675 7.4561411,-0.202675 z"
       style="fill:#dff5f9;stroke-width:0.117018"
       id="path1-3" />
  </g>
</svg>
