<?xml version="1.0" encoding="UTF-8" standalone="no"?>
<!-- icon666.com - MILLIONS OF FREE VECTOR ICONS -->

<svg
   version="1.1"
   id="Capa_1"
   x="0px"
   y="0px"
   viewBox="0 0 612 612"
   xml:space="preserve"
   sodipodi:docname="two_line_horizontal.svg"
   inkscape:version="1.4 (86a8ad7, 2024-10-11)"
   width="612"
   height="612"
   xmlns:inkscape="http://www.inkscape.org/namespaces/inkscape"
   xmlns:sodipodi="http://sodipodi.sourceforge.net/DTD/sodipodi-0.dtd"
   xmlns="http://www.w3.org/2000/svg"
   xmlns:svg="http://www.w3.org/2000/svg"><defs
     id="defs2" /><sodipodi:namedview
     id="namedview2"
     pagecolor="#ffffff"
     bordercolor="#000000"
     borderopacity="0.25"
     inkscape:showpageshadow="2"
     inkscape:pageopacity="0.0"
     inkscape:pagecheckerboard="0"
     inkscape:deskcolor="#d1d1d1"
     inkscape:zoom="0.70710678"
     inkscape:cx="275.06454"
     inkscape:cy="142.12846"
     inkscape:window-width="1920"
     inkscape:window-height="1009"
     inkscape:window-x="-8"
     inkscape:window-y="-8"
     inkscape:window-maximized="1"
     inkscape:current-layer="g1"
     showguides="true" /><g
     id="g2"><g
       id="_x33__6_"><g
         id="g1"><path
           d="M 41.699054,217.88208 H 576.58205 c 9.25869,0 16.55373,-12.75624 16.33502,-21.8463 -0.20572,-8.55003 -6.77148,-19.78572 -16.33502,-19.78572 H 41.715089 c -9.798083,0 -17.323297,10.97543 -17.540139,19.7867 -0.229666,9.33237 8.027161,21.84532 17.524104,21.84532 z"
           id="path1-8-9-8"
           sodipodi:nodetypes="ssassas"
           style="stroke:#000000;stroke-width:9.85803;stroke-dasharray:none;stroke-opacity:1" /><path
           d="M 42.028729,426.86986 H 576.91173 c 9.25869,0 16.55373,-12.75624 16.33502,-21.8463 -0.20572,-8.55003 -6.77148,-19.78572 -16.33502,-19.78572 H 42.044764 c -9.798083,0 -17.323297,10.97543 -17.540139,19.7867 -0.229666,9.33237 8.027161,21.84532 17.524104,21.84532 z"
           id="path1-8-9-8-2"
           sodipodi:nodetypes="ssassas"
           style="stroke:#000000;stroke-width:9.85803;stroke-dasharray:none;stroke-opacity:1" /></g></g></g></svg>
