<?xml version="1.0" encoding="UTF-8" standalone="no"?>
<!-- icon666.com - MILLIONS OF FREE VECTOR ICONS -->

<svg
   viewBox="0 0 24 24"
   version="1.1"
   id="svg2"
   sodipodi:docname="add_m9m7vavjaqud.svg"
   width="24"
   height="24"
   inkscape:version="1.4.2 (f4327f4, 2025-05-13)"
   xmlns:inkscape="http://www.inkscape.org/namespaces/inkscape"
   xmlns:sodipodi="http://sodipodi.sourceforge.net/DTD/sodipodi-0.dtd"
   xmlns="http://www.w3.org/2000/svg"
   xmlns:svg="http://www.w3.org/2000/svg">
  <defs
     id="defs2" />
  <sodipodi:namedview
     id="namedview2"
     pagecolor="#ffffff"
     bordercolor="#000000"
     borderopacity="0.25"
     inkscape:showpageshadow="2"
     inkscape:pageopacity="0.0"
     inkscape:pagecheckerboard="0"
     inkscape:deskcolor="#d1d1d1"
     showguides="true"
     inkscape:zoom="16"
     inkscape:cx="1.59375"
     inkscape:cy="13.28125"
     inkscape:window-width="1920"
     inkscape:window-height="1009"
     inkscape:window-x="-8"
     inkscape:window-y="-8"
     inkscape:window-maximized="1"
     inkscape:current-layer="svg2" />
  <path
     d="m 20.61746,13.417119 c 0,-0.84826 0,-2.567557 0,-2.567557 0,0 1.777143,0 2.567556,0 0.373375,0 0.757333,-0.444334 0.765625,-0.817617 0.0087,-0.3922717 -0.373256,-0.8940894 -0.765625,-0.8940894 -0.689583,0 -2.567556,0 -2.567556,0 V 6.5702998 c 0,-0.384978 -0.474937,-0.7718951 -0.859914,-0.7709867 -0.382965,9.037e-4 -0.851792,0.3880202 -0.851792,0.7709867 0,0.8487847 0,2.5675558 0,2.5675558 0,0 -1.745761,0 -2.567558,0 -0.376951,0 -0.722103,0.496502 -0.71829,0.8734334 0.0037,0.367955 0.350316,0.838273 0.71829,0.838273 0.81305,0 2.567558,0 2.567558,0 0,0 0,1.825775 0,2.567557 0,0.36039 0.480429,0.676602 0.840806,0.679687 0.368232,0.0032 0.8709,-0.311442 0.8709,-0.679687 z"
     id="path1"
     style="stroke:none;stroke-width:0.048;stroke-linecap:round;stroke-dasharray:none;stroke-opacity:1"
     sodipodi:nodetypes="scsascsascsascsas" />
  <circle
     cx="9.4009829"
     cy="6.4138837"
     r="4.9921494"
     id="circle1"
     style="stroke-width:0.0445728" />
  <path
     d="m 9.4009816,12.832362 c -3.0942417,0 -9.27113362,1.91128 -9.27113362,5.705313 v 2.852656 H 18.672115 v -2.852656 c 0,-3.794033 -6.176893,-5.705313 -9.2711334,-5.705313 z"
     id="path2"
     style="stroke-width:0.0445728" />
</svg>
