<?xml version="1.0" encoding="UTF-8" standalone="no"?>
<!-- Created with Inkscape (http://www.inkscape.org/) -->

<svg
   width="512mm"
   height="512mm"
   viewBox="0 0 512 512"
   version="1.1"
   id="svg1"
   xml:space="preserve"
   sodipodi:docname="user.svg"
   inkscape:version="1.3.2 (091e20e, 2023-11-25, custom)"
   xmlns:inkscape="http://www.inkscape.org/namespaces/inkscape"
   xmlns:sodipodi="http://sodipodi.sourceforge.net/DTD/sodipodi-0.dtd"
   xmlns="http://www.w3.org/2000/svg"
   xmlns:svg="http://www.w3.org/2000/svg"><sodipodi:namedview
     id="namedview1"
     pagecolor="#ffffff"
     bordercolor="#000000"
     borderopacity="0.25"
     inkscape:showpageshadow="2"
     inkscape:pageopacity="0.0"
     inkscape:pagecheckerboard="0"
     inkscape:deskcolor="#d1d1d1"
     inkscape:document-units="mm"
     inkscape:zoom="0.18106587"
     inkscape:cx="1761.7898"
     inkscape:cy="411.45247"
     inkscape:window-width="1920"
     inkscape:window-height="1009"
     inkscape:window-x="-8"
     inkscape:window-y="-8"
     inkscape:window-maximized="1"
     inkscape:current-layer="g2"
     showguides="true"><sodipodi:guide
       position="-141.01106,251.16605"
       orientation="0,-1"
       id="guide2"
       inkscape:locked="false" /><sodipodi:guide
       position="255.71954,100.65683"
       orientation="1,0"
       id="guide3"
       inkscape:locked="false" /></sodipodi:namedview><defs
     id="defs1" /><g
     inkscape:label="Слой 1"
     inkscape:groupmode="layer"
     id="layer1"><g
       fill="#000000"
       id="g2"
       transform="matrix(16.986224,0,0,16.986224,-14.347379,-16.859084)"
       style="stroke-width:0.70645483;stroke-dasharray:none"><path
         d="m 16,1.0934581 c -8.3208369,0 -15.15592532,7.4508708 -15.02763364,15.2491439 0.0593357,3.60675 1.43340294,7.275293 4.42157074,10.263461 3.0577825,3.057783 6.8177489,4.447456 10.5059389,4.447456 C 23.971215,31.053519 31,24.203214 31,16.349769 30.990631,8.0693819 24.280388,1.1028266 16,1.0934581 Z m 0,1.3457934 c 7.558865,-0.011315 13.451945,6.8008831 13.451945,13.9098395 0,2.43088 -1.228879,5.38708 -2.778927,7.589545 C 23.846693,21.120867 19.990819,19.222925 16,19.186916 12.009181,19.222925 8.0625101,21.213508 5.236185,24.031277 3.68643,21.829229 2.454643,18.799725 2.454643,16.369288 2.454643,9.3401869 8.6535287,2.4282546 16,2.4392515 Z M 15.875389,29.623053 C 12.348467,29.587553 8.748774,27.716475 6.2860745,25.191489 8.7481996,22.665665 12.472869,20.722981 16,20.688473 c 3.527085,0.03473 7.276315,1.916919 9.738568,4.442556 -2.463018,2.524521 -6.336372,4.45597 -9.863179,4.492024 z"
         id="path1"
         style="stroke:none;stroke-width:0.117742;stroke-dasharray:none;stroke-opacity:1"
         sodipodi:nodetypes="cssscccscccscccccc" /><circle
         style="fill:none;fill-rule:evenodd;stroke:#000000;stroke-width:1.26825;stroke-dasharray:none;stroke-opacity:1"
         id="path3"
         cx="15.785031"
         cy="12.226622"
         r="4.3244557" /></g></g></svg>
