<?xml version="1.0" encoding="UTF-8" standalone="no"?>
<!-- Скачано с сайта svg4.ru / Downloaded from svg4.ru -->

<svg
   width="800"
   height="800"
   fill="#000000"
   version="1.1"
   id="Layer_1"
   viewBox="0 0 156.25 156.25"
   enable-background="new 0 0 100 100"
   xml:space="preserve"
   sodipodi:docname="video_camera_outline.svg"
   inkscape:version="1.4.4 (dcaf3e7, 2026-05-05)"
   xmlns:inkscape="http://www.inkscape.org/namespaces/inkscape"
   xmlns:sodipodi="http://sodipodi.sourceforge.net/DTD/sodipodi-0.dtd"
   xmlns="http://www.w3.org/2000/svg"
   xmlns:svg="http://www.w3.org/2000/svg"><defs
   id="defs1" /><sodipodi:namedview
   id="namedview1"
   pagecolor="#ffffff"
   bordercolor="#000000"
   borderopacity="0.25"
   inkscape:showpageshadow="2"
   inkscape:pageopacity="0.0"
   inkscape:pagecheckerboard="0"
   inkscape:deskcolor="#d1d1d1"
   showguides="true"
   inkscape:zoom="0.78808596"
   inkscape:cx="516.44113"
   inkscape:cy="325.47211"
   inkscape:window-width="1920"
   inkscape:window-height="1009"
   inkscape:window-x="-8"
   inkscape:window-y="-8"
   inkscape:window-maximized="1"
   inkscape:current-layer="Layer_1" />
<path
   id="path1"
   style="baseline-shift:baseline;display:inline;overflow:visible;opacity:1;stroke:#000000;stroke-width:6.64062;stroke-dasharray:none;stroke-opacity:1;enable-background:accumulate;stop-color:#000000;stop-opacity:1"
   d="m 19.617402,15.997562 c -4.26711,0 -7.86041,2.603539 -10.8118899,5.899678 -2.95148,3.29614 -5.26472,7.552833 -5.26472,12.22341 v 88.62252 c 0,8.41477 6.7295899,16.19911 16.0766099,16.19911 h 87.388858 c 4.19624,0 8.33137,-1.73446 11.61917,-4.54173 3.28782,-2.80726 5.79816,-6.88756 5.79816,-11.65738 v -15.4379 l 28.4169,16.31261 V 34.203063 l -28.4169,15.869455 V 34.12065 c 0,-5.892196 -2.76705,-10.584101 -6.23533,-13.579111 -3.46827,-2.99501 -7.50625,-4.543977 -11.182,-4.543977 z m 0,6.578839 h 87.388858 c 1.56949,0 4.59745,0.971321 6.8819,2.944033 2.28443,1.972713 3.95659,4.696717 3.95659,8.600216 l -3.8e-4,88.62252 c 0,2.43296 -1.3276,4.80656 -3.49058,6.65339 -2.16296,1.84684 -5.09113,2.96538 -7.3479,2.96538 H 19.617402 c -5.73296,0 -9.49814,-4.63983 -9.49814,-9.61877 V 34.12065 c 0,-2.298197 1.45723,-5.45658 3.58685,-7.834895 2.12963,-2.378313 4.93108,-3.709354 5.91129,-3.709354 z"
   sodipodi:nodetypes="ssssssssccccsssssssccsssssss" />
</svg>
