<?xml version="1.0" encoding="UTF-8" standalone="no"?>
<!-- Скачано с сайта svg4.ru / Downloaded from svg4.ru -->

<svg
   width="800"
   height="800"
   fill="#000000"
   version="1.1"
   id="Layer_1"
   viewBox="0 0 156.25 156.25"
   enable-background="new 0 0 100 100"
   xml:space="preserve"
   sodipodi:docname="video_camera_outline.svg"
   inkscape:version="1.4.4 (dcaf3e7, 2026-05-05)"
   xmlns:inkscape="http://www.inkscape.org/namespaces/inkscape"
   xmlns:sodipodi="http://sodipodi.sourceforge.net/DTD/sodipodi-0.dtd"
   xmlns="http://www.w3.org/2000/svg"
   xmlns:svg="http://www.w3.org/2000/svg"><defs
   id="defs1" /><sodipodi:namedview
   id="namedview1"
   pagecolor="#ffffff"
   bordercolor="#000000"
   borderopacity="0.25"
   inkscape:showpageshadow="2"
   inkscape:pageopacity="0.0"
   inkscape:pagecheckerboard="0"
   inkscape:deskcolor="#d1d1d1"
   showguides="true"
   inkscape:zoom="0.19702149"
   inkscape:cx="1319.653"
   inkscape:cy="510.09664"
   inkscape:window-width="1920"
   inkscape:window-height="1009"
   inkscape:window-x="-8"
   inkscape:window-y="-8"
   inkscape:window-maximized="1"
   inkscape:current-layer="Layer_1" />
<path
   id="path1"
   style="baseline-shift:baseline;display:inline;overflow:visible;opacity:1;stroke:#000000;stroke-width:5.54506;stroke-dasharray:none;stroke-opacity:1;enable-background:accumulate;stop-color:#000000;stop-opacity:1"
   d="m 29.484267,26.254729 c -3.563122,0 -6.5636,2.174007 -9.028145,4.92635 -2.464547,2.752343 -4.396149,6.306768 -4.396149,10.206794 v 74.001597 c 0,7.0265 5.619344,13.52658 13.424294,13.52658 h 72.971463 c 3.50395,0 6.95686,-1.4483 9.70225,-3.79244 2.74539,-2.34411 4.84157,-5.75125 4.84157,-9.73414 v -12.89096 l 23.72869,13.62136 V 41.45669 L 116.99955,54.708005 V 41.387873 c 0,-4.920103 -2.31053,-8.837939 -5.20662,-11.338832 -2.89608,-2.500893 -6.26787,-3.794312 -9.3372,-3.794312 z m 0,5.493463 h 72.971463 c 1.31055,0 3.83896,0.811073 5.74654,2.458327 1.90754,1.647255 3.30382,3.921854 3.30382,7.181354 l -3.1e-4,74.001597 c 0,2.03157 -1.10857,4.01357 -2.91472,5.55571 -1.8061,1.54216 -4.25119,2.47616 -6.13564,2.47616 H 29.484267 c -4.787137,0 -7.931138,-3.87436 -7.931138,-8.03187 V 41.387873 c 0,-1.919041 1.216817,-4.556355 2.995092,-6.542296 1.778284,-1.985939 4.117551,-3.097385 4.936046,-3.097385 z"
   sodipodi:nodetypes="ssssssssccccsssssssccsssssss" />
</svg>
